<?xml version="1.0" standalone="no"?>
<!DOCTYPE svg PUBLIC "-//W3C//DTD SVG 1.1//EN" "http://www.w3.org/Graphics/SVG/1.1/DTD/svg11.dtd" >
<svg xmlns="http://www.w3.org/2000/svg">
<metadata></metadata>
<defs>
<font id="roadgeek_2005_series_bregular" horiz-adv-x="645" >
<font-face units-per-em="2048" ascent="1638" descent="-410" />
<missing-glyph horiz-adv-x="268" />
<glyph horiz-adv-x="0" />
<glyph horiz-adv-x="682" />
<glyph horiz-adv-x="626" d="M66 1481h108q27 -158 137 -158q106 0 135 158h111q-35 -315 -250 -316q-217 0 -241 316z" />
<glyph horiz-adv-x="342" d="M68 1292q0 51 31.5 89t70.5 38q43 0 73.5 -38t30.5 -89q0 -49 -30.5 -88t-73.5 -39q-39 0 -70.5 38t-31.5 89z" />
<glyph horiz-adv-x="495" d="M68 1386q0 96 51 159t127 63q80 0 131 -63t51 -159t-51 -158.5t-131 -62.5q-76 0 -127 62.5t-51 158.5zM160 1386q0 -47 25.5 -78.5t60.5 -31.5q37 0 63.5 31.5t26.5 78.5t-26.5 78t-63.5 31q-35 0 -60.5 -30.5t-25.5 -78.5z" />
<glyph unicode="&#xa;" horiz-adv-x="798" d="M68 1165l153 316h207l-231 -316h-129zM371 1165l153 316h207l-231 -316h-129z" />
<glyph horiz-adv-x="456" d="M68 -225q0 123 135 225h80q-94 -115 -95 -197q0 -80 62 -79q41 0 104 47l35 -66q-96 -84 -176 -84q-145 0 -145 154z" />
<glyph horiz-adv-x="626" d="M68 1481h125l120 -174l125 174h121l-164 -316h-164z" />
<glyph unicode="&#xd;" horiz-adv-x="399" d="M111 0v1001h174v-1001h-174z" />
<glyph horiz-adv-x="1368" d="M0 0l1190 2060h178l-1190 -2060h-178z" />
<glyph horiz-adv-x="788" d="M43 842v159h68v222q0 76 36.5 125t98.5 49q25 0 53.5 -3t56.5 -22v-160q-6 12 -18 18.5t-24.5 1.5t-20.5 -21.5t-8 -49.5v-160h75v-159h-75v-842h-174v842h-68zM500 0v1001h174v-1001h-174zM500 1315q0 35 25.5 60.5t66.5 25.5q35 0 60.5 -25.5t25.5 -66.5 q0 -35 -25.5 -60.5t-66.5 -25.5q-35 0 -60.5 25.5t-25.5 66.5z" />
<glyph horiz-adv-x="784" d="M43 842v159h68v222q0 76 36.5 125t98.5 49q25 0 53.5 -3t56.5 -22v-160q-6 12 -18 18.5t-24.5 1.5t-20.5 -21.5t-8 -49.5v-160h75v-159h-75v-842h-174v842h-68zM500 0v1290l174 107v-1397h-174z" />
<glyph horiz-adv-x="716" d="M-42 627.5q1 17.5 17 29.5l480 371q16 12 32.5 9t25.5 -15t8 -29.5t-17 -29.5l-479 -371q-16 -12 -33 -9t-26 15t-8 29.5zM150 0v1372h174v-1212h350v-160h-524z" />
<glyph horiz-adv-x="458" d="M68 664.5q-2 17.5 14 31.5l305 283q14 14 31.5 12t28 -13t11.5 -28.5t-14 -31.5l-305 -283q-16 -14 -32.5 -12t-26.5 13t-12 28.5zM174 0v1290l174 107v-1397h-174z" />
<glyph horiz-adv-x="727" d="M68 0v193l399 1001h-367v178h559v-178l-399 -1001h399v-193h-591zM117 1852h125l120 -174l125 174h121l-164 -316h-164z" />
<glyph horiz-adv-x="577" d="M43 0v135l309 707h-284v159h471v-139l-297 -702h293v-160h-492zM45 1481h125l120 -174l125 174h121l-164 -316h-164z" />
<glyph unicode=" "  horiz-adv-x="268" />
<glyph unicode="&#x09;" horiz-adv-x="268" />
<glyph unicode="&#xa0;" horiz-adv-x="268" />
<glyph unicode="!" horiz-adv-x="477" d="M150 72q0 37 27.5 64.5t64.5 27.5q39 0 64.5 -27.5t25.5 -64.5q0 -41 -25.5 -65.5t-64.5 -24.5q-37 0 -64.5 24.5t-27.5 65.5zM150 948v424h178v-424l-35 -588h-105z" />
<glyph unicode="&#x22;" horiz-adv-x="841" d="M150 1372h192l-43 -549h-106zM500 1372h194l-45 -549h-104z" />
<glyph unicode="#" horiz-adv-x="1087" d="M111 442l14 150h174l18 188h-172l15 154h172l43 438h155l-45 -438h170l43 438h154l-43 -438h168l-14 -154h-172l-21 -188h174l-14 -150h-174l-47 -442h-150l43 442h-168l-49 -442h-154l48 442h-168zM449 592h167l25 188h-170z" />
<glyph unicode="$" horiz-adv-x="731" d="M68 342h182q0 -41 1 -59.5t9 -40.5q10 -41 41 -64.5t74 -23.5q51 0 80.5 36.5t29.5 102.5q0 92 -35.5 173t-111.5 175q-51 57 -84 95t-43 48q-111 141 -111 289q0 121 47.5 208t145.5 105v132h184v-127q78 -14 127 -96.5t60 -221.5h-179q-4 78 -26.5 112t-69.5 34 q-49 0 -76.5 -40t-27.5 -110q0 -47 20.5 -91t75.5 -97q55 -63 90 -104.5t57.5 -71t38 -55t31.5 -58.5q33 -66 49.5 -146.5t16.5 -152.5q0 -59 -16.5 -112.5t-43 -95.5t-60.5 -67.5t-67 -31.5v-164h-184v160q-98 10 -157.5 103t-67.5 257z" />
<glyph unicode="%" horiz-adv-x="1363" d="M80 965q0 199 57 309q61 121 180 121q236 0 236 -426q0 -195 -57 -307q-63 -121 -181 -121q-119 0 -180 118q-55 109 -55 306zM211 969q0 -279 106 -279q107 1 107 275q0 276 -107 276q-106 0 -106 -272zM313 0l588 1372h141l-589 -1372h-140zM811 401q0 199 57 310 q59 121 181 120q235 1 235 -425q0 -195 -59 -308q-61 -121 -181 -121q-117 0 -178 119q-55 109 -55 305zM944 406q0 -279 105 -279q104 0 104 274q0 276 -106 277q-102 0 -103 -272z" />
<glyph unicode="&#x26;" horiz-adv-x="1064" d="M68 375q0 150 92 270q25 37 55.5 68.5t91.5 85.5q-18 35 -29.5 56.5t-19.5 36.5t-14 27.5t-13 24.5q-23 41 -30.5 82t-7.5 82q0 63 20 115.5t57 91.5t88.5 60.5t112.5 21.5q59 0 109.5 -20.5t86 -59.5t55 -92.5t19.5 -116.5q0 -49 -10 -90t-32.5 -80t-62.5 -79t-97 -85 l202 -321q8 35 14.5 60.5t9.5 51t4 53t1 66.5h178q-2 -72 -6 -121t-14 -92t-28.5 -90t-47.5 -111l174 -270h-217l-68 115q-70 -76 -137 -108t-162 -32q-164 0 -264 107q-53 53 -81.5 131t-28.5 162zM260 385q0 -47 15.5 -88t42 -71.5t62.5 -48t77 -17.5q59 0 100 24.5 t88 85.5l-242 389q-76 -70 -109.5 -132t-33.5 -142zM367 1116q0 -18 3 -34.5t12 -39t25.5 -52t41.5 -75.5q66 61 90 103.5t24 89.5q0 53 -22.5 84t-69.5 31t-75.5 -30t-28.5 -77z" />
<glyph unicode="'" horiz-adv-x="385" d="M98 1372h187l-39 -641h-107z" />
<glyph unicode="(" horiz-adv-x="591" d="M111 688q0 178 49 346t186 338h178q-51 -70 -78.5 -114t-46.5 -78q-53 -98 -81.5 -228.5t-28.5 -267.5q0 -139 30.5 -264t90.5 -238q18 -41 44.5 -81t69.5 -101h-178q-129 160 -182 337t-53 351z" />
<glyph unicode=")" horiz-adv-x="591" d="M68 0q47 66 74.5 110t50.5 87q53 98 81.5 225t28.5 262q0 98 -12 184t-40 169t-73 165t-110 170h178q131 -156 183 -335t52 -353q0 -90 -10 -176t-36.5 -170t-73 -168t-115.5 -170h-178z" />
<glyph unicode="*" horiz-adv-x="933" d="M57 1034l54 174q-2 0 21.5 -6t58 -16t74.5 -24.5t73 -31.5q-6 31 -8 72t-2 80v90h178v-92q0 -39 -3 -80t-7 -70q27 12 66.5 25.5t74.5 24.5q41 12 86 24l51 -170l-229 -57q23 -20 49.5 -51t48.5 -60q27 -35 55 -71l-139 -107q-31 37 -57 72q-23 29 -46.5 61.5t-35.5 59.5 q-16 -27 -40 -60t-46 -61q-27 -35 -55 -72l-140 111q23 31 47 63q23 29 48.5 60.5t54.5 60.5q-31 6 -70 14.5t-74.5 16.5t-60.5 14t-27 6z" />
<glyph unicode="+" horiz-adv-x="856" d="M43 588v178h295v293h178v-293h297v-178h-297v-299h-178v299h-295z" />
<glyph unicode="," horiz-adv-x="423" d="M111 92q0 41 28.5 71t71.5 30q47 0 76.5 -32t29.5 -83q0 -66 -30.5 -129.5t-83.5 -108.5l-53 45q25 23 47 51.5t28 53.5h-14q-43 0 -71.5 27.5t-28.5 74.5z" />
<glyph unicode="-" horiz-adv-x="516" d="M43 553v178h428v-178h-428z" />
<glyph unicode="." horiz-adv-x="423" d="M111 92q0 43 28.5 72t71.5 29q45 0 73.5 -29t28.5 -72q0 -45 -28.5 -73.5t-73.5 -28.5q-43 0 -71.5 28.5t-28.5 73.5z" />
<glyph unicode="/" horiz-adv-x="559" d="M-10 -176l424 1724h155l-424 -1724h-155z" />
<glyph unicode="0" horiz-adv-x="851" d="M111 556v132q0 61 2 137t11 155t28.5 153.5t55.5 133t91 94.5t135 36q84 0 140.5 -36t91 -94.5t53 -133t26 -153.5t7.5 -156v-136q-2 -57 -3 -132t-8.5 -153.5t-25 -154.5t-52 -135.5t-90 -95t-139.5 -35.5q-86 0 -143.5 35.5t-93 95t-54 135.5t-25.5 154.5t-7 153.5z M289 615q0 -48 2 -106t10 -120.5t24.5 -113t42 -83t66.5 -32.5q39 0 63.5 31.5t39 83t21.5 113t9 119.5t1 107t-1 74t1 73t-1 106.5t-8 120t-20.5 112.5t-40 84t-64.5 35q-39 -2 -65.5 -35t-43 -84t-24.5 -112.5t-10 -120t-2 -106.5v-73v-73z" />
<glyph unicode="1" horiz-adv-x="499" d="M68 1180v106q53 10 87.5 29.5t69.5 56.5h127v-1372h-174v1180h-110z" />
<glyph unicode="2" horiz-adv-x="727" d="M68 0q2 127 16 230.5t48 198.5t89 189.5t139 204.5q70 94 95.5 149.5t25.5 106.5q0 68 -30.5 106t-83.5 38q-51 0 -84 -32t-37 -83h-178q8 127 89 208t210 81q63 0 117.5 -23.5t93 -65.5t60 -100.5t21.5 -128.5q0 -41 -6 -74.5t-22.5 -72.5t-45 -88t-75.5 -117 q-61 -98 -117.5 -199.5t-89.5 -181.5q-18 -41 -26.5 -79t-12.5 -89h371v-178h-567z" />
<glyph unicode="3" horiz-adv-x="698" d="M43 256h178q4 -45 34 -73.5t73 -28.5q70 0 97.5 54t27.5 177q0 82 -7.5 135t-23.5 84t-46 43t-73 12h-57v179h43q72 0 101.5 46t29.5 165q0 170 -107 170q-41 0 -64.5 -25t-27.5 -68h-178q8 127 81 199t189 72q285 0 285 -348q0 -90 -16.5 -158t-57.5 -139 q27 -27 42.5 -46.5t25.5 -41.5q23 -49 31 -118t8 -161q0 -102 -20.5 -184t-61.5 -133q-41 -47 -90 -70t-135 -23q-78 0 -135.5 37t-102.5 109q-43 63 -43 135z" />
<glyph unicode="4" horiz-adv-x="856" d="M68 342v182l417 848h189v-866h71v-164h-71v-342h-174v342h-432zM242 506h258v534z" />
<glyph unicode="5" horiz-adv-x="770" d="M111 39l92 154q35 -23 60.5 -31t53.5 -8q51 0 85 30.5t61 100.5q25 57 41 138t16 150q0 78 -30.5 125t-86.5 47q-29 0 -49 -14t-47 -43l-178 21l25 663h505v-178h-335l-7 -279q29 4 49.5 6.5t43.5 2.5q80 0 132 -30t93 -95q29 -47 46 -114.5t17 -139.5 q0 -98 -21.5 -196.5t-64.5 -184.5q-102 -188 -295 -189q-106 0 -206 64z" />
<glyph unicode="6" horiz-adv-x="741" d="M43 385q0 309 122 562t370 450l96 -150q-117 -94 -196 -198.5t-132 -239.5q80 25 144.5 -3t105.5 -93q35 -51 56.5 -135.5t21.5 -178.5q0 -123 -29 -216t-82 -140q-78 -68 -188 -68q-141 0 -215 105.5t-74 304.5zM221 399q0 -76 8.5 -126t30.5 -76q14 -16 34.5 -29.5 t43.5 -13.5q53 0 86 53q10 27 19.5 89t9.5 128q0 211 -115 211q-61 0 -89 -56.5t-28 -179.5z" />
<glyph unicode="7" horiz-adv-x="770" d="M68 1194v178h591v-178q-68 -139 -115.5 -270t-78.5 -272.5t-47.5 -300t-22.5 -351.5h-178q6 186 24.5 351t50.5 310.5t79 277.5t110 255h-413z" />
<glyph unicode="8" horiz-adv-x="727" d="M68 399q0 104 27.5 190.5t78.5 151.5q-45 51 -63.5 112.5t-18.5 152.5q0 178 73 284.5t195 106.5q129 0 202 -105.5t73 -285.5q0 -86 -18.5 -152t-63.5 -113q51 -66 78.5 -148.5t27.5 -193.5q0 -98 -22.5 -185t-63.5 -142q-37 -47 -88 -72t-118 -25q-92 0 -148.5 37 t-93.5 113q-25 53 -41 126t-16 148zM246 399q0 -117 30.5 -181t90.5 -64q53 0 83.5 64t30.5 181t-30.5 176.5t-83.5 59.5q-121 0 -121 -236zM270 997q0 -184 97 -184q90 0 90 184q0 109 -21.5 165.5t-68.5 56.5q-51 0 -74 -56.5t-23 -165.5z" />
<glyph unicode="9" horiz-adv-x="770" d="M111 125q117 98 195.5 200.5t131.5 237.5q-10 -4 -35 -4q-66 0 -123 27.5t-98 77.5q-33 45 -52 130t-19 179q0 123 27.5 216t78.5 140q41 33 87 50.5t106 17.5q141 0 214.5 -105.5t73.5 -304.5q0 -612 -491 -1012zM289 952q0 -111 28.5 -163t85.5 -52q61 0 89 56.5 t28 179.5q0 164 -39 203q-29 43 -78 43q-59 0 -86.5 -63.5t-27.5 -203.5z" />
<glyph unicode=":" horiz-adv-x="342" d="M68 78q0 43 29.5 71.5t70.5 28.5q43 0 72.5 -28.5t29.5 -71.5q0 -41 -29.5 -72t-72.5 -31q-41 0 -70.5 31t-29.5 72zM68 457q0 45 29.5 73.5t70.5 28.5q43 0 72.5 -28.5t29.5 -73.5q0 -43 -29.5 -72t-72.5 -29q-41 0 -70.5 29t-29.5 72z" />
<glyph unicode=";" horiz-adv-x="423" d="M102 457q0 45 30 73.5t71 28.5q43 0 72.5 -28.5t29.5 -73.5q0 -43 -29.5 -72t-72.5 -29q-41 0 -71 29t-30 72zM111 92q0 41 28.5 71t71.5 30q47 0 76.5 -32t29.5 -83q0 -66 -30.5 -129.5t-83.5 -108.5l-53 45q25 23 47 51.5t28 53.5h-14q-43 0 -71.5 27.5t-28.5 74.5z " />
<glyph unicode="&#x3c;" horiz-adv-x="516" d="M57 588v172l387 411v-233l-251 -262l251 -262v-238z" />
<glyph unicode="=" horiz-adv-x="856" d="M43 403v179h770v-179h-770zM43 766v178h770v-178h-770z" />
<glyph unicode="&#x3e;" horiz-adv-x="516" d="M74 176v236l250 260l-250 264v235l385 -411v-172z" />
<glyph unicode="?" horiz-adv-x="851" d="M68 983q0 92 20.5 169t65.5 132t115.5 86t168.5 31q156 0 249 -98.5t97 -258.5q0 -78 -21.5 -134t-53 -102t-69.5 -88t-70.5 -90t-56.5 -110.5t-28 -148.5h-157q0 94 20.5 161.5t51 120t65.5 94t65.5 84.5t51 92.5t20.5 116.5q0 84 -45 133.5t-123 49.5q-96 0 -142 -61.5 t-46 -178.5h-178zM324 72q0 41 27.5 66.5t62.5 25.5q41 0 66.5 -25.5t25.5 -66.5t-25.5 -65.5t-66.5 -24.5q-35 0 -62.5 24.5t-27.5 65.5z" />
<glyph unicode="@" horiz-adv-x="1597" d="M111 674q0 152 56 285t152.5 231t227.5 154.5t280 56.5q143 0 265 -45t209.5 -126t136.5 -193.5t49 -245.5q0 -96 -27.5 -183.5t-74 -154t-106.5 -106.5t-128 -40q-61 0 -105.5 34t-54.5 87q-43 -66 -110.5 -100.5t-143.5 -34.5q-63 0 -117.5 24.5t-93.5 68.5 t-61.5 104.5t-22.5 130.5q0 86 30 160.5t80 131t115.5 89t137.5 32.5q147 0 211 -114l18 96h160l-78 -410q-6 -29 -10 -52.5t-4 -33.5q0 -78 59 -78q33 0 66 30t59.5 78t44 108.5t17.5 121.5q0 106 -37 194.5t-103.5 151t-160 97t-205.5 34.5q-121 0 -225.5 -45 t-181.5 -123.5t-121 -185t-44 -229.5q0 -113 41 -219.5t117 -184.5q78 -78 177.5 -116.5t236.5 -38.5q223 0 395 73l39 -145q-92 -35 -201.5 -53.5t-226.5 -18.5q-330 0 -520 189q-102 98 -159.5 233t-57.5 281zM627 627q0 -78 42 -124t111 -46q37 0 72 20.5t60.5 54 t41 77.5t15.5 93q0 72 -40 116t-102 44q-41 0 -77.5 -18.5t-64.5 -51t-43 -74.5t-15 -91z" />
<glyph unicode="A" horiz-adv-x="823" d="M43 0l281 1372h176l284 -1372h-182l-78 367h-225l-78 -367h-178zM338 545h147l-71 360z" />
<glyph unicode="B" horiz-adv-x="808" d="M150 0v1372h249q90 0 151.5 -18.5t98.5 -61.5t52.5 -113.5t15.5 -172.5q0 -100 -15.5 -163t-52.5 -116q29 -37 42.5 -59.5t21.5 -61.5q14 -41 21 -103t7 -128q0 -186 -67.5 -280.5t-196.5 -94.5h-327zM324 178h133q61 0 83.5 39t22.5 143q0 82 -5 135.5t-17.5 84t-34 43 t-53.5 12.5h-129v-457zM324 819h118q59 0 78 39t19 148q0 102 -25 145t-90 43h-100v-375z" />
<glyph unicode="C" horiz-adv-x="808" d="M111 684q0 47 2 102.5t7 111.5t11 107.5t14 92.5q27 158 93.5 225.5t189.5 67.5q117 0 188.5 -69t81.5 -196h-178q-4 43 -27.5 64.5t-58.5 21.5q-47 0 -73.5 -32.5t-43.5 -100.5q-10 -41 -15 -83t-8 -88t-4 -101t-1 -123q0 -72 1 -126t4 -98t8 -84t15 -83 q16 -68 42 -103.5t69 -35.5q47 0 69.5 38.5t22.5 131.5h178q0 -41 -1 -68t-3 -46.5t-6 -35.5t-10 -35q-16 -76 -82 -120t-158 -44q-104 0 -170.5 44t-99.5 141q-29 86 -43 222t-14 302z" />
<glyph unicode="D" horiz-adv-x="847" d="M150 0v1372h284q143 0 207 -100q25 -41 44.5 -103.5t27.5 -128.5q14 -84 21 -174t7 -178q0 -479 -125 -620q-29 -33 -76.5 -50.5t-105.5 -17.5h-284zM324 178h110q47 0 74 34t41 112q2 18 4 53t4 80t4 94t2 94q0 37 -2 83t-4 94t-4 93.5t-4 81.5q-10 113 -36 155t-79 42 h-110v-1016z" />
<glyph unicode="E" horiz-adv-x="741" d="M150 0v1372h505v-178h-331v-352h221v-183h-221v-481h350v-178h-524z" />
<glyph unicode="F" horiz-adv-x="716" d="M150 0v1372h524v-178h-350v-352h200v-183h-200v-659h-174z" />
<glyph unicode="G" horiz-adv-x="808" d="M111 688q0 102 3 179t10 137.5t19.5 109.5t30.5 98q33 96 95.5 137.5t164.5 41.5q117 0 182.5 -69t81.5 -196h-174q-12 86 -86 86q-100 0 -121 -133q-6 -41 -12 -81t-9 -85t-5 -100t-2 -125q0 -72 2 -125t5 -99t7 -87t10 -84q14 -68 41 -103.5t74 -35.5t71.5 39.5 t24.5 109.5v182h-82v179h256v-351q0 -47 -6 -96t-14 -82q-23 -72 -86.5 -116t-157.5 -44q-106 0 -169.5 43t-96.5 142q-16 47 -27.5 96t-17.5 110.5t-9 139.5t-3 182z" />
<glyph unicode="H" horiz-adv-x="890" d="M150 0v1372h174v-553h243v553h174v-1372h-174v641h-243v-641h-174z" />
<glyph unicode="I" horiz-adv-x="477" d="M150 0v1372h174v-1372h-174z" />
<glyph unicode="J" horiz-adv-x="804" d="M43 236l178 24q43 -106 139 -106q47 0 77 24.5t40 67.5q4 18 4 35.5v60.5v1030h174v-1059q0 -72 -14 -133t-47 -106t-89 -72t-138 -27q-121 0 -209 71t-115 190z" />
<glyph unicode="K" horiz-adv-x="833" d="M150 0v1372h174v-438l215 438h202l-225 -471l244 -901h-187l-184 649l-65 -133v-516h-174z" />
<glyph unicode="L" horiz-adv-x="716" d="M150 0v1372h174v-1212h350v-160h-524z" />
<glyph unicode="M" horiz-adv-x="976" d="M150 0v1372h174l168 -485l163 485h172v-1372h-172v813l-163 -514l-168 514v-813h-174z" />
<glyph unicode="N" horiz-adv-x="890" d="M150 0v1372h174l243 -684v684h174v-1372h-149l-268 813v-813h-174z" />
<glyph unicode="O" horiz-adv-x="851" d="M111 557v131v134t7 153t25.5 152.5t53 133t91 94.5t140.5 36t140.5 -36t92 -95.5t53 -134t24.5 -152.5t7 -153v-132v-130t-7 -154.5t-24.5 -156.5t-53 -137.5t-92 -97.5t-140.5 -37q-86 0 -142.5 37t-92 97.5t-53 137.5t-23.5 156.5t-6 153.5zM288 617v-25q0 -38 2 -82 q3 -59 10 -122.5t22.5 -115t41 -85t64.5 -33.5t63.5 33.5t40 85t21.5 115t9 122.5q2 44 2 82v25q-1 48 -1 71q0 29 -1 78t-5 107.5t-12 119t-23.5 109.5t-38 79.5t-55.5 30.5q-39 0 -64.5 -31.5t-41 -81.5t-22.5 -111.5t-10 -119.5q-2 -44 -2 -82v-25q1 -48 1 -73 q0 -23 -1 -71z" />
<glyph unicode="P" horiz-adv-x="780" d="M150 0v1372h270q57 0 107.5 -14.5t84.5 -42.5q57 -47 93 -138t36 -204q0 -172 -88 -273.5t-233 -101.5h-96v-598h-174zM324 774h96q78 0 110.5 44t32.5 155q0 117 -35.5 169t-107.5 52h-96v-420z" />
<glyph unicode="Q" horiz-adv-x="851" d="M115 688q0 55 1 129t9 152t26.5 153.5t53.5 135t89 96.5t134 37t134 -36t89 -95.5t53.5 -135t26.5 -153.5t9 -152t1 -131q0 -61 -4 -150t-16 -178.5t-32.5 -165t-53.5 -108.5l74 -104l-111 -74l-59 92q-33 -10 -58.5 -14t-52.5 -4q-104 0 -168.5 53t-99.5 176 q-12 37 -20.5 90t-13.5 117.5t-8 133.5t-3 136zM288 502q1 -60 8 -122.5t23.5 -113.5t44.5 -82q25 -30 65 -30h5l-63 92l110 71l43 -61q8 23 12.5 42t8.5 54q2 29 6 72t6 91t4 93t2 80v73t-4 106.5t-11 120t-22.5 111.5t-39 81.5t-58.5 31.5q-37 0 -62.5 -31.5t-41 -81.5 t-22.5 -110.5t-10 -119t-3 -107.5v-74t-1 -75v-52.5v-58.5z" />
<glyph unicode="R" horiz-adv-x="808" d="M150 0v1372h270q321 0 321 -385q0 -117 -33.5 -186.5t-109.5 -116.5l139 -684h-178l-156 641h-79v-641h-174zM324 819h114q72 0 98.5 37t26.5 135q0 117 -31.5 160t-121.5 43h-86v-375z" />
<glyph unicode="S" horiz-adv-x="727" d="M68 342h178q0 -41 3 -59.5t11 -40.5q10 -41 40 -64.5t71 -23.5q51 0 80.5 36.5t29.5 102.5q0 92 -34.5 173t-114.5 175q-47 53 -79 91t-42 52q-111 135 -111 285q0 70 20.5 129t58.5 102t89 67t113 24q252 0 278 -322h-178q-4 80 -26.5 115t-69.5 35q-51 0 -78.5 -40 t-27.5 -110q0 -47 21.5 -88t74.5 -100q55 -63 90 -104.5t58.5 -71t37.5 -55t31 -58.5q29 -66 48 -146.5t19 -152.5t-29.5 -141.5t-80.5 -112.5q-33 -29 -79 -46.5t-99 -17.5q-287 0 -303 367z" />
<glyph unicode="T" horiz-adv-x="606" d="M43 1194v178h520v-178h-178v-1194h-174v1194h-168z" />
<glyph unicode="U" horiz-adv-x="890" d="M150 338v1034h174v-1059q0 -78 31.5 -118.5t93.5 -40.5q57 0 87.5 41t30.5 118v1059h174v-1034q0 -72 -10 -124t-33 -93q-41 -78 -100 -112t-149 -34q-106 0 -173 47.5t-102 141.5q-10 33 -17 72.5t-7 101.5z" />
<glyph unicode="V" horiz-adv-x="727" d="M43 1372h178l146 -780l139 780h178l-246 -1372h-149z" />
<glyph unicode="W" horiz-adv-x="958" d="M43 1372h178l72 -635l110 635h150l111 -635l73 635h178l-159 -1372h-150l-129 770l-125 -770h-149z" />
<glyph unicode="X" horiz-adv-x="780" d="M68 0l231 702l-221 670h192l119 -381l127 381h186l-221 -670l232 -702h-189l-135 414l-133 -414h-188z" />
<glyph unicode="Y" horiz-adv-x="823" d="M43 1372h188l183 -481l178 481h188l-280 -751v-621h-176v621z" />
<glyph unicode="Z" horiz-adv-x="727" d="M68 0v193l399 1001h-367v178h559v-178l-399 -1001h399v-193h-591z" />
<glyph unicode="[" horiz-adv-x="518" d="M121 -197v1569h315v-160h-168v-1247h168v-162h-315z" />
<glyph unicode="\" horiz-adv-x="559" d="M-10 1548h155l424 -1724h-155z" />
<glyph unicode="]" horiz-adv-x="518" d="M82 -41h168v1258h-168v155h317v-1569h-317v156z" />
<glyph unicode="^" horiz-adv-x="708" d="M49 750l242 622h127l241 -622h-170l-135 395l-139 -395h-166z" />
<glyph unicode="_" horiz-adv-x="559" d="M0 -160h559v-174h-559v174z" />
<glyph unicode="`" horiz-adv-x="638" d="M113 1481h215l145 -316h-129z" />
<glyph unicode="a" d="M43 338q0 72 21.5 143.5t63.5 121.5q42 49 104 69q23 7 49 8q43 0 94 -21v72q0 59 -16.5 83t-59.5 24q-29 0 -54.5 -15.5t-47 -37t-39 -47t-29.5 -44.5l-43 215q51 59 100.5 88t106.5 29q80 0 130 -32.5t77.5 -84t38 -115t10.5 -124.5v-670h-160v29q-35 -43 -115 -43 q-51 0 -93 26.5t-72.5 73.5t-48 111.5t-17.5 140.5zM217 332q0 -94 18.5 -138t71.5 -44q41 0 54.5 22.5t13.5 69.5v215q-4 8 -13 16q-8 6 -23 12.5t-40 6.5q-33 0 -57.5 -34t-24.5 -126z" />
<glyph unicode="b" horiz-adv-x="684" d="M111 0v1290l174 107v-400q58 27 103 27q17 0 33 -4q56 -14 93 -57t57.5 -107.5t30.5 -131.5t12 -125t2 -89q0 -106 -11 -203.5t-37.5 -171.5t-70.5 -117t-112 -43q-35 0 -59.5 15.5t-46.5 48.5v-39h-168zM285 324q0 -20 1 -48t8 -52.5t21.5 -42t40.5 -17.5q59 0 72.5 88 t13.5 258q0 96 -4 159.5t-13 102.5t-26.5 54.5t-42.5 15.5t-39 -12.5t-21 -32t-9 -41t-2 -39.5v-393z" />
<glyph unicode="c" horiz-adv-x="577" d="M68 481q0 104 7 202.5t33.5 174.5t78 122t137.5 46q100 0 153 -71.5t76 -188.5l-158 -78q-4 61 -20.5 105.5t-50.5 44.5q-39 0 -56.5 -45t-23.5 -105q-4 -45 -4 -90v-30q2 -58 2 -83v-79t8 -114.5t25.5 -102.5t52.5 -44q29 4 44 51.5t23 106.5l158 -57 q-25 -115 -77 -189.5t-152 -74.5q-78 0 -128.5 42t-79 111.5t-38.5 159.5t-10 186z" />
<glyph unicode="d" horiz-adv-x="684" d="M68 510q0 31 2 89t12 125t30.5 131.5t57.5 107.5t93 56q15 4 32 4q46 0 104 -26v293l174 107v-1397h-170v39q-23 -33 -46 -48.5t-58 -15.5q-68 0 -112 43t-70.5 117t-37.5 171t-11 204zM246 510q0 -170 12 -258t74 -88q25 0 39 17.5t20 42t7 52t1 48.5v393q0 18 -2 39.5 t-8 41t-19.5 32t-37.5 12.5q-27 0 -44.5 -15.5t-26.5 -54.5t-12 -102.5t-3 -159.5z" />
<glyph unicode="e" horiz-adv-x="606" d="M68 496q0 119 12 217t41 167.5t79 107.5t124 38q61 0 104 -34t69.5 -87t41 -121.5t20.5 -138.5q5 -60 5 -116v-19q-1 -64 -1 -111h-327q2 -72 8 -119t16 -73.5t26.5 -36.5t41.5 -10q29 0 51 26.5t45 102.5l111 -160q-27 -68 -74 -107.5t-109 -39.5q-84 0 -139 35.5 t-87 103t-45 163t-13 212.5zM236 578h167q0 152 -21.5 206t-64.5 54t-62 -56.5t-19 -203.5z" />
<glyph unicode="f" horiz-adv-x="389" d="M43 842v159h68v222q0 76 36.5 125t98.5 49q25 0 53.5 -3t56.5 -22v-160q-6 12 -18 18.5t-24.5 1.5t-20.5 -21.5t-8 -49.5v-160h75v-159h-75v-842h-174v842h-68z" />
<glyph unicode="g" horiz-adv-x="673" d="M68 485q0 104 10 201.5t37.5 172.5t78 120t130.5 47q23 0 42 -11t54 -38v29h147v-1020q0 -72 -4 -123t-13 -91t-24.5 -73t-40.5 -66q-35 -51 -71.5 -78.5t-96.5 -50.5l-61 164q61 29 100 74t39 113v170q-16 -23 -34.5 -36.5t-32.5 -13.5q-82 0 -132.5 48.5t-79 124 t-38.5 164.5t-10 173zM236 485q0 -90 6 -152.5t22 -115.5q23 -67 67 -67h1q33 4 50 60t17 122v385q0 16 -3 36.5t-10 39t-21.5 32t-36.5 13.5q-53 0 -72.5 -96.5t-19.5 -256.5z" />
<glyph unicode="h" horiz-adv-x="694" d="M111 0v1286l174 111v-410q33 35 86 41q8 1 17 1q44 -1 87 -27q51 -32 87 -106.5t36 -201.5v-694h-174v688q0 78 -12.5 119t-59.5 41q-25 0 -38 -14.5t-19 -37t-8 -51t-2 -57.5v-688h-174z" />
<glyph unicode="i" horiz-adv-x="399" d="M111 0v1001h174v-1001h-174zM111 1315q0 35 25.5 60.5t66.5 25.5q35 0 60.5 -25.5t25.5 -66.5q0 -35 -25.5 -60.5t-66.5 -25.5q-35 0 -60.5 25.5t-25.5 66.5z" />
<glyph unicode="j" horiz-adv-x="428" d="M0 -328q37 8 60.5 23.5t39.5 48.5q18 29 31.5 76t13.5 94v1112h179v-1059q0 -160 -41 -260t-129 -160q-41 -25 -72 -34t-82 -9v168zM139 1305q0 37 28 61.5t64 24.5q35 0 60.5 -28t25.5 -63q0 -37 -25.5 -62.5t-60.5 -25.5q-37 0 -64.5 26t-27.5 67z" />
<glyph unicode="k" horiz-adv-x="694" d="M111 0v1290l174 107v-727l172 331h178l-154 -307l183 -694h-179l-129 520l-71 -139v-381h-174z" />
<glyph unicode="l" horiz-adv-x="395" d="M111 0v1290l174 107v-1397h-174z" />
<glyph unicode="m" horiz-adv-x="1011" d="M111 0v1001h174v-53q14 41 45.5 59.5t64.5 18.5q41 0 67.5 -5t45 -16.5t31 -30t24.5 -44.5q23 53 63 74.5t87 21.5q66 0 105.5 -28.5t61 -74.5t28.5 -102.5t7 -111.5v-709h-178v702q0 70 -11 108t-52 38q-20 0 -33.5 -4t-22 -19.5t-12.5 -44t-4 -78.5v-702h-178 q0 152 -1 263.5t-1 189v126v76.5q0 66 2 47q0 70 -12.5 105t-55.5 35t-57 -25.5t-14 -107.5v-709h-174z" />
<glyph unicode="n" horiz-adv-x="694" d="M111 0v1001h174v-43q20 35 45.5 49.5t48.5 18.5q14 3 27.5 3t27.5 -3q96 -10 130 -130t34 -386v-510h-174v688q0 78 -12.5 119t-59.5 41q-25 0 -38 -14.5t-19 -37t-8 -51t-2 -57.5v-688h-174z" />
<glyph unicode="o" d="M68 500q0 104 7 200.5t33.5 168t79 114.5t140.5 43q78 0 126 -41t74.5 -111.5t35.5 -166t9 -201.5q0 -96 -11 -190.5t-38.5 -168t-76 -119.5t-119.5 -46q-78 0 -128 45t-80 118.5t-41 165.5t-11 189zM244 586q2 -56 2 -80q0 -25 1 -81t8 -115.5t23.5 -104.5t49.5 -45 q29 2 43 46t20 102.5t7 115.5t1 82t2 81q1 16 1 32q0 41 -4 81q-5 56 -20.5 99t-49.5 43q-41 0 -58.5 -43t-22.5 -99q-4 -40 -4 -81q0 -17 1 -33z" />
<glyph unicode="p" horiz-adv-x="684" d="M111 -389v1390h168v-38q43 63 106 63q82 0 129 -45t69.5 -120t27.5 -173.5t5 -202.5v-84t-6 -108t-18 -114.5t-38 -103.5t-65.5 -75t-99.5 -29q-25 0 -52.5 10.5t-51.5 43.5v-295zM285 285q0 -18 2 -40t9 -41.5t21.5 -31.5t38.5 -12q25 0 42.5 14t26.5 51t13 99.5 t4 160.5q0 170 -14 263.5t-72 93.5q-27 0 -41 -13.5t-21 -34t-8 -44t-1 -41.5v-424z" />
<glyph unicode="q" horiz-adv-x="684" d="M68 401.5v83.5q0 104 5 202.5t27.5 173.5t68.5 120t130 45q61 0 104 -63v38h170v-1271l-174 -115v410q-25 -33 -51 -43.5t-55 -10.5q-59 0 -98 29t-65 75t-38 103.5t-18 114.5t-6 108.5zM246 485q0 -98 3 -160.5t12 -99.5t26.5 -51t44.5 -14q25 0 38 12t19 31.5t8 41 t2 40.5v424q0 18 -1 41.5t-7 44t-20.5 34t-38.5 13.5q-61 0 -73.5 -92.5t-12.5 -264.5z" />
<glyph unicode="r" horiz-adv-x="495" d="M111 0v1001h174v-49q23 37 40 55.5t50 18.5q35 0 58.5 -19.5t37.5 -48.5l-18 -178q-18 25 -34 41.5t-38 16.5q-51 0 -73.5 -51.5t-22.5 -145.5v-641h-174z" />
<glyph unicode="s" horiz-adv-x="509" d="M43 86l49 203q35 -80 69 -112t70 -32q47 0 66.5 32t19.5 93q0 14 -6 39t-19 53.5t-37 60.5t-58 58q-37 31 -66 60.5t-48.5 63.5t-29.5 75t-10 94q0 100 49 170q29 41 63.5 61.5t100.5 20.5q96 0 197 -121l-54 -182q-47 82 -74.5 112.5t-60.5 30.5q-25 0 -39 -26.5 t-14 -59.5q0 -41 31 -92q2 -6 8 -13t18.5 -20.5t34 -36t57.5 -59.5q61 -66 93 -138.5t32 -156.5q0 -51 -13 -101t-38 -85q-37 -47 -88 -71.5t-104 -24.5q-59 0 -107.5 19t-91.5 85z" />
<glyph unicode="t" horiz-adv-x="409" d="M0 842v159h106v289l179 107v-396h118v-153h-118v-606q0 -37 15 -59.5t42 -22.5q23 0 36 13t32 38l-21 -162q-47 -63 -100 -63q-41 0 -74 19.5t-57.5 54t-38 80.5t-13.5 102v600h-106z" />
<glyph unicode="u" horiz-adv-x="694" d="M96 492v509h174v-688q0 -78 12.5 -118.5t59.5 -40.5q25 0 39 14t20.5 36.5t7.5 51.5t1 57v688h172v-1001h-172v43q-20 -35 -45 -49t-48 -19q-14 -3 -27 -3t-26 3q-51 6 -84 37t-51 93.5t-25.5 157.5t-7.5 229z" />
<glyph unicode="v" d="M25 1001h178l114 -684l132 684h172l-211 -1001h-179z" />
<glyph unicode="w" horiz-adv-x="819" d="M29 1001h145l76 -620l82 620h149l86 -626l82 626h142l-160 -1001h-131l-90 567l-103 -567h-125z" />
<glyph unicode="x" horiz-adv-x="630" d="M0 0l231 567l-188 434h154l116 -260l101 260h159l-188 -434l246 -567h-164l-154 356l-153 -356h-160z" />
<glyph unicode="y" horiz-adv-x="684" d="M29 1006h153l170 -654l144 654h163l-307 -1387h-155l77 381z" />
<glyph unicode="z" horiz-adv-x="577" d="M43 0v135l309 707h-284v159h471v-139l-297 -702h293v-160h-492z" />
<glyph unicode="{" horiz-adv-x="550" d="M49 506v164h43q78 0 78 176v135q0 217 66 309q74 104 258 105v-138q-104 -14 -140 -75q-29 -51 -28 -181v-108q0 -139 -28 -207t-99 -98q72 -31 99.5 -98.5t27.5 -206.5v-107q0 -129 28 -180q35 -61 140 -74v-137q-184 0 -258 102q-66 92 -66 312v133q0 174 -78 174h-43z " />
<glyph unicode="|" horiz-adv-x="391" d="M125 -362v1931h143v-1931h-143z" />
<glyph unicode="}" horiz-adv-x="550" d="M57 -78q102 12 138 74q31 51 30 180v109q0 139 28 206.5t101 98.5q-74 31 -101.5 98.5t-27.5 206.5v106q0 129 -30 181q-35 61 -138 75v138q184 0 260 -105q63 -92 64 -309v-135q0 -174 80 -174h41v-164h-41q-80 0 -80 -174v-135q0 -219 -64 -312q-76 -102 -260 -102v137 z" />
<glyph unicode="~" horiz-adv-x="897" d="M68 623q88 276 243 276q76 0 154 -65q92 -80 131 -80q37 0 60.5 30.5t58.5 118.5l114 -72q-88 -276 -243 -276q-74 0 -154 66q-92 80 -131 79q-37 0 -60.5 -30.5t-58.5 -118.5z" />
<glyph unicode="&#xa1;" horiz-adv-x="477" d="M147 1280q0 41 26 65.5t65 24.5q37 0 64.5 -24.5t27.5 -65.5q0 -37 -28 -64.5t-64 -27.5q-39 0 -65 27.5t-26 64.5zM152 -20v423l34 588h105l39 -588v-423h-178z" />
<glyph unicode="&#xa2;" horiz-adv-x="823" d="M111 694q0 45 3 97.5t9 104.5t13 98t18 79q29 92 80 133t112 51v134h184v-134q66 -8 119 -64t64 -149h-183q-10 78 -88 78q-61 0 -92 -51t-44 -120.5t-13 -142.5v-114q0 -229 31.5 -326.5t109.5 -97.5q49 0 72.5 30t23.5 99h183q-2 -51 -13.5 -97t-35 -83t-56.5 -60.5 t-78 -29.5v-129h-184v129q-43 8 -82 30.5t-67 65.5q-39 59 -62.5 184.5t-23.5 284.5z" />
<glyph unicode="&#xa3;" horiz-adv-x="747" d="M94 0v201q74 96 102.5 172t32.5 182h-135v170h117q-16 59 -33 98q-43 109 -43 224q0 162 77 255t214 93q90 0 156 -37q61 -31 131 -111l-99 -143q-53 57 -86 74q-43 25 -106 24q-59 0 -93 -43t-34 -115q0 -86 39 -194q29 -80 37 -125h180v-170h-172q-8 -190 -115 -381 h424v-174h-594z" />
<glyph unicode="&#xa4;" horiz-adv-x="546" d="M37 330l65 125q-33 100 -32 219q-1 117 32 217l-65 127l53 110l68 -129q51 68 114 68t113 -68l68 129l55 -110l-68 -127q35 -100 35 -217q0 -119 -35 -219l68 -125l-55 -113l-68 129q-49 -66 -113 -65q-63 0 -114 65l-68 -129zM145 674q0 -100 37 -171t88 -71 q53 0 89 70.5t36 171.5q0 100 -35.5 169.5t-89.5 69.5q-51 0 -88 -69.5t-37 -169.5z" />
<glyph unicode="&#xa5;" horiz-adv-x="739" d="M35 1372h176l82 -287q61 -215 82 -305q18 92 80 307l80 285h170l-256 -788v-172h163v-174h-163v-238h-150v238h-164v174h164v166z" />
<glyph unicode="&#xa6;" horiz-adv-x="256" d="M88 336h78v-735h-78v735zM88 649v733h78v-733h-78z" />
<glyph unicode="&#xa7;" horiz-adv-x="546" d="M39 598q0 88 28.5 159.5t77.5 102.5q-31 63 -45 115.5t-14 114.5q0 121 47 206.5t127 85.5q88 0 139.5 -81.5t61.5 -237.5l-88 -19q-12 113 -37 158t-68 45q-45 0 -71.5 -46t-26.5 -103q0 -47 16 -88q27 -63 148 -203q76 -90 102 -133q33 -55 49.5 -114.5t16.5 -129.5 q0 -104 -35 -178q-20 -43 -74 -88q37 -55 56.5 -121t19.5 -137q0 -82 -24.5 -156t-68.5 -111.5t-97 -37.5q-92 0 -145.5 87.5t-63.5 245.5l86 25q14 -121 42.5 -170t80.5 -49q49 0 76.5 49t27.5 115q0 45 -18 86q-29 70 -164 227q-72 86 -98.5 133t-45 112.5t-18.5 135.5z M119 614q0 -57 20 -108q20 -53 101 -144q63 -72 108 -135q37 35 54.5 81t17.5 91q0 53 -25 113q-25 59 -108 156q-66 78 -99 129q-39 -43 -54 -86t-15 -97z" />
<glyph unicode="&#xa8;" horiz-adv-x="638" d="M78 1288q0 51 30.5 87t69.5 36q41 0 71 -37t30 -86t-30 -86t-71 -37q-39 0 -69.5 37t-30.5 86zM360 1288q0 51 31 87t70 36q41 0 70.5 -37t29.5 -86t-29.5 -86t-70.5 -37q-39 0 -70 37t-31 86z" />
<glyph unicode="&#xa9;" horiz-adv-x="1030" d="M72 686q0 319 123.5 514t320.5 195q195 0 318.5 -195t123.5 -514t-123.5 -514t-318.5 -195q-197 0 -320.5 195t-123.5 514zM166 688q0 -270 95 -436t257 -166t255 164t93 434q0 272 -95 437t-255 165q-162 0 -256 -164t-94 -434zM330 690q0 180 45 285q49 115 143 115 q137 0 166 -191l-94 -27q-16 102 -74 103q-90 0 -90 -283q0 -287 96 -286q53 0 76 118l86 -35q-35 -199 -168 -198q-186 0 -186 399z" />
<glyph unicode="&#xaa;" horiz-adv-x="362" d="M23 895q0 45 8 79t23.5 59.5t35.5 39.5q20 10 49 21l72 20q35 12 45 19q0 66 -6 88t-23.5 38.5t-46.5 16.5q-37 0 -55.5 -31t-22.5 -86l-65 31q4 84 41 138t104 54q78 0 113 -55q31 -57 31 -168v-223v-57q0 -123 18 -170h-70q-10 37 -10 84q-59 -100 -125 -101 q-53 0 -84.5 57.5t-31.5 145.5zM92 895q0 -39 17.5 -64.5t46.5 -25.5q35 0 61.5 34.5t34.5 88.5q4 20 4 96q-25 -12 -92 -33q-43 -12 -55 -37q-16 -25 -17 -59z" />
<glyph unicode="&#xab;" horiz-adv-x="546" d="M66 489l151 424h72l-127 -424l127 -421h-72zM252 489l151 424h72l-127 -424l127 -421h-72z" />
<glyph unicode="&#xac;" horiz-adv-x="575" d="M55 801v155h465v-563h-82v408h-383z" />
<glyph unicode="&#xad;" horiz-adv-x="876" d="M63 625v184h750v-184h-750z" />
<glyph unicode="&#xae;" horiz-adv-x="1030" d="M72 686q0 319 123.5 514t320.5 195q195 0 318.5 -195t123.5 -514t-123.5 -514t-318.5 -195q-197 0 -320.5 195t-123.5 514zM166 688q0 -270 95 -436t257 -166t255 164t93 434q0 272 -95 437t-255 165q-162 0 -256 -164t-94 -434zM356 315v772h179q78 0 124 -51 q54 -57 54 -168q0 -150 -99 -200l99 -353h-103l-94 332h-65v-332h-95zM451 756h77q88 -1 88 112q0 109 -84 109h-81v-221z" />
<glyph unicode="&#xaf;" horiz-adv-x="544" d="M-14 1454v119h571v-119h-571z" />
<glyph unicode="&#xb0;" horiz-adv-x="393" d="M61 1126q0 106 39 181t95 75q55 0 95 -74.5t40 -181.5q0 -106 -40 -182t-95 -76t-94.5 76t-39.5 182zM115 1126q0 -63 22.5 -109t57.5 -46q33 0 57 46t24 109q0 66 -24.5 111t-56.5 45q-35 0 -57.5 -45t-22.5 -111z" />
<glyph unicode="&#xb1;" horiz-adv-x="540" d="M37 0v156h465v-156h-465zM37 614v154h192v373h82v-373h191v-154h-191v-372h-82v372h-192z" />
<glyph unicode="&#xb2;" horiz-adv-x="327" d="M12 680q2 53 23 106q31 78 99.5 176.5t80.5 124.5q18 37 18 78q0 45 -16 74t-47 29q-35 0 -49.5 -21.5t-26.5 -85.5l-71 17q14 102 48.5 150t98.5 48q72 0 105.5 -54t33.5 -134q0 -78 -28 -146q-20 -53 -99 -159q-41 -57 -55 -90h184v-113h-299z" />
<glyph unicode="&#xb3;" horiz-adv-x="327" d="M16 862l70 12q8 -55 27 -73q18 -29 47 -29q35 0 55.5 37t20.5 86q0 47 -17.5 74.5t-60.5 27.5q-6 0 -15 -2h-12l12 101q39 0 56.5 27.5t17.5 68.5q0 35 -14.5 58.5t-42.5 23.5q-27 0 -41.5 -20.5t-26.5 -73.5l-67 20q20 98 49.5 137t85.5 39q72 0 103.5 -49t31.5 -123 q0 -51 -17.5 -92t-50.5 -55q43 -23 63.5 -70t20.5 -110q0 -84 -39 -148.5t-108 -64.5q-68 0 -103 52t-45 146z" />
<glyph unicode="&#xb4;" horiz-adv-x="638" d="M166 1165l145 316h215l-231 -316h-129z" />
<glyph unicode="&#xb5;" horiz-adv-x="565" d="M78 -379v1364h84v-418q0 -225 12 -293.5t41 -107.5t66 -39q39 0 69.5 41t41.5 106.5t11 288.5v422h86v-985h-77v119q-27 -76 -52 -105q-31 -37 -75 -37q-41 0 -72 31q-23 23 -51 90v-477h-84z" />
<glyph unicode="&#xb6;" horiz-adv-x="528" d="M0 969q0 178 58.5 284.5t168.5 106.5h305v-160h-69v-1579h-80v1579h-109v-1579h-79v973q-88 6 -141.5 110.5t-53.5 264.5z" />
<glyph unicode="&#xb7;" horiz-adv-x="233" d="M68 592v190h98v-190h-98z" />
<glyph unicode="&#xb8;" horiz-adv-x="638" d="M164 -322l31 64q51 -35 116 -35q78 0 78 72q0 63 -41 63q-31 0 -59 -22l-51 24l30 179h76l-18 -117q25 18 65 18q105 0 105 -139q0 -164 -172 -164q-82 0 -160 57z" />
<glyph unicode="&#xb9;" horiz-adv-x="327" d="M51 1090v114q31 18 67 67.5t58 104.5h53v-696h-71v514q-47 -76 -107 -104z" />
<glyph unicode="&#xba;" horiz-adv-x="358" d="M23 1030q0 168 43.5 260t111.5 92q72 0 116 -92t44 -256q0 -162 -45 -255t-115 -93q-68 0 -111.5 91t-43.5 253zM92 1034q0 -117 24.5 -170t61.5 -53q39 0 63.5 53.5t24.5 175.5q0 113 -24.5 167.5t-63.5 54.5t-62.5 -53.5t-23.5 -174.5z" />
<glyph unicode="&#xbb;" horiz-adv-x="546" d="M68 68l127 421l-127 424h71l152 -424l-152 -421h-71zM254 913h72l153 -424l-153 -421h-70l125 421z" />
<glyph unicode="&#xbc;" horiz-adv-x="1441" d="M68 1157v133q29 0 64.5 24.5t57.5 57.5h91v-1255h-148v1040h-65zM94 -588l938 1960h154l-942 -1960h-150zM694 -180l432 846h140v-793h65v-168h-65v-293h-146v291l-426 2v115zM885 -127h235v463z" />
<glyph unicode="&#xbd;" horiz-adv-x="1507" d="M68 -588l940 1960h151l-942 -1960h-149zM68 1157v133q29 0 64.5 24.5t57.5 57.5h91v-1255h-148v1040h-65zM866 344q0 150 80 244t207 94q123 0 209 -111q78 -102 78 -227q0 -139 -62 -215q-84 -78 -127 -125q-104 -119 -161 -237q-33 -72 -50 -179h400v-176h-574 q4 57 8 111q16 137 58 258q57 168 158 287q113 109 147 143q55 57 55 133q0 53 -32 100q-41 61 -107 62q-84 0 -121 -80q-10 -27 -18 -82h-148z" />
<glyph unicode="&#xbe;" horiz-adv-x="1839" d="M150 434h147q6 -55 18 -84q35 -86 121 -86q63 0 96 41q43 55 43 189q0 121 -55 165q-18 12 -55 21h-78v176q55 -2 82 12q80 41 80 189q0 70 -31 104.5t-65 34.5q-61 0 -93 -59q-10 -18 -20 -62l-143 25q0 104 67.5 188t179.5 84q100 0 172 -74q80 -84 80 -225 q0 -143 -49 -239q-16 -33 -49 -70q43 -25 64 -53q61 -86 61 -246q0 -180 -92 -285q-82 -94 -195 -94q-178 0 -250 174q-25 57 -36 174zM492 -588l938 1960h151l-940 -1960h-149zM1092 -180l432 846h139v-793h66v-168h-66v-293h-145v293h-426v115zM1282 -127h236v463z" />
<glyph unicode="&#xbf;" horiz-adv-x="851" d="M68 336q0 78 21.5 134t53 102t69.5 88t70.5 90.5t56 111t28.5 148.5h157q0 -94 -20.5 -162t-51 -120t-65.5 -94t-65.5 -85t-51 -93t-20.5 -116q0 -84 45 -133t123 -49q96 0 142 61.5t46 177.5h178q0 -92 -20.5 -168.5t-65.5 -132t-115.5 -86t-168.5 -30.5q-156 0 -249 98 t-97 258zM346 1309q0 41 25.5 65.5t66.5 24.5q35 0 62.5 -24.5t27.5 -65.5t-27.5 -66.5t-62.5 -25.5q-41 0 -66.5 25.5t-25.5 66.5z" />
<glyph unicode="&#xc0;" horiz-adv-x="823" d="M43 0l281 1372h176l284 -1372h-182l-78 367h-225l-78 -367h-178zM232 1852h215l145 -316h-129zM338 545h147l-71 360z" />
<glyph unicode="&#xc1;" horiz-adv-x="823" d="M43 0l281 1372h176l284 -1372h-182l-78 367h-225l-78 -367h-178zM232 1536l145 316h215l-231 -316h-129zM338 545h147l-71 360z" />
<glyph unicode="&#xc2;" horiz-adv-x="823" d="M43 0l281 1372h176l284 -1372h-182l-78 367h-225l-78 -367h-178zM166 1536l164 316h163l164 -316h-125l-123 174l-122 -174h-121zM338 545h147l-71 360z" />
<glyph unicode="&#xc3;" horiz-adv-x="823" d="M43 0l281 1372h176l284 -1372h-182l-78 367h-225l-78 -367h-178zM145 1536q0 117 45 185q41 59 109 59q61 0 166 -78q31 -25 55 -24q43 0 53 96h105q0 -117 -42 -181.5t-108 -64.5q-63 0 -168 78q-33 23 -53 22q-49 0 -55 -92h-107zM338 545h147l-71 360z" />
<glyph unicode="&#xc4;" horiz-adv-x="823" d="M43 0l281 1372h176l284 -1372h-182l-78 367h-225l-78 -367h-178zM170 1659q0 51 30.5 87t69.5 36q41 0 71 -37t30 -86t-30 -86t-71 -37q-39 0 -69.5 37t-30.5 86zM338 545h147l-71 360zM452 1659q0 51 31 87t70 36q41 0 70.5 -37t29.5 -86t-29.5 -86t-70.5 -37 q-39 0 -70 37t-31 86z" />
<glyph unicode="&#xc5;" horiz-adv-x="823" d="M43 0l281 1372h176l284 -1372h-182l-78 367h-225l-78 -367h-178zM232 1757q0 96 51 159t127 63q80 0 131 -63t51 -159t-51 -158.5t-131 -62.5q-76 0 -127 62.5t-51 158.5zM324 1757q0 -47 25.5 -78.5t60.5 -31.5q37 0 63.5 31.5t26.5 78.5t-26.5 78t-63.5 31 q-35 0 -60.5 -30.5t-25.5 -78.5zM338 545h147l-71 360z" />
<glyph unicode="&#xc6;" horiz-adv-x="985" d="M0 0l340 1360h578v-160h-357v-418h330v-161h-330v-461h369v-160h-461v391h-272l-95 -391h-102zM238 553h231v647h-70z" />
<glyph unicode="&#xc7;" horiz-adv-x="808" d="M111 684q0 47 2 102.5t7 111.5t11 107.5t14 92.5q27 158 93.5 225.5t189.5 67.5q117 0 188.5 -69t81.5 -196h-178q-4 43 -27.5 64.5t-58.5 21.5q-47 0 -73.5 -32.5t-43.5 -100.5q-10 -41 -15 -83t-8 -88t-4 -101t-1 -123q0 -72 1 -126t4 -98t8 -84t15 -83 q16 -68 42 -103.5t69 -35.5q47 0 69.5 38.5t22.5 131.5h178q0 -41 -1 -68t-3 -46.5t-6 -35.5t-10 -35q-16 -76 -82 -120t-158 -44q-104 0 -170.5 44t-99.5 141q-29 86 -43 222t-14 302zM238 -322l31 64q51 -35 116 -35q78 0 78 72q0 63 -41 63q-31 0 -59 -22l-51 24l30 179 h76l-18 -117q25 18 65 18q105 0 105 -139q0 -164 -172 -164q-82 0 -160 57z" />
<glyph unicode="&#xc8;" horiz-adv-x="741" d="M150 0v1372h505v-178h-331v-352h221v-183h-221v-481h350v-178h-524zM191 1852h215l145 -316h-129z" />
<glyph unicode="&#xc9;" horiz-adv-x="741" d="M150 0v1372h505v-178h-331v-352h221v-183h-221v-481h350v-178h-524zM191 1536l145 316h215l-231 -316h-129z" />
<glyph unicode="&#xca;" horiz-adv-x="741" d="M125 1536l164 316h163l164 -316h-125l-123 174l-122 -174h-121zM150 0v1372h505v-178h-331v-352h221v-183h-221v-481h350v-178h-524z" />
<glyph unicode="&#xcb;" horiz-adv-x="741" d="M129 1659q0 51 30.5 87t69.5 36q41 0 71 -37t30 -86t-30 -86t-71 -37q-39 0 -69.5 37t-30.5 86zM150 0v1372h505v-178h-331v-352h221v-183h-221v-481h350v-178h-524zM411 1659q0 51 31 87t70 36q41 0 70.5 -37t29.5 -86t-29.5 -86t-70.5 -37q-39 0 -70 37t-31 86z" />
<glyph unicode="&#xcc;" horiz-adv-x="477" d="M62 1852h215l145 -316h-129zM150 0v1372h174v-1372h-174z" />
<glyph unicode="&#xcd;" horiz-adv-x="477" d="M62 1536l145 316h215l-231 -316h-129zM150 0v1372h174v-1372h-174z" />
<glyph unicode="&#xce;" horiz-adv-x="477" d="M-4 1536l164 316h163l164 -316h-125l-123 174l-122 -174h-121zM150 0v1372h174v-1372h-174z" />
<glyph unicode="&#xcf;" horiz-adv-x="477" d="M0 1659q0 51 30.5 87t69.5 36q41 0 71 -37t30 -86t-30 -86t-71 -37q-39 0 -69.5 37t-30.5 86zM150 0v1372h174v-1372h-174zM282 1659q0 51 31 87t70 36q41 0 70.5 -37t29.5 -86t-29.5 -86t-70.5 -37q-39 0 -70 37t-31 86z" />
<glyph unicode="&#xd0;" horiz-adv-x="710" d="M-2 618v123h78v619h243q80 0 125 -21q59 -25 103 -96q55 -90 82.5 -232.5t27.5 -322.5q0 -209 -32.5 -358.5t-80.5 -217t-112 -96.5q-35 -16 -100 -16h-256v618h-78zM170 160h149q70 0 110 25.5t63 70.5q33 63 51 171t18 263q0 160 -17.5 255t-48 152.5t-67.5 80 t-111 22.5h-147v-459h192v-123h-192v-458z" />
<glyph unicode="&#xd1;" horiz-adv-x="890" d="M150 0v1372h174l243 -684v684h174v-1372h-149l-268 813v-813h-174zM178 1536q0 117 45 185q41 59 109 59q61 0 166 -78q31 -25 55 -24q43 0 53 96h105q0 -117 -42 -181.5t-108 -64.5q-63 0 -168 78q-33 23 -53 22q-49 0 -55 -92h-107z" />
<glyph unicode="&#xd2;" horiz-adv-x="851" d="M111 557v131v134t7 153t25.5 152.5t53 133t91 94.5t140.5 36t140.5 -36t92 -95.5t53 -134t24.5 -152.5t7 -153v-132v-130t-7 -154.5t-24.5 -156.5t-53 -137.5t-92 -97.5t-140.5 -37q-86 0 -142.5 37t-92 97.5t-53 137.5t-23.5 156.5t-6 153.5zM246 1852h215l145 -316 h-129zM288 617q-1 -48 2 -107t10 -122.5t22.5 -115t41 -85t64.5 -33.5t63.5 33.5t40 85t21.5 115t9 122.5t2 107t-1 71q0 29 -1 78t-5 107.5t-12 119t-23.5 109.5t-38 79.5t-55.5 30.5q-39 0 -64.5 -31.5t-41 -81.5t-22.5 -111.5t-10 -120t-2 -106.5t1 -73q0 -23 -1 -71z " />
<glyph unicode="&#xd3;" horiz-adv-x="851" d="M111 557v131v134t7 153t25.5 152.5t53 133t91 94.5t140.5 36t140.5 -36t92 -95.5t53 -134t24.5 -152.5t7 -153v-132v-130t-7 -154.5t-24.5 -156.5t-53 -137.5t-92 -97.5t-140.5 -37q-86 0 -142.5 37t-92 97.5t-53 137.5t-23.5 156.5t-6 153.5zM246 1536l145 316h215 l-231 -316h-129zM288 617q-1 -48 2 -107t10 -122.5t22.5 -115t41 -85t64.5 -33.5t63.5 33.5t40 85t21.5 115t9 122.5t2 107t-1 71q0 29 -1 78t-5 107.5t-12 119t-23.5 109.5t-38 79.5t-55.5 30.5q-39 0 -64.5 -31.5t-41 -81.5t-22.5 -111.5t-10 -120t-2 -106.5t1 -73 q0 -23 -1 -71z" />
<glyph unicode="&#xd4;" horiz-adv-x="851" d="M111 557v131v134t7 153t25.5 152.5t53 133t91 94.5t140.5 36t140.5 -36t92 -95.5t53 -134t24.5 -152.5t7 -153v-132v-130t-7 -154.5t-24.5 -156.5t-53 -137.5t-92 -97.5t-140.5 -37q-86 0 -142.5 37t-92 97.5t-53 137.5t-23.5 156.5t-6 153.5zM180 1536l164 316h163 l164 -316h-125l-123 174l-122 -174h-121zM288 617q-1 -48 2 -107t10 -122.5t22.5 -115t41 -85t64.5 -33.5t63.5 33.5t40 85t21.5 115t9 122.5t2 107t-1 71q0 29 -1 78t-5 107.5t-12 119t-23.5 109.5t-38 79.5t-55.5 30.5q-39 0 -64.5 -31.5t-41 -81.5t-22.5 -111.5t-10 -120 t-2 -106.5t1 -73q0 -23 -1 -71z" />
<glyph unicode="&#xd5;" horiz-adv-x="851" d="M111 557v131v134t7 153t25.5 152.5t53 133t91 94.5t140.5 36t140.5 -36t92 -95.5t53 -134t24.5 -152.5t7 -153v-132v-130t-7 -154.5t-24.5 -156.5t-53 -137.5t-92 -97.5t-140.5 -37q-86 0 -142.5 37t-92 97.5t-53 137.5t-23.5 156.5t-6 153.5zM159 1536q0 117 45 185 q41 59 109 59q61 0 166 -78q31 -25 55 -24q43 0 53 96h105q0 -117 -42 -181.5t-108 -64.5q-63 0 -168 78q-33 23 -53 22q-49 0 -55 -92h-107zM288 617q-1 -48 2 -107t10 -122.5t22.5 -115t41 -85t64.5 -33.5t63.5 33.5t40 85t21.5 115t9 122.5t2 107t-1 71q0 29 -1 78 t-5 107.5t-12 119t-23.5 109.5t-38 79.5t-55.5 30.5q-39 0 -64.5 -31.5t-41 -81.5t-22.5 -111.5t-10 -120t-2 -106.5t1 -73q0 -23 -1 -71z" />
<glyph unicode="&#xd6;" horiz-adv-x="851" d="M111 557v131v134t7 153t25.5 152.5t53 133t91 94.5t140.5 36t140.5 -36t92 -95.5t53 -134t24.5 -152.5t7 -153v-132v-130t-7 -154.5t-24.5 -156.5t-53 -137.5t-92 -97.5t-140.5 -37q-86 0 -142.5 37t-92 97.5t-53 137.5t-23.5 156.5t-6 153.5zM184 1659q0 51 30.5 87 t69.5 36q41 0 71 -37t30 -86t-30 -86t-71 -37q-39 0 -69.5 37t-30.5 86zM288 617q-1 -48 2 -107t10 -122.5t22.5 -115t41 -85t64.5 -33.5t63.5 33.5t40 85t21.5 115t9 122.5t2 107t-1 71q0 29 -1 78t-5 107.5t-12 119t-23.5 109.5t-38 79.5t-55.5 30.5q-39 0 -64.5 -31.5 t-41 -81.5t-22.5 -111.5t-10 -120t-2 -106.5t1 -73q0 -23 -1 -71zM466 1659q0 51 31 87t70 36q41 0 70.5 -37t29.5 -86t-29.5 -86t-70.5 -37q-39 0 -70 37t-31 86z" />
<glyph unicode="&#xd7;" horiz-adv-x="575" d="M78 381l151 291l-151 291l57 112l152 -289l151 289l58 -112l-152 -291l152 -289l-58 -115l-151 291l-152 -291z" />
<glyph unicode="&#xd8;" horiz-adv-x="851" d="M70.5 1q-7.5 15 3.5 34l647 1354q8 18 24.5 22t31 -3t20.5 -22.5t-2 -33.5l-648 -1354q-10 -18 -25.5 -22.5t-29.5 3t-21.5 22.5zM111 557v131v134t7 153t25.5 152.5t53 133t91 94.5t140.5 36t140.5 -36t92 -95.5t53 -134t24.5 -152.5t7 -153v-132v-130t-7 -154.5 t-24.5 -156.5t-53 -137.5t-92 -97.5t-140.5 -37q-86 0 -142.5 37t-92 97.5t-53 137.5t-23.5 156.5t-6 153.5zM288 617q-1 -48 2 -107t10 -122.5t22.5 -115t41 -85t64.5 -33.5t63.5 33.5t40 85t21.5 115t9 122.5t2 107t-1 71q0 29 -1 78t-5 107.5t-12 119t-23.5 109.5 t-38 79.5t-55.5 30.5q-39 0 -64.5 -31.5t-41 -81.5t-22.5 -111.5t-10 -120t-2 -106.5t1 -73q0 -23 -1 -71z" />
<glyph unicode="&#xd9;" horiz-adv-x="890" d="M150 338v1034h174v-1059q0 -78 31.5 -118.5t93.5 -40.5q57 0 87.5 41t30.5 118v1059h174v-1034q0 -72 -10 -124t-33 -93q-41 -78 -100 -112t-149 -34q-106 0 -173 47.5t-102 141.5q-10 33 -17 72.5t-7 101.5zM265 1852h215l145 -316h-129z" />
<glyph unicode="&#xda;" horiz-adv-x="890" d="M150 338v1034h174v-1059q0 -78 31.5 -118.5t93.5 -40.5q57 0 87.5 41t30.5 118v1059h174v-1034q0 -72 -10 -124t-33 -93q-41 -78 -100 -112t-149 -34q-106 0 -173 47.5t-102 141.5q-10 33 -17 72.5t-7 101.5zM264 1536l145 316h215l-231 -316h-129z" />
<glyph unicode="&#xdb;" horiz-adv-x="890" d="M150 338v1034h174v-1059q0 -78 31.5 -118.5t93.5 -40.5q57 0 87.5 41t30.5 118v1059h174v-1034q0 -72 -10 -124t-33 -93q-41 -78 -100 -112t-149 -34q-106 0 -173 47.5t-102 141.5q-10 33 -17 72.5t-7 101.5zM199 1536l164 316h163l164 -316h-125l-123 174l-122 -174 h-121z" />
<glyph unicode="&#xdc;" horiz-adv-x="890" d="M150 338v1034h174v-1059q0 -78 31.5 -118.5t93.5 -40.5q57 0 87.5 41t30.5 118v1059h174v-1034q0 -72 -10 -124t-33 -93q-41 -78 -100 -112t-149 -34q-106 0 -173 47.5t-102 141.5q-10 33 -17 72.5t-7 101.5zM203 1659q0 51 30.5 87t69.5 36q41 0 71 -37t30 -86t-30 -86 t-71 -37q-39 0 -69.5 37t-30.5 86zM485 1659q0 51 31 87t70 36q41 0 70.5 -37t29.5 -86t-29.5 -86t-70.5 -37q-39 0 -70 37t-31 86z" />
<glyph unicode="&#xdd;" horiz-adv-x="823" d="M43 1372h188l183 -481l178 481h188l-280 -751v-621h-176v621zM232 1536l145 316h215l-231 -316h-129z" />
<glyph unicode="&#xde;" horiz-adv-x="655" d="M76 0v1360h94v-277h172q70 0 107 -14q53 -14 87.5 -61t55 -132t20.5 -186q0 -172 -56 -293t-208 -121h-178v-276h-94zM170 436h180q90 0 129 64.5t39 183.5q0 84 -22.5 145.5t-59.5 79.5q-25 14 -88 15h-178v-488z" />
<glyph unicode="&#xdf;" horiz-adv-x="739" d="M92 -379v1419q0 201 63.5 292t206.5 91q131 0 201 -92t70 -260q0 -203 -113 -283q152 -73 152 -360q0 -428 -318 -428h-18v172h18q162 0 162 250q0 268 -162 268h-18v170h16q127 0 127 195t-121 194q-115 0 -114 -186v-1339z" />
<glyph unicode="&#xe0;" d="M43 338q0 72 21.5 143.5t63.5 121.5t104.5 69.5t142.5 -13.5v72q0 59 -16.5 83t-59.5 24q-29 0 -54.5 -15.5t-47 -37t-39 -47t-29.5 -44.5l-43 215q51 59 100.5 88t106.5 29q80 0 130 -32.5t77.5 -84t38 -115t10.5 -124.5v-670h-160v29q-35 -43 -115 -43q-51 0 -93 26.5 t-72.5 73.5t-48 111.5t-17.5 140.5zM142 1481h215l145 -316h-129zM217 332q0 -94 18.5 -138t71.5 -44q41 0 54.5 22.5t13.5 69.5v215q-4 8 -13 16q-8 6 -23 12.5t-40 6.5q-33 0 -57.5 -34t-24.5 -126z" />
<glyph unicode="&#xe1;" d="M43 338q0 72 21.5 143.5t63.5 121.5t104.5 69.5t142.5 -13.5v72q0 59 -16.5 83t-59.5 24q-29 0 -54.5 -15.5t-47 -37t-39 -47t-29.5 -44.5l-43 215q51 59 100.5 88t106.5 29q80 0 130 -32.5t77.5 -84t38 -115t10.5 -124.5v-670h-160v29q-35 -43 -115 -43q-51 0 -93 26.5 t-72.5 73.5t-48 111.5t-17.5 140.5zM146 1165l145 316h215l-231 -316h-129zM217 332q0 -94 18.5 -138t71.5 -44q41 0 54.5 22.5t13.5 69.5v215q-4 8 -13 16q-8 6 -23 12.5t-40 6.5q-33 0 -57.5 -34t-24.5 -126z" />
<glyph unicode="&#xe2;" d="M43 338q0 72 21.5 143.5t63.5 121.5t104.5 69.5t142.5 -13.5v72q0 59 -16.5 83t-59.5 24q-29 0 -54.5 -15.5t-47 -37t-39 -47t-29.5 -44.5l-43 215q51 59 100.5 88t106.5 29q80 0 130 -32.5t77.5 -84t38 -115t10.5 -124.5v-670h-160v29q-35 -43 -115 -43q-51 0 -93 26.5 t-72.5 73.5t-48 111.5t-17.5 140.5zM76 1165l164 316h163l164 -316h-125l-123 174l-122 -174h-121zM217 332q0 -94 18.5 -138t71.5 -44q41 0 54.5 22.5t13.5 69.5v215q-4 8 -13 16q-8 6 -23 12.5t-40 6.5q-33 0 -57.5 -34t-24.5 -126z" />
<glyph unicode="&#xe3;" d="M43 338q0 72 21.5 143.5t63.5 121.5t104.5 69.5t142.5 -13.5v72q0 59 -16.5 83t-59.5 24q-29 0 -54.5 -15.5t-47 -37t-39 -47t-29.5 -44.5l-43 215q51 59 100.5 88t106.5 29q80 0 130 -32.5t77.5 -84t38 -115t10.5 -124.5v-670h-160v29q-35 -43 -115 -43q-51 0 -93 26.5 t-72.5 73.5t-48 111.5t-17.5 140.5zM57 1165q0 117 45 185q41 59 109 59q61 0 166 -78q31 -25 55 -24q43 0 53 96h105q0 -117 -42 -181.5t-108 -64.5q-63 0 -168 78q-33 23 -53 22q-49 0 -55 -92h-107zM217 332q0 -94 18.5 -138t71.5 -44q41 0 54.5 22.5t13.5 69.5v215 q-4 8 -13 16q-8 6 -23 12.5t-40 6.5q-33 0 -57.5 -34t-24.5 -126z" />
<glyph unicode="&#xe4;" d="M43 338q0 72 21.5 143.5t63.5 121.5t104.5 69.5t142.5 -13.5v72q0 59 -16.5 83t-59.5 24q-29 0 -54.5 -15.5t-47 -37t-39 -47t-29.5 -44.5l-43 215q51 59 100.5 88t106.5 29q80 0 130 -32.5t77.5 -84t38 -115t10.5 -124.5v-670h-160v29q-35 -43 -115 -43q-51 0 -93 26.5 t-72.5 73.5t-48 111.5t-17.5 140.5zM80 1288q0 51 30.5 87t69.5 36q41 0 71 -37t30 -86t-30 -86t-71 -37q-39 0 -69.5 37t-30.5 86zM217 332q0 -94 18.5 -138t71.5 -44q41 0 54.5 22.5t13.5 69.5v215q-4 8 -13 16q-8 6 -23 12.5t-40 6.5q-33 0 -57.5 -34t-24.5 -126z M362 1288q0 51 31 87t70 36q41 0 70.5 -37t29.5 -86t-29.5 -86t-70.5 -37q-39 0 -70 37t-31 86z" />
<glyph unicode="&#xe5;" d="M43 338q0 72 21.5 143.5t63.5 121.5t104.5 69.5t142.5 -13.5v72q0 59 -16.5 83t-59.5 24q-29 0 -54.5 -15.5t-47 -37t-39 -47t-29.5 -44.5l-43 215q51 59 100.5 88t106.5 29q80 0 130 -32.5t77.5 -84t38 -115t10.5 -124.5v-670h-160v29q-35 -43 -115 -43q-51 0 -93 26.5 t-72.5 73.5t-48 111.5t-17.5 140.5zM142 1386q0 96 51 159t127 63q80 0 131 -63t51 -159t-51 -158.5t-131 -62.5q-76 0 -127 62.5t-51 158.5zM217 332q0 -94 18.5 -138t71.5 -44q41 0 54.5 22.5t13.5 69.5v215q-4 8 -13 16q-8 6 -23 12.5t-40 6.5q-33 0 -57.5 -34 t-24.5 -126zM234 1386q0 -47 25.5 -78.5t60.5 -31.5q37 0 63.5 31.5t26.5 78.5t-26.5 78t-63.5 31q-35 0 -60.5 -30.5t-25.5 -78.5z" />
<glyph unicode="&#xe6;" horiz-adv-x="874" d="M33 260q0 80 24.5 149.5t65.5 106.5t135 59q74 18 123 46v36q0 119 -25.5 165t-89.5 46q-41 0 -70.5 -19.5t-43 -54t-23.5 -114.5l-82 20q14 109 39 172.5t72 99.5t110 36q78 0 127 -47q29 -27 49 -87q31 66 70 100t94 34q78 0 129 -73t74 -192.5t23 -234.5v-57h-369 q2 -133 18.5 -194.5t50 -100.5t76.5 -39q51 0 85 54t48 155l88 -23q-23 -158 -80 -242t-143 -84q-61 0 -107 45.5t-83 139.5q-51 -94 -101.5 -139.5t-109.5 -45.5q-82 0 -128 82t-46 201zM125 266q0 -68 24.5 -111.5t73.5 -43.5q55 0 96 52t56 132q8 47 8 201 q-41 -33 -158 -70q-51 -16 -73 -45q-27 -45 -27 -115zM465 588h280q-6 147 -42.5 213.5t-96.5 66.5q-59 0 -98 -73.5t-43 -206.5z" />
<glyph unicode="&#xe7;" horiz-adv-x="577" d="M68 481q0 104 7 202.5t33.5 174.5t78 122t137.5 46q100 0 153 -71.5t76 -188.5l-158 -78q-4 61 -20.5 105.5t-50.5 44.5q-39 0 -56.5 -45t-23.5 -105.5t-4 -119t2 -83.5v-79t8 -114.5t25.5 -102.5t52.5 -44q29 4 44 51.5t23 106.5l158 -57q-25 -115 -77 -189.5 t-152 -74.5q-78 0 -128.5 42t-79 111.5t-38.5 159.5t-10 186zM125 -322l31 64q51 -35 116 -35q78 0 78 72q0 63 -41 63q-31 0 -59 -22l-51 24l30 179h76l-18 -117q25 18 65 18q105 0 105 -139q0 -164 -172 -164q-82 0 -160 57z" />
<glyph unicode="&#xe8;" horiz-adv-x="606" d="M68 496q0 119 12 217t41 167.5t79 107.5t124 38q61 0 104 -34t69.5 -87t41 -121.5t20.5 -138.5t5 -134.5t-1 -111.5h-327q2 -72 8 -119t16 -73.5t26.5 -36.5t41.5 -10q29 0 51 26.5t45 102.5l111 -160q-27 -68 -74 -107.5t-109 -39.5q-84 0 -139 35.5t-87 103t-45 163 t-13 212.5zM123 1481h215l145 -316h-129zM236 578h167q0 152 -21.5 206t-64.5 54t-62 -56.5t-19 -203.5z" />
<glyph unicode="&#xe9;" horiz-adv-x="606" d="M68 496q0 119 12 217t41 167.5t79 107.5t124 38q61 0 104 -34t69.5 -87t41 -121.5t20.5 -138.5t5 -134.5t-1 -111.5h-327q2 -72 8 -119t16 -73.5t26.5 -36.5t41.5 -10q29 0 51 26.5t45 102.5l111 -160q-27 -68 -74 -107.5t-109 -39.5q-84 0 -139 35.5t-87 103t-45 163 t-13 212.5zM125 1165l145 316h215l-231 -316h-129zM236 578h167q0 152 -21.5 206t-64.5 54t-62 -56.5t-19 -203.5z" />
<glyph unicode="&#xea;" horiz-adv-x="606" d="M60 1165l164 316h163l164 -316h-125l-123 174l-122 -174h-121zM68 496q0 119 12 217t41 167.5t79 107.5t124 38q61 0 104 -34t69.5 -87t41 -121.5t20.5 -138.5t5 -134.5t-1 -111.5h-327q2 -72 8 -119t16 -73.5t26.5 -36.5t41.5 -10q29 0 51 26.5t45 102.5l111 -160 q-27 -68 -74 -107.5t-109 -39.5q-84 0 -139 35.5t-87 103t-45 163t-13 212.5zM236 578h167q0 152 -21.5 206t-64.5 54t-62 -56.5t-19 -203.5z" />
<glyph unicode="&#xeb;" horiz-adv-x="606" d="M64 1288q0 51 30.5 87t69.5 36q41 0 71 -37t30 -86t-30 -86t-71 -37q-39 0 -69.5 37t-30.5 86zM68 496q0 119 12 217t41 167.5t79 107.5t124 38q61 0 104 -34t69.5 -87t41 -121.5t20.5 -138.5t5 -134.5t-1 -111.5h-327q2 -72 8 -119t16 -73.5t26.5 -36.5t41.5 -10 q29 0 51 26.5t45 102.5l111 -160q-27 -68 -74 -107.5t-109 -39.5q-84 0 -139 35.5t-87 103t-45 163t-13 212.5zM236 578h167q0 152 -21.5 206t-64.5 54t-62 -56.5t-19 -203.5zM346 1288q0 51 31 87t70 36q41 0 70.5 -37t29.5 -86t-29.5 -86t-70.5 -37q-39 0 -70 37t-31 86z " />
<glyph unicode="&#xec;" horiz-adv-x="399" d="M23 1481h215l145 -316h-129zM111 0v1001h174v-1001h-174z" />
<glyph unicode="&#xed;" horiz-adv-x="399" d="M23 1165l145 316h215l-231 -316h-129zM111 0v1001h174v-1001h-174z" />
<glyph unicode="&#xee;" horiz-adv-x="399" d="M-43 1165l164 316h163l164 -316h-125l-123 174l-122 -174h-121zM111 0v1001h174v-1001h-174z" />
<glyph unicode="&#xef;" horiz-adv-x="399" d="M-39 1288q0 51 30.5 87t69.5 36q41 0 71 -37t30 -86t-30 -86t-71 -37q-39 0 -69.5 37t-30.5 86zM111 0v1001h174v-1001h-174zM243 1288q0 51 31 87t70 36q41 0 70.5 -37t29.5 -86t-29.5 -86t-70.5 -37q-39 0 -70 37t-31 86z" />
<glyph unicode="&#xf0;" horiz-adv-x="546" d="M35 479q0 244 61.5 375t155.5 131q29 0 50.5 -11t49.5 -44q-14 70 -27.5 106.5t-37.5 91.5l-133 -116l-23 96l117 100q-48 82 -101 152h105q35 -49 61 -94l101 94l22 -94l-84 -78q156 -340 156 -705q0 -236 -66.5 -371t-171.5 -135q-123 0 -190 179q-45 119 -45 323z M125 475q0 -180 41 -270t104 -90q61 0 104.5 95.5t43.5 281.5q0 178 -43 271t-107 93q-63 0 -103 -93t-40 -288z" />
<glyph unicode="&#xf1;" horiz-adv-x="694" d="M80 1165q0 117 45 185q41 59 109 59q61 0 166 -78q31 -25 55 -24q43 0 53 96h105q0 -117 -42 -181.5t-108 -64.5q-63 0 -168 78q-33 23 -53 22q-49 0 -55 -92h-107zM111 0v1001h174v-43q20 35 45.5 49.5t48.5 18.5q27 6 55 0q96 -10 130 -130t34 -386v-510h-174v688 q0 78 -12.5 119t-59.5 41q-25 0 -38 -14.5t-19 -37t-8 -51t-2 -57.5v-688h-174z" />
<glyph unicode="&#xf2;" d="M68 500q0 104 7 200.5t33.5 168t79 114.5t140.5 43q78 0 126 -41t74.5 -111.5t35.5 -166t9 -201.5q0 -96 -11 -190.5t-38.5 -168t-76 -119.5t-119.5 -46q-78 0 -128 45t-80 118.5t-41 165.5t-11 189zM142 1481h215l145 -316h-129zM244 586.5q2 -56.5 2 -80.5q0 -25 1 -81 t8 -115.5t23.5 -104.5t49.5 -45q29 2 43 46t20 102.5t7 115.5t1 82t2 81t-3 112.5t-20.5 99.5t-49.5 43q-41 0 -58.5 -43t-22.5 -99.5t-3 -113z" />
<glyph unicode="&#xf3;" d="M68 500q0 104 7 200.5t33.5 168t79 114.5t140.5 43q78 0 126 -41t74.5 -111.5t35.5 -166t9 -201.5q0 -96 -11 -190.5t-38.5 -168t-76 -119.5t-119.5 -46q-78 0 -128 45t-80 118.5t-41 165.5t-11 189zM146 1165l145 316h215l-231 -316h-129zM244 586.5q2 -56.5 2 -80.5 q0 -25 1 -81t8 -115.5t23.5 -104.5t49.5 -45q29 2 43 46t20 102.5t7 115.5t1 82t2 81t-3 112.5t-20.5 99.5t-49.5 43q-41 0 -58.5 -43t-22.5 -99.5t-3 -113z" />
<glyph unicode="&#xf4;" d="M68 500q0 104 7 200.5t33.5 168t79 114.5t140.5 43q78 0 126 -41t74.5 -111.5t35.5 -166t9 -201.5q0 -96 -11 -190.5t-38.5 -168t-76 -119.5t-119.5 -46q-78 0 -128 45t-80 118.5t-41 165.5t-11 189zM76 1165l164 316h163l164 -316h-125l-123 174l-122 -174h-121z M244 586.5q2 -56.5 2 -80.5q0 -25 1 -81t8 -115.5t23.5 -104.5t49.5 -45q29 2 43 46t20 102.5t7 115.5t1 82t2 81t-3 112.5t-20.5 99.5t-49.5 43q-41 0 -58.5 -43t-22.5 -99.5t-3 -113z" />
<glyph unicode="&#xf5;" d="M57 1165q0 117 45 185q41 59 109 59q61 0 166 -78q31 -25 55 -24q43 0 53 96h105q0 -117 -42 -181.5t-108 -64.5q-63 0 -168 78q-33 23 -53 22q-49 0 -55 -92h-107zM68 500q0 104 7 200.5t33.5 168t79 114.5t140.5 43q78 0 126 -41t74.5 -111.5t35.5 -166t9 -201.5 q0 -96 -11 -190.5t-38.5 -168t-76 -119.5t-119.5 -46q-78 0 -128 45t-80 118.5t-41 165.5t-11 189zM244 586.5q2 -56.5 2 -80.5q0 -25 1 -81t8 -115.5t23.5 -104.5t49.5 -45q29 2 43 46t20 102.5t7 115.5t1 82t2 81t-3 112.5t-20.5 99.5t-49.5 43q-41 0 -58.5 -43 t-22.5 -99.5t-3 -113z" />
<glyph unicode="&#xf6;" d="M68 500q0 104 7 200.5t33.5 168t79 114.5t140.5 43q78 0 126 -41t74.5 -111.5t35.5 -166t9 -201.5q0 -96 -11 -190.5t-38.5 -168t-76 -119.5t-119.5 -46q-78 0 -128 45t-80 118.5t-41 165.5t-11 189zM80 1288q0 51 30.5 87t69.5 36q41 0 71 -37t30 -86t-30 -86t-71 -37 q-39 0 -69.5 37t-30.5 86zM244 586.5q2 -56.5 2 -80.5q0 -25 1 -81t8 -115.5t23.5 -104.5t49.5 -45q29 2 43 46t20 102.5t7 115.5t1 82t2 81t-3 112.5t-20.5 99.5t-49.5 43q-41 0 -58.5 -43t-22.5 -99.5t-3 -113zM362 1288q0 51 31 87t70 36q41 0 70.5 -37t29.5 -86 t-29.5 -86t-70.5 -37q-39 0 -70 37t-31 86z" />
<glyph unicode="&#xf7;" horiz-adv-x="540" d="M37 594v156h465v-156h-465zM221 297v188h98v-188h-98zM221 854v193h98v-193h-98z" />
<glyph unicode="&#xf8;" d="M48 -11.5q-7 15.5 3 34.5l479 1021q8 18 24.5 23.5t31 -0.5t20.5 -21.5t-2 -33.5l-479 -1022q-10 -18 -25.5 -23.5t-30 0.5t-21.5 21.5zM68 500q0 104 7 200.5t33.5 168t79 114.5t140.5 43q78 0 126 -41t74.5 -111.5t35.5 -166t9 -201.5q0 -96 -11 -190.5t-38.5 -168 t-76 -119.5t-119.5 -46q-78 0 -128 45t-80 118.5t-41 165.5t-11 189zM244 586.5q2 -56.5 2 -80.5q0 -25 1 -81t8 -115.5t23.5 -104.5t49.5 -45q29 2 43 46t20 102.5t7 115.5t1 82t2 81t-3 112.5t-20.5 99.5t-49.5 43q-41 0 -58.5 -43t-22.5 -99.5t-3 -113z" />
<glyph unicode="&#xf9;" horiz-adv-x="694" d="M96 492v509h174v-688q0 -78 12.5 -118.5t59.5 -40.5q25 0 39 14t20.5 36.5t7.5 51.5t1 57v688h172v-1001h-172v43q-20 -35 -45 -49t-48 -19q-27 -6 -53 0q-51 6 -84 37t-51 93.5t-25.5 157.5t-7.5 229zM166 1481h215l145 -316h-129z" />
<glyph unicode="&#xfa;" horiz-adv-x="694" d="M96 492v509h174v-688q0 -78 12.5 -118.5t59.5 -40.5q25 0 39 14t20.5 36.5t7.5 51.5t1 57v688h172v-1001h-172v43q-20 -35 -45 -49t-48 -19q-27 -6 -53 0q-51 6 -84 37t-51 93.5t-25.5 157.5t-7.5 229zM166 1165l145 316h215l-231 -316h-129z" />
<glyph unicode="&#xfb;" horiz-adv-x="694" d="M96 492v509h174v-688q0 -78 12.5 -118.5t59.5 -40.5q25 0 39 14t20.5 36.5t7.5 51.5t1 57v688h172v-1001h-172v43q-20 -35 -45 -49t-48 -19q-27 -6 -53 0q-51 6 -84 37t-51 93.5t-25.5 157.5t-7.5 229zM101 1165l164 316h163l164 -316h-125l-123 174l-122 -174h-121z" />
<glyph unicode="&#xfc;" horiz-adv-x="694" d="M96 492v509h174v-688q0 -78 12.5 -118.5t59.5 -40.5q25 0 39 14t20.5 36.5t7.5 51.5t1 57v688h172v-1001h-172v43q-20 -35 -45 -49t-48 -19q-27 -6 -53 0q-51 6 -84 37t-51 93.5t-25.5 157.5t-7.5 229zM105 1288q0 51 30.5 87t69.5 36q41 0 71 -37t30 -86t-30 -86 t-71 -37q-39 0 -69.5 37t-30.5 86zM387 1288q0 51 31 87t70 36q41 0 70.5 -37t29.5 -86t-29.5 -86t-70.5 -37q-39 0 -70 37t-31 86z" />
<glyph unicode="&#xfd;" horiz-adv-x="684" d="M29 1006h153l170 -654l144 654h163l-307 -1387h-155l77 381zM164 1165l145 316h215l-231 -316h-129z" />
<glyph unicode="&#xfe;" horiz-adv-x="546" d="M66 -379v1739h86v-479q35 72 61 96q35 31 80 31q63 0 113.5 -65.5t76 -183.5t25.5 -259q0 -154 -28.5 -272.5t-82 -184.5t-110.5 -66q-41 0 -76 31q-25 25 -59 94v-481h-86zM143 487q0 -190 40 -280t98 -90q57 0 98 93t41 292q0 188 -40 281.5t-95 93.5q-57 0 -99.5 -100 t-42.5 -290z" />
<glyph unicode="&#xff;" horiz-adv-x="684" d="M29 1006h153l170 -654l144 654h163l-307 -1387h-155l77 381zM101 1288q0 51 30.5 87t69.5 36q41 0 71 -37t30 -86t-30 -86t-71 -37q-39 0 -69.5 37t-30.5 86zM383 1288q0 51 31 87t70 36q41 0 70.5 -37t29.5 -86t-29.5 -86t-70.5 -37q-39 0 -70 37t-31 86z" />
<glyph unicode="&#x152;" horiz-adv-x="985" d="M63 682q0 299 68 499.5t215 200.5q127 0 193 -204v182h399v-160h-313v-416h288v-159h-288v-465h327v-160h-413v197q-66 -219 -193 -220q-145 0 -219 216q-63 190 -64 489zM158 668q0 -281 55 -413t131 -132q78 0 134.5 131t56.5 436q0 285 -56.5 416t-134.5 131 q-47 0 -93 -60.5t-69.5 -183.5t-23.5 -325z" />
<glyph unicode="&#x153;" horiz-adv-x="927" d="M39 481q0 158 27.5 281t86 184.5t128.5 61.5q66 0 114.5 -53.5t73.5 -135.5q33 86 81 137.5t105 51.5q106 0 172 -140.5t64 -418.5h-375q2 -154 44 -243t108 -89q47 0 81.5 50t49.5 155l86 -25q-20 -154 -76.5 -237t-142.5 -83q-66 0 -116 49.5t-81 135.5 q-37 -90 -83 -137.5t-105 -47.5q-111 0 -176.5 133.5t-65.5 370.5zM127 496q0 -172 35 -265q45 -115 117 -114q61 0 105 98t44 283q0 182 -43 277t-106 95q-43 0 -79 -45t-54.5 -135t-18.5 -194zM520 586h281q-4 139 -43 211.5t-96 72.5t-97.5 -75.5t-44.5 -208.5z" />
<glyph unicode="&#x178;" horiz-adv-x="823" d="M43 1372h188l183 -481l178 481h188l-280 -751v-621h-176v621zM170 1659q0 51 30.5 87t69.5 36q41 0 71 -37t30 -86t-30 -86t-71 -37q-39 0 -69.5 37t-30.5 86zM452 1659q0 51 31 87t70 36q41 0 70.5 -37t29.5 -86t-29.5 -86t-70.5 -37q-39 0 -70 37t-31 86z" />
<glyph unicode="&#x2c6;" horiz-adv-x="638" d="M74 1165l164 316h163l164 -316h-125l-123 174l-122 -174h-121z" />
<glyph unicode="&#x2dc;" horiz-adv-x="638" d="M57 1165q0 117 45 185q41 59 109 59q61 0 166 -78q31 -25 55 -24q43 0 53 96h105q0 -117 -42 -181.5t-108 -64.5q-63 0 -168 78q-33 23 -53 22q-49 0 -55 -92h-107z" />
<glyph unicode="&#x2000;" horiz-adv-x="1030" />
<glyph unicode="&#x2001;" horiz-adv-x="2060" />
<glyph unicode="&#x2002;" horiz-adv-x="1030" />
<glyph unicode="&#x2003;" horiz-adv-x="2060" />
<glyph unicode="&#x2004;" horiz-adv-x="686" />
<glyph unicode="&#x2005;" horiz-adv-x="515" />
<glyph unicode="&#x2006;" horiz-adv-x="343" />
<glyph unicode="&#x2007;" horiz-adv-x="343" />
<glyph unicode="&#x2008;" horiz-adv-x="257" />
<glyph unicode="&#x2009;" horiz-adv-x="412" />
<glyph unicode="&#x200a;" horiz-adv-x="114" />
<glyph unicode="&#x2010;" horiz-adv-x="516" d="M43 553v178h428v-178h-428z" />
<glyph unicode="&#x2011;" horiz-adv-x="516" d="M43 553v178h428v-178h-428z" />
<glyph unicode="&#x2012;" horiz-adv-x="516" d="M43 553v178h428v-178h-428z" />
<glyph unicode="&#x2013;" horiz-adv-x="641" d="M63 625v184h521v-184h-521z" />
<glyph unicode="&#x2014;" horiz-adv-x="876" d="M63 625v184h750v-184h-750z" />
<glyph unicode="&#x2018;" horiz-adv-x="219" d="M61 938v152q0 127 17 182q18 74 61 110l23 -63q-27 -23 -39 -65t-12 -121h43v-195h-93z" />
<glyph unicode="&#x2019;" horiz-adv-x="219" d="M53 995q25 20 38 63.5t15 121.5h-47v194h93v-153q0 -125 -15 -179q-20 -76 -63 -114z" />
<glyph unicode="&#x201a;" horiz-adv-x="219" d="M53 -184q25 20 38 63t15 121h-47v195h93v-154q0 -125 -15 -178q-20 -76 -63 -115z" />
<glyph unicode="&#x201c;" horiz-adv-x="327" d="M41 938v152q0 127 14 182q20 74 66 110l18 -63q-25 -23 -38 -65t-15 -121h45v-195h-90zM188 938v152q0 127 17 182q18 74 63 110l21 -63q-27 -23 -39 -65t-14 -121h47v-195h-95z" />
<glyph unicode="&#x201d;" horiz-adv-x="327" d="M35 995q27 20 39 63.5t12 121.5h-43v194h90v-153q0 -125 -12 -179q-23 -76 -66 -114zM182 995q27 20 39 63.5t15 121.5h-46v194h95v-153q0 -125 -17 -179q-20 -76 -63 -114z" />
<glyph unicode="&#x201e;" horiz-adv-x="327" d="M35 -184q27 20 39 63t12 121h-43v195h90v-154q0 -125 -12 -178q-23 -76 -66 -115zM182 -184q27 20 39 63t15 121h-46v195h95v-154q0 -125 -17 -178q-20 -76 -63 -115z" />
<glyph unicode="&#x2022;" horiz-adv-x="344" d="M53 666q0 98 36 166.5t85 68.5t86 -68.5t37 -166.5t-37 -167t-86 -69t-85 69t-36 167z" />
<glyph unicode="&#x2026;" horiz-adv-x="985" d="M117 0v190h96v-190h-96zM442 0v190h101v-190h-101zM772 0v190h96v-190h-96z" />
<glyph unicode="&#x202f;" horiz-adv-x="412" />
<glyph unicode="&#x2039;" horiz-adv-x="327" d="M45 489l150 424h73l-129 -424l129 -421h-73z" />
<glyph unicode="&#x203a;" horiz-adv-x="327" d="M45 68l125 424l-125 421h72l145 -415l-145 -430h-72z" />
<glyph unicode="&#x205f;" horiz-adv-x="515" />
<glyph unicode="&#x20ac;" horiz-adv-x="681" d="M68 498l14 123h51q-2 39 -2 84v38h-63l14 123h55q31 303 156 434q78 82 172 82q88 0 149 -73l-20 -174q-57 96 -131 96q-82 0 -137 -76q-33 -45 -60 -129q-27 -82 -33 -160h330l-14 -123h-322q-2 -20 -2 -36q0 -72 2 -86h310l-15 -123h-284q20 -213 96 -303 q57 -66 121 -66q90 0 139 92v-190q-59 -53 -131 -54q-219 0 -295 349q-14 70 -25 172h-75z" />
<glyph unicode="&#x2122;" horiz-adv-x="917" d="M31 1260v112h321v-112h-114v-658h-91v658h-116zM434 602v770h96l82 -321q14 -57 37 -160q8 55 37 164l80 317h94v-770h-90v311q0 23 2 88v86q-10 -47 -45 -182l-80 -321l-82 321q-16 66 -43 174q0 -23 2 -84v-82v-311h-90z" />
<glyph unicode="&#x25fc;" horiz-adv-x="1003" d="M0 0v1004h1004v-1004h-1004z" />
</font>
</defs>
</svg>
