<?xml version="1.0" standalone="no"?>
<!DOCTYPE svg PUBLIC "-//W3C//DTD SVG 1.1//EN" "http://www.w3.org/Graphics/SVG/1.1/DTD/svg11.dtd" >
<svg xmlns="http://www.w3.org/2000/svg" xmlns:xlink="http://www.w3.org/1999/xlink" version="1.1">
<metadata>
Created by FontForge 20160407 at Fri Aug 19 09:48:34 2016
 By Jimmy Wärting
(c) 2001-2012 Typodermic Fonts Inc. See attached license agreement. If agreement is missing visit typodermicfonts.com for more info.
</metadata>
<defs>
<font id="SteelfishRg-Regular" horiz-adv-x="280" >
  <font-face 
    font-family="Steelfish Rg"
    font-weight="400"
    font-stretch="normal"
    units-per-em="1000"
    panose-1="2 11 6 8 2 2 2 4 5 4"
    ascent="851"
    descent="-149"
    x-height="619"
    cap-height="823"
    bbox="-126 -149 634 1021"
    underline-thickness="50"
    underline-position="-125"
    unicode-range="U+0017-FB02"
  />
<missing-glyph horiz-adv-x="524" 
d="M124 -144q-90 0 -90 79v869q0 80 90 80h274q92 0 92 -80v-869q0 -79 -92 -79h-274zM257 234q5 27 9 44.5t11 31.5t19 27t34 31q35 29 56 69.5t32 103.5l18 104q2 11 3 23t1 23q0 64 -40.5 102t-121.5 38q-57 0 -87.5 -33t-41.5 -102l-27 -159l115 -21l28 162q5 29 27 29
q30 0 30 -29l-21 -117q-6 -32 -10.5 -51.5t-12 -33.5t-20 -26t-33.5 -29q-17 -15 -29 -31t-21 -35.5t-15.5 -44t-12.5 -57.5l-23 -123l112 -20zM225 42l-111 19l-24 -138l110 -18z" />
    <glyph glyph-name="copyright" unicode="&#x28;C&#x29;" horiz-adv-x="516" 
d="M485 221q0 -62 -13.5 -106t-41 -71.5t-70.5 -40t-102 -12.5t-102 12.5t-70.5 40t-41 71.5t-13.5 106v381q0 62 13.5 106t41 71.5t70.5 40t102 12.5t102 -12.5t70.5 -40t41 -71.5t13.5 -106v-381zM433 607q0 49 -9.5 82.5t-30 54t-54 29.5t-81.5 9t-81.5 -9t-54.5 -29.5
t-30 -54t-9 -82.5v-393q0 -47 9.5 -80t30.5 -53.5t54 -30t81 -9.5t81.5 9.5t54 30t30 53.5t9.5 80v393zM290 347h44v-107q0 -45 -17.5 -66.5t-57.5 -21.5q-82 0 -82 87v352q0 90 82 90q75 0 75 -89v-92h-44v92q0 39 -31 39q-32 0 -32 -40v-352q0 -39 32 -39q31 0 31 39v108z
" />
    <glyph glyph-name="registered" unicode="&#x28;R&#x29;" horiz-adv-x="516" 
d="M485 221q0 -62 -13.5 -106t-41 -71.5t-70.5 -40t-102 -12.5t-102 12.5t-70.5 40t-41 71.5t-13.5 106v381q0 62 13.5 106t41 71.5t70.5 40t102 12.5t102 -12.5t70.5 -40t41 -71.5t13.5 -106v-381zM433 607q0 49 -9.5 82.5t-30 54t-54 29.5t-81.5 9t-81.5 -9t-54.5 -29.5
t-30 -54t-9 -82.5v-393q0 -47 9.5 -80t30.5 -53.5t54 -30t81 -9.5t81.5 9.5t54 30t30 53.5t9.5 80v393zM298 574q0 26 -8.5 38.5t-32.5 12.5h-30v-190h30q41 0 41 43v96zM299 157q-8 60 -16.5 117t-19.5 115h-36v-232h-49v518h79q46 0 68 -21.5t22 -73.5v-103q0 -61 -37 -77
q13 -61 23.5 -122t19.5 -121h-54z" />
    <glyph glyph-name="uni2117" unicode="&#x28;P&#x29;" horiz-adv-x="516" 
d="M485 221q0 -62 -13.5 -106t-41 -71.5t-70.5 -40t-102 -12.5t-102 12.5t-70.5 40t-41 71.5t-13.5 106v381q0 62 13.5 106t41 71.5t70.5 40t102 12.5t102 -12.5t70.5 -40t41 -71.5t13.5 -106v-381zM433 607q0 49 -9.5 82.5t-30 54t-54 29.5t-81.5 9t-81.5 -9t-54.5 -29.5
t-30 -54t-9 -82.5v-393q0 -47 9.5 -80t30.5 -53.5t54 -30t81 -9.5t81.5 9.5t54 30t30 53.5t9.5 80v393zM298 582q0 23 -8.5 33t-30.5 10h-32v-175h33q38 0 38 44v88zM178 157v518h81q88 0 88 -93v-86q0 -49 -21 -71t-66 -22h-33v-246h-49z" />
    <glyph glyph-name=".notdef" horiz-adv-x="524" 
d="M124 -144q-90 0 -90 79v869q0 80 90 80h274q92 0 92 -80v-869q0 -79 -92 -79h-274zM257 234q5 27 9 44.5t11 31.5t19 27t34 31q35 29 56 69.5t32 103.5l18 104q2 11 3 23t1 23q0 64 -40.5 102t-121.5 38q-57 0 -87.5 -33t-41.5 -102l-27 -159l115 -21l28 162q5 29 27 29
q30 0 30 -29l-21 -117q-6 -32 -10.5 -51.5t-12 -33.5t-20 -26t-33.5 -29q-17 -15 -29 -31t-21 -35.5t-15.5 -44t-12.5 -57.5l-23 -123l112 -20zM225 42l-111 19l-24 -138l110 -18z" />
    <glyph glyph-name="uni0017" horiz-adv-x="136" 
 />
    <glyph glyph-name="space" unicode=" " horiz-adv-x="136" 
 />
    <glyph glyph-name="exclam" unicode="!" horiz-adv-x="160" 
d="M41 0v109h78v-109h-78zM55 159l-15 342v322h80v-321l-16 -343h-49z" />
    <glyph glyph-name="quotedbl" unicode="&#x22;" horiz-adv-x="257" 
d="M31 595zM46 595l-15 139v89h70v-89l-15 -139h-40zM171 595l-15 139v89h70v-89l-15 -139h-40z" />
    <glyph glyph-name="numbersign" unicode="#" horiz-adv-x="395" 
d="M170 0l50 296h-85l-50 -296h-52l49 296h-61v65h72l20 123h-75v65h86l45 274h55l-47 -274h84l46 274h54l-47 -274h60v-65h-70l-21 -123h72v-65h-83l-49 -296h-53zM251 484h-85l-20 -123h84z" />
    <glyph glyph-name="dollar" unicode="$" horiz-adv-x="286" 
d="M127 -52v62q-51 5 -73.5 39.5t-22.5 94.5v158h58v-124q0 -42 5.5 -68t33.5 -31v298l-38 38t-27 30q-18 23 -25 47.5t-7 68.5v118q0 63 24 95.5t72 37.5v57h31v-57q49 -5 71.5 -37t22.5 -96v-133h-57v119q0 32 -6.5 53t-32.5 26v-291q16 -14 33 -28t31 -31
q19 -24 27 -55.5t8 -84.5v-110q0 -60 -24 -95t-73 -40v-61h-31zM194 246q0 42 -8 67t-30 45v-279q38 6 38 59v108zM128 744q-21 -4 -30 -19.5t-9 -41.5v-123q0 -28 9.5 -47.5t29.5 -38.5v270z" />
    <glyph glyph-name="percent" unicode="%" horiz-adv-x="480" 
d="M31 0zM32 768q0 70 67 70q68 0 68 -70v-281q0 -70 -68 -70q-67 0 -67 70v281zM121 769q0 23 -22 23q-21 0 -21 -23v-283q0 -23 21 -23q22 0 22 23v283zM31 0l362 823h51l-361 -823h-52zM312 336q0 70 67 70q68 0 68 -70v-281q0 -70 -68 -70q-67 0 -67 70v281zM401 337
q0 23 -22 23q-21 0 -21 -23v-283q0 -23 21 -23q22 0 22 23v283z" />
    <glyph glyph-name="ampersand" unicode="&#x26;" horiz-adv-x="376" 
d="M359 8q-8 -5 -19 -8.5t-30 -3.5q-18 0 -31.5 6t-22.5 16q-17 -14 -40.5 -20.5t-51.5 -6.5q-42 0 -68.5 10.5t-41.5 32t-21 53.5t-6 75v57q0 34 4 61.5t12.5 52.5t23 49t35.5 51q-18 49 -28 81.5t-15 55.5t-6 40.5t-1 35.5v50q0 72 25 103t82 31q30 0 50 -9.5t32 -27
t17.5 -42t5.5 -53.5v-58q0 -33 -6.5 -61t-18 -54.5t-27.5 -52t-36 -52.5l95 -270q11 27 15.5 59t4.5 64v32h58v-35q0 -55 -10.5 -106t-34.5 -90q4 -3 10.5 -5.5t14.5 -2.5q21 0 30 13v-71zM131 356q-9 -14 -15 -27t-9 -28.5t-4.5 -34.5t-1.5 -44v-59q0 -55 14.5 -78
t54.5 -23q37 0 57 17zM117 642q0 -38 9 -75.5t23 -74.5q23 30 38.5 67t15.5 89v42q0 29 -9 48t-32 19q-24 0 -34.5 -15.5t-10.5 -47.5v-52z" />
    <glyph glyph-name="quotesingle" unicode="'" horiz-adv-x="132" 
d="M46 595l-15 139v89h70v-89l-15 -139h-40z" />
    <glyph glyph-name="parenleft" unicode="(" horiz-adv-x="256" 
d="M226 -80q-78 0 -115 41t-37 132v637q0 91 37 132t115 41h8v-56h-8q-51 0 -74 -28.5t-23 -88.5v-637q0 -61 23 -89.5t74 -28.5h8v-55h-8z" />
    <glyph glyph-name="parenright" unicode=")" horiz-adv-x="256" 
d="M74 -80v55h8q51 0 74 28.5t23 89.5v637q0 60 -23 88.5t-74 28.5h-8v56h8q78 0 115 -41t37 -132v-637q0 -91 -37 -132t-115 -41h-8z" />
    <glyph glyph-name="asterisk" unicode="*" horiz-adv-x="335" 
d="M237 534l-71 107l-69 -107l-38 28l79 99l-123 34l15 45l119 -45l-7 128h49l-7 -128l120 46l14 -46l-123 -34l80 -99z" />
    <glyph glyph-name="plus" unicode="+" horiz-adv-x="462" 
d="M203 224v167h-166v57h166v165h57v-165h166v-57h-166v-167h-57z" />
    <glyph glyph-name="comma" unicode="," horiz-adv-x="134" 
d="M41 -60v33h6q17 0 17 18v31h-33v103h72v-129q0 -26 -12.5 -41t-41.5 -15h-8z" />
    <glyph glyph-name="hyphen" unicode="-" horiz-adv-x="182" 
d="M13 385v59h158v-59h-158z" />
    <glyph glyph-name="period" unicode="." horiz-adv-x="133" 
d="M31 0v125h71v-125h-71z" />
    <glyph glyph-name="slash" unicode="/" horiz-adv-x="241" 
d="M6 0l172 823h56l-172 -823h-56z" />
    <glyph glyph-name="zero" unicode="0" horiz-adv-x="328" 
d="M31 692q0 69 32 104.5t101 35.5t101 -35.5t32 -104.5v-561q0 -69 -32 -104.5t-101 -35.5t-101 35.5t-32 104.5v561zM222 693q0 64 -58 64q-57 0 -57 -64v-564q0 -64 57 -64q58 0 58 64v564z" />
    <glyph glyph-name="one" unicode="1" horiz-adv-x="176" 
d="M61 0v688h-44v74h22q16 0 23 8.5t7 28.5v24h67v-823h-75z" />
    <glyph glyph-name="two" unicode="2" horiz-adv-x="309" 
d="M27 0v151q0 36 2 63t9.5 52t22.5 51t40 59q33 44 54 74t33 53.5t16 46t4 51.5v88q0 66 -54 66q-31 0 -41.5 -17t-10.5 -50v-142h-75v142q0 76 30.5 110t96.5 34t98 -34.5t32 -109.5v-92q0 -34 -6 -62.5t-17.5 -55.5t-28.5 -53.5t-39 -55.5q-31 -39 -49 -66.5t-27 -50.5
t-11.5 -46.5t-2.5 -54.5v-76h181v-75h-257z" />
    <glyph glyph-name="three" unicode="3" horiz-adv-x="310" 
d="M209 319q0 33 -10.5 49t-44.5 16h-39v71h43q31 0 40.5 16.5t9.5 48.5v170q0 34 -11 49.5t-42 15.5q-30 0 -41 -15.5t-11 -49.5v-145h-75v145q0 75 30.5 108.5t96.5 33.5t96 -33.5t30 -109.5v-177q0 -40 -15 -61t-44 -32q28 -7 44.5 -27.5t16.5 -65.5v-195
q0 -63 -31 -101.5t-97 -38.5t-97.5 38t-31.5 101v162h77v-162q0 -30 12 -47t40 -17q29 0 41.5 17t12.5 48v188z" />
    <glyph glyph-name="four" unicode="4" horiz-adv-x="319" 
d="M199 629l-121 -388h119zM197 0v169h-187v66l185 588h72v-582h40v-72h-40v-169h-70z" />
    <glyph glyph-name="five" unicode="5" horiz-adv-x="316" 
d="M213 396q0 58 -55 58q-48 0 -60 -50l-67 3l10 416h240v-77h-171l-9 -265q11 17 31 29t55 12q48 0 73.5 -29t25.5 -98v-266q0 -70 -30 -104t-96 -34q-128 0 -128 138v173h74v-173q0 -63 54 -63q53 0 53 64v266z" />
    <glyph glyph-name="six" unicode="6" horiz-adv-x="319" 
d="M31 692q0 66 31.5 103t97.5 37t95.5 -37t29.5 -103v-142h-73v142q0 30 -12.5 46.5t-39.5 16.5q-26 0 -39.5 -16.5t-13.5 -46.5v-217q10 18 29 30t51 12q54 0 78.5 -30.5t24.5 -100.5v-255q0 -66 -32 -103t-98 -37t-97.5 36.5t-31.5 102.5v562zM214 369q0 38 -12.5 56.5
t-41.5 18.5q-49 0 -53 -49v-246q0 -39 11 -61t42 -22q29 0 41.5 17t12.5 48v238z" />
    <glyph glyph-name="seven" unicode="7" horiz-adv-x="288" 
d="M69 0q0 171 15.5 298.5t37 218t44 146.5t36.5 83h-188v77h260v-71q-33 -74 -57.5 -154t-40 -171.5t-23.5 -197t-8 -229.5h-76z" />
    <glyph glyph-name="eight" unicode="8" horiz-adv-x="315" 
d="M285 128q0 -67 -31.5 -102t-97.5 -35t-97 35t-31 102v197q0 45 17 68t44 32q-25 10 -40 31.5t-15 63.5v170q0 69 28 105.5t94 36.5t94 -36.5t28 -105.5v-170q0 -42 -14.5 -63.5t-39.5 -31.5q26 -9 43.5 -32t17.5 -68v-197zM210 330q0 28 -12.5 41t-41.5 13q-53 0 -53 -54
v-201q0 -32 12 -47.5t41 -15.5t41.5 15.5t12.5 47.5v201zM209 690q0 35 -10.5 50t-42.5 15q-31 0 -41.5 -15t-10.5 -50v-180q0 -29 12 -42t40 -13q53 0 53 55v180z" />
    <glyph glyph-name="nine" unicode="9" horiz-adv-x="319" 
d="M211 691q0 34 -13 49t-41 15t-40.5 -14t-12.5 -50v-238q0 -59 53 -59q50 0 54 49v248zM211 360q-10 -18 -29 -29.5t-50 -11.5q-54 0 -78.5 30t-24.5 100v243q0 140 128 140q66 0 98 -36t32 -103v-562q0 -66 -32 -103t-98 -37q-61 0 -94 37t-33 103v142h74v-142
q0 -31 13.5 -48t39.5 -17q27 0 40.5 17t13.5 48v229z" />
    <glyph glyph-name="colon" unicode=":" horiz-adv-x="133" 
d="M31 366v124h71v-124h-71zM31 0v125h71v-125h-71z" />
    <glyph glyph-name="semicolon" unicode=";" horiz-adv-x="134" 
d="M31 366v124h71v-124h-71zM41 -60v33h6q17 0 17 18v31h-33v103h72v-129q0 -26 -12.5 -41t-41.5 -15h-8z" />
    <glyph glyph-name="less" unicode="&#x3c;" horiz-adv-x="462" 
d="M37 384v70l389 128v-58l-331 -103l331 -109v-57z" />
    <glyph glyph-name="equal" unicode="=" horiz-adv-x="462" 
d="M37 484v58h389v-58h-389zM37 297v58h389v-58h-389z" />
    <glyph glyph-name="greater" unicode="&#x3e;" horiz-adv-x="462" 
d="M37 255v57l331 109l-331 103v58l389 -128v-70z" />
    <glyph glyph-name="question" unicode="?" horiz-adv-x="299" 
d="M105 187v111q0 29 2.5 51.5t8.5 41t16 35.5t25 34q15 16 23.5 28.5t13 27.5t6 35t1.5 52v87q0 65 -51 65q-53 0 -53 -64v-145h-73v144q0 73 30 107.5t96 34.5t96 -34t30 -109v-86q0 -61 -11.5 -98t-37.5 -68q-18 -20 -28 -34t-15.5 -28.5t-6.5 -31.5t-1 -43v-113h-71z
M105 0v125h71v-125h-71z" />
    <glyph glyph-name="at" unicode="@" horiz-adv-x="515" 
d="M483 63q3 -9 3 -22q0 -30 -10.5 -56t-37 -45.5t-70.5 -31t-110 -11.5q-53 0 -95 12.5t-72 41.5t-46 76.5t-16 118.5v349q0 124 54.5 177t172.5 53q115 0 167 -50t52 -161v-305q0 -48 -23 -78t-65 -30q-27 0 -47 12t-28 31q-4 -15 -20 -27t-43 -12q-37 0 -59.5 20
t-22.5 74v217q0 30 6 50t16.5 31.5t26 16t33.5 4.5q22 0 36.5 -10.5t21.5 -27.5q0 9 0.5 17t1.5 16h37v-313q2 -19 8.5 -34t29.5 -15q17 0 28 12t11 43v309q0 70 -39 110t-128 40q-48 0 -80.5 -11.5t-52 -34.5t-27.5 -57.5t-8 -80.5v-337q0 -53 12 -88t35 -57t56 -31t76 -9
q47 0 79 6t51.5 17t28 27.5t8.5 37.5q0 14 -1 16h50zM300 420q-3 22 -11 32.5t-26 10.5q-22 0 -33.5 -11.5t-11.5 -38.5v-201q0 -32 10.5 -45.5t34.5 -13.5q29 0 37 33v234z" />
    <glyph glyph-name="A" unicode="A" horiz-adv-x="335" 
d="M245 0l-18 138h-123l-18 -138h-74l113 823h89l107 -823h-76zM218 208q-13 106 -26 209.5t-25 212.5q-13 -109 -26.5 -212.5t-27.5 -209.5h105z" />
    <glyph glyph-name="B" unicode="B" horiz-adv-x="325" 
d="M219 683q0 35 -11.5 49t-39.5 14h-55v-291h56q27 0 38.5 13t11.5 42v173zM222 322q0 35 -10.5 50.5t-42.5 15.5h-56v-313h55q54 0 54 64v183zM37 0v823h131q66 0 94 -33t28 -108v-165q0 -77 -50 -91q24 -5 42 -25.5t18 -65.5v-196q0 -73 -33 -106t-99 -33h-131z" />
    <glyph glyph-name="C" unicode="C" horiz-adv-x="309" 
d="M213 302h69v-170q0 -72 -28.5 -106.5t-91.5 -34.5q-131 0 -131 139v560q0 142 131 142q120 0 120 -140v-146h-69v145q0 33 -11 48.5t-40 15.5q-54 0 -54 -64v-560q0 -65 54 -65q28 0 39.5 16t11.5 49v171z" />
    <glyph glyph-name="D" unicode="D" horiz-adv-x="326" 
d="M219 681q0 31 -13.5 48t-40.5 17h-52v-671h52q54 0 54 65v541zM37 0v823h128q66 0 98 -37.5t32 -103.5v-542q0 -140 -130 -140h-128z" />
    <glyph glyph-name="E" unicode="E" 
d="M37 0v823h218v-77h-142v-289h100v-76h-100v-306h147v-75h-223z" />
    <glyph glyph-name="F" unicode="F" horiz-adv-x="270" 
d="M37 0v823h223v-77h-147v-293h101v-76h-101v-377h-76z" />
    <glyph glyph-name="G" unicode="G" horiz-adv-x="322" 
d="M280 -5l-25 45q-12 -24 -39 -36.5t-61 -12.5q-27 0 -49.5 7t-39 23.5t-26 43.5t-9.5 66v560q0 69 32 105t98 36t95.5 -36t29.5 -105v-145h-68v145q0 32 -13 48t-44 16q-29 0 -41.5 -16t-12.5 -48v-560q0 -32 15 -48.5t38 -16.5q54 0 59 59v187h-63v72h136v-389h-12z" />
    <glyph glyph-name="H" unicode="H" horiz-adv-x="332" 
d="M219 0v381h-106v-381h-76v823h76v-367h106v367h76v-823h-76z" />
    <glyph glyph-name="I" unicode="I" horiz-adv-x="154" 
d="M39 0v823h76v-823h-76z" />
    <glyph glyph-name="J" unicode="J" horiz-adv-x="217" 
d="M10 77q15 -7 48 -7q49 0 49 64v689h76v-689q0 -73 -32 -106.5t-93 -33.5q-34 0 -48 7v76z" />
    <glyph glyph-name="K" unicode="K" horiz-adv-x="349" 
d="M257 0l-144 405v-405h-76v823h76v-355l139 355h82l-156 -375l166 -448h-87z" />
    <glyph glyph-name="L" unicode="L" horiz-adv-x="270" 
d="M37 0v823h76v-748h147v-75h-223z" />
    <glyph glyph-name="M" unicode="M" horiz-adv-x="451" 
d="M345 0v249q0 91 0.5 178t1.5 178l-89 -605h-67l-88 605q1 -91 1.5 -178t0.5 -178v-249h-70v823h102l87 -643l87 643h105v-823h-71z" />
    <glyph glyph-name="N" unicode="N" horiz-adv-x="353" 
d="M242 0l-142 601q1 -94 1 -182.5v-182.5v-236h-66v823h91l126 -603q-1 85 -1 166.5v166.5v270h67v-823h-76z" />
    <glyph glyph-name="O" unicode="O" horiz-adv-x="321" 
d="M31 692q0 140 129 140q130 0 130 -140v-561q0 -140 -130 -140q-129 0 -129 140v561zM214 692q0 63 -54 63q-53 0 -53 -63v-561q0 -65 53 -65q54 0 54 65v561z" />
    <glyph glyph-name="P" unicode="P" horiz-adv-x="322" 
d="M231 674q0 37 -15 54.5t-51 17.5h-52v-281h53q33 0 49 17t16 55v137zM37 0v823h128q72 0 106.5 -35.5t34.5 -113.5v-135q0 -78 -34 -113t-106 -35h-53v-391h-76z" />
    <glyph glyph-name="Q" unicode="Q" horiz-adv-x="321" 
d="M290 -72q-8 -10 -24.5 -17t-42.5 -7q-24 0 -42 8.5t-29.5 22.5t-17.5 32.5t-6 39.5q-97 16 -97 137v548q0 69 31.5 104.5t97.5 35.5q130 0 130 -140v-548q0 -60 -26 -97t-84 -41q0 -17 12 -29.5t41 -12.5q38 0 57 25v-61zM214 692q0 63 -54 63q-53 0 -53 -63v-552
q0 -63 53 -63q54 0 54 63v552z" />
    <glyph glyph-name="R" unicode="R" horiz-adv-x="331" 
d="M230 0q-13 97 -27 188.5t-31 185.5q-5 -1 -9 -1h-9h-41v-373h-76v823h125q72 0 107.5 -33.5t35.5 -114.5v-164q0 -90 -61 -121q20 -100 37 -196.5t32 -193.5h-83zM228 665q0 45 -13 63t-53 18h-49v-304h50q35 0 50 16.5t15 51.5v155z" />
    <glyph glyph-name="S" unicode="S" horiz-adv-x="310" 
d="M207 244q0 19 -1 31t-4 21t-8 16.5t-12 16.5q-15 18 -30 33.5t-31 31t-32.5 33t-34.5 39.5q-20 23 -23.5 47.5t-3.5 59.5v123q0 136 128 136q69 0 97 -33.5t28 -102.5v-150h-71v140q0 31 -10.5 50t-41.5 19q-53 0 -53 -59v-122q0 -26 3.5 -38t14.5 -26q30 -38 61.5 -67
t63.5 -67q11 -13 18 -26t11 -28t5.5 -34t1.5 -43v-118q0 -66 -29.5 -101t-98.5 -35q-67 0 -97.5 35t-30.5 101v175h73v-164q0 -32 11.5 -52t41.5 -20q29 0 41.5 15.5t12.5 45.5v117z" />
    <glyph glyph-name="T" unicode="T" horiz-adv-x="281" 
d="M103 0v746h-92v77h259v-77h-92v-746h-75z" />
    <glyph glyph-name="U" unicode="U" horiz-adv-x="326" 
d="M216 823h76v-692q0 -140 -129 -140t-129 140v692h76v-692q0 -65 53 -65t53 65v692z" />
    <glyph glyph-name="V" unicode="V" horiz-adv-x="338" 
d="M114 0l-102 823h79q6 -51 13.5 -116.5t15 -136t15.5 -140.5t14.5 -130t11 -105t6.5 -64q2 20 7 64.5t11.5 104.5t15 130t17 140.5t16.5 136t15 116.5h76l-109 -823h-102z" />
    <glyph glyph-name="W" unicode="W" horiz-adv-x="526" 
d="M318 0q-5 44 -11 101.5t-12 119.5l-12 124t-10.5 115t-8 92.5t-4.5 57.5q-1 -18 -4.5 -57.5t-8.5 -92.5t-11 -115t-13 -124t-13.5 -119.5t-12.5 -101.5h-93l-92 823h79q6 -51 12.5 -113t13 -127.5t12 -129.5t10.5 -118.5t9 -96.5t6 -62q2 20 6.5 62t10.5 96.5t12.5 118.5
t14 129.5t14.5 127.5t13 113h76l62 -647q2 20 6.5 62t10.5 96.5t12.5 118.5t14 129.5t14.5 127.5t13 113h80l-104 -823h-92z" />
    <glyph glyph-name="X" unicode="X" horiz-adv-x="339" 
d="M252 0q-12 42 -25.5 97t-26 107t-21.5 94t-12 59q-3 -17 -12 -59t-21 -94t-25.5 -106.5t-25.5 -97.5h-78l120 439l-102 384h81q9 -33 19.5 -77t19.5 -86.5t16.5 -78t10.5 -53.5q3 18 10.5 53.5t17 78t20 86.5t19.5 77h79l-104 -382l122 -441h-82z" />
    <glyph glyph-name="Y" unicode="Y" horiz-adv-x="332" 
d="M125 0v369l-116 454h80q10 -41 21.5 -90.5t23 -97.5t20.5 -88.5t13 -62.5q4 22 13 62.5t20.5 88.5t24 97.5t23.5 90.5h74l-120 -454v-369h-77z" />
    <glyph glyph-name="Z" unicode="Z" horiz-adv-x="307" 
d="M25 0v76l182 673h-175v74h251v-69l-179 -677h179v-77h-258z" />
    <glyph glyph-name="bracketleft" unicode="[" horiz-adv-x="247" 
d="M74 -80v983h151v-56h-96v-872h96v-55h-151z" />
    <glyph glyph-name="backslash" unicode="\" horiz-adv-x="241" 
d="M178 0l-172 823h56l172 -823h-56z" />
    <glyph glyph-name="bracketright" unicode="]" horiz-adv-x="247" 
d="M74 -80v55h96v872h-96v56h151v-983h-151z" />
    <glyph glyph-name="asciicircum" unicode="^" horiz-adv-x="314" 
d="M221 507l-62 254l-67 -254h-55l86 316h69l84 -316h-55z" />
    <glyph glyph-name="underscore" unicode="_" horiz-adv-x="297" 
d="M-1 -108v51h299v-51h-299z" />
    <glyph glyph-name="grave" unicode="`" horiz-adv-x="275" 
d="M171 656l-134 161h88l113 -161h-67z" />
    <glyph glyph-name="a" unicode="a" horiz-adv-x="284" 
d="M190 0q-4 13 -4 37q-25 -46 -74 -46q-42 0 -65.5 23t-23.5 75v91q0 45 12.5 75.5t34 51.5t50.5 35.5t62 28.5v135q0 26 -9.5 40t-35.5 14q-27 0 -36 -14t-9 -40v-130h-61v131q0 61 25.5 91.5t82.5 30.5q109 0 109 -122v-436q0 -22 1 -41t4 -30h-63zM182 316
q-30 -11 -48.5 -24t-28 -29.5t-12.5 -38t-3 -49.5v-66q0 -51 47 -51q15 0 27.5 9t17.5 30v219z" />
    <glyph glyph-name="b" unicode="b" horiz-adv-x="303" 
d="M203 510q0 47 -44 47q-17 0 -31.5 -10t-21.5 -30v-410q7 -20 21.5 -30.5t31.5 -10.5q23 0 33.5 11.5t10.5 40.5v392zM37 0v823h69v-234q11 18 30.5 29t44.5 11q48 0 69 -26.5t21 -87.5v-396q0 -66 -24 -96t-78 -30q-31 0 -51.5 15t-32.5 38q-2 -12 -4.5 -23.5t-6.5 -22.5
h-37z" />
    <glyph glyph-name="c" unicode="c" horiz-adv-x="283" 
d="M190 253h64v-138q0 -57 -26.5 -90.5t-83.5 -33.5t-85 34.5t-28 91.5v384q0 57 28 92.5t85 35.5t82.5 -35t25.5 -92v-134h-62v135q0 55 -46 55q-23 0 -34.5 -15t-11.5 -41v-385q0 -56 46 -56t46 55v137z" />
    <glyph glyph-name="d" unicode="d" horiz-adv-x="303" 
d="M197 518q-17 41 -54 41q-23 0 -33 -11.5t-10 -39.5v-390q0 -29 10 -40.5t33 -11.5q37 0 54 41v411zM207 0q-1 11 -1.5 22.5t-0.5 23.5q-11 -25 -31.5 -39t-54.5 -14q-88 0 -88 116v406q0 61 21.5 87.5t69.5 26.5q24 0 43.5 -11t31.5 -29v234h68v-823h-58z" />
    <glyph glyph-name="e" unicode="e" 
d="M184 502q0 55 -46 55q-43 0 -43 -55v-149h89v149zM184 252h65v-136q0 -125 -111 -125q-107 0 -107 125v386q0 63 27.5 95t79.5 32q111 0 111 -127v-199h-154v-187q0 -55 43 -55q46 0 46 55v136z" />
    <glyph glyph-name="f" unicode="f" horiz-adv-x="191" 
d="M40 0v558h-30v61h30v86q0 58 20.5 90.5t74.5 32.5q12 0 24 -1.5t21 -4.5v-59q-11 3 -25 3q-24 0 -35.5 -14.5t-11.5 -48.5v-84h70v-61h-70v-558h-68z" />
    <glyph glyph-name="g" unicode="g" horiz-adv-x="303" 
d="M199 68q-11 -18 -31.5 -28.5t-46.5 -10.5q-48 0 -69 26t-21 87v367q0 60 22.5 88t65.5 28q32 0 52.5 -13.5t33.5 -39.5q0 12 0.5 24t1.5 23h58v-651q0 -57 -27.5 -87t-85.5 -30q-32 0 -54 8t-35 23t-18.5 36.5t-5.5 49.5v25h62v-28q0 -54 50 -54q48 0 48 54v103zM199 511
q-8 20 -23 30.5t-33 10.5q-26 0 -35 -12.5t-9 -34.5v-361q0 -26 9.5 -37.5t34.5 -11.5q18 0 33 10t23 30v376z" />
    <glyph glyph-name="h" unicode="h" horiz-adv-x="302" 
d="M199 0v511q0 27 -9 38.5t-31 11.5q-15 0 -30 -9t-23 -29v-523h-69v823h69v-239q14 20 35 32.5t47 12.5q42 0 61 -27t19 -87v-515h-69z" />
    <glyph glyph-name="i" unicode="i" horiz-adv-x="147" 
d="M39 698v125h69v-125h-69zM39 0v619h69v-619h-69z" />
    <glyph glyph-name="j" unicode="j" horiz-adv-x="163" 
d="M-32 -72q8 -2 17.5 -3t18.5 -1q50 0 50 63v632h69v-632q0 -69 -29.5 -100t-89.5 -31q-23 0 -36 4v68zM54 698v125h69v-125h-69z" />
    <glyph glyph-name="k" unicode="k" horiz-adv-x="300" 
d="M216 0l-112 318v-318h-67v823h67v-471l112 267h73l-121 -274l124 -345h-76z" />
    <glyph glyph-name="l" unicode="l" horiz-adv-x="143" 
d="M37 0v823h69v-823h-69z" />
    <glyph glyph-name="m" unicode="m" horiz-adv-x="439" 
d="M336 0v515q0 46 -35 46q-14 0 -26 -9t-20 -29v-523h-69v515q0 46 -35 46q-13 0 -25 -9t-20 -29v-523h-69v619h58q3 -23 3 -46q13 26 34 41t47 15q53 0 67 -54q13 25 34.5 39.5t48.5 14.5q39 0 57 -28t18 -85v-516h-68z" />
    <glyph glyph-name="n" unicode="n" horiz-adv-x="302" 
d="M199 0v511q0 27 -9 38.5t-31 11.5q-15 0 -30 -9t-23 -29v-523h-69v619h58q3 -23 3 -47q14 26 37 41.5t52 15.5q42 0 61.5 -27t19.5 -87v-515h-69z" />
    <glyph glyph-name="o" unicode="o" horiz-adv-x="290" 
d="M31 505q0 60 28 92t86 32q57 0 85.5 -32t28.5 -92v-391q0 -60 -28.5 -91.5t-85.5 -31.5q-58 0 -86 31.5t-28 91.5v391zM192 503q0 26 -9.5 40.5t-37.5 14.5t-37.5 -14.5t-9.5 -40.5v-389q0 -26 9.5 -39.5t37.5 -13.5t37.5 14t9.5 41v387z" />
    <glyph glyph-name="p" unicode="p" horiz-adv-x="303" 
d="M203 500q0 29 -10.5 40.5t-33.5 11.5q-17 0 -31.5 -10t-21.5 -30v-412q7 -20 21.5 -30t31.5 -10q23 0 33.5 11.5t10.5 38.5v390zM37 -139v758h58q3 -23 3 -47q11 26 31 39.5t54 13.5q43 0 65.5 -28t22.5 -88v-405q0 -63 -21 -88t-69 -25q-25 0 -44.5 10.5t-30.5 27.5
v-168h-69z" />
    <glyph glyph-name="q" unicode="q" horiz-adv-x="303" 
d="M197 513q-17 41 -54 41q-23 0 -33 -12t-10 -40v-392q0 -27 10 -38.5t33 -11.5q17 0 31.5 10t22.5 30v413zM197 -139v168q-12 -17 -31.5 -27.5t-43.5 -10.5q-48 0 -69.5 25t-21.5 88v405q0 60 22.5 88t65.5 28q33 0 54 -15t32 -38q0 24 3 47h57v-758h-68z" />
    <glyph glyph-name="r" unicode="r" horiz-adv-x="207" 
d="M37 0v619h58q3 -23 3 -45q13 27 31.5 39t43.5 12q13 0 21 -4v-77q-5 4 -14 5.5t-17 1.5q-16 0 -31.5 -7.5t-25.5 -29.5v-514h-69z" />
    <glyph glyph-name="s" unicode="s" horiz-adv-x="278" 
d="M181 179q0 20 -5.5 34.5t-24.5 37.5q-21 25 -47 47.5t-45 45.5q-20 22 -26 44t-6 58v64q0 64 28 91.5t82 27.5q63 0 86.5 -28t23.5 -91v-101h-63v101q0 23 -13 36.5t-32 13.5q-45 0 -45 -50v-73q0 -22 5.5 -34.5t22.5 -30.5q20 -22 45 -42t44 -42q23 -27 31 -52.5
t8 -65.5v-67q0 -60 -28.5 -86t-86.5 -26q-108 0 -108 115v101h62v-99q0 -23 13.5 -36.5t33.5 -13.5q45 0 45 50v71z" />
    <glyph glyph-name="t" unicode="t" horiz-adv-x="191" 
d="M180 -4q-5 -2 -14.5 -3.5t-17.5 -1.5q-55 0 -82 34t-27 94v439h-29v61h29v196h69v-196h70v-61h-70v-439q0 -38 13.5 -53.5t45.5 -15.5h6.5t6.5 1v-55z" />
    <glyph glyph-name="u" unicode="u" horiz-adv-x="300" 
d="M204 0q-1 11 -1.5 22t-0.5 23q-14 -25 -36.5 -38.5t-51.5 -13.5q-80 0 -80 107v519h69v-508q0 -28 9 -39t29 -11q16 0 30.5 8.5t22.5 28.5v521h69v-619h-59z" />
    <glyph glyph-name="v" unicode="v" horiz-adv-x="277" 
d="M101 0l-90 619h69q8 -56 16.5 -122t16.5 -129t14 -115.5t9 -82.5q3 30 9.5 82.5t15.5 115.5t18.5 129t18.5 122h66l-94 -619h-69z" />
    <glyph glyph-name="w" unicode="w" horiz-adv-x="418" 
d="M253 0l-46 462l-52 -462h-82l-60 619h65l39 -486l57 486h67l51 -486l47 486h65l-68 -619h-83z" />
    <glyph glyph-name="x" unicode="x" horiz-adv-x="284" 
d="M205 0q-9 33 -18.5 72t-18.5 77.5t-16.5 72.5t-11.5 58q-5 -24 -12 -58t-15.5 -72.5t-18 -77.5t-18.5 -72h-69l90 329l-78 290h72q6 -26 13.5 -59l15 -66t14 -62t9.5 -45q3 16 9 45t13.5 62t15.5 66t14 59h69l-78 -289l91 -330h-72z" />
    <glyph glyph-name="y" unicode="y" horiz-adv-x="277" 
d="M19 -70q17 -5 34 -5q21 0 30.5 17t14.5 46l4 25l-91 606h72q5 -35 10.5 -78t10.5 -89t10.5 -92t9.5 -86t7.5 -72t5.5 -49q2 17 5.5 49t8.5 72t10.5 86t11.5 92t12.5 89t12.5 78h66l-94 -627q-5 -33 -12 -58t-19.5 -42.5t-32.5 -26.5t-50 -9q-17 0 -37 5v69z" />
    <glyph glyph-name="z" unicode="z" horiz-adv-x="256" 
d="M25 0v64l141 487h-139v68h205v-64l-138 -485h137v-70h-206z" />
    <glyph glyph-name="braceleft" unicode="{" horiz-adv-x="261" 
d="M235 -80q-69 0 -99.5 32.5t-30.5 96.5v219q0 19 -3.5 28t-11.5 20l-74 95l74 96q8 10 11.5 19t3.5 29v217q0 64 30.5 97.5t99.5 33.5h8v-56h-7q-42 0 -59 -17t-17 -59v-207q0 -33 -6 -51.5t-20 -36.5l-51 -65l51 -65q14 -19 20 -38t6 -51v-206q0 -42 17 -59t59 -17h7v-55
h-8z" />
    <glyph glyph-name="bar" unicode="|" horiz-adv-x="193" 
d="M68 -80v983h56v-983h-56z" />
    <glyph glyph-name="braceright" unicode="}" horiz-adv-x="261" 
d="M16 -80v55h7q42 0 59 17t17 59v206q0 32 6 51t20 38l51 65l-51 65q-14 18 -20 36.5t-6 51.5v207q0 42 -17 59t-59 17h-7v56h8q69 0 99.5 -33.5t30.5 -97.5v-217q0 -20 3.5 -29t11.5 -19l74 -96l-74 -95q-8 -11 -11.5 -20t-3.5 -28v-219q0 -64 -30.5 -96.5t-99.5 -32.5h-8
z" />
    <glyph glyph-name="asciitilde" unicode="~" horiz-adv-x="463" 
d="M427 407q-21 -20 -46.5 -30t-61.5 -10q-25 0 -48 8t-45 17t-44 17t-44 8q-27 0 -52 -11.5t-49 -40.5v69q15 17 39 28.5t59 11.5q28 0 52.5 -8t47 -17t43.5 -17t43 -8q33 0 58 12.5t48 38.5v-68z" />
    <glyph glyph-name="nonbreakingspace" unicode="&#xa0;" horiz-adv-x="136" 
 />
    <glyph glyph-name="exclamdown" unicode="&#xa1;" horiz-adv-x="160" 
d="M40 0zM118.993 822.95v-108.994h-77.9961v108.994h77.9961zM104.993 663.959l14.999 -341.979v-321.98h-79.9941v320.98l15.998 342.979h48.9971z" />
    <glyph glyph-name="cent" unicode="&#xa2;" horiz-adv-x="281" 
d="M129 0v88q-51 4 -74.5 38t-23.5 88v381q0 54 23.5 87.5t74.5 38.5v102h31v-102q49 -5 70.5 -39t21.5 -86v-135h-55v136q0 21 -10 36t-28 18v-492q38 5 38 54v134h57v-135q0 -52 -22.5 -85t-71.5 -38v-89h-31zM131 651q-20 -4 -29.5 -18.5t-9.5 -35.5v-383q0 -51 39 -55
v492z" />
    <glyph glyph-name="sterling" unicode="&#xa3;" horiz-adv-x="286" 
d="M265 23q-22 -31 -68 -31q-17 0 -32 6t-28.5 13.5t-26 13.5t-25.5 6q-16 0 -30.5 -8.5t-30.5 -31.5h-4v69q10 14 22.5 23.5t28.5 11.5q2 22 3.5 40.5t2 38.5t1 44t0.5 59v189h-55v58h55v149q0 78 30.5 118.5t90.5 40.5q29 0 49 -7v-70q-15 7 -34 7q-35 0 -52.5 -23
t-17.5 -65v-150h104v-58h-104v-189q0 -34 -1 -60t-2.5 -48.5t-4 -43t-5.5 -42.5q14 -5 32.5 -15.5t39.5 -10.5q19 0 33 7t25 26h4v-67z" />
    <glyph glyph-name="currency" unicode="&#xa4;" horiz-adv-x="482" 
d="M360 232q-26 -19 -55.5 -30t-64.5 -11q-33 0 -64 11t-54 30l-65 -67l-41 41q5 6 14 14.5t18.5 18t19 18.5t14.5 14q-41 50 -41 120q0 66 41 119l-65 63l41 42l63 -66q49 42 119 42q69 0 121 -43l61 67l42 -42l-65 -63q20 -25 30.5 -55.5t10.5 -63.5q0 -35 -11 -65
t-30 -55l66 -65l-42 -41zM378 391q0 28 -11 53t-29.5 43.5t-44 29t-53.5 10.5q-29 0 -53.5 -10.5t-43 -29t-29 -43.5t-10.5 -53q0 -29 10.5 -54t29 -43.5t43 -29t53.5 -10.5q28 0 53.5 10.5t44 29t29.5 43.5t11 54z" />
    <glyph glyph-name="yen" unicode="&#xa5;" horiz-adv-x="340" 
d="M203 92v-92h-72v92h-114v61h114v96h-114v61h114v57l-119 456h82l77 -338l79 338h76l-123 -457v-56h114v-61h-114v-96h114v-61h-114z" />
    <glyph glyph-name="brokenbar" unicode="&#xa6;" horiz-adv-x="193" 
d="M68 490v413h56v-413h-56zM68 -80v413h56v-413h-56z" />
    <glyph glyph-name="section" unicode="&#xa7;" horiz-adv-x="287" 
d="M183 60q0 24 -3 35.5t-13 22.5q-29 32 -54.5 53t-45.5 45q-18 21 -29.5 43.5t-11.5 56.5v99q0 38 15.5 65.5t43.5 38.5q-29 27 -41.5 50.5t-12.5 62.5v87q0 113 113 113q64 0 86.5 -32t22.5 -96v-95h-62v100q0 27 -9.5 42.5t-35.5 15.5q-47 0 -47 -48v-86
q0 -21 2.5 -34.5t13.5 -24.5q29 -30 53.5 -50.5t46.5 -44.5q12 -13 19.5 -23.5t12.5 -22t7 -25t2 -32.5v-98q0 -38 -16 -62.5t-42 -36.5q15 -15 25 -27.5t16 -26t9 -29t3 -35.5v-87q0 -113 -113 -113q-33 0 -54 8t-33 24t-17 40t-5 56v95h62v-100q0 -28 9.5 -43t35.5 -15
q47 0 47 48v86zM190 359q0 21 -2.5 35t-9 24.5t-18.5 21t-30 24.5q-21 -2 -29.5 -14.5t-8.5 -34.5v-81q0 -21 2.5 -35.5t9.5 -26t18.5 -21.5t28.5 -23q22 2 30.5 14.5t8.5 35.5v81z" />
    <glyph glyph-name="dieresis" unicode="&#xa8;" horiz-adv-x="293" 
d="M187 668v125h69v-125h-69zM37 668v125h69v-125h-69z" />
    <glyph glyph-name="ordfeminine" unicode="&#xaa;" horiz-adv-x="217" 
d="M128 300q-1 5 -1.5 9.5t-0.5 9.5q-14 -24 -38 -24q-22 0 -34 12.5t-12 41.5v50q0 24 6.5 40.5t17.5 27.5t26 19t32 15v77q0 22 -19 22q-11 0 -14.5 -5.5t-3.5 -16.5v-71h-41v72q0 67 60 67q61 0 61 -67v-250q0 -10 1 -17.5t2 -11.5h-42zM124 464q-14 -5 -21.5 -11.5
t-11 -14.5t-4 -18.5t-0.5 -23.5v-35q0 -21 18 -21q13 0 19 14v110z" />
    <glyph glyph-name="guillemotleft" unicode="&#xab;" horiz-adv-x="390" 
d="M19 178zM19 296v75l157 112v-65l-120 -84l120 -88v-68zM214 296v75l157 112v-65l-120 -84l120 -88v-68z" />
    <glyph glyph-name="logicalnot" unicode="&#xac;" horiz-adv-x="419" 
d="M310 0v389h-290v73h361v-462h-71z" />
    <glyph glyph-name="macron" unicode="&#xaf;" horiz-adv-x="304" 
d="M37 700v59h230v-59h-230z" />
    <glyph glyph-name="degree" unicode="&#xb0;" horiz-adv-x="305" 
d="M152 560q-60 0 -90.5 36.5t-30.5 94.5q0 57 30.5 95.5t90.5 38.5t90.5 -38.5t30.5 -95.5q0 -58 -30.5 -94.5t-90.5 -36.5zM151 603q40 0 58 22.5t18 65.5t-18 66t-58 23q-38 0 -57.5 -23t-19.5 -66q0 -88 77 -88z" />
    <glyph glyph-name="plusminus" unicode="&#xb1;" horiz-adv-x="462" 
d="M37 132zM203 224v167h-166v57h166v165h57v-165h166v-57h-166v-167h-57zM37 132v57h389v-57h-389z" />
    <glyph glyph-name="twosuperior" unicode="&#xb2;" horiz-adv-x="185" 
d="M27 422zM27 422v75q0 18 1.5 32t6 26.5t12 26.5t19.5 32q14 21 23 35t14 25.5t7 22.5t2 26v44q0 24 -20 24q-19 0 -19 -24v-72h-46v71q0 38 16 55t49 17q66 0 66 -72v-48q0 -31 -10.5 -58t-32.5 -57q-14 -20 -22 -33.5t-12.5 -25t-5.5 -22.5t-1 -25v-29h84v-46h-131z" />
    <glyph glyph-name="threesuperior" unicode="&#xb3;" horiz-adv-x="186" 
d="M27 417zM113 586q0 24 -20 24h-21v43h23q11 0 14 6.5t3 17.5v90q0 24 -19 24t-19 -24v-73h-46v73q0 38 16 54.5t49 16.5t48.5 -17t15.5 -55v-91q0 -32 -27 -44q14 -4 21 -14t7 -30v-100q0 -32 -16 -51t-49 -19t-49.5 19t-16.5 51v81h47v-81q0 -24 19 -24q20 0 20 24v99z
" />
    <glyph glyph-name="acute" unicode="&#xb4;" horiz-adv-x="275" 
d="M37 656l112 161h89l-135 -161h-66z" />
    <glyph glyph-name="paragraph" unicode="&#xb6;" horiz-adv-x="423" 
d="M282 -134v884h-87v-779q0 -51 -24 -84t-73 -33q-25 0 -43 7v53q12 -4 24 -4q27 0 39 14t12 47v631h-16q-54 0 -75.5 30t-21.5 78q0 23 5.5 43.5t17.5 36t31 24.5t47 9h286v-73h-59v-884h-63zM130 750h-18q-23 0 -33 -16.5t-10 -41.5q0 -23 9.5 -39t31.5 -16h20v113z" />
    <glyph glyph-name="periodcentered" unicode="&#xb7;" horiz-adv-x="133" 
d="M31 340zM31 340v125h71v-125h-71z" />
    <glyph glyph-name="cedilla" unicode="&#xb8;" horiz-adv-x="133" 
d="M45 -149v25h8q11 0 11 12v20h-27v72h58v-90q0 -19 -9 -29t-30 -10h-11z" />
    <glyph glyph-name="onesuperior" unicode="&#xb9;" horiz-adv-x="125" 
d="M23 422zM45 422v336h-22v45h10q17 0 17 19v11h41v-411h-46z" />
    <glyph glyph-name="ordmasculine" unicode="&#xba;" horiz-adv-x="220" 
d="M46 578q0 68 64 68t64 -68v-215q0 -68 -64 -68t-64 68v215zM129 576q0 11 -4 17t-15 6q-19 0 -19 -23v-212q0 -22 19 -22q11 0 15 5.5t4 16.5v212z" />
    <glyph glyph-name="guillemotright" unicode="&#xbb;" horiz-adv-x="390" 
d="M19 178zM19 178v68l120 88l-120 84v65l157 -112v-75zM214 178v68l120 88l-120 84v65l157 -112v-75z" />
    <glyph glyph-name="onequarter" unicode="&#xbc;" horiz-adv-x="480" 
d="M31 0zM97 422v336h-22v45h10q17 0 17 19v11h41v-411h-46zM31 0l362 823h51l-361 -823h-52zM369 115q0 61 1 99t2 69q-9 -31 -20 -69t-30 -99h47zM369 -10v82h-88v40l88 289h43v-286h20v-43h-20v-82h-43z" />
    <glyph glyph-name="onehalf" unicode="&#xbd;" horiz-adv-x="480" 
d="M31 0zM97 422v336h-22v45h10q17 0 17 19v11h41v-411h-46zM31 0l362 823h51l-361 -823h-52zM309 -10v75q0 18 1.5 32t6 26.5t12 26.5t19.5 32q14 21 23 35t14 25.5t7 22.5t2 26v44q0 24 -20 24q-19 0 -19 -24v-72h-46v71q0 38 16 55t49 17q66 0 66 -72v-48
q0 -31 -10.5 -58t-32.5 -57q-14 -20 -22 -33.5t-12.5 -25t-5.5 -22.5t-1 -25v-29h84v-46h-131z" />
    <glyph glyph-name="threequarters" unicode="&#xbe;" horiz-adv-x="480" 
d="M31 0zM134 586q0 24 -20 24h-21v43h23q11 0 14 6.5t3 17.5v90q0 24 -19 24t-19 -24v-73h-46v73q0 38 16 54.5t49 16.5t48.5 -17t15.5 -55v-91q0 -32 -27 -44q14 -4 21 -14t7 -30v-100q0 -32 -16 -51t-49 -19t-49.5 19t-16.5 51v81h47v-81q0 -24 19 -24q20 0 20 24v99z
M31 0l362 823h51l-361 -823h-52zM359 115q0 61 1 99t2 69q-9 -31 -20 -69t-30 -99h47zM359 -10v82h-88v40l88 289h43v-286h20v-43h-20v-82h-43z" />
    <glyph glyph-name="questiondown" unicode="&#xbf;" horiz-adv-x="299" 
d="M24 0zM194.988 635.961v-110.993q0 -28.998 -2.5 -51.4971q-2.5 -22.498 -8.5 -40.9971q-5.99902 -18.499 -15.998 -35.498q-10 -16.999 -24.999 -33.998q-14.999 -15.999 -23.498 -28.498q-8.5 -12.499 -13 -27.498q-4.49902 -14.999 -5.99902 -34.998t-1.5 -51.9971
v-86.9941q0 -64.9961 50.9971 -64.9961q52.9961 0 52.9961 63.9961v144.991h72.9961v-143.991q0 -72.9961 -29.998 -107.494q-29.999 -34.4971 -95.9941 -34.4971q-65.9961 0 -95.9941 33.9971q-29.999 33.998 -29.999 108.994v85.9941q0 60.9961 11.5 97.9941
q11.499 36.998 37.4971 67.9961q17.999 19.999 27.999 33.998q9.99902 13.999 15.499 28.498q5.49902 14.499 6.49902 31.498t1 42.9971v112.993h70.9961zM194.988 822.95v-124.993h-70.9961v124.993h70.9961z" />
    <glyph glyph-name="Agrave" unicode="&#xc0;" horiz-adv-x="335" 
d="M12 0zM245 0l-18 138h-123l-18 -138h-74l113 823h89l107 -823h-76zM218 208q-13 106 -26 209.5t-25 212.5q-13 -109 -26.5 -212.5t-27.5 -209.5h105zM152 860l-134 161h88l113 -161h-67z" />
    <glyph glyph-name="Aacute" unicode="&#xc1;" horiz-adv-x="335" 
d="M12 0zM245 0l-18 138h-123l-18 -138h-74l113 823h89l107 -823h-76zM218 208q-13 106 -26 209.5t-25 212.5q-13 -109 -26.5 -212.5t-27.5 -209.5h105zM117 860l112 161h89l-135 -161h-66z" />
    <glyph glyph-name="Acircumflex" unicode="&#xc2;" horiz-adv-x="335" 
d="M12 0zM245 0l-18 138h-123l-18 -138h-74l113 823h89l107 -823h-76zM218 208q-13 106 -26 209.5t-25 212.5q-13 -109 -26.5 -212.5t-27.5 -209.5h105zM248 860l-79 123l-82 -123h-64l108 161h80l104 -161h-67z" />
    <glyph glyph-name="Atilde" unicode="&#xc3;" horiz-adv-x="335" 
d="M12 0zM245 0l-18 138h-123l-18 -138h-74l113 823h89l107 -823h-76zM218 208q-13 106 -26 209.5t-25 212.5q-13 -109 -26.5 -212.5t-27.5 -209.5h105zM287 917q-9 -11 -24.5 -18.5t-36.5 -7.5q-17 0 -32 5t-29.5 11.5t-29 11.5t-30.5 5q-35 0 -57 -31v61q10 11 24.5 19
t35.5 8q18 0 33 -5t29.5 -11.5t28.5 -11.5t31 -5q33 0 57 30v-61z" />
    <glyph glyph-name="Adieresis" unicode="&#xc4;" horiz-adv-x="335" 
d="M12 0zM245 0l-18 138h-123l-18 -138h-74l113 823h89l107 -823h-76zM218 208q-13 106 -26 209.5t-25 212.5q-13 -109 -26.5 -212.5t-27.5 -209.5h105zM208 872v125h69v-125h-69zM58 872v125h69v-125h-69z" />
    <glyph glyph-name="Aring" unicode="&#xc5;" horiz-adv-x="335" 
d="M12 0zM245 0l-18 138h-123l-18 -138h-74l113 823h89l107 -823h-76zM218 208q-13 106 -26 209.5t-25 212.5q-13 -109 -26.5 -212.5t-27.5 -209.5h105zM264 941q0 -34 -24.5 -56t-72.5 -22t-72 22t-24 56q0 35 24 57.5t72 22.5t72.5 -22.5t24.5 -57.5zM224 941q0 46 -57 46
q-58 0 -58 -46q0 -45 58 -45q57 0 57 45z" />
    <glyph glyph-name="AE" unicode="&#xc6;" horiz-adv-x="462" 
d="M218 0v138h-113l-19 -138h-74l113 823h312v-77h-142v-289h101v-76h-101v-306h146v-75h-223zM218 746h-33l-71 -538h104v538z" />
    <glyph glyph-name="Ccedilla" unicode="&#xc7;" horiz-adv-x="309" 
d="M31 0zM213 302h69v-170q0 -72 -28.5 -106.5t-91.5 -34.5q-131 0 -131 139v560q0 142 131 142q120 0 120 -140v-146h-69v145q0 33 -11 48.5t-40 15.5q-54 0 -54 -64v-560q0 -65 54 -65q28 0 39.5 16t11.5 49v171zM143 -149v25h8q11 0 11 12v20h-27v72h58v-90q0 -19 -9 -29
t-30 -10h-11z" />
    <glyph glyph-name="Egrave" unicode="&#xc8;" 
d="M0 0zM37 0v823h218v-77h-142v-289h100v-76h-100v-306h147v-75h-223zM125 860l-134 161h88l113 -161h-67z" />
    <glyph glyph-name="Eacute" unicode="&#xc9;" 
d="M37 0zM37 0v823h218v-77h-142v-289h100v-76h-100v-306h147v-75h-223zM89 860l112 161h89l-135 -161h-66z" />
    <glyph glyph-name="Ecircumflex" unicode="&#xca;" 
d="M0 0zM37 0v823h218v-77h-142v-289h100v-76h-100v-306h147v-75h-223zM225 860l-79 123l-82 -123h-64l108 161h80l104 -161h-67z" />
    <glyph glyph-name="Edieresis" unicode="&#xcb;" 
d="M37 0zM37 0v823h218v-77h-142v-289h100v-76h-100v-306h147v-75h-223zM187 872v125h69v-125h-69zM37 872v125h69v-125h-69z" />
    <glyph glyph-name="Igrave" unicode="&#xcc;" horiz-adv-x="154" 
d="M0 0zM39 0v823h76v-823h-76zM62 860l-134 161h88l113 -161h-67z" />
    <glyph glyph-name="Iacute" unicode="&#xcd;" horiz-adv-x="154" 
d="M28 0zM39 0v823h76v-823h-76zM28 860l112 161h89l-135 -161h-66z" />
    <glyph glyph-name="Icircumflex" unicode="&#xce;" horiz-adv-x="154" 
d="M0 0zM39 0v823h76v-823h-76zM157 860l-79 123l-82 -123h-64l108 161h80l104 -161h-67z" />
    <glyph glyph-name="Idieresis" unicode="&#xcf;" horiz-adv-x="154" 
d="M0 0zM39 0v823h76v-823h-76zM119 872v125h69v-125h-69zM-31 872v125h69v-125h-69z" />
    <glyph glyph-name="Eth" unicode="&#xd0;" horiz-adv-x="324" 
d="M35 0v381h-25v76h25v366h129q64 0 96.5 -37.5t32.5 -103.5v-542q0 -140 -129 -140h-129zM218 682q0 26 -12.5 45t-41.5 19h-53v-289h60v-76h-60v-306h53q54 0 54 65v542z" />
    <glyph glyph-name="Ntilde" unicode="&#xd1;" horiz-adv-x="353" 
d="M35 0zM242 0l-142 601q1 -94 1 -182.5v-182.5v-236h-66v823h91l126 -603q-1 85 -1 166.5v166.5v270h67v-823h-76zM296 917q-9 -11 -24.5 -18.5t-36.5 -7.5q-17 0 -32 5t-29.5 11.5t-29 11.5t-30.5 5q-35 0 -57 -31v61q10 11 24.5 19t35.5 8q18 0 33 -5t29.5 -11.5
t28.5 -11.5t31 -5q33 0 57 30v-61z" />
    <glyph glyph-name="Ograve" unicode="&#xd2;" horiz-adv-x="321" 
d="M11 0zM31 692q0 140 129 140q130 0 130 -140v-561q0 -140 -130 -140q-129 0 -129 140v561zM214 692q0 63 -54 63q-53 0 -53 -63v-561q0 -65 53 -65q54 0 54 65v561zM145 860l-134 161h88l113 -161h-67z" />
    <glyph glyph-name="Oacute" unicode="&#xd3;" horiz-adv-x="321" 
d="M31 0zM31 692q0 140 129 140q130 0 130 -140v-561q0 -140 -130 -140q-129 0 -129 140v561zM214 692q0 63 -54 63q-53 0 -53 -63v-561q0 -65 53 -65q54 0 54 65v561zM110 860l112 161h89l-135 -161h-66z" />
    <glyph glyph-name="Ocircumflex" unicode="&#xd4;" horiz-adv-x="321" 
d="M16 0zM31 692q0 140 129 140q130 0 130 -140v-561q0 -140 -130 -140q-129 0 -129 140v561zM214 692q0 63 -54 63q-53 0 -53 -63v-561q0 -65 53 -65q54 0 54 65v561zM241 860l-79 123l-82 -123h-64l108 161h80l104 -161h-67z" />
    <glyph glyph-name="Otilde" unicode="&#xd5;" horiz-adv-x="321" 
d="M31 0zM31 692q0 140 129 140q130 0 130 -140v-561q0 -140 -130 -140q-129 0 -129 140v561zM214 692q0 63 -54 63q-53 0 -53 -63v-561q0 -65 53 -65q54 0 54 65v561zM280 917q-9 -11 -24.5 -18.5t-36.5 -7.5q-17 0 -32 5t-29.5 11.5t-29 11.5t-30.5 5q-35 0 -57 -31v61
q10 11 24.5 19t35.5 8q18 0 33 -5t29.5 -11.5t28.5 -11.5t31 -5q33 0 57 30v-61z" />
    <glyph glyph-name="Odieresis" unicode="&#xd6;" horiz-adv-x="321" 
d="M31 0zM31 692q0 140 129 140q130 0 130 -140v-561q0 -140 -130 -140q-129 0 -129 140v561zM214 692q0 63 -54 63q-53 0 -53 -63v-561q0 -65 53 -65q54 0 54 65v561zM201 872v125h69v-125h-69zM51 872v125h69v-125h-69z" />
    <glyph glyph-name="multiply" unicode="&#xd7;" horiz-adv-x="462" 
d="M348 261l-118 118l-117 -117l-40 40l117 117l-117 117l41 40l116 -116l118 117l40 -40l-117 -118l118 -118z" />
    <glyph glyph-name="Oslash" unicode="&#xd8;" horiz-adv-x="321" 
d="M31 692q0 140 129 140q38 0 69 -14l22 99h39l-28 -127q28 -34 28 -98v-561q0 -140 -130 -140q-38 0 -69 14l-22 -99h-38l27 126q-27 36 -27 99v561zM214 568l-103 -469q12 -33 49 -33q54 0 54 65v437zM107 255l102 469q-12 31 -49 31q-53 0 -53 -63v-437z" />
    <glyph glyph-name="Ugrave" unicode="&#xd9;" horiz-adv-x="326" 
d="M14 0zM216 823h76v-692q0 -140 -129 -140t-129 140v692h76v-692q0 -65 53 -65t53 65v692zM148 860l-134 161h88l113 -161h-67z" />
    <glyph glyph-name="Uacute" unicode="&#xda;" horiz-adv-x="326" 
d="M34 0zM216 823h76v-692q0 -140 -129 -140t-129 140v692h76v-692q0 -65 53 -65t53 65v692zM112 860l112 161h89l-135 -161h-66z" />
    <glyph glyph-name="Ucircumflex" unicode="&#xdb;" horiz-adv-x="326" 
d="M18 0zM216 823h76v-692q0 -140 -129 -140t-129 140v692h76v-692q0 -65 53 -65t53 65v692zM243 860l-79 123l-82 -123h-64l108 161h80l104 -161h-67z" />
    <glyph glyph-name="Udieresis" unicode="&#xdc;" horiz-adv-x="326" 
d="M34 0zM216 823h76v-692q0 -140 -129 -140t-129 140v692h76v-692q0 -65 53 -65t53 65v692zM203 872v125h69v-125h-69zM53 872v125h69v-125h-69z" />
    <glyph glyph-name="Yacute" unicode="&#xdd;" horiz-adv-x="332" 
d="M9 0zM125 0v369l-116 454h80q10 -41 21.5 -90.5t23 -97.5t20.5 -88.5t13 -62.5q4 22 13 62.5t20.5 88.5t24 97.5t23.5 90.5h74l-120 -454v-369h-77zM117 860l112 161h89l-135 -161h-66z" />
    <glyph glyph-name="Thorn" unicode="&#xde;" horiz-adv-x="327" 
d="M234 529q0 71 -66 71h-55v-397h56q65 0 65 73v253zM37 0v823h76v-146h55q72 0 107 -36t35 -112v-253q0 -72 -34.5 -110t-106.5 -38h-56v-128h-76z" />
    <glyph glyph-name="germandbls" unicode="&#xdf;" horiz-adv-x="328" 
d="M153 63q10 -3 29 -3q27 0 38.5 13t11.5 45v223q0 31 -13.5 43t-37.5 12h-41v66h21q16 0 26 9t10 38v198q0 23 -10 39t-36 16t-36.5 -16t-10.5 -39v-707h-67v709q0 60 28 91.5t86 31.5q57 0 85 -31.5t28 -91.5v-200q0 -29 -10.5 -45.5t-21.5 -21.5q29 -7 48.5 -31.5
t19.5 -72.5v-220q0 -66 -25 -96.5t-88 -30.5q-26 0 -35 3z" />
    <glyph glyph-name="agrave" unicode="&#xe0;" horiz-adv-x="284" 
d="M0 0zM190 0q-4 13 -4 37q-25 -46 -74 -46q-42 0 -65.5 23t-23.5 75v91q0 45 12.5 75.5t34 51.5t50.5 35.5t62 28.5v135q0 26 -9.5 40t-35.5 14q-27 0 -36 -14t-9 -40v-130h-61v131q0 61 25.5 91.5t82.5 30.5q109 0 109 -122v-436q0 -22 1 -41t4 -30h-63zM182 316
q-30 -11 -48.5 -24t-28 -29.5t-12.5 -38t-3 -49.5v-66q0 -51 47 -51q15 0 27.5 9t17.5 30v219zM127 656l-134 161h88l113 -161h-67z" />
    <glyph glyph-name="aacute" unicode="&#xe1;" horiz-adv-x="284" 
d="M23 0zM190 0q-4 13 -4 37q-25 -46 -74 -46q-42 0 -65.5 23t-23.5 75v91q0 45 12.5 75.5t34 51.5t50.5 35.5t62 28.5v135q0 26 -9.5 40t-35.5 14q-27 0 -36 -14t-9 -40v-130h-61v131q0 61 25.5 91.5t82.5 30.5q109 0 109 -122v-436q0 -22 1 -41t4 -30h-63zM182 316
q-30 -11 -48.5 -24t-28 -29.5t-12.5 -38t-3 -49.5v-66q0 -51 47 -51q15 0 27.5 9t17.5 30v219zM91 656l112 161h89l-135 -161h-66z" />
    <glyph glyph-name="acircumflex" unicode="&#xe2;" horiz-adv-x="284" 
d="M0 0zM190 0q-4 13 -4 37q-25 -46 -74 -46q-42 0 -65.5 23t-23.5 75v91q0 45 12.5 75.5t34 51.5t50.5 35.5t62 28.5v135q0 26 -9.5 40t-35.5 14q-27 0 -36 -14t-9 -40v-130h-61v131q0 61 25.5 91.5t82.5 30.5q109 0 109 -122v-436q0 -22 1 -41t4 -30h-63zM182 316
q-30 -11 -48.5 -24t-28 -29.5t-12.5 -38t-3 -49.5v-66q0 -51 47 -51q15 0 27.5 9t17.5 30v219zM222 656l-79 123l-82 -123h-64l108 161h80l104 -161h-67z" />
    <glyph glyph-name="atilde" unicode="&#xe3;" horiz-adv-x="284" 
d="M23 0zM190 0q-4 13 -4 37q-25 -46 -74 -46q-42 0 -65.5 23t-23.5 75v91q0 45 12.5 75.5t34 51.5t50.5 35.5t62 28.5v135q0 26 -9.5 40t-35.5 14q-27 0 -36 -14t-9 -40v-130h-61v131q0 61 25.5 91.5t82.5 30.5q109 0 109 -122v-436q0 -22 1 -41t4 -30h-63zM182 316
q-30 -11 -48.5 -24t-28 -29.5t-12.5 -38t-3 -49.5v-66q0 -51 47 -51q15 0 27.5 9t17.5 30v219zM263 713q-9 -11 -24.5 -18.5t-36.5 -7.5q-17 0 -32 5t-29.5 11.5t-29 11.5t-30.5 5q-35 0 -57 -31v61q10 11 24.5 19t35.5 8q18 0 33 -5t29.5 -11.5t28.5 -11.5t31 -5
q33 0 57 30v-61z" />
    <glyph glyph-name="adieresis" unicode="&#xe4;" horiz-adv-x="284" 
d="M23 0zM190 0q-4 13 -4 37q-25 -46 -74 -46q-42 0 -65.5 23t-23.5 75v91q0 45 12.5 75.5t34 51.5t50.5 35.5t62 28.5v135q0 26 -9.5 40t-35.5 14q-27 0 -36 -14t-9 -40v-130h-61v131q0 61 25.5 91.5t82.5 30.5q109 0 109 -122v-436q0 -22 1 -41t4 -30h-63zM182 316
q-30 -11 -48.5 -24t-28 -29.5t-12.5 -38t-3 -49.5v-66q0 -51 47 -51q15 0 27.5 9t17.5 30v219zM184 668v125h69v-125h-69zM34 668v125h69v-125h-69z" />
    <glyph glyph-name="aring" unicode="&#xe5;" horiz-adv-x="284" 
d="M23 0zM190 0q-4 13 -4 37q-25 -46 -74 -46q-42 0 -65.5 23t-23.5 75v91q0 45 12.5 75.5t34 51.5t50.5 35.5t62 28.5v135q0 26 -9.5 40t-35.5 14q-27 0 -36 -14t-9 -40v-130h-61v131q0 61 25.5 91.5t82.5 30.5q109 0 109 -122v-436q0 -22 1 -41t4 -30h-63zM182 316
q-30 -11 -48.5 -24t-28 -29.5t-12.5 -38t-3 -49.5v-66q0 -51 47 -51q15 0 27.5 9t17.5 30v219zM238 737q0 -34 -24.5 -56t-72.5 -22t-72 22t-24 56q0 35 24 57.5t72 22.5t72.5 -22.5t24.5 -57.5zM198 737q0 46 -57 46q-58 0 -58 -46q0 -45 58 -45q57 0 57 45z" />
    <glyph glyph-name="ae" unicode="&#xe6;" horiz-adv-x="433" 
d="M337 252h65v-136q0 -125 -111 -125q-34 0 -55 12t-34 36q-11 -20 -31 -34t-56 -14q-42 0 -67 23t-25 75v91q0 45 12.5 75.5t34 51.5t50.5 35.5t62 28.5v136q0 26 -9.5 39.5t-35.5 13.5t-35.5 -13.5t-9.5 -39.5v-131h-61v131q0 61 25.5 91.5t82.5 30.5q51 0 78 -29
q26 29 74 29q111 0 111 -127v-199h-154v-192q0 -50 43 -50q46 0 46 55v136zM182 316q-30 -11 -48.5 -24t-28 -29.5t-12.5 -38t-3 -49.5v-60q0 -29 10.5 -43t36.5 -14q15 0 27.5 9t17.5 30v219zM337 502q0 55 -46 55q-43 0 -43 -55v-149h89v149z" />
    <glyph glyph-name="ccedilla" unicode="&#xe7;" horiz-adv-x="283" 
d="M31 0zM190 253h64v-138q0 -57 -26.5 -90.5t-83.5 -33.5t-85 34.5t-28 91.5v384q0 57 28 92.5t85 35.5t82.5 -35t25.5 -92v-134h-62v135q0 55 -46 55q-23 0 -34.5 -15t-11.5 -41v-385q0 -56 46 -56t46 55v137zM125 -149v25h8q11 0 11 12v20h-27v72h58v-90q0 -19 -9 -29
t-30 -10h-11z" />
    <glyph glyph-name="egrave" unicode="&#xe8;" 
d="M0 0zM184 502q0 55 -46 55q-43 0 -43 -55v-149h89v149zM184 252h65v-136q0 -125 -111 -125q-107 0 -107 125v386q0 63 27.5 95t79.5 32q111 0 111 -127v-199h-154v-187q0 -55 43 -55q46 0 46 55v136zM125 656l-134 161h88l113 -161h-67z" />
    <glyph glyph-name="eacute" unicode="&#xe9;" 
d="M31 0zM184 502q0 55 -46 55q-43 0 -43 -55v-149h89v149zM184 252h65v-136q0 -125 -111 -125q-107 0 -107 125v386q0 63 27.5 95t79.5 32q111 0 111 -127v-199h-154v-187q0 -55 43 -55q46 0 46 55v136zM89 656l112 161h89l-135 -161h-66z" />
    <glyph glyph-name="ecircumflex" unicode="&#xea;" 
d="M0 0zM184 502q0 55 -46 55q-43 0 -43 -55v-149h89v149zM184 252h65v-136q0 -125 -111 -125q-107 0 -107 125v386q0 63 27.5 95t79.5 32q111 0 111 -127v-199h-154v-187q0 -55 43 -55q46 0 46 55v136zM220 656l-79 123l-82 -123h-64l108 161h80l104 -161h-67z" />
    <glyph glyph-name="edieresis" unicode="&#xeb;" 
d="M31 0zM184 502q0 55 -46 55q-43 0 -43 -55v-149h89v149zM184 252h65v-136q0 -125 -111 -125q-107 0 -107 125v386q0 63 27.5 95t79.5 32q111 0 111 -127v-199h-154v-187q0 -55 43 -55q46 0 46 55v136zM182 668v125h69v-125h-69zM32 668v125h69v-125h-69z" />
    <glyph glyph-name="igrave" unicode="&#xec;" horiz-adv-x="158" 
d="M0 0zM50 0v619h69v-619h-69zM69 656l-134 161h88l113 -161h-67z" />
    <glyph glyph-name="iacute" unicode="&#xed;" horiz-adv-x="158" 
d="M24 0zM39 0v619h69v-619h-69zM24 656l112 161h89l-135 -161h-66z" />
    <glyph glyph-name="icircumflex" unicode="&#xee;" horiz-adv-x="227" 
d="M0 0zM79 0v619h69v-619h-69zM194 656l-79 123l-82 -123h-64l108 161h80l104 -161h-67z" />
    <glyph glyph-name="idieresis" unicode="&#xef;" horiz-adv-x="178" 
d="M0 0zM54 0v619h69v-619h-69zM130 668v125h69v-125h-69zM-20 668v125h69v-125h-69z" />
    <glyph glyph-name="eth" unicode="&#xf0;" horiz-adv-x="321" 
d="M31 398q0 66 30.5 94t82.5 28q27 0 46.5 -12t29.5 -32v115q0 64 -15 102l-103 -128l-27 23l110 137q-27 28 -84 30v77q45 0 77.5 -12.5t54.5 -35.5l44 54l27 -23l-49 -60q19 -34 27 -80t8 -103v-438q0 -69 -32 -106t-98 -37q-64 0 -96.5 37t-32.5 106v264zM213 379l-4 24
t-7 21t-14.5 15t-25.5 6q-55 0 -55 -60v-242q0 -35 12 -56t41 -21q53 0 53 65v248z" />
    <glyph glyph-name="ntilde" unicode="&#xf1;" horiz-adv-x="302" 
d="M33 0zM199 0v511q0 27 -9 38.5t-31 11.5q-15 0 -30 -9t-23 -29v-523h-69v619h58q3 -23 3 -47q14 26 37 41.5t52 15.5q42 0 61.5 -27t19.5 -87v-515h-69zM272 713q-9 -11 -24.5 -18.5t-36.5 -7.5q-17 0 -32 5t-29.5 11.5t-29 11.5t-30.5 5q-35 0 -57 -31v61q10 11 24.5 19
t35.5 8q18 0 33 -5t29.5 -11.5t28.5 -11.5t31 -5q33 0 57 30v-61z" />
    <glyph glyph-name="ograve" unicode="&#xf2;" horiz-adv-x="290" 
d="M0 0zM31 505q0 60 28 92t86 32q57 0 85.5 -32t28.5 -92v-391q0 -60 -28.5 -91.5t-85.5 -31.5q-58 0 -86 31.5t-28 91.5v391zM192 503q0 26 -9.5 40.5t-37.5 14.5t-37.5 -14.5t-9.5 -40.5v-389q0 -26 9.5 -39.5t37.5 -13.5t37.5 14t9.5 41v387zM130 656l-134 161h88
l113 -161h-67z" />
    <glyph glyph-name="oacute" unicode="&#xf3;" horiz-adv-x="290" 
d="M31 0zM31 505q0 60 28 92t86 32q57 0 85.5 -32t28.5 -92v-391q0 -60 -28.5 -91.5t-85.5 -31.5q-58 0 -86 31.5t-28 91.5v391zM192 503q0 26 -9.5 40.5t-37.5 14.5t-37.5 -14.5t-9.5 -40.5v-389q0 -26 9.5 -39.5t37.5 -13.5t37.5 14t9.5 41v387zM94 656l112 161h89
l-135 -161h-66z" />
    <glyph glyph-name="ocircumflex" unicode="&#xf4;" horiz-adv-x="290" 
d="M0 0zM31 505q0 60 28 92t86 32q57 0 85.5 -32t28.5 -92v-391q0 -60 -28.5 -91.5t-85.5 -31.5q-58 0 -86 31.5t-28 91.5v391zM192 503q0 26 -9.5 40.5t-37.5 14.5t-37.5 -14.5t-9.5 -40.5v-389q0 -26 9.5 -39.5t37.5 -13.5t37.5 14t9.5 41v387zM225 656l-79 123l-82 -123
h-64l108 161h80l104 -161h-67z" />
    <glyph glyph-name="otilde" unicode="&#xf5;" horiz-adv-x="290" 
d="M27 0zM31 505q0 60 28 92t86 32q57 0 85.5 -32t28.5 -92v-391q0 -60 -28.5 -91.5t-85.5 -31.5q-58 0 -86 31.5t-28 91.5v391zM192 503q0 26 -9.5 40.5t-37.5 14.5t-37.5 -14.5t-9.5 -40.5v-389q0 -26 9.5 -39.5t37.5 -13.5t37.5 14t9.5 41v387zM266 713
q-9 -11 -24.5 -18.5t-36.5 -7.5q-17 0 -32 5t-29.5 11.5t-29 11.5t-30.5 5q-35 0 -57 -31v61q10 11 24.5 19t35.5 8q18 0 33 -5t29.5 -11.5t28.5 -11.5t31 -5q33 0 57 30v-61z" />
    <glyph glyph-name="odieresis" unicode="&#xf6;" horiz-adv-x="290" 
d="M31 0zM31 505q0 60 28 92t86 32q57 0 85.5 -32t28.5 -92v-391q0 -60 -28.5 -91.5t-85.5 -31.5q-58 0 -86 31.5t-28 91.5v391zM192 503q0 26 -9.5 40.5t-37.5 14.5t-37.5 -14.5t-9.5 -40.5v-389q0 -26 9.5 -39.5t37.5 -13.5t37.5 14t9.5 41v387zM187 668v125h69v-125h-69z
M37 668v125h69v-125h-69z" />
    <glyph glyph-name="divide" unicode="&#xf7;" horiz-adv-x="462" 
d="M37 196zM37 391v57h389v-57h-389zM195 518v125h71v-125h-71zM195 196v125h71v-125h-71z" />
    <glyph glyph-name="oslash" unicode="&#xf8;" horiz-adv-x="290" 
d="M31 505q0 60 28 92t86 32q31 0 54 -10l22 94h38l-28 -118q28 -31 28 -90v-391q0 -60 -28.5 -91.5t-85.5 -31.5q-32 0 -54 9l-22 -94h-38l27 117q-27 31 -27 91v391zM192 428l-84 -354v-1q10 -12 37 -12q28 0 37.5 14t9.5 41v312zM98 191l83 353q-11 14 -36 14
q-28 0 -37.5 -14.5t-9.5 -40.5v-312z" />
    <glyph glyph-name="ugrave" unicode="&#xf9;" horiz-adv-x="300" 
d="M1 0zM204 0q-1 11 -1.5 22t-0.5 23q-14 -25 -36.5 -38.5t-51.5 -13.5q-80 0 -80 107v519h69v-508q0 -28 9 -39t29 -11q16 0 30.5 8.5t22.5 28.5v521h69v-619h-59zM135 656l-134 161h88l113 -161h-67z" />
    <glyph glyph-name="uacute" unicode="&#xfa;" horiz-adv-x="300" 
d="M34 0zM204 0q-1 11 -1.5 22t-0.5 23q-14 -25 -36.5 -38.5t-51.5 -13.5q-80 0 -80 107v519h69v-508q0 -28 9 -39t29 -11q16 0 30.5 8.5t22.5 28.5v521h69v-619h-59zM99 656l112 161h89l-135 -161h-66z" />
    <glyph glyph-name="ucircumflex" unicode="&#xfb;" horiz-adv-x="300" 
d="M5 0zM204 0q-1 11 -1.5 22t-0.5 23q-14 -25 -36.5 -38.5t-51.5 -13.5q-80 0 -80 107v519h69v-508q0 -28 9 -39t29 -11q16 0 30.5 8.5t22.5 28.5v521h69v-619h-59zM230 656l-79 123l-82 -123h-64l108 161h80l104 -161h-67z" />
    <glyph glyph-name="udieresis" unicode="&#xfc;" horiz-adv-x="300" 
d="M34 0zM204 0q-1 11 -1.5 22t-0.5 23q-14 -25 -36.5 -38.5t-51.5 -13.5q-80 0 -80 107v519h69v-508q0 -28 9 -39t29 -11q16 0 30.5 8.5t22.5 28.5v521h69v-619h-59zM190 668v125h69v-125h-69zM40 668v125h69v-125h-69z" />
    <glyph glyph-name="yacute" unicode="&#xfd;" horiz-adv-x="277" 
d="M11 0zM19 -70q17 -5 34 -5q21 0 30.5 17t14.5 46l4 25l-91 606h72q5 -35 10.5 -78t10.5 -89t10.5 -92t9.5 -86t7.5 -72t5.5 -49q2 17 5.5 49t8.5 72t10.5 86t11.5 92t12.5 89t12.5 78h66l-94 -627q-5 -33 -12 -58t-19.5 -42.5t-32.5 -26.5t-50 -9q-17 0 -37 5v69zM88 656
l112 161h89l-135 -161h-66z" />
    <glyph glyph-name="thorn" unicode="&#xfe;" horiz-adv-x="303" 
d="M37 -139v962h69v-234q11 18 30.5 29t44.5 11q48 0 69 -26.5t21 -87.5v-411q0 -63 -21 -88t-69 -25q-25 0 -44.5 10.5t-30.5 27.5v-168h-69zM203 506q0 28 -10.5 39.5t-33.5 11.5q-17 0 -31.5 -10t-21.5 -30v-415q7 -20 21.5 -30t31.5 -10q23 0 33.5 11t10.5 40v393z" />
    <glyph glyph-name="ydieresis" unicode="&#xff;" horiz-adv-x="277" 
d="M11 0zM19 -70q17 -5 34 -5q21 0 30.5 17t14.5 46l4 25l-91 606h72q5 -35 10.5 -78t10.5 -89t10.5 -92t9.5 -86t7.5 -72t5.5 -49q2 17 5.5 49t8.5 72t10.5 86t11.5 92t12.5 89t12.5 78h66l-94 -627q-5 -33 -12 -58t-19.5 -42.5t-32.5 -26.5t-50 -9q-17 0 -37 5v69z
M180 668v125h69v-125h-69zM30 668v125h69v-125h-69z" />
    <glyph glyph-name="Amacron" unicode="&#x100;" horiz-adv-x="335" 
d="M12 0zM245 0l-18 138h-123l-18 -138h-74l113 823h89l107 -823h-76zM218 208q-13 106 -26 209.5t-25 212.5q-13 -109 -26.5 -212.5t-27.5 -209.5h105zM52 904v59h230v-59h-230z" />
    <glyph glyph-name="amacron" unicode="&#x101;" horiz-adv-x="284" 
d="M23 0zM190 0q-4 13 -4 37q-25 -46 -74 -46q-42 0 -65.5 23t-23.5 75v91q0 45 12.5 75.5t34 51.5t50.5 35.5t62 28.5v135q0 26 -9.5 40t-35.5 14q-27 0 -36 -14t-9 -40v-130h-61v131q0 61 25.5 91.5t82.5 30.5q109 0 109 -122v-436q0 -22 1 -41t4 -30h-63zM182 316
q-30 -11 -48.5 -24t-28 -29.5t-12.5 -38t-3 -49.5v-66q0 -51 47 -51q15 0 27.5 9t17.5 30v219zM28 700v59h230v-59h-230z" />
    <glyph glyph-name="Abreve" unicode="&#x102;" horiz-adv-x="335" 
d="M12 0zM245 0l-18 138h-123l-18 -138h-74l113 823h89l107 -823h-76zM218 208q-13 106 -26 209.5t-25 212.5q-13 -109 -26.5 -212.5t-27.5 -209.5h105zM303 1015q0 -45 -8 -74t-24.5 -46.5t-41.5 -24t-58 -6.5q-39 0 -65 6.5t-41.5 24t-22.5 46.5t-7 74h61q0 -36 5 -58
t14.5 -33.5t23 -15t30.5 -3.5q15 0 28 3.5t23 15t15.5 33.5t5.5 58h62z" />
    <glyph glyph-name="abreve" unicode="&#x103;" horiz-adv-x="284" 
d="M9 0zM190 0q-4 13 -4 37q-25 -46 -74 -46q-42 0 -65.5 23t-23.5 75v91q0 45 12.5 75.5t34 51.5t50.5 35.5t62 28.5v135q0 26 -9.5 40t-35.5 14q-27 0 -36 -14t-9 -40v-130h-61v131q0 61 25.5 91.5t82.5 30.5q109 0 109 -122v-436q0 -22 1 -41t4 -30h-63zM182 316
q-30 -11 -48.5 -24t-28 -29.5t-12.5 -38t-3 -49.5v-66q0 -51 47 -51q15 0 27.5 9t17.5 30v219zM277 811q0 -45 -8 -74t-24.5 -46.5t-41.5 -24t-58 -6.5q-39 0 -65 6.5t-41.5 24t-22.5 46.5t-7 74h61q0 -36 5 -58t14.5 -33.5t23 -15t30.5 -3.5q15 0 28 3.5t23 15t15.5 33.5
t5.5 58h62z" />
    <glyph glyph-name="Aogonek" unicode="&#x104;" horiz-adv-x="335" 
d="M350 -49q0 -48 -24 -74t-87 -26q-36 0 -59.5 17.5t-23.5 50.5q0 29 22 50t67 29l-18 140h-123l-18 -138h-74l113 823h89l107 -823q-55 -8 -85.5 -25t-30.5 -43q0 -11 8.5 -22t29.5 -11q29 0 39 14.5t10 37.5v11h58v-11zM218 208q-13 106 -26 209.5t-25 212.5
q-13 -109 -26.5 -212.5t-27.5 -209.5h105z" />
    <glyph glyph-name="aogonek" unicode="&#x105;" horiz-adv-x="284" 
d="M282 -49q0 -48 -24 -74t-87 -26q-36 0 -59.5 17.5t-23.5 50.5q0 30 25.5 52t76.5 29q-2 7 -3 17t-1 20q-25 -46 -74 -46q-42 0 -65.5 23t-23.5 75v91q0 45 12.5 75.5t34 51.5t50.5 35.5t62 28.5v135q0 26 -9.5 40t-35.5 14q-27 0 -36 -14t-9 -40v-130h-61v131
q0 61 25.5 91.5t82.5 30.5q109 0 109 -122v-436q0 -22 1 -41t4 -30q-55 -8 -85.5 -25t-30.5 -43q0 -11 8.5 -22t29.5 -11q29 0 39 14.5t10 37.5v11h58v-11zM182 316q-30 -11 -48.5 -24t-28 -29.5t-12.5 -38t-3 -49.5v-66q0 -51 47 -51q15 0 27.5 9t17.5 30v219z" />
    <glyph glyph-name="Cacute" unicode="&#x106;" horiz-adv-x="309" 
d="M31 0zM213 302h69v-170q0 -72 -28.5 -106.5t-91.5 -34.5q-131 0 -131 139v560q0 142 131 142q120 0 120 -140v-146h-69v145q0 33 -11 48.5t-40 15.5q-54 0 -54 -64v-560q0 -65 54 -65q28 0 39.5 16t11.5 49v171zM104 860l112 161h89l-135 -161h-66z" />
    <glyph glyph-name="cacute" unicode="&#x107;" horiz-adv-x="283" 
d="M31 0zM190 253h64v-138q0 -57 -26.5 -90.5t-83.5 -33.5t-85 34.5t-28 91.5v384q0 57 28 92.5t85 35.5t82.5 -35t25.5 -92v-134h-62v135q0 55 -46 55q-23 0 -34.5 -15t-11.5 -41v-385q0 -56 46 -56t46 55v137zM91 656l112 161h89l-135 -161h-66z" />
    <glyph glyph-name="Cdotaccent" unicode="&#x10a;" horiz-adv-x="309" 
d="M31 0zM213 302h69v-170q0 -72 -28.5 -106.5t-91.5 -34.5q-131 0 -131 139v560q0 142 131 142q120 0 120 -140v-146h-69v145q0 33 -11 48.5t-40 15.5q-54 0 -54 -64v-560q0 -65 54 -65q28 0 39.5 16t11.5 49v171zM120 872v125h69v-125h-69z" />
    <glyph glyph-name="cdotaccent" unicode="&#x10b;" horiz-adv-x="283" 
d="M31 0zM190 253h64v-138q0 -57 -26.5 -90.5t-83.5 -33.5t-85 34.5t-28 91.5v384q0 57 28 92.5t85 35.5t82.5 -35t25.5 -92v-134h-62v135q0 55 -46 55q-23 0 -34.5 -15t-11.5 -41v-385q0 -56 46 -56t46 55v137zM107 668v125h69v-125h-69z" />
    <glyph glyph-name="Ccaron" unicode="&#x10c;" horiz-adv-x="309" 
d="M10 0zM213 302h69v-170q0 -72 -28.5 -106.5t-91.5 -34.5q-131 0 -131 139v560q0 142 131 142q120 0 120 -140v-146h-69v145q0 33 -11 48.5t-40 15.5q-54 0 -54 -64v-560q0 -65 54 -65q28 0 39.5 16t11.5 49v171zM114 860l-104 161h67l80 -123l81 123h64l-108 -161h-80z
" />
    <glyph glyph-name="ccaron" unicode="&#x10d;" horiz-adv-x="283" 
d="M0 0zM190 253h64v-138q0 -57 -26.5 -90.5t-83.5 -33.5t-85 34.5t-28 91.5v384q0 57 28 92.5t85 35.5t82.5 -35t25.5 -92v-134h-62v135q0 55 -46 55q-23 0 -34.5 -15t-11.5 -41v-385q0 -56 46 -56t46 55v137zM101 656l-104 161h67l80 -123l81 123h64l-108 -161h-80z" />
    <glyph glyph-name="Dcaron" unicode="&#x10e;" horiz-adv-x="326" 
d="M12 0zM219 681q0 31 -13.5 48t-40.5 17h-52v-671h52q54 0 54 65v541zM37 0v823h128q66 0 98 -37.5t32 -103.5v-542q0 -140 -130 -140h-128zM116 860l-104 161h67l80 -123l81 123h64l-108 -161h-80z" />
    <glyph glyph-name="dcaron" unicode="&#x10f;" horiz-adv-x="375" 
d="M31 0zM197 518q-17 41 -54 41q-23 0 -33 -11.5t-10 -39.5v-390q0 -29 10 -40.5t33 -11.5q37 0 54 41v411zM207 0q-1 11 -1.5 22.5t-0.5 23.5q-11 -25 -31.5 -39t-54.5 -14q-88 0 -88 116v406q0 61 21.5 87.5t69.5 26.5q24 0 43.5 -11t31.5 -29v234h68v-823h-58zM313 638
v33h6q17 0 17 18v31h-33v103h72v-129q0 -26 -12.5 -41t-41.5 -15h-8z" />
    <glyph glyph-name="Dcroat" unicode="&#x110;" horiz-adv-x="324" 
d="M10 0zM35 0v381h-25v76h25v366h129q64 0 96.5 -37.5t32.5 -103.5v-542q0 -140 -129 -140h-129zM218 682q0 26 -12.5 45t-41.5 19h-53v-289h60v-76h-60v-306h53q54 0 54 65v542z" />
    <glyph glyph-name="dmacron" unicode="&#x111;" horiz-adv-x="303" 
d="M207 0q-1 11 -1.5 22.5t-0.5 23.5q-11 -25 -31.5 -39t-54.5 -14q-88 0 -88 116v406q0 61 21.5 87.5t69.5 26.5q24 0 43.5 -11t31.5 -29v111h-132v59h132v64h68v-64h30v-59h-30v-700h-58zM197 518q-17 41 -54 41q-23 0 -33 -11.5t-10 -39.5v-390q0 -29 10 -40.5t33 -11.5
q37 0 54 41v411z" />
    <glyph glyph-name="Emacron" unicode="&#x112;" 
d="M26 0zM37 0v823h218v-77h-142v-289h100v-76h-100v-306h147v-75h-223zM26 904v59h230v-59h-230z" />
    <glyph glyph-name="emacron" unicode="&#x113;" 
d="M26 0zM184 502q0 55 -46 55q-43 0 -43 -55v-149h89v149zM184 252h65v-136q0 -125 -111 -125q-107 0 -107 125v386q0 63 27.5 95t79.5 32q111 0 111 -127v-199h-154v-187q0 -55 43 -55q46 0 46 55v136zM26 700v59h230v-59h-230z" />
    <glyph glyph-name="Ebreve" unicode="&#x114;" 
d="M7 0zM37 0v823h218v-77h-142v-289h100v-76h-100v-306h147v-75h-223zM275 1015q0 -45 -8 -74t-24.5 -46.5t-41.5 -24t-58 -6.5q-39 0 -65 6.5t-41.5 24t-22.5 46.5t-7 74h61q0 -36 5 -58t14.5 -33.5t23 -15t30.5 -3.5q15 0 28 3.5t23 15t15.5 33.5t5.5 58h62z" />
    <glyph glyph-name="ebreve" unicode="&#x115;" 
d="M7 0zM184 502q0 55 -46 55q-43 0 -43 -55v-149h89v149zM184 252h65v-136q0 -125 -111 -125q-107 0 -107 125v386q0 63 27.5 95t79.5 32q111 0 111 -127v-199h-154v-187q0 -55 43 -55q46 0 46 55v136zM275 811q0 -45 -8 -74t-24.5 -46.5t-41.5 -24t-58 -6.5q-39 0 -65 6.5
t-41.5 24t-22.5 46.5t-7 74h61q0 -36 5 -58t14.5 -33.5t23 -15t30.5 -3.5q15 0 28 3.5t23 15t15.5 33.5t5.5 58h62z" />
    <glyph glyph-name="Edotaccent" unicode="&#x116;" 
d="M37 0zM37 0v823h218v-77h-142v-289h100v-76h-100v-306h147v-75h-223zM115 872v125h69v-125h-69z" />
    <glyph glyph-name="edotaccent" unicode="&#x117;" 
d="M31 0zM184 502q0 55 -46 55q-43 0 -43 -55v-149h89v149zM184 252h65v-136q0 -125 -111 -125q-107 0 -107 125v386q0 63 27.5 95t79.5 32q111 0 111 -127v-199h-154v-187q0 -55 43 -55q46 0 46 55v136zM105 668v125h69v-125h-69z" />
    <glyph glyph-name="Eogonek" unicode="&#x118;" 
d="M289 -49q0 -48 -24 -74t-87 -26q-36 0 -59.5 17.5t-23.5 50.5q0 31 27 53t79 28h-164v823h218v-77h-142v-289h100v-76h-100v-306h147v-75q-55 -8 -85.5 -25t-30.5 -43q0 -11 8.5 -22t29.5 -11q29 0 39 14.5t10 37.5v11h58v-11z" />
    <glyph glyph-name="eogonek" unicode="&#x119;" 
d="M248 -49q0 -48 -24 -74t-87 -26q-36 0 -59.5 17.5t-23.5 50.5q0 52 66 73q-89 11 -89 124v386q0 63 27.5 95t79.5 32q111 0 111 -127v-199h-154v-187q0 -55 43 -55q46 0 46 55v136h65v-136q0 -54 -21 -82.5t-61 -39.5q-26 -8 -45 -24t-19 -38q0 -11 8.5 -22t29.5 -11
q29 0 39 14.5t10 37.5v11h58v-11zM184 502q0 55 -46 55q-43 0 -43 -55v-149h89v149z" />
    <glyph glyph-name="Ecaron" unicode="&#x11a;" 
d="M2 0zM37 0v823h218v-77h-142v-289h100v-76h-100v-306h147v-75h-223zM106 860l-104 161h67l80 -123l81 123h64l-108 -161h-80z" />
    <glyph glyph-name="ecaron" unicode="&#x11b;" 
d="M0 0zM184 502q0 55 -46 55q-43 0 -43 -55v-149h89v149zM184 252h65v-136q0 -125 -111 -125q-107 0 -107 125v386q0 63 27.5 95t79.5 32q111 0 111 -127v-199h-154v-187q0 -55 43 -55q46 0 46 55v136zM99 656l-104 161h67l80 -123l81 123h64l-108 -161h-80z" />
    <glyph glyph-name="Gbreve" unicode="&#x11e;" horiz-adv-x="322" 
d="M28 0zM280 -5l-25 45q-12 -24 -39 -36.5t-61 -12.5q-27 0 -49.5 7t-39 23.5t-26 43.5t-9.5 66v560q0 69 32 105t98 36t95.5 -36t29.5 -105v-145h-68v145q0 32 -13 48t-44 16q-29 0 -41.5 -16t-12.5 -48v-560q0 -32 15 -48.5t38 -16.5q54 0 59 59v187h-63v72h136v-389h-12
zM296 1015q0 -45 -8 -74t-24.5 -46.5t-41.5 -24t-58 -6.5q-39 0 -65 6.5t-41.5 24t-22.5 46.5t-7 74h61q0 -36 5 -58t14.5 -33.5t23 -15t30.5 -3.5q15 0 28 3.5t23 15t15.5 33.5t5.5 58h62z" />
    <glyph glyph-name="gbreve" unicode="&#x11f;" horiz-adv-x="303" 
d="M19 0zM199 68q-11 -18 -31.5 -28.5t-46.5 -10.5q-48 0 -69 26t-21 87v367q0 60 22.5 88t65.5 28q32 0 52.5 -13.5t33.5 -39.5q0 12 0.5 24t1.5 23h58v-651q0 -57 -27.5 -87t-85.5 -30q-32 0 -54 8t-35 23t-18.5 36.5t-5.5 49.5v25h62v-28q0 -54 50 -54q48 0 48 54v103z
M199 511q-8 20 -23 30.5t-33 10.5q-26 0 -35 -12.5t-9 -34.5v-361q0 -26 9.5 -37.5t34.5 -11.5q18 0 33 10t23 30v376zM287 811q0 -45 -8 -74t-24.5 -46.5t-41.5 -24t-58 -6.5q-39 0 -65 6.5t-41.5 24t-22.5 46.5t-7 74h61q0 -36 5 -58t14.5 -33.5t23 -15t30.5 -3.5
q15 0 28 3.5t23 15t15.5 33.5t5.5 58h62z" />
    <glyph glyph-name="Gdotaccent" unicode="&#x120;" horiz-adv-x="322" 
d="M31 0zM280 -5l-25 45q-12 -24 -39 -36.5t-61 -12.5q-27 0 -49.5 7t-39 23.5t-26 43.5t-9.5 66v560q0 69 32 105t98 36t95.5 -36t29.5 -105v-145h-68v145q0 32 -13 48t-44 16q-29 0 -41.5 -16t-12.5 -48v-560q0 -32 15 -48.5t38 -16.5q54 0 59 59v187h-63v72h136v-389h-12
zM126 872v125h69v-125h-69z" />
    <glyph glyph-name="gdotaccent" unicode="&#x121;" horiz-adv-x="303" 
d="M31 0zM199 68q-11 -18 -31.5 -28.5t-46.5 -10.5q-48 0 -69 26t-21 87v367q0 60 22.5 88t65.5 28q32 0 52.5 -13.5t33.5 -39.5q0 12 0.5 24t1.5 23h58v-651q0 -57 -27.5 -87t-85.5 -30q-32 0 -54 8t-35 23t-18.5 36.5t-5.5 49.5v25h62v-28q0 -54 50 -54q48 0 48 54v103z
M199 511q-8 20 -23 30.5t-33 10.5q-26 0 -35 -12.5t-9 -34.5v-361q0 -26 9.5 -37.5t34.5 -11.5q18 0 33 10t23 30v376zM117 668v125h69v-125h-69z" />
    <glyph glyph-name="Gcommaaccent" unicode="&#x122;" horiz-adv-x="322" 
d="M31 0zM280 -5l-25 45q-12 -24 -39 -36.5t-61 -12.5q-27 0 -49.5 7t-39 23.5t-26 43.5t-9.5 66v560q0 69 32 105t98 36t95.5 -36t29.5 -105v-145h-68v145q0 32 -13 48t-44 16q-29 0 -41.5 -16t-12.5 -48v-560q0 -32 15 -48.5t38 -16.5q54 0 59 59v187h-63v72h136v-389h-12
zM140 -149v25h8q11 0 11 12v20h-27v72h58v-90q0 -19 -9 -29t-30 -10h-11z" />
    <glyph glyph-name="gcommaaccent" unicode="&#x123;" horiz-adv-x="303" 
d="M31 0zM199 68q-11 -18 -31.5 -28.5t-46.5 -10.5q-48 0 -69 26t-21 87v367q0 60 22.5 88t65.5 28q32 0 52.5 -13.5t33.5 -39.5q0 12 0.5 24t1.5 23h58v-651q0 -57 -27.5 -87t-85.5 -30q-32 0 -54 8t-35 23t-18.5 36.5t-5.5 49.5v25h62v-28q0 -54 50 -54q48 0 48 54v103z
M199 511q-8 20 -23 30.5t-33 10.5q-26 0 -35 -12.5t-9 -34.5v-361q0 -26 9.5 -37.5t34.5 -11.5q18 0 33 10t23 30v376zM163.99 783.952v-24.998h-8q-10.999 0 -10.999 -12v-19.998h26.998v-71.9961h-57.9961v89.9941q0 18.999 8.99902 28.999q9 9.99902 29.998 9.99902h11z
" />
    <glyph glyph-name="Hbar" unicode="&#x126;" horiz-adv-x="332" 
d="M219 0v381h-106v-381h-76v823h76v-158h106v158h76v-823h-76zM219 456v150h-106v-150h106z" />
    <glyph glyph-name="hbar" unicode="&#x127;" horiz-adv-x="302" 
d="M106 700v-116q14 20 35 32.5t47 12.5q42 0 61 -27t19 -87v-515h-69v511q0 27 -9 38.5t-31 11.5q-15 0 -30 -9t-23 -29v-523h-69v700h-32v59h32v64h69v-64h129v-59h-129z" />
    <glyph glyph-name="uni012A" unicode="&#x12a;" horiz-adv-x="154" 
d="M0 0zM39 0v823h76v-823h-76zM-37 904v59h230v-59h-230z" />
    <glyph glyph-name="imacron" unicode="&#x12b;" horiz-adv-x="188" 
d="M0 0zM59 0v619h69v-619h-69zM-20 700v59h230v-59h-230z" />
    <glyph glyph-name="Ibreve" unicode="&#x12c;" horiz-adv-x="154" 
d="M0 0zM39 0v823h76v-823h-76zM212 1015q0 -45 -8 -74t-24.5 -46.5t-41.5 -24t-58 -6.5q-39 0 -65 6.5t-41.5 24t-22.5 46.5t-7 74h61q0 -36 5 -58t14.5 -33.5t23 -15t30.5 -3.5q15 0 28 3.5t23 15t15.5 33.5t5.5 58h62z" />
    <glyph glyph-name="ibreve" unicode="&#x12d;" horiz-adv-x="209" 
d="M0 0zM70 0v619h69v-619h-69zM240 811q0 -45 -8 -74t-24.5 -46.5t-41.5 -24t-58 -6.5q-39 0 -65 6.5t-41.5 24t-22.5 46.5t-7 74h61q0 -36 5 -58t14.5 -33.5t23 -15t30.5 -3.5q15 0 28 3.5t23 15t15.5 33.5t5.5 58h62z" />
    <glyph glyph-name="Iogonek" unicode="&#x12e;" horiz-adv-x="154" 
d="M144 -49q0 -48 -24 -74t-87 -26q-36 0 -59.5 17.5t-23.5 50.5q0 29 22 50t67 29v825h76v-823q-55 -8 -85.5 -25t-30.5 -43q0 -11 8.5 -22t29.5 -11q29 0 39 14.5t10 37.5v11h58v-11z" />
    <glyph glyph-name="iogonek" unicode="&#x12f;" horiz-adv-x="147" 
d="M137 -49q0 -48 -24 -74t-87 -26q-36 0 -59.5 17.5t-23.5 50.5q0 29 24 50.5t72 29.5v620h69v-619q-55 -8 -85.5 -25t-30.5 -43q0 -11 8.5 -22t29.5 -11q29 0 39 14.5t10 37.5v11h58v-11zM39 698v125h69v-125h-69z" />
    <glyph glyph-name="Idotaccent" unicode="&#x130;" horiz-adv-x="154" 
d="M39 0zM39 0v823h76v-823h-76zM42 872v125h69v-125h-69z" />
    <glyph glyph-name="dotlessi" unicode="&#x131;" horiz-adv-x="147" 
d="M39 0v619h69v-619h-69z" />
    <glyph glyph-name="IJ" unicode="&#x132;" horiz-adv-x="371" 
d="M39 0zM39 0v823h76v-823h-76zM164 77q15 -7 48 -7q49 0 49 64v689h76v-689q0 -73 -32 -106.5t-93 -33.5q-34 0 -48 7v76z" />
    <glyph glyph-name="ij" unicode="&#x133;" horiz-adv-x="310" 
d="M39 0zM39 698v125h69v-125h-69zM39 0v619h69v-619h-69zM115 -72q8 -2 17.5 -3t18.5 -1q50 0 50 63v632h69v-632q0 -69 -29.5 -100t-89.5 -31q-23 0 -36 4v68zM201 698v125h69v-125h-69z" />
    <glyph glyph-name="Kcommaaccent" unicode="&#x136;" horiz-adv-x="349" 
d="M37 0zM257 0l-144 405v-405h-76v823h76v-355l139 355h82l-156 -375l166 -448h-87zM163 -149v25h8q11 0 11 12v20h-27v72h58v-90q0 -19 -9 -29t-30 -10h-11z" />
    <glyph glyph-name="kcommaaccent" unicode="&#x137;" horiz-adv-x="300" 
d="M37 0zM216 0l-112 318v-318h-67v823h67v-471l112 267h73l-121 -274l124 -345h-76zM139 -149v25h8q11 0 11 12v20h-27v72h58v-90q0 -19 -9 -29t-30 -10h-11z" />
    <glyph glyph-name="Lacute" unicode="&#x139;" horiz-adv-x="270" 
d="M29 0zM37 0v823h76v-748h147v-75h-223zM29 860l112 161h89l-135 -161h-66z" />
    <glyph glyph-name="lacute" unicode="&#x13a;" horiz-adv-x="143" 
d="M22 0zM37 0v823h69v-823h-69zM22 860l112 161h89l-135 -161h-66z" />
    <glyph glyph-name="Lcommaaccent" unicode="&#x13b;" horiz-adv-x="270" 
d="M37 0zM37 0v823h76v-748h147v-75h-223zM129 -149v25h8q11 0 11 12v20h-27v72h58v-90q0 -19 -9 -29t-30 -10h-11z" />
    <glyph glyph-name="lcommaaccent" unicode="&#x13c;" horiz-adv-x="143" 
d="M37 0zM37 0v823h69v-823h-69zM53 -149v25h8q11 0 11 12v20h-27v72h58v-90q0 -19 -9 -29t-30 -10h-11z" />
    <glyph glyph-name="Lcaron" unicode="&#x13d;" horiz-adv-x="270" 
d="M37 0zM37 0v823h76v-748h147v-75h-223zM202 638v33h6q17 0 17 18v31h-33v103h72v-129q0 -26 -12.5 -41t-41.5 -15h-8z" />
    <glyph glyph-name="lcaron" unicode="&#x13e;" horiz-adv-x="215" 
d="M37 0zM37 0v823h69v-823h-69zM153 638v33h6q17 0 17 18v31h-33v103h72v-129q0 -26 -12.5 -41t-41.5 -15h-8z" />
    <glyph glyph-name="Ldot" unicode="&#x13f;" horiz-adv-x="270" 
d="M37 0zM37 0v823h76v-748h147v-75h-223zM151 329v125h69v-125h-69z" />
    <glyph glyph-name="ldot" unicode="&#x140;" horiz-adv-x="212" 
d="M37 0zM37 0v823h69v-823h-69zM143 317v125h69v-125h-69z" />
    <glyph glyph-name="Lslash" unicode="&#x141;" horiz-adv-x="272" 
d="M38 0v497l-39 -24l-26 43l65 39v268h76v-223l63 39l25 -42l-88 -54v-468h147v-75h-223z" />
    <glyph glyph-name="lslash" unicode="&#x142;" horiz-adv-x="203" 
d="M68 0v513l-59 -35l-25 41l84 50v254h69v-213l57 35l26 -41l-83 -51v-553h-69z" />
    <glyph glyph-name="Nacute" unicode="&#x143;" horiz-adv-x="353" 
d="M35 0zM242 0l-142 601q1 -94 1 -182.5v-182.5v-236h-66v823h91l126 -603q-1 85 -1 166.5v166.5v270h67v-823h-76zM126 860l112 161h89l-135 -161h-66z" />
    <glyph glyph-name="nacute" unicode="&#x144;" horiz-adv-x="302" 
d="M37 0zM199 0v511q0 27 -9 38.5t-31 11.5q-15 0 -30 -9t-23 -29v-523h-69v619h58q3 -23 3 -47q14 26 37 41.5t52 15.5q42 0 61.5 -27t19.5 -87v-515h-69zM100 656l112 161h89l-135 -161h-66z" />
    <glyph glyph-name="Ncommaaccent" unicode="&#x145;" horiz-adv-x="353" 
d="M35 0zM242 0l-142 601q1 -94 1 -182.5v-182.5v-236h-66v823h91l126 -603q-1 85 -1 166.5v166.5v270h67v-823h-76zM155 -149v25h8q11 0 11 12v20h-27v72h58v-90q0 -19 -9 -29t-30 -10h-11z" />
    <glyph glyph-name="ncommaaccent" unicode="&#x146;" horiz-adv-x="302" 
d="M37 0zM199 0v511q0 27 -9 38.5t-31 11.5q-15 0 -30 -9t-23 -29v-523h-69v619h58q3 -23 3 -47q14 26 37 41.5t52 15.5q42 0 61.5 -27t19.5 -87v-515h-69zM130 -149v25h8q11 0 11 12v20h-27v72h58v-90q0 -19 -9 -29t-30 -10h-11z" />
    <glyph glyph-name="Ncaron" unicode="&#x147;" horiz-adv-x="353" 
d="M32 0zM242 0l-142 601q1 -94 1 -182.5v-182.5v-236h-66v823h91l126 -603q-1 85 -1 166.5v166.5v270h67v-823h-76zM136 860l-104 161h67l80 -123l81 123h64l-108 -161h-80z" />
    <glyph glyph-name="ncaron" unicode="&#x148;" horiz-adv-x="302" 
d="M6 0zM199 0v511q0 27 -9 38.5t-31 11.5q-15 0 -30 -9t-23 -29v-523h-69v619h58q3 -23 3 -47q14 26 37 41.5t52 15.5q42 0 61.5 -27t19.5 -87v-515h-69zM110 656l-104 161h67l80 -123l81 123h64l-108 -161h-80z" />
    <glyph glyph-name="Eng" unicode="&#x14a;" horiz-adv-x="353" 
d="M163 -77q8 -2 17.5 -3t18.5 -1q21 0 34.5 11.5t16.5 34.5l-150 636v-95.5t0.5 -117t0.5 -161v-227.5h-66v823h91l126 -603v57v64.5t-0.5 79.5t-0.5 101.5v131.5v169h67v-841q0 -69 -29.5 -100t-89.5 -31q-23 0 -36 4v68z" />
    <glyph glyph-name="eng" unicode="&#x14b;" horiz-adv-x="302" 
d="M113 -77q8 -2 17.5 -3t18.5 -1q50 0 50 63v529q0 27 -9 38.5t-31 11.5q-15 0 -30 -9t-23 -29v-523h-69v619h58q3 -23 3 -47q14 26 37 41.5t52 15.5q42 0 61.5 -27t19.5 -87v-533q0 -69 -29.5 -100t-89.5 -31q-23 0 -36 4v68z" />
    <glyph glyph-name="Omacron" unicode="&#x14c;" horiz-adv-x="321" 
d="M31 0zM31 692q0 140 129 140q130 0 130 -140v-561q0 -140 -130 -140q-129 0 -129 140v561zM214 692q0 63 -54 63q-53 0 -53 -63v-561q0 -65 53 -65q54 0 54 65v561zM45 904v59h230v-59h-230z" />
    <glyph glyph-name="omacron" unicode="&#x14d;" horiz-adv-x="290" 
d="M31 0zM31 505q0 60 28 92t86 32q57 0 85.5 -32t28.5 -92v-391q0 -60 -28.5 -91.5t-85.5 -31.5q-58 0 -86 31.5t-28 91.5v391zM192 503q0 26 -9.5 40.5t-37.5 14.5t-37.5 -14.5t-9.5 -40.5v-389q0 -26 9.5 -39.5t37.5 -13.5t37.5 14t9.5 41v387zM31 700v59h230v-59h-230z
" />
    <glyph glyph-name="Obreve" unicode="&#x14e;" horiz-adv-x="321" 
d="M28 0zM31 692q0 140 129 140q130 0 130 -140v-561q0 -140 -130 -140q-129 0 -129 140v561zM214 692q0 63 -54 63q-53 0 -53 -63v-561q0 -65 53 -65q54 0 54 65v561zM296 1015q0 -45 -8 -74t-24.5 -46.5t-41.5 -24t-58 -6.5q-39 0 -65 6.5t-41.5 24t-22.5 46.5t-7 74h61
q0 -36 5 -58t14.5 -33.5t23 -15t30.5 -3.5q15 0 28 3.5t23 15t15.5 33.5t5.5 58h62z" />
    <glyph glyph-name="obreve" unicode="&#x14f;" horiz-adv-x="290" 
d="M12 0zM31 505q0 60 28 92t86 32q57 0 85.5 -32t28.5 -92v-391q0 -60 -28.5 -91.5t-85.5 -31.5q-58 0 -86 31.5t-28 91.5v391zM192 503q0 26 -9.5 40.5t-37.5 14.5t-37.5 -14.5t-9.5 -40.5v-389q0 -26 9.5 -39.5t37.5 -13.5t37.5 14t9.5 41v387zM280 811q0 -45 -8 -74
t-24.5 -46.5t-41.5 -24t-58 -6.5q-39 0 -65 6.5t-41.5 24t-22.5 46.5t-7 74h61q0 -36 5 -58t14.5 -33.5t23 -15t30.5 -3.5q15 0 28 3.5t23 15t15.5 33.5t5.5 58h62z" />
    <glyph glyph-name="Ohungarumlaut" unicode="&#x150;" horiz-adv-x="321" 
d="M30 0zM31 692q0 140 129 140q130 0 130 -140v-561q0 -140 -130 -140q-129 0 -129 140v561zM214 692q0 63 -54 63q-53 0 -53 -63v-561q0 -65 53 -65q54 0 54 65v561zM192 860l112 161h90l-135 -161h-67zM30 860l112 161h89l-135 -161h-66z" />
    <glyph glyph-name="ohungarumlaut" unicode="&#x151;" horiz-adv-x="290" 
d="M14 0zM31 505q0 60 28 92t86 32q57 0 85.5 -32t28.5 -92v-391q0 -60 -28.5 -91.5t-85.5 -31.5q-58 0 -86 31.5t-28 91.5v391zM192 503q0 26 -9.5 40.5t-37.5 14.5t-37.5 -14.5t-9.5 -40.5v-389q0 -26 9.5 -39.5t37.5 -13.5t37.5 14t9.5 41v387zM176 656l112 161h90
l-135 -161h-67zM14 656l112 161h89l-135 -161h-66z" />
    <glyph glyph-name="OE" unicode="&#x152;" horiz-adv-x="437" 
d="M215 0q-23 -9 -55 -9q-129 0 -129 140v561q0 140 129 140q32 0 55 -9h197v-77h-142v-289h100v-76h-100v-306h147v-75h-202zM194 750q-7 3 -15.5 4t-18.5 1q-53 0 -53 -63v-561q0 -65 53 -65q16 0 34 5v679z" />
    <glyph glyph-name="oe" unicode="&#x153;" horiz-adv-x="444" 
d="M348 252h65v-136q0 -125 -111 -125q-50 0 -77 28q-27 -28 -80 -28q-58 0 -86 31.5t-28 91.5v391q0 60 28 92t86 32q53 0 81 -31q28 31 76 31q111 0 111 -127v-199h-154v-187q0 -55 43 -55q46 0 46 55v136zM192 503q0 26 -9.5 40.5t-37.5 14.5t-37.5 -14.5t-9.5 -40.5
v-389q0 -26 9.5 -39.5t37.5 -13.5t37.5 14t9.5 41v387zM348 502q0 55 -46 55q-43 0 -43 -55v-149h89v149z" />
    <glyph glyph-name="Racute" unicode="&#x154;" horiz-adv-x="331" 
d="M37 0zM230 0q-13 97 -27 188.5t-31 185.5q-5 -1 -9 -1h-9h-41v-373h-76v823h125q72 0 107.5 -33.5t35.5 -114.5v-164q0 -90 -61 -121q20 -100 37 -196.5t32 -193.5h-83zM228 665q0 45 -13 63t-53 18h-49v-304h50q35 0 50 16.5t15 51.5v155zM115 860l112 161h89l-135 -161
h-66z" />
    <glyph glyph-name="racute" unicode="&#x155;" horiz-adv-x="207" 
d="M37 0zM37 0v619h58q3 -23 3 -45q13 27 31.5 39t43.5 12q13 0 21 -4v-77q-5 4 -14 5.5t-17 1.5q-16 0 -31.5 -7.5t-25.5 -29.5v-514h-69zM53 656l112 161h89l-135 -161h-66z" />
    <glyph glyph-name="Rcommaaccent" unicode="&#x156;" horiz-adv-x="331" 
d="M37 0zM230 0q-13 97 -27 188.5t-31 185.5q-5 -1 -9 -1h-9h-41v-373h-76v823h125q72 0 107.5 -33.5t35.5 -114.5v-164q0 -90 -61 -121q20 -100 37 -196.5t32 -193.5h-83zM228 665q0 45 -13 63t-53 18h-49v-304h50q35 0 50 16.5t15 51.5v155zM154 -149v25h8q11 0 11 12v20
h-27v72h58v-90q0 -19 -9 -29t-30 -10h-11z" />
    <glyph glyph-name="rcommaaccent" unicode="&#x157;" horiz-adv-x="207" 
d="M37 0zM37 0v619h58q3 -23 3 -45q13 27 31.5 39t43.5 12q13 0 21 -4v-77q-5 4 -14 5.5t-17 1.5q-16 0 -31.5 -7.5t-25.5 -29.5v-514h-69zM52 -149v25h8q11 0 11 12v20h-27v72h58v-90q0 -19 -9 -29t-30 -10h-11z" />
    <glyph glyph-name="Rcaron" unicode="&#x158;" horiz-adv-x="331" 
d="M21 0zM230 0q-13 97 -27 188.5t-31 185.5q-5 -1 -9 -1h-9h-41v-373h-76v823h125q72 0 107.5 -33.5t35.5 -114.5v-164q0 -90 -61 -121q20 -100 37 -196.5t32 -193.5h-83zM228 665q0 45 -13 63t-53 18h-49v-304h50q35 0 50 16.5t15 51.5v155zM125 860l-104 161h67l80 -123
l81 123h64l-108 -161h-80z" />
    <glyph glyph-name="rcaron" unicode="&#x159;" horiz-adv-x="207" 
d="M0 0zM37 0v619h58q3 -23 3 -45q13 27 31.5 39t43.5 12q13 0 21 -4v-77q-5 4 -14 5.5t-17 1.5q-16 0 -31.5 -7.5t-25.5 -29.5v-514h-69zM63 656l-104 161h67l80 -123l81 123h64l-108 -161h-80z" />
    <glyph glyph-name="Sacute" unicode="&#x15a;" horiz-adv-x="310" 
d="M27 0zM207 244q0 19 -1 31t-4 21t-8 16.5t-12 16.5q-15 18 -30 33.5t-31 31t-32.5 33t-34.5 39.5q-20 23 -23.5 47.5t-3.5 59.5v123q0 136 128 136q69 0 97 -33.5t28 -102.5v-150h-71v140q0 31 -10.5 50t-41.5 19q-53 0 -53 -59v-122q0 -26 3.5 -38t14.5 -26
q30 -38 61.5 -67t63.5 -67q11 -13 18 -26t11 -28t5.5 -34t1.5 -43v-118q0 -66 -29.5 -101t-98.5 -35q-67 0 -97.5 35t-30.5 101v175h73v-164q0 -32 11.5 -52t41.5 -20q29 0 41.5 15.5t12.5 45.5v117zM104 860l112 161h89l-135 -161h-66z" />
    <glyph glyph-name="sacute" unicode="&#x15b;" horiz-adv-x="278" 
d="M27 0zM181 179q0 20 -5.5 34.5t-24.5 37.5q-21 25 -47 47.5t-45 45.5q-20 22 -26 44t-6 58v64q0 64 28 91.5t82 27.5q63 0 86.5 -28t23.5 -91v-101h-63v101q0 23 -13 36.5t-32 13.5q-45 0 -45 -50v-73q0 -22 5.5 -34.5t22.5 -30.5q20 -22 45 -42t44 -42q23 -27 31 -52.5
t8 -65.5v-67q0 -60 -28.5 -86t-86.5 -26q-108 0 -108 115v101h62v-99q0 -23 13.5 -36.5t33.5 -13.5q45 0 45 50v71zM88 656l112 161h89l-135 -161h-66z" />
    <glyph glyph-name="Scedilla" unicode="&#x15e;" horiz-adv-x="310" 
d="M27 0zM207 244q0 19 -1 31t-4 21t-8 16.5t-12 16.5q-15 18 -30 33.5t-31 31t-32.5 33t-34.5 39.5q-20 23 -23.5 47.5t-3.5 59.5v123q0 136 128 136q69 0 97 -33.5t28 -102.5v-150h-71v140q0 31 -10.5 50t-41.5 19q-53 0 -53 -59v-122q0 -26 3.5 -38t14.5 -26
q30 -38 61.5 -67t63.5 -67q11 -13 18 -26t11 -28t5.5 -34t1.5 -43v-118q0 -66 -29.5 -101t-98.5 -35q-67 0 -97.5 35t-30.5 101v175h73v-164q0 -32 11.5 -52t41.5 -20q29 0 41.5 15.5t12.5 45.5v117zM134 -149v25h8q11 0 11 12v20h-27v72h58v-90q0 -19 -9 -29t-30 -10h-11z
" />
    <glyph glyph-name="scedilla" unicode="&#x15f;" horiz-adv-x="278" 
d="M27 0zM181 179q0 20 -5.5 34.5t-24.5 37.5q-21 25 -47 47.5t-45 45.5q-20 22 -26 44t-6 58v64q0 64 28 91.5t82 27.5q63 0 86.5 -28t23.5 -91v-101h-63v101q0 23 -13 36.5t-32 13.5q-45 0 -45 -50v-73q0 -22 5.5 -34.5t22.5 -30.5q20 -22 45 -42t44 -42q23 -27 31 -52.5
t8 -65.5v-67q0 -60 -28.5 -86t-86.5 -26q-108 0 -108 115v101h62v-99q0 -23 13.5 -36.5t33.5 -13.5q45 0 45 50v71zM118 -149v25h8q11 0 11 12v20h-27v72h58v-90q0 -19 -9 -29t-30 -10h-11z" />
    <glyph glyph-name="Scaron" unicode="&#x160;" horiz-adv-x="310" 
d="M10 0zM207 244q0 19 -1 31t-4 21t-8 16.5t-12 16.5q-15 18 -30 33.5t-31 31t-32.5 33t-34.5 39.5q-20 23 -23.5 47.5t-3.5 59.5v123q0 136 128 136q69 0 97 -33.5t28 -102.5v-150h-71v140q0 31 -10.5 50t-41.5 19q-53 0 -53 -59v-122q0 -26 3.5 -38t14.5 -26
q30 -38 61.5 -67t63.5 -67q11 -13 18 -26t11 -28t5.5 -34t1.5 -43v-118q0 -66 -29.5 -101t-98.5 -35q-67 0 -97.5 35t-30.5 101v175h73v-164q0 -32 11.5 -52t41.5 -20q29 0 41.5 15.5t12.5 45.5v117zM114 860l-104 161h67l80 -123l81 123h64l-108 -161h-80z" />
    <glyph glyph-name="scaron" unicode="&#x161;" horiz-adv-x="278" 
d="M0 0zM181 179q0 20 -5.5 34.5t-24.5 37.5q-21 25 -47 47.5t-45 45.5q-20 22 -26 44t-6 58v64q0 64 28 91.5t82 27.5q63 0 86.5 -28t23.5 -91v-101h-63v101q0 23 -13 36.5t-32 13.5q-45 0 -45 -50v-73q0 -22 5.5 -34.5t22.5 -30.5q20 -22 45 -42t44 -42q23 -27 31 -52.5
t8 -65.5v-67q0 -60 -28.5 -86t-86.5 -26q-108 0 -108 115v101h62v-99q0 -23 13.5 -36.5t33.5 -13.5q45 0 45 50v71zM98 656l-104 161h67l80 -123l81 123h64l-108 -161h-80z" />
    <glyph glyph-name="Tcommaaccent" unicode="&#x162;" horiz-adv-x="281" 
d="M11 0zM103 0v746h-92v77h259v-77h-92v-746h-75zM121 -149v25h8q11 0 11 12v20h-27v72h58v-90q0 -19 -9 -29t-30 -10h-11z" />
    <glyph glyph-name="tcommaaccent" unicode="&#x163;" horiz-adv-x="191" 
d="M10 0zM180 -4q-5 -2 -14.5 -3.5t-17.5 -1.5q-55 0 -82 34t-27 94v439h-29v61h29v196h69v-196h70v-61h-70v-439q0 -38 13.5 -53.5t45.5 -15.5h6.5t6.5 1v-55zM92 -149v25h8q11 0 11 12v20h-27v72h58v-90q0 -19 -9 -29t-30 -10h-11z" />
    <glyph glyph-name="Tcaron" unicode="&#x164;" horiz-adv-x="281" 
d="M0 0zM103 0v746h-92v77h259v-77h-92v-746h-75zM100 860l-104 161h67l80 -123l81 123h64l-108 -161h-80z" />
    <glyph glyph-name="tcaron" unicode="&#x165;" horiz-adv-x="220" 
d="M10 0zM180 -4q-5 -2 -14.5 -3.5t-17.5 -1.5q-55 0 -82 34t-27 94v439h-29v61h29v196h69v-196h70v-61h-70v-439q0 -38 13.5 -53.5t45.5 -15.5h6.5t6.5 1v-55zM158 638v33h6q17 0 17 18v31h-33v103h72v-129q0 -26 -12.5 -41t-41.5 -15h-8z" />
    <glyph glyph-name="Tbar" unicode="&#x166;" horiz-adv-x="281" 
d="M103 0v399h-52v59h52v288h-92v77h259v-77h-92v-288h51v-59h-51v-399h-75z" />
    <glyph glyph-name="tbar" unicode="&#x167;" horiz-adv-x="191" 
d="M108 295v-176q0 -38 13.5 -53.5t45.5 -15.5h6.5t6.5 1v-55q-5 -2 -14.5 -3.5t-17.5 -1.5q-55 0 -82 34t-27 94v176h-23v59h23v204h-29v61h29v196h69v-196h70v-61h-70v-204h66v-59h-66z" />
    <glyph glyph-name="Utilde" unicode="&#x168;" horiz-adv-x="326" 
d="M34 0zM216 823h76v-692q0 -140 -129 -140t-129 140v692h76v-692q0 -65 53 -65t53 65v692zM282 917q-9 -11 -24.5 -18.5t-36.5 -7.5q-17 0 -32 5t-29.5 11.5t-29 11.5t-30.5 5q-35 0 -57 -31v61q10 11 24.5 19t35.5 8q18 0 33 -5t29.5 -11.5t28.5 -11.5t31 -5q33 0 57 30
v-61z" />
    <glyph glyph-name="utilde" unicode="&#x169;" horiz-adv-x="300" 
d="M32 0zM204 0q-1 11 -1.5 22t-0.5 23q-14 -25 -36.5 -38.5t-51.5 -13.5q-80 0 -80 107v519h69v-508q0 -28 9 -39t29 -11q16 0 30.5 8.5t22.5 28.5v521h69v-619h-59zM271 713q-9 -11 -24.5 -18.5t-36.5 -7.5q-17 0 -32 5t-29.5 11.5t-29 11.5t-30.5 5q-35 0 -57 -31v61
q10 11 24.5 19t35.5 8q18 0 33 -5t29.5 -11.5t28.5 -11.5t31 -5q33 0 57 30v-61z" />
    <glyph glyph-name="Umacron" unicode="&#x16a;" horiz-adv-x="326" 
d="M34 0zM216 823h76v-692q0 -140 -129 -140t-129 140v692h76v-692q0 -65 53 -65t53 65v692zM48 904v59h230v-59h-230z" />
    <glyph glyph-name="umacron" unicode="&#x16b;" horiz-adv-x="300" 
d="M34 0zM204 0q-1 11 -1.5 22t-0.5 23q-14 -25 -36.5 -38.5t-51.5 -13.5q-80 0 -80 107v519h69v-508q0 -28 9 -39t29 -11q16 0 30.5 8.5t22.5 28.5v521h69v-619h-59zM36 700v59h230v-59h-230z" />
    <glyph glyph-name="Ubreve" unicode="&#x16c;" horiz-adv-x="326" 
d="M30 0zM216 823h76v-692q0 -140 -129 -140t-129 140v692h76v-692q0 -65 53 -65t53 65v692zM298 1015q0 -45 -8 -74t-24.5 -46.5t-41.5 -24t-58 -6.5q-39 0 -65 6.5t-41.5 24t-22.5 46.5t-7 74h61q0 -36 5 -58t14.5 -33.5t23 -15t30.5 -3.5q15 0 28 3.5t23 15t15.5 33.5
t5.5 58h62z" />
    <glyph glyph-name="ubreve" unicode="&#x16d;" horiz-adv-x="300" 
d="M17 0zM204 0q-1 11 -1.5 22t-0.5 23q-14 -25 -36.5 -38.5t-51.5 -13.5q-80 0 -80 107v519h69v-508q0 -28 9 -39t29 -11q16 0 30.5 8.5t22.5 28.5v521h69v-619h-59zM285 811q0 -45 -8 -74t-24.5 -46.5t-41.5 -24t-58 -6.5q-39 0 -65 6.5t-41.5 24t-22.5 46.5t-7 74h61
q0 -36 5 -58t14.5 -33.5t23 -15t30.5 -3.5q15 0 28 3.5t23 15t15.5 33.5t5.5 58h62z" />
    <glyph glyph-name="Uring" unicode="&#x16e;" horiz-adv-x="326" 
d="M34 0zM216 823h76v-692q0 -140 -129 -140t-129 140v692h76v-692q0 -65 53 -65t53 65v692zM259 941q0 -34 -24.5 -56t-72.5 -22t-72 22t-24 56q0 35 24 57.5t72 22.5t72.5 -22.5t24.5 -57.5zM219 941q0 46 -57 46q-58 0 -58 -46q0 -45 58 -45q57 0 57 45z" />
    <glyph glyph-name="uring" unicode="&#x16f;" horiz-adv-x="300" 
d="M34 0zM204 0q-1 11 -1.5 22t-0.5 23q-14 -25 -36.5 -38.5t-51.5 -13.5q-80 0 -80 107v519h69v-508q0 -28 9 -39t29 -11q16 0 30.5 8.5t22.5 28.5v521h69v-619h-59zM246 737q0 -34 -24.5 -56t-72.5 -22t-72 22t-24 56q0 35 24 57.5t72 22.5t72.5 -22.5t24.5 -57.5z
M206 737q0 46 -57 46q-58 0 -58 -46q0 -45 58 -45q57 0 57 45z" />
    <glyph glyph-name="Uhungarumlaut" unicode="&#x170;" horiz-adv-x="326" 
d="M32 0zM216 823h76v-692q0 -140 -129 -140t-129 140v692h76v-692q0 -65 53 -65t53 65v692zM194 860l112 161h90l-135 -161h-67zM32 860l112 161h89l-135 -161h-66z" />
    <glyph glyph-name="uhungarumlaut" unicode="&#x171;" horiz-adv-x="300" 
d="M19 0zM204 0q-1 11 -1.5 22t-0.5 23q-14 -25 -36.5 -38.5t-51.5 -13.5q-80 0 -80 107v519h69v-508q0 -28 9 -39t29 -11q16 0 30.5 8.5t22.5 28.5v521h69v-619h-59zM181 656l112 161h90l-135 -161h-67zM19 656l112 161h89l-135 -161h-66z" />
    <glyph glyph-name="Uogonek" unicode="&#x172;" horiz-adv-x="326" 
d="M250 -49q0 -48 -24 -74t-87 -26q-36 0 -59.5 17.5t-23.5 50.5q0 55 72 75q-94 16 -94 137v692h76v-692q0 -65 53 -65t53 65v692h76v-692q0 -66 -28.5 -98t-83.5 -41q-37 -6 -56 -22.5t-19 -37.5q0 -11 8.5 -22t29.5 -11q29 0 39 14.5t10 37.5v11h58v-11z" />
    <glyph glyph-name="uogonek" unicode="&#x173;" horiz-adv-x="300" 
d="M292 -49q0 -48 -24 -74t-87 -26q-36 0 -59.5 17.5t-23.5 50.5q0 31 27 53t79 28q-1 11 -1.5 22t-0.5 23q-14 -25 -36.5 -38.5t-51.5 -13.5q-80 0 -80 107v519h69v-508q0 -28 9 -39t29 -11q16 0 30.5 8.5t22.5 28.5v521h69v-619q-55 -8 -85.5 -25t-30.5 -43q0 -11 8.5 -22
t29.5 -11q29 0 39 14.5t10 37.5v11h58v-11z" />
    <glyph glyph-name="Wcircumflex" unicode="&#x174;" horiz-adv-x="526" 
d="M12 0zM318 0q-5 44 -11 101.5t-12 119.5l-12 124t-10.5 115t-8 92.5t-4.5 57.5q-1 -18 -4.5 -57.5t-8.5 -92.5t-11 -115t-13 -124t-13.5 -119.5t-12.5 -101.5h-93l-92 823h79q6 -51 12.5 -113t13 -127.5t12 -129.5t10.5 -118.5t9 -96.5t6 -62q2 20 6.5 62t10.5 96.5
t12.5 118.5t14 129.5t14.5 127.5t13 113h76l62 -647q2 20 6.5 62t10.5 96.5t12.5 118.5t14 129.5t14.5 127.5t13 113h80l-104 -823h-92zM342 860l-79 123l-82 -123h-64l108 161h80l104 -161h-67z" />
    <glyph glyph-name="wcircumflex" unicode="&#x175;" horiz-adv-x="418" 
d="M13 0zM253 0l-46 462l-52 -462h-82l-60 619h65l39 -486l57 486h67l51 -486l47 486h65l-68 -619h-83zM288 656l-79 123l-82 -123h-64l108 161h80l104 -161h-67z" />
    <glyph glyph-name="Ycircumflex" unicode="&#x176;" horiz-adv-x="332" 
d="M9 0zM125 0v369l-116 454h80q10 -41 21.5 -90.5t23 -97.5t20.5 -88.5t13 -62.5q4 22 13 62.5t20.5 88.5t24 97.5t23.5 90.5h74l-120 -454v-369h-77zM246 860l-79 123l-82 -123h-64l108 161h80l104 -161h-67z" />
    <glyph glyph-name="ycircumflex" unicode="&#x177;" horiz-adv-x="277" 
d="M0 0zM19 -70q17 -5 34 -5q21 0 30.5 17t14.5 46l4 25l-91 606h72q5 -35 10.5 -78t10.5 -89t10.5 -92t9.5 -86t7.5 -72t5.5 -49q2 17 5.5 49t8.5 72t10.5 86t11.5 92t12.5 89t12.5 78h66l-94 -627q-5 -33 -12 -58t-19.5 -42.5t-32.5 -26.5t-50 -9q-17 0 -37 5v69zM219 656
l-79 123l-82 -123h-64l108 161h80l104 -161h-67z" />
    <glyph glyph-name="Ydieresis" unicode="&#x178;" horiz-adv-x="332" 
d="M9 0zM125 0v369l-116 454h80q10 -41 21.5 -90.5t23 -97.5t20.5 -88.5t13 -62.5q4 22 13 62.5t20.5 88.5t24 97.5t23.5 90.5h74l-120 -454v-369h-77zM206 872v125h69v-125h-69zM56 872v125h69v-125h-69z" />
    <glyph glyph-name="Zacute" unicode="&#x179;" horiz-adv-x="307" 
d="M25 0zM25 0v76l182 673h-175v74h251v-69l-179 -677h179v-77h-258zM103 860l112 161h89l-135 -161h-66z" />
    <glyph glyph-name="zacute" unicode="&#x17a;" horiz-adv-x="256" 
d="M25 0zM25 0v64l141 487h-139v68h205v-64l-138 -485h137v-70h-206zM77 656l112 161h89l-135 -161h-66z" />
    <glyph glyph-name="Zdotaccent" unicode="&#x17b;" horiz-adv-x="307" 
d="M25 0zM25 0v76l182 673h-175v74h251v-69l-179 -677h179v-77h-258zM124 872v125h69v-125h-69z" />
    <glyph glyph-name="zdotaccent" unicode="&#x17c;" horiz-adv-x="256" 
d="M25 0zM25 0v64l141 487h-139v68h205v-64l-138 -485h137v-70h-206zM93 668v125h69v-125h-69z" />
    <glyph glyph-name="Zcaron" unicode="&#x17d;" horiz-adv-x="307" 
d="M14 0zM25 0v76l182 673h-175v74h251v-69l-179 -677h179v-77h-258zM118 860l-104 161h67l80 -123l81 123h64l-108 -161h-80z" />
    <glyph glyph-name="zcaron" unicode="&#x17e;" horiz-adv-x="256" 
d="M0 0zM25 0v64l141 487h-139v68h205v-64l-138 -485h137v-70h-206zM87 656l-104 161h67l80 -123l81 123h64l-108 -161h-80z" />
    <glyph glyph-name="florin" unicode="&#x192;" horiz-adv-x="405" 
d="M17 61q10 -3 22 -5t29 -2q35 0 49 18t19 63l49 434h-83v58h89l11 82q4 34 14 57.5t27 38t41.5 21t58.5 6.5q19 0 32.5 -3t20.5 -6v-62q-11 3 -22.5 4.5t-29.5 1.5q-32 0 -46 -13t-18 -48l-10 -79h105v-58h-113l-48 -440q-4 -39 -14 -65t-27.5 -42.5t-43 -23.5t-60.5 -7
q-18 0 -32 3t-20 6v61z" />
    <glyph glyph-name="Scommaaccent" unicode="&#x218;" horiz-adv-x="310" 
d="M27 0zM207 244q0 19 -1 31t-4 21t-8 16.5t-12 16.5q-15 18 -30 33.5t-31 31t-32.5 33t-34.5 39.5q-20 23 -23.5 47.5t-3.5 59.5v123q0 136 128 136q69 0 97 -33.5t28 -102.5v-150h-71v140q0 31 -10.5 50t-41.5 19q-53 0 -53 -59v-122q0 -26 3.5 -38t14.5 -26
q30 -38 61.5 -67t63.5 -67q11 -13 18 -26t11 -28t5.5 -34t1.5 -43v-118q0 -66 -29.5 -101t-98.5 -35q-67 0 -97.5 35t-30.5 101v175h73v-164q0 -32 11.5 -52t41.5 -20q29 0 41.5 15.5t12.5 45.5v117zM134 -149v25h8q11 0 11 12v20h-27v72h58v-90q0 -19 -9 -29t-30 -10h-11z
" />
    <glyph glyph-name="scommaaccent" unicode="&#x219;" horiz-adv-x="278" 
d="M27 0zM181 179q0 20 -5.5 34.5t-24.5 37.5q-21 25 -47 47.5t-45 45.5q-20 22 -26 44t-6 58v64q0 64 28 91.5t82 27.5q63 0 86.5 -28t23.5 -91v-101h-63v101q0 23 -13 36.5t-32 13.5q-45 0 -45 -50v-73q0 -22 5.5 -34.5t22.5 -30.5q20 -22 45 -42t44 -42q23 -27 31 -52.5
t8 -65.5v-67q0 -60 -28.5 -86t-86.5 -26q-108 0 -108 115v101h62v-99q0 -23 13.5 -36.5t33.5 -13.5q45 0 45 50v71zM118 -149v25h8q11 0 11 12v20h-27v72h58v-90q0 -19 -9 -29t-30 -10h-11z" />
    <glyph glyph-name="uni021A" unicode="&#x21a;" horiz-adv-x="281" 
d="M11 0zM103 0v746h-92v77h259v-77h-92v-746h-75zM121 -149v25h8q11 0 11 12v20h-27v72h58v-90q0 -19 -9 -29t-30 -10h-11z" />
    <glyph glyph-name="uni021B" unicode="&#x21b;" horiz-adv-x="191" 
d="M10 0zM180 -4q-5 -2 -14.5 -3.5t-17.5 -1.5q-55 0 -82 34t-27 94v439h-29v61h29v196h69v-196h70v-61h-70v-439q0 -38 13.5 -53.5t45.5 -15.5h6.5t6.5 1v-55zM92 -149v25h8q11 0 11 12v20h-27v72h58v-90q0 -19 -9 -29t-30 -10h-11z" />
    <glyph glyph-name="circumflex" unicode="&#x2c6;" horiz-adv-x="385" 
d="M271 656l-79 123l-82 -123h-64l108 161h80l104 -161h-67z" />
    <glyph glyph-name="caron" unicode="&#x2c7;" horiz-adv-x="385" 
d="M150 656l-104 161h67l80 -123l81 123h64l-108 -161h-80z" />
    <glyph glyph-name="breve" unicode="&#x2d8;" horiz-adv-x="341" 
d="M305 811q0 -45 -8 -74t-24.5 -46.5t-41.5 -24t-58 -6.5q-39 0 -65 6.5t-41.5 24t-22.5 46.5t-7 74h61q0 -36 5 -58t14.5 -33.5t23 -15t30.5 -3.5q15 0 28 3.5t23 15t15.5 33.5t5.5 58h62z" />
    <glyph glyph-name="dotaccent" unicode="&#x2d9;" horiz-adv-x="144" 
d="M37 668v125h69v-125h-69z" />
    <glyph glyph-name="ring" unicode="&#x2da;" horiz-adv-x="267" 
d="M230 737q0 -34 -24.5 -56t-72.5 -22t-72 22t-24 56q0 35 24 57.5t72 22.5t72.5 -22.5t24.5 -57.5zM190 737q0 46 -57 46q-58 0 -58 -46q0 -45 58 -45q57 0 57 45z" />
    <glyph glyph-name="ogonek" unicode="&#x2db;" horiz-adv-x="267" 
d="M231 -49q0 -48 -24 -74t-87 -26q-36 0 -59.5 17.5t-23.5 50.5q0 31 27 53t79 28h59q-55 -8 -85.5 -25t-30.5 -43q0 -11 8.5 -22t29.5 -11q29 0 39 14.5t10 37.5v11h58v-11z" />
    <glyph glyph-name="tilde" unicode="&#x2dc;" horiz-adv-x="314" 
d="M276 713q-9 -11 -24.5 -18.5t-36.5 -7.5q-17 0 -32 5t-29.5 11.5t-29 11.5t-30.5 5q-35 0 -57 -31v61q10 11 24.5 19t35.5 8q18 0 33 -5t29.5 -11.5t28.5 -11.5t31 -5q33 0 57 30v-61z" />
    <glyph glyph-name="hungarumlaut" unicode="&#x2dd;" horiz-adv-x="437" 
d="M199 656l112 161h90l-135 -161h-67zM37 656l112 161h89l-135 -161h-66z" />
    <glyph glyph-name="Delta" unicode="&#x394;" horiz-adv-x="336" 
d="M12 0l109 823h101l102 -823h-312zM169 688l-73 -613h140z" />
    <glyph glyph-name="Omega" unicode="&#x3a9;" horiz-adv-x="265" 
d="M142 0v67q14 60 24 161t10 256v202q0 37 -10 53t-33 16q-24 0 -34.5 -16t-10.5 -53v-202q0 -155 10.5 -256t24.5 -161v-67h-88v75h49q-8 22 -17 58t-17 86t-13.5 115.5t-5.5 145.5v205q0 78 22.5 112.5t79.5 34.5q55 0 78 -34t23 -112v-206q0 -80 -5.5 -145.5
t-13.5 -115.5t-17 -86t-17 -58h49v-75h-88z" />
    <glyph glyph-name="mu" unicode="&#x3bc;" horiz-adv-x="303" 
d="M207 0q-2 11 -2 22v23q-11 -23 -31 -33t-44 -10q-9 0 -24 5v-146h-69v758h69v-508q0 -28 8.5 -39t29.5 -11q16 0 30.5 8.5t22.5 28.5v521h69v-619h-59z" />
    <glyph glyph-name="pi" unicode="&#x3c0;" horiz-adv-x="384" 
d="M372 2q-14 -4 -30 -5.5t-32 -1.5q-52 0 -76 25t-24 70v478h-97v-568h-76v619h249v-518q0 -21 8 -38t40 -17q24 0 38 6v-50z" />
    <glyph glyph-name="Wgrave" unicode="&#x1e80;" horiz-adv-x="526" 
d="M12 0zM318 0q-5 44 -11 101.5t-12 119.5l-12 124t-10.5 115t-8 92.5t-4.5 57.5q-1 -18 -4.5 -57.5t-8.5 -92.5t-11 -115t-13 -124t-13.5 -119.5t-12.5 -101.5h-93l-92 823h79q6 -51 12.5 -113t13 -127.5t12 -129.5t10.5 -118.5t9 -96.5t6 -62q2 20 6.5 62t10.5 96.5
t12.5 118.5t14 129.5t14.5 127.5t13 113h76l62 -647q2 20 6.5 62t10.5 96.5t12.5 118.5t14 129.5t14.5 127.5t13 113h80l-104 -823h-92zM246 860l-134 161h88l113 -161h-67z" />
    <glyph glyph-name="wgrave" unicode="&#x1e81;" horiz-adv-x="418" 
d="M13 0zM253 0l-46 462l-52 -462h-82l-60 619h65l39 -486l57 486h67l51 -486l47 486h65l-68 -619h-83zM192 656l-134 161h88l113 -161h-67z" />
    <glyph glyph-name="Wacute" unicode="&#x1e82;" horiz-adv-x="526" 
d="M12 0zM318 0q-5 44 -11 101.5t-12 119.5l-12 124t-10.5 115t-8 92.5t-4.5 57.5q-1 -18 -4.5 -57.5t-8.5 -92.5t-11 -115t-13 -124t-13.5 -119.5t-12.5 -101.5h-93l-92 823h79q6 -51 12.5 -113t13 -127.5t12 -129.5t10.5 -118.5t9 -96.5t6 -62q2 20 6.5 62t10.5 96.5
t12.5 118.5t14 129.5t14.5 127.5t13 113h76l62 -647q2 20 6.5 62t10.5 96.5t12.5 118.5t14 129.5t14.5 127.5t13 113h80l-104 -823h-92zM212 860l112 161h89l-135 -161h-66z" />
    <glyph glyph-name="wacute" unicode="&#x1e83;" horiz-adv-x="418" 
d="M13 0zM253 0l-46 462l-52 -462h-82l-60 619h65l39 -486l57 486h67l51 -486l47 486h65l-68 -619h-83zM158 656l112 161h89l-135 -161h-66z" />
    <glyph glyph-name="Wdieresis" unicode="&#x1e84;" horiz-adv-x="526" 
d="M12 0zM318 0q-5 44 -11 101.5t-12 119.5l-12 124t-10.5 115t-8 92.5t-4.5 57.5q-1 -18 -4.5 -57.5t-8.5 -92.5t-11 -115t-13 -124t-13.5 -119.5t-12.5 -101.5h-93l-92 823h79q6 -51 12.5 -113t13 -127.5t12 -129.5t10.5 -118.5t9 -96.5t6 -62q2 20 6.5 62t10.5 96.5
t12.5 118.5t14 129.5t14.5 127.5t13 113h76l62 -647q2 20 6.5 62t10.5 96.5t12.5 118.5t14 129.5t14.5 127.5t13 113h80l-104 -823h-92zM303 872v125h69v-125h-69zM153 872v125h69v-125h-69z" />
    <glyph glyph-name="wdieresis" unicode="&#x1e85;" horiz-adv-x="418" 
d="M13 0zM253 0l-46 462l-52 -462h-82l-60 619h65l39 -486l57 486h67l51 -486l47 486h65l-68 -619h-83zM249 668v125h69v-125h-69zM99 668v125h69v-125h-69z" />
    <glyph glyph-name="Ygrave" unicode="&#x1ef2;" horiz-adv-x="332" 
d="M9 0zM125 0v369l-116 454h80q10 -41 21.5 -90.5t23 -97.5t20.5 -88.5t13 -62.5q4 22 13 62.5t20.5 88.5t24 97.5t23.5 90.5h74l-120 -454v-369h-77zM151 860l-134 161h88l113 -161h-67z" />
    <glyph glyph-name="ygrave" unicode="&#x1ef3;" horiz-adv-x="277" 
d="M0 0zM19 -70q17 -5 34 -5q21 0 30.5 17t14.5 46l4 25l-91 606h72q5 -35 10.5 -78t10.5 -89t10.5 -92t9.5 -86t7.5 -72t5.5 -49q2 17 5.5 49t8.5 72t10.5 86t11.5 92t12.5 89t12.5 78h66l-94 -627q-5 -33 -12 -58t-19.5 -42.5t-32.5 -26.5t-50 -9q-17 0 -37 5v69zM123 656
l-134 161h88l113 -161h-67z" />
    <glyph glyph-name="endash" unicode="&#x2013;" horiz-adv-x="279" 
d="M13 385v59h253v-59h-253z" />
    <glyph glyph-name="emdash" unicode="&#x2014;" horiz-adv-x="438" 
d="M13 385v59h413v-59h-413z" />
    <glyph glyph-name="quoteleft" unicode="&#x2018;" horiz-adv-x="134" 
d="M31 645v130q0 25 12.5 40t41.5 15h8v-33h-7q-8 0 -12 -3.5t-4 -14.5v-31h33v-103h-72z" />
    <glyph glyph-name="quoteright" unicode="&#x2019;" horiz-adv-x="134" 
d="M41 638v33h6q17 0 17 18v31h-33v103h72v-129q0 -26 -12.5 -41t-41.5 -15h-8z" />
    <glyph glyph-name="quotesinglbase" unicode="&#x201a;" horiz-adv-x="138" 
d="M43 -60v33h6q17 0 17 18v31h-33v103h72v-129q0 -26 -12.5 -41t-41.5 -15h-8z" />
    <glyph glyph-name="quotedblleft" unicode="&#x201c;" horiz-adv-x="268" 
d="M31 645zM31 645v130q0 25 12.5 40t41.5 15h8v-33h-7q-8 0 -12 -3.5t-4 -14.5v-31h33v-103h-72zM165 645v130q0 25 12.5 40t41.5 15h8v-33h-7q-8 0 -12 -3.5t-4 -14.5v-31h33v-103h-72z" />
    <glyph glyph-name="quotedblright" unicode="&#x201d;" horiz-adv-x="268" 
d="M31 638zM41 638v33h6q17 0 17 18v31h-33v103h72v-129q0 -26 -12.5 -41t-41.5 -15h-8zM175 638v33h6q17 0 17 18v31h-33v103h72v-129q0 -26 -12.5 -41t-41.5 -15h-8z" />
    <glyph glyph-name="quotedblbase" unicode="&#x201e;" horiz-adv-x="276" 
d="M33 0zM43 -60v33h6q17 0 17 18v31h-33v103h72v-129q0 -26 -12.5 -41t-41.5 -15h-8zM181 -60v33h6q17 0 17 18v31h-33v103h72v-129q0 -26 -12.5 -41t-41.5 -15h-8z" />
    <glyph glyph-name="dagger" unicode="&#x2020;" horiz-adv-x="388" 
d="M166 195l8 416l-143 -6v56l141 -7l-7 169h57l-7 -169l142 8v-57l-144 6l7 -416h-54z" />
    <glyph glyph-name="daggerdbl" unicode="&#x2021;" horiz-adv-x="388" 
d="M165 0l7 168l-141 -6v55l143 -7l-14 202l14 199l-143 -6v56l141 -7l-7 169h57l-7 -169l142 8v-57l-144 6l14 -199l-14 -202l144 7v-57l-142 8l7 -168h-57z" />
    <glyph glyph-name="bullet" unicode="&#x2022;" horiz-adv-x="209" 
d="M105 386q-35 0 -54.5 24.5t-19.5 59.5t19.5 58.5t54.5 23.5q34 0 53.5 -23.5t19.5 -58.5t-19.5 -59.5t-53.5 -24.5z" />
    <glyph glyph-name="ellipsis" unicode="&#x2026;" horiz-adv-x="665" 
d="M31 0zM31 0v125h71v-125h-71zM297 0v125h71v-125h-71zM563 0v125h71v-125h-71z" />
    <glyph glyph-name="perthousand" unicode="&#x2030;" horiz-adv-x="612" 
d="M31 0zM62 768q0 70 67 70q68 0 68 -70v-281q0 -70 -68 -70q-67 0 -67 70v281zM151 769q0 23 -22 23q-21 0 -21 -23v-283q0 -23 21 -23q22 0 22 23v283zM31 0l362 823h51l-361 -823h-52zM282 336q0 70 67 70q68 0 68 -70v-281q0 -70 -68 -70q-67 0 -67 70v281zM371 337
q0 23 -22 23q-21 0 -21 -23v-283q0 -23 21 -23q22 0 22 23v283zM447 336q0 70 67 70q68 0 68 -70v-281q0 -70 -68 -70q-67 0 -67 70v281zM536 337q0 23 -22 23q-21 0 -21 -23v-283q0 -23 21 -23q22 0 22 23v283z" />
    <glyph glyph-name="guilsinglleft" unicode="&#x2039;" horiz-adv-x="195" 
d="M19 296v75l157 112v-65l-120 -84l120 -88v-68z" />
    <glyph glyph-name="guilsinglright" unicode="&#x203a;" horiz-adv-x="195" 
d="M19 178v68l120 88l-120 84v65l157 -112v-75z" />
    <glyph glyph-name="fraction" unicode="&#x2044;" horiz-adv-x="161" 
d="M-126 0l362 823h51l-361 -823h-52z" />
    <glyph glyph-name="zerosuperior" unicode="&#x2070;" horiz-adv-x="195" 
d="M30 417zM30 768q0 70 67 70q68 0 68 -70v-281q0 -70 -68 -70q-67 0 -67 70v281zM119 769q0 23 -22 23q-21 0 -21 -23v-283q0 -23 21 -23q22 0 22 23v283z" />
    <glyph glyph-name="foursuperior" unicode="&#x2074;" horiz-adv-x="190" 
d="M19 422zM107 547q0 61 1 99t2 69q-9 -31 -20 -69t-30 -99h47zM107 422v82h-88v40l88 289h43v-286h20v-43h-20v-82h-43z" />
    <glyph glyph-name="fivesuperior" unicode="&#x2075;" horiz-adv-x="188" 
d="M30 417zM115 620q0 22 -21 22t-24 -22l-40 1l5 212h122v-46h-80l-5 -121q12 17 40 17q23 0 35 -14.5t12 -49.5v-133q0 -69 -64 -69q-65 0 -65 69v87h45v-86q0 -24 20 -24t20 24v133z" />
    <glyph glyph-name="sixsuperior" unicode="&#x2076;" horiz-adv-x="190" 
d="M29 417zM115 600q0 17 -3.5 26.5t-16.5 9.5q-17 0 -19 -17v-132q0 -11 4 -17.5t15 -6.5q20 0 20 24v113zM161 487q0 -32 -16.5 -51t-49.5 -19t-49.5 19t-16.5 51v281q0 32 16.5 51t49.5 19t48.5 -19t15.5 -51v-71h-45v71q0 23 -19 23t-19 -23v-104q5 6 13.5 11t22.5 5
q26 0 37.5 -14.5t11.5 -49.5v-129z" />
    <glyph glyph-name="sevensuperior" unicode="&#x2077;" horiz-adv-x="175" 
d="M21 422zM46 422q0 86 8 151t19 110t21.5 70.5t15.5 33.5h-89v46h132v-43q-33 -75 -47 -164t-14 -204h-46z" />
    <glyph glyph-name="eightsuperior" unicode="&#x2078;" horiz-adv-x="188" 
d="M28 417zM159 486q0 -69 -66 -69q-65 0 -65 69v100q0 20 7.5 32t20.5 17q-11 5 -17.5 15.5t-6.5 29.5v87q0 33 14.5 52t46.5 19q33 0 47.5 -19t14.5 -52v-87q0 -19 -6.5 -29.5t-17.5 -15.5q12 -5 20 -17t8 -32v-100zM113 589q0 21 -20 21q-19 0 -19 -21v-102q0 -24 19 -24
q20 0 20 24v102zM113 767q0 24 -20 24q-19 0 -19 -24v-93q0 -21 19 -21q20 0 20 21v93z" />
    <glyph glyph-name="ninesuperior" unicode="&#x2079;" horiz-adv-x="190" 
d="M29 417zM113 768q0 23 -19 23q-20 0 -20 -23v-118q0 -23 20 -23q9 0 13.5 5t5.5 12v124zM113 598q-5 -7 -13 -12t-22 -5q-26 0 -37.5 15t-11.5 50v122q0 33 16 51.5t49 18.5t49.5 -18.5t16.5 -51.5v-281q0 -32 -16.5 -51t-49.5 -19q-31 0 -48 19t-17 51v71h45v-71
q0 -24 20 -24q19 0 19 24v111z" />
    <glyph glyph-name="zeroinferior" unicode="&#x2080;" horiz-adv-x="195" 
d="M30 336q0 70 67 70q68 0 68 -70v-281q0 -70 -68 -70q-67 0 -67 70v281zM119 337q0 23 -22 23q-21 0 -21 -23v-283q0 -23 21 -23q22 0 22 23v283z" />
    <glyph glyph-name="oneinferior" unicode="&#x2081;" horiz-adv-x="125" 
d="M45 -10v336h-22v45h10q17 0 17 19v11h41v-411h-46z" />
    <glyph glyph-name="twoinferior" unicode="&#x2082;" horiz-adv-x="185" 
d="M27 -10v75q0 18 1.5 32t6 26.5t12 26.5t19.5 32q14 21 23 35t14 25.5t7 22.5t2 26v44q0 24 -20 24q-19 0 -19 -24v-72h-46v71q0 38 16 55t49 17q66 0 66 -72v-48q0 -31 -10.5 -58t-32.5 -57q-14 -20 -22 -33.5t-12.5 -25t-5.5 -22.5t-1 -25v-29h84v-46h-131z" />
    <glyph glyph-name="threeinferior" unicode="&#x2083;" horiz-adv-x="186" 
d="M113 154q0 24 -20 24h-21v43h23q11 0 14 6.5t3 17.5v90q0 24 -19 24t-19 -24v-73h-46v73q0 38 16 54.5t49 16.5t48.5 -17t15.5 -55v-91q0 -32 -27 -44q14 -4 21 -14t7 -30v-100q0 -32 -16 -51t-49 -19t-49.5 19t-16.5 51v81h47v-81q0 -24 19 -24q20 0 20 24v99z" />
    <glyph glyph-name="fourinferior" unicode="&#x2084;" horiz-adv-x="190" 
d="M107 115q0 61 1 99t2 69q-9 -31 -20 -69t-30 -99h47zM107 -10v82h-88v40l88 289h43v-286h20v-43h-20v-82h-43z" />
    <glyph glyph-name="fiveinferior" unicode="&#x2085;" horiz-adv-x="188" 
d="M115 188q0 22 -21 22t-24 -22l-40 1l5 212h122v-46h-80l-5 -121q12 17 40 17q23 0 35 -14.5t12 -49.5v-133q0 -69 -64 -69q-65 0 -65 69v87h45v-86q0 -24 20 -24t20 24v133z" />
    <glyph glyph-name="sixinferior" unicode="&#x2086;" horiz-adv-x="190" 
d="M115 168q0 17 -3.5 26.5t-16.5 9.5q-17 0 -19 -17v-132q0 -11 4 -17.5t15 -6.5q20 0 20 24v113zM161 55q0 -32 -16.5 -51t-49.5 -19t-49.5 19t-16.5 51v281q0 32 16.5 51t49.5 19t48.5 -19t15.5 -51v-71h-45v71q0 23 -19 23t-19 -23v-104q5 6 13.5 11t22.5 5
q26 0 37.5 -14.5t11.5 -49.5v-129z" />
    <glyph glyph-name="seveninferior" unicode="&#x2087;" horiz-adv-x="175" 
d="M46 -10q0 86 8 151t19 110t21.5 70.5t15.5 33.5h-89v46h132v-43q-33 -75 -47 -164t-14 -204h-46z" />
    <glyph glyph-name="eightinferior" unicode="&#x2088;" horiz-adv-x="188" 
d="M159 54q0 -69 -66 -69q-65 0 -65 69v100q0 20 7.5 32t20.5 17q-11 5 -17.5 15.5t-6.5 29.5v87q0 33 14.5 52t46.5 19q33 0 47.5 -19t14.5 -52v-87q0 -19 -6.5 -29.5t-17.5 -15.5q12 -5 20 -17t8 -32v-100zM113 157q0 21 -20 21q-19 0 -19 -21v-102q0 -24 19 -24
q20 0 20 24v102zM113 335q0 24 -20 24q-19 0 -19 -24v-93q0 -21 19 -21q20 0 20 21v93z" />
    <glyph glyph-name="nineinferior" unicode="&#x2089;" horiz-adv-x="190" 
d="M113 336q0 23 -19 23q-20 0 -20 -23v-118q0 -23 20 -23q9 0 13.5 5t5.5 12v124zM113 166q-5 -7 -13 -12t-22 -5q-26 0 -37.5 15t-11.5 50v122q0 33 16 51.5t49 18.5t49.5 -18.5t16.5 -51.5v-281q0 -32 -16.5 -51t-49.5 -19q-31 0 -48 19t-17 51v71h45v-71q0 -24 20 -24
q19 0 19 24v111z" />
    <glyph glyph-name="Euro" unicode="&#x20ac;" horiz-adv-x="342" 
d="M247 208h75v-77q0 -69 -31.5 -104.5t-100.5 -35.5t-101.5 35.5t-32.5 104.5v165h-46l9 58h37v129h-46l9 59h37v130q0 40 8.5 70.5t29 50t53.5 29.5t83 10q29 0 55 -1.5t47 -3.5l-12 -77q-45 6 -88 6q-31 0 -50.5 -5.5t-30.5 -16t-15 -26t-4 -36.5v-130h156l-10 -59h-146
v-129h127l-10 -58h-117v-167q0 -26 16 -45t42 -19q34 0 45.5 20t11.5 62v61z" />
    <glyph glyph-name="trademark" unicode="&#x2122;" horiz-adv-x="484" 
d="M81 443v343h-54v37h156v-37h-54v-343h-48zM403 443v128v74.5t1 73.5l-51 -276h-42l-52 276q1 -37 1.5 -74t0.5 -74v-128h-44v380h63l52 -297l50 297h64v-380h-43z" />
    <glyph glyph-name="onethird" unicode="&#x2153;" horiz-adv-x="480" 
d="M31 0zM97 422v336h-22v45h10q17 0 17 19v11h41v-411h-46zM31 0l362 823h51l-361 -823h-52zM395 154q0 24 -20 24h-21v43h23q11 0 14 6.5t3 17.5v90q0 24 -19 24t-19 -24v-73h-46v73q0 38 16 54.5t49 16.5t48.5 -17t15.5 -55v-91q0 -32 -27 -44q14 -4 21 -14t7 -30v-100
q0 -32 -16 -51t-49 -19t-49.5 19t-16.5 51v81h47v-81q0 -24 19 -24q20 0 20 24v99z" />
    <glyph glyph-name="twothirds" unicode="&#x2154;" horiz-adv-x="480" 
d="M31 0zM39 422v75q0 18 1.5 32t6 26.5t12 26.5t19.5 32q14 21 23 35t14 25.5t7 22.5t2 26v44q0 24 -20 24q-19 0 -19 -24v-72h-46v71q0 38 16 55t49 17q66 0 66 -72v-48q0 -31 -10.5 -58t-32.5 -57q-14 -20 -22 -33.5t-12.5 -25t-5.5 -22.5t-1 -25v-29h84v-46h-131zM31 0
l362 823h51l-361 -823h-52zM385 154q0 24 -20 24h-21v43h23q11 0 14 6.5t3 17.5v90q0 24 -19 24t-19 -24v-73h-46v73q0 38 16 54.5t49 16.5t48.5 -17t15.5 -55v-91q0 -32 -27 -44q14 -4 21 -14t7 -30v-100q0 -32 -16 -51t-49 -19t-49.5 19t-16.5 51v81h47v-81q0 -24 19 -24
q20 0 20 24v99z" />
    <glyph glyph-name="oneeighth" unicode="&#x215b;" horiz-adv-x="480" 
d="M31 0zM97 422v336h-22v45h10q17 0 17 19v11h41v-411h-46zM31 0l362 823h51l-361 -823h-52zM441 54q0 -69 -66 -69q-65 0 -65 69v100q0 20 7.5 32t20.5 17q-11 5 -17.5 15.5t-6.5 29.5v87q0 33 14.5 52t46.5 19q33 0 47.5 -19t14.5 -52v-87q0 -19 -6.5 -29.5t-17.5 -15.5
q12 -5 20 -17t8 -32v-100zM395 157q0 21 -20 21q-19 0 -19 -21v-102q0 -24 19 -24q20 0 20 24v102zM395 335q0 24 -20 24q-19 0 -19 -24v-93q0 -21 19 -21q20 0 20 21v93z" />
    <glyph glyph-name="threeeighths" unicode="&#x215c;" horiz-adv-x="480" 
d="M31 0zM134 586q0 24 -20 24h-21v43h23q11 0 14 6.5t3 17.5v90q0 24 -19 24t-19 -24v-73h-46v73q0 38 16 54.5t49 16.5t48.5 -17t15.5 -55v-91q0 -32 -27 -44q14 -4 21 -14t7 -30v-100q0 -32 -16 -51t-49 -19t-49.5 19t-16.5 51v81h47v-81q0 -24 19 -24q20 0 20 24v99z
M31 0l362 823h51l-361 -823h-52zM431 54q0 -69 -66 -69q-65 0 -65 69v100q0 20 7.5 32t20.5 17q-11 5 -17.5 15.5t-6.5 29.5v87q0 33 14.5 52t46.5 19q33 0 47.5 -19t14.5 -52v-87q0 -19 -6.5 -29.5t-17.5 -15.5q12 -5 20 -17t8 -32v-100zM385 157q0 21 -20 21
q-19 0 -19 -21v-102q0 -24 19 -24q20 0 20 24v102zM385 335q0 24 -20 24q-19 0 -19 -24v-93q0 -21 19 -21q20 0 20 21v93z" />
    <glyph glyph-name="fiveeighths" unicode="&#x215d;" horiz-adv-x="480" 
d="M31 0zM134 620q0 22 -21 22t-24 -22l-40 1l5 212h122v-46h-80l-5 -121q12 17 40 17q23 0 35 -14.5t12 -49.5v-133q0 -69 -64 -69q-65 0 -65 69v87h45v-86q0 -24 20 -24t20 24v133zM31 0l362 823h51l-361 -823h-52zM431 54q0 -69 -66 -69q-65 0 -65 69v100q0 20 7.5 32
t20.5 17q-11 5 -17.5 15.5t-6.5 29.5v87q0 33 14.5 52t46.5 19q33 0 47.5 -19t14.5 -52v-87q0 -19 -6.5 -29.5t-17.5 -15.5q12 -5 20 -17t8 -32v-100zM385 157q0 21 -20 21q-19 0 -19 -21v-102q0 -24 19 -24q20 0 20 24v102zM385 335q0 24 -20 24q-19 0 -19 -24v-93
q0 -21 19 -21q20 0 20 21v93z" />
    <glyph glyph-name="seveneighths" unicode="&#x215e;" horiz-adv-x="480" 
d="M31 0zM98 422q0 86 8 151t19 110t21.5 70.5t15.5 33.5h-89v46h132v-43q-33 -75 -47 -164t-14 -204h-46zM31 0l362 823h51l-361 -823h-52zM431 54q0 -69 -66 -69q-65 0 -65 69v100q0 20 7.5 32t20.5 17q-11 5 -17.5 15.5t-6.5 29.5v87q0 33 14.5 52t46.5 19q33 0 47.5 -19
t14.5 -52v-87q0 -19 -6.5 -29.5t-17.5 -15.5q12 -5 20 -17t8 -32v-100zM385 157q0 21 -20 21q-19 0 -19 -21v-102q0 -24 19 -24q20 0 20 24v102zM385 335q0 24 -20 24q-19 0 -19 -24v-93q0 -21 19 -21q20 0 20 21v93z" />
    <glyph glyph-name="partialdiff" unicode="&#x2202;" horiz-adv-x="426" 
d="M178 822q16 9 63 9q58 0 92 -34t50.5 -84t21 -106.5t4.5 -101.5q0 -48 -4 -104.5t-14 -113.5t-27.5 -110.5t-45 -94.5t-66 -66t-90.5 -25q-39 0 -67 17t-45 47t-25 70t-8 85q0 54 12 102.5t37 85.5t62 58.5t88 21.5q38 0 71 -21t53 -72q4 38 5 68.5t1 56.5q0 37 -3.5 80
t-15.5 79.5t-35 60.5t-63 24q-15 0 -28 -1.5t-23 -6.5v76zM331 319q-17 54 -46.5 76.5t-64.5 22.5q-36 0 -62.5 -15t-44 -42t-26 -63.5t-8.5 -79.5q0 -67 22.5 -109.5t71.5 -42.5q37 0 64 21t45.5 56.5t30 81t18.5 94.5z" />
    <glyph glyph-name="product" unicode="&#x220f;" horiz-adv-x="436" 
d="M331 -139v904h-228v-904h-66v962h362v-962h-68z" />
    <glyph glyph-name="summation" unicode="&#x2211;" horiz-adv-x="406" 
d="M21 -139v55l192 425l-192 425v57h363v-77h-279l177 -405l-177 -406h279v-74h-363z" />
    <glyph glyph-name="minus" unicode="&#x2212;" horiz-adv-x="462" 
d="M37 391v57h389v-57h-389z" />
    <glyph glyph-name="radical" unicode="&#x221a;" horiz-adv-x="471" 
d="M173 0l-69 297h-82v53h133l55 -267l186 740h63l-211 -823h-75z" />
    <glyph glyph-name="infinity" unicode="&#x221e;" horiz-adv-x="607" 
d="M303 327q-11 -55 -42.5 -73t-83.5 -18q-30 0 -56.5 3.5t-46.5 18t-31.5 45t-11.5 84.5q0 53 11.5 83.5t31.5 45.5t46.5 18.5t56.5 3.5q52 0 83.5 -19t42.5 -73q11 54 43 73t83 19q29 0 55.5 -3.5t46.5 -18.5t32 -45.5t12 -83.5q0 -54 -12 -84.5t-32 -45t-46.5 -18
t-55.5 -3.5q-51 0 -83 18t-43 73zM526 387q0 31 -8 49t-21.5 26.5t-31.5 10.5t-37 2q-45 0 -69 -17t-24 -71q0 -28 6 -45.5t18 -27.5t29 -13.5t40 -3.5q21 0 39 2.5t31 12t20.5 27.5t7.5 48zM272 387q0 54 -23 71t-71 17q-20 0 -37.5 -2t-30.5 -10.5t-21 -26.5t-8 -49
q0 -32 8 -50t21 -27t30.5 -11t37.5 -2t37.5 3t30 12.5t19.5 27.5t7 47z" />
    <glyph glyph-name="integral" unicode="&#x222b;" horiz-adv-x="289" 
d="M15 -139v58h37q29 0 42.5 16.5t13.5 53.5v839q0 64 30.5 96t96.5 32h39v-58h-38q-55 0 -55 -71v-840q0 -63 -30.5 -94.5t-96.5 -31.5h-39z" />
    <glyph glyph-name="approxequal" unicode="&#x2248;" horiz-adv-x="463" 
d="M37 286zM427 328q-21 -20 -46.5 -30t-61.5 -10q-25 0 -48 8t-45 17t-44 17t-44 8q-27 0 -52 -11.5t-49 -40.5v69q15 17 39 28.5t59 11.5q28 0 52.5 -8t47 -17t43.5 -17t43 -8q33 0 58 12.5t48 38.5v-68zM427 487q-21 -20 -46.5 -30t-61.5 -10q-25 0 -48 8t-45 17t-44 17
t-44 8q-27 0 -52 -11.5t-49 -40.5v69q15 17 39 28.5t59 11.5q28 0 52.5 -8t47 -17t43.5 -17t43 -8q33 0 58 12.5t48 38.5v-68z" />
    <glyph glyph-name="notequal" unicode="&#x2260;" horiz-adv-x="462" 
d="M24 0l128 297h-115v58h140l56 129h-196v58h221l122 281h57l-122 -281h111v-58h-136l-55 -129h191v-58h-216l-128 -297h-58z" />
    <glyph glyph-name="lessequal" unicode="&#x2264;" horiz-adv-x="462" 
d="M37 162zM37 384v70l389 128v-58l-331 -103l331 -109v-57zM37 162v57h389v-57h-389z" />
    <glyph glyph-name="greaterequal" unicode="&#x2265;" horiz-adv-x="462" 
d="M37 162zM37 255v57l331 109l-331 103v58l389 -128v-70zM37 162v57h389v-57h-389z" />
    <glyph glyph-name="lozenge" unicode="&#x25ca;" horiz-adv-x="393" 
d="M158 0l-127 412l127 411h73l131 -411l-131 -412h-73zM300 412l-103 347l-105 -347l101 -349z" />
    <glyph glyph-name="fi" unicode="&#xfb01;" horiz-adv-x="338" 
d="M10 0zM40 0v558h-30v61h30v86q0 58 20.5 90.5t74.5 32.5q12 0 24 -1.5t21 -4.5v-59q-11 3 -25 3q-24 0 -35.5 -14.5t-11.5 -48.5v-84h70v-61h-70v-558h-68zM230 698v125h69v-125h-69zM230 0v619h69v-619h-69z" />
    <glyph glyph-name="fl" unicode="&#xfb02;" horiz-adv-x="334" 
d="M10 0zM40 0v558h-30v61h30v86q0 58 20.5 90.5t74.5 32.5q12 0 24 -1.5t21 -4.5v-59q-11 3 -25 3q-24 0 -35.5 -14.5t-11.5 -48.5v-84h70v-61h-70v-558h-68zM228 0v823h69v-823h-69z" />
    <glyph glyph-name="nonmarkingreturn" horiz-adv-x="136" 
 />
    <glyph glyph-name=".null" horiz-adv-x="0" 
 />
    <glyph glyph-name=".ttfautohint" horiz-adv-x="0" 
d="M0 0z" />
    </font>
</defs>
</svg>
