<?xml version="1.0" standalone="no"?>
<!DOCTYPE svg PUBLIC "-//W3C//DTD SVG 1.1//EN" "http://www.w3.org/Graphics/SVG/1.1/DTD/svg11.dtd" >
<svg xmlns="http://www.w3.org/2000/svg" xmlns:xlink="http://www.w3.org/1999/xlink" version="1.1">
<metadata>
Created by FontForge 20160407 at Fri Aug 19 08:42:47 2016
 By Jimmy Warting
Copyright (c) 2011 by Brian J. Bonislawsky DBA Astigmatic (AOETI) (astigma@astigmatic.com), with ReservedFont Name "Stint Ultra Condensed"
</metadata>
<defs>
<font id="StintUltraCondensed-Regular" horiz-adv-x="936" >
  <font-face 
    font-family="Stint Ultra Condensed"
    font-weight="400"
    font-stretch="ultra-condensed"
    units-per-em="2048"
    panose-1="2 6 5 8 4 6 4 2 2 6"
    ascent="1638"
    descent="-410"
    x-height="952"
    cap-height="1374"
    bbox="-186 -483 1456 1829"
    underline-thickness="102"
    underline-position="-205"
    unicode-range="U+0020-FB02"
  />
<missing-glyph horiz-adv-x="512" 
 />
    <glyph glyph-name="fi" unicode="fi" horiz-adv-x="713" 
d="M238 113h110v-113h-317v113h82v727h-82v112h82v109q0 81 21 143t57 104.5t85 64.5t105 22q34 0 61.5 -8t49.5 -19.5t38.5 -24.5t28.5 -24l-45 -98q-20 23 -50 44t-67 21q-34 0 -63 -14t-50.5 -42t-33.5 -69.5t-12 -95.5v-113h362v-839h100v-113h-307v113h82v727h-237
v-727z" />
    <glyph glyph-name="fl" unicode="fl" horiz-adv-x="733" 
d="M31 952h82v109q0 81 20 143t55.5 104.5t84 64.5t104.5 22q28 0 53.5 -6t46.5 -15h123v-1153q0 -38 6 -59.5t18 -32t30.5 -13.5t43.5 -3h27v-113h-25q-57 0 -99 10t-70 36.5t-42 71.5t-14 115v1024q-15 11 -34 20t-44 9q-34 0 -63 -14t-50.5 -42t-33.5 -69.5t-12 -95.5
v-113h149v-112h-149v-727h122v-113h-329v113h82v727h-82v112z" />
    <glyph glyph-name=".notdef" horiz-adv-x="512" 
 />
    <glyph glyph-name="A" unicode="A" horiz-adv-x="776" 
d="M487 467h-202l-49 -354h108v-113h-324v113h95l184 1149h-135v112h293l207 -1261h92v-113h-324v113h109zM299 573h172l-88 598z" />
    <glyph glyph-name="B" unicode="B" horiz-adv-x="754" 
d="M33 1374h375q23 0 50.5 -4.5t54.5 -18t52 -37.5t44 -62.5t30.5 -93.5t11.5 -130q0 -67 -9.5 -116.5t-28 -85t-45.5 -58.5t-62 -35q94 -14 140 -106t46 -248q0 -120 -23 -194t-60.5 -115.5t-85.5 -55.5t-99 -14h-391v113h114v1149h-114v112zM561 381q0 78 -10 133t-29 90
t-45 51.5t-57 16.5h-148v-559h152q33 0 58.5 14.5t43 47t26.5 83.5t9 123zM535 1026q0 44 -6 86.5t-20.5 75.5t-39 53.5t-61.5 20.5h-136v-480h136q35 0 59.5 19.5t39.5 53t21.5 78t6.5 93.5z" />
    <glyph glyph-name="C" unicode="C" horiz-adv-x="745" 
d="M410 -27q-79 0 -144.5 42.5t-112 130t-72.5 222t-26 318.5q0 177 28 311t75 223t109 134t130 45q65 0 107.5 -28.5t73.5 -70.5v74h108v-473h-108v137q0 60 -13.5 106t-36.5 77.5t-53.5 48t-64.5 16.5q-57 0 -98 -42t-67.5 -120t-39 -189t-12.5 -249t10.5 -248.5t37 -188
t70 -119.5t109.5 -42q45 0 77 26t55 65.5t38 85.5t26 87h115q-18 -89 -47.5 -159.5t-69.5 -119t-91 -74.5t-113 -26z" />
    <glyph glyph-name="D" unicode="D" horiz-adv-x="803" 
d="M25 1374h385q75 0 137 -33t107 -112.5t69.5 -211.5t24.5 -329q0 -198 -24.5 -330.5t-69 -212t-106.5 -112.5t-138 -33h-385v113h122v1149h-122v112zM618 688q0 168 -13.5 279t-40 176.5t-64.5 92t-86 26.5h-142v-1149h142q48 0 86 27t64.5 92.5t40 176.5t13.5 279z" />
    <glyph glyph-name="E" unicode="E" horiz-adv-x="702" 
d="M520 963v299h-237v-480h221v-112h-221v-557h252v319h108v-432h-618v113h122v1149h-122v112h604v-411h-109z" />
    <glyph glyph-name="F" unicode="F" horiz-adv-x="655" 
d="M502 963v299h-230v-500h234v-113h-234v-536h150v-113h-397v113h122v1149h-122v112h585v-411h-108z" />
    <glyph glyph-name="G" unicode="G" horiz-adv-x="799" 
d="M555 0v61q-45 -51 -90.5 -69.5t-93.5 -18.5q-68 0 -126 43.5t-100 132t-66 222.5t-24 315t27.5 315t73 222.5t104.5 132t123 43.5q35 0 62 -8t48.5 -22t39 -32.5t32.5 -40.5v78h111v-438h-111v113q0 60 -15 104.5t-39 74t-52.5 44t-55.5 14.5q-115 0 -167 -148.5
t-52 -451.5q0 -131 14 -241.5t42 -190.5t70 -125t98 -45q42 0 80 29t67 75v383h-123v113h330v-113h-82v-571h-125z" />
    <glyph glyph-name="H" unicode="H" horiz-adv-x="887" 
d="M25 1374h370v-112h-123v-480h342v480h-122v112h370v-112h-123v-1149h123v-113h-370v113h122v553h-342v-553h123v-113h-370v113h122v1149h-122v112z" />
    <glyph glyph-name="I" unicode="I" horiz-adv-x="420" 
d="M25 1374h370v-112h-123v-1149h123v-113h-370v113h122v1149h-122v112z" />
    <glyph glyph-name="J" unicode="J" horiz-adv-x="635" 
d="M233 1374h392v-112h-123v-887q0 -108 -16.5 -182.5t-47 -121t-74 -67t-98.5 -20.5q-54 0 -96.5 18t-72.5 67.5t-46 137.5t-16 227h125q1 -94 4.5 -158t14 -103.5t31.5 -57t56 -17.5t57 18.5t34 54t16 88.5t4 122v881h-144v112z" />
    <glyph glyph-name="K" unicode="K" horiz-adv-x="782" 
d="M25 1374h370v-112h-123v-469l254 469h-75v112h305v-112h-103l-258 -478l283 -671h113v-113h-326v113h84l-232 565l-45 -82v-483h123v-113h-370v113h122v1149h-122v112z" />
    <glyph glyph-name="L" unicode="L" horiz-adv-x="674" 
d="M25 1374h378v-112h-131v-1149h260v319h109v-432h-616v113h122v1149h-122v112z" />
    <glyph glyph-name="M" unicode="M" horiz-adv-x="1083" 
d="M25 1374h305l213 -1128l209 1128h307v-112h-123v-1149h123v-113h-350v113h106v1036l-221 -1149h-105l-221 1153v-1040h107v-113h-350v113h122v1149h-122v112z" />
    <glyph glyph-name="N" unicode="N" horiz-adv-x="868" 
d="M25 1374h239l342 -1020v908h-125v112h371v-112h-123v-1262h-115l-342 1016v-903h123v-113h-370v113h122v1149h-122v112z" />
    <glyph glyph-name="O" unicode="O" horiz-adv-x="809" 
d="M754 686q0 -185 -27 -319.5t-73.5 -222t-110.5 -129.5t-137 -42q-75 0 -139 42t-111 129.5t-74 222t-27 319.5q0 184 27 318.5t74.5 222.5t111.5 130t138 42q73 0 137 -42t110.5 -129.5t73.5 -222t27 -319.5zM616 686q0 292 -53 445t-157 153q-107 0 -160 -154.5
t-53 -443.5q0 -292 53 -445t160 -153q104 0 157 153t53 445z" />
    <glyph glyph-name="P" unicode="P" horiz-adv-x="725" 
d="M25 1374h399q128 0 194 -107t66 -315q0 -207 -66 -315.5t-194 -108.5h-152v-415h123v-113h-370v113h122v1149h-122v112zM547 952q0 98 -11 159t-32 94.5t-50 45t-65 11.5h-117v-621h117h31t34.5 6.5t34 23.5t29.5 51.5t21 90t8 139.5z" />
    <glyph glyph-name="Q" unicode="Q" horiz-adv-x="809" 
d="M754 686q0 -176 -24.5 -305t-67.5 -217q51 -31 106 -53t109 -31l-50 -125q-57 20 -112.5 51t-108.5 68q-42 -51 -92.5 -76t-107.5 -25q-75 0 -139 42t-111 129.5t-74 222t-27 319.5q0 184 27 318.5t74.5 222.5t111.5 130t138 42q73 0 137 -42t110.5 -129.5t73.5 -222
t27 -319.5zM616 686q0 292 -53 445t-157 153q-107 0 -160 -154.5t-53 -443.5q0 -292 53 -445t160 -153q63 0 110 62q-49 45 -88 96l51 80q33 -48 82 -90q55 152 55 450z" />
    <glyph glyph-name="R" unicode="R" horiz-adv-x="774" 
d="M451 113h73l-162 479h-28h-62v-479h123v-113h-370v113h122v1149h-122v112h376q131 0 193.5 -98t62.5 -297q0 -155 -42 -247t-136 -126l178 -493h111v-113h-317v113zM520 979q0 88 -7 143.5t-24 86.5t-44.5 42t-67.5 11h-105v-557h103q40 0 68 9.5t45 39t24.5 83
t7.5 142.5z" />
    <glyph glyph-name="S" unicode="S" horiz-adv-x="666" 
d="M49 0v453h109v-162q0 -61 15.5 -101t39 -64t51 -34t51.5 -10q34 0 65 14t55 44.5t38 79.5t14 120q0 68 -18 117.5t-48 87t-68 66.5t-78 58.5t-78 61.5t-68 75.5t-48 102t-18 138.5q0 97 23 164t59 109t79.5 60.5t84.5 18.5q21 0 43.5 -5t44 -15t40.5 -25.5t34 -36.5v57
h109v-411h-109v153q0 51 -13.5 84.5t-33 53.5t-41.5 28t-39 8q-31 0 -58.5 -14t-48 -43.5t-32.5 -74.5t-12 -107t18.5 -107.5t48 -81t68 -65.5t78 -60t78 -64.5t68 -79.5t48 -104.5t18.5 -140.5q0 -115 -26 -188t-65 -114.5t-85 -57t-86 -15.5q-126 0 -198 97v-70h-109z" />
    <glyph glyph-name="T" unicode="T" horiz-adv-x="756" 
d="M41 942v432h674v-432h-109v322h-166v-1151h144v-113h-412v113h143v1151h-165v-322h-109z" />
    <glyph glyph-name="U" unicode="U" horiz-adv-x="821" 
d="M10 1374h371v-112h-123v-881q0 -69 4 -124t19 -93.5t46 -59t85 -20.5t84 20.5t45 59t18.5 93.5t3.5 124v881h-123v112h371v-112h-123v-897q0 -108 -14.5 -182.5t-47 -121t-85.5 -67.5t-129 -21q-77 0 -130 21t-86 67.5t-48 121t-15 182.5v897h-123v112z" />
    <glyph glyph-name="V" unicode="V" horiz-adv-x="774" 
d="M0 1374h346v-112h-123l166 -992l162 992h-123v112h346v-112h-102l-228 -1262h-114l-228 1262h-102v112z" />
    <glyph glyph-name="W" unicode="W" horiz-adv-x="1153" 
d="M6 1374h332v-112h-111l135 -916l166 1028h97l166 -1028l135 916h-111v112h332v-112h-100l-203 -1262h-96l-173 1036l-169 -1036h-97l-203 1262h-100v112z" />
    <glyph glyph-name="X" unicode="X" horiz-adv-x="752" 
d="M440 690l199 -577h111v-113h-340v113h102l-137 417l-144 -417h103v-113h-340v113h110l209 577l-196 572h-111v112h336v-112h-98l135 -412l141 412h-98v112h336v-112h-111z" />
    <glyph glyph-name="Y" unicode="Y" horiz-adv-x="817" 
d="M0 1374h371v-112h-113l152 -535l149 535h-113v112h371v-112h-125l-221 -680v-469h143v-113h-411v113h143v469l-221 680h-125v112z" />
    <glyph glyph-name="Z" unicode="Z" horiz-adv-x="618" 
d="M66 963v411h491v-88l-379 -1169h279v315h108v-432h-520v102l373 1155h-244v-294h-108z" />
    <glyph glyph-name="a" unicode="a" horiz-adv-x="555" 
d="M328 500q-53 -5 -85.5 -21.5t-50.5 -46t-24 -72.5t-6 -100q0 -88 18 -134t49 -46q13 0 27.5 10t28 27t25 40.5t18.5 49.5v293zM74 743q6 72 24 117.5t43.5 72t57.5 36.5t67 10q39 0 73 -12.5t59.5 -45t40 -89.5t14.5 -146v-573h82v-113h-207v66q-29 -47 -59 -70t-79 -23
q-30 0 -57 18t-48 53.5t-33.5 88t-12.5 121.5q0 98 22 160.5t61 100t91.5 55t114.5 26.5v92q0 60 -5.5 96t-14.5 55.5t-20.5 26t-23.5 6.5q-32 0 -49 -35.5t-22 -113.5z" />
    <glyph glyph-name="b" unicode="b" horiz-adv-x="602" 
d="M16 1374h207v-497q52 102 129 102q39 0 75.5 -26.5t65.5 -87t46.5 -158t17.5 -238.5q0 -126 -16.5 -219.5t-44.5 -155t-66 -91.5t-80 -30q-46 0 -79 28t-62 81q0 -16 -2.5 -30.5t-4.5 -25.5q-4 -13 -7 -26h-117q6 20 10 40q4 17 7 36.5t3 36.5v1149h-82v112zM223 207
q19 -56 45 -91.5t58 -35.5q49 0 78.5 101t29.5 288q0 195 -27 299t-79 104q-17 0 -32.5 -17.5t-29 -45.5t-24.5 -62t-19 -67v-473z" />
    <glyph glyph-name="c" unicode="c" horiz-adv-x="543" 
d="M387 604v72q0 61 -9.5 99.5t-23.5 60t-30.5 29t-30.5 7.5q-31 0 -53.5 -27.5t-37 -79t-21.5 -124.5t-7 -164q0 -92 6 -165t20.5 -124t37 -78.5t55.5 -27.5q29 0 49 18.5t33 46t21 59t14 58.5h98q-8 -62 -25.5 -115.5t-44.5 -92.5t-63.5 -61t-83.5 -22q-116 0 -182 128
t-66 374q0 122 19 216t51.5 157.5t75 96t90.5 32.5q21 0 38 -7t30.5 -18t23.5 -25t16 -28v53h105v-348h-105z" />
    <glyph glyph-name="d" unicode="d" horiz-adv-x="602" 
d="M584 0h-207v63q-29 -43 -60 -66.5t-75 -23.5q-41 0 -77 24t-63 82.5t-43 157t-16 246.5q0 126 16 219t43.5 154.5t65 92t80.5 30.5q40 0 71.5 -22t57.5 -76v381h-88v112h213v-1261h82v-113zM272 80q34 0 61 37.5t44 103.5v467q-6 30 -16.5 62.5t-23.5 59.5t-29 44.5
t-34 17.5q-23 0 -42.5 -26t-34 -75.5t-23 -122t-8.5 -165.5q0 -195 27 -299t79 -104z" />
    <glyph glyph-name="e" unicode="e" horiz-adv-x="535" 
d="M362 520q-1 67 -6.5 129t-16.5 109.5t-28.5 75.5t-42.5 28q-23 0 -40 -28t-29 -75.5t-19 -109.5t-8 -129h190zM285 82q29 0 48 18.5t31 46t19 59t12 58.5h99q-8 -62 -25 -115.5t-44 -92.5t-63.5 -61t-82.5 -22q-54 0 -97.5 32t-74.5 95t-47.5 156t-16.5 215
q0 115 16.5 208t46.5 158t71.5 100.5t92.5 35.5q106 0 164 -137t58 -398v-22h-320q3 -164 28 -249t85 -85z" />
    <glyph glyph-name="f" unicode="f" horiz-adv-x="424" 
d="M31 952h82v109q0 162 65.5 248t177.5 86q53 0 93.5 -18t68.5 -38l-45 -98q-12 10 -22 18.5t-20 14.5t-23 9t-31 3q-68 0 -103.5 -56t-35.5 -165v-113h170v-112h-170v-727h122v-113h-329v113h82v727h-82v112z" />
    <glyph glyph-name="g" unicode="g" horiz-adv-x="604" 
d="M502 10q0 -90 -12 -167.5t-40.5 -134.5t-77.5 -89.5t-122 -32.5q-34 0 -62 8t-51 20.5t-42 27.5t-34 30l60 95l22.5 -22.5t28 -23t33.5 -17.5t39 -7q41 0 67 21t40.5 61t20 97.5t5.5 131.5v58q-23 -42 -50.5 -67.5t-74.5 -25.5q-42 0 -79.5 24t-66.5 82.5t-46 157
t-17 246.5q0 126 15 219t42 154.5t65 92t83 30.5q40 0 73 -28t56 -70v71h207v-112h-82v-830zM272 80q34 0 61 38.5t44 104.5v465q-8 35 -18.5 68.5t-23.5 59t-28 41t-31 15.5q-49 0 -79.5 -101.5t-30.5 -287.5q0 -195 27 -299t79 -104z" />
    <glyph glyph-name="h" unicode="h" horiz-adv-x="641" 
d="M25 1374h206v-524q36 60 75.5 94.5t90.5 34.5q74 0 106 -65t32 -185v-616h81v-113h-268v113h62v577q0 55 -2.5 89t-8.5 53.5t-15 26.5t-22 7q-19 0 -39.5 -19.5t-38.5 -50.5t-32.5 -69.5t-20.5 -77.5v-536h62v-113h-268v113h81v1149h-81v112z" />
    <glyph glyph-name="i" unicode="i" horiz-adv-x="350" 
d="M31 952h207v-839h100v-113h-307v113h82v727h-82v112zM66 1221q0 40 26.5 68t67.5 28q40 0 68 -28t28 -68q0 -41 -28 -68t-68 -27q-41 0 -67.5 27t-26.5 68z" />
    <glyph glyph-name="j" unicode="j" horiz-adv-x="317" 
d="M47 1221q0 40 27 68t67 28q41 0 69 -28t28 -68q0 -41 -28 -68t-69 -27q-40 0 -67 27t-27 68zM-74 -250q19 -17 39.5 -31t48.5 -14q21 0 38 9t29 30.5t18.5 56.5t6.5 86v953h-94v112h219v-1061q0 -87 -16 -145.5t-43 -94t-63 -50.5t-76 -15q-29 0 -53.5 7t-45 17t-36.5 22
t-27 22z" />
    <glyph glyph-name="k" unicode="k" horiz-adv-x="627" 
d="M25 1374h206v-774l185 283q26 42 57.5 64t73.5 22q20 0 39 -6t35 -17l-37 -98q-17 8 -31 8q-20 0 -36.5 -19.5t-45.5 -64.5l-104 -160l186 -499h82v-113h-277v113h66l-139 381l-54 -80v-301h82v-113h-288v113h81v1149h-81v112z" />
    <glyph glyph-name="l" unicode="l" horiz-adv-x="344" 
d="M4 1374h207v-1153q0 -38 6 -59.5t18 -32t30.5 -13.5t43.5 -3h27v-113h-25q-57 0 -99 10t-70 36.5t-42 71.5t-14 115v1029h-82v112z" />
    <glyph glyph-name="m" unicode="m" horiz-adv-x="934" 
d="M641 113h61v575q0 28 -1 59.5t-6 58t-14.5 43.5t-27.5 17q-14 0 -28.5 -12t-28 -30.5t-25.5 -42.5t-20.5 -47.5t-13.5 -45.5t-5 -37v-538h62v-113h-248v113h62v575q0 88 -9.5 133t-38.5 45q-17 0 -35.5 -18.5t-35 -49t-30.5 -69t-21 -78.5v-538h61v-113h-268v113h82v727
h-82v112h207v-106q13 28 31.5 52t40 42t44.5 28.5t47 10.5q54 0 77.5 -42t31.5 -114q42 81 88.5 118.5t95.5 37.5q37 0 62.5 -19.5t41 -53.5t22.5 -80t7 -99v-614h82v-113h-268v113z" />
    <glyph glyph-name="n" unicode="n" horiz-adv-x="647" 
d="M31 952h207v-106q35 60 74.5 96.5t90.5 36.5q74 0 106 -65t32 -185v-616h82v-113h-269v113h62v577q0 55 -2.5 89t-8 53.5t-14.5 26.5t-22 7q-20 0 -40.5 -19.5t-38.5 -50.5t-32 -69.5t-20 -77.5v-536h61v-113h-268v113h82v727h-82v112z" />
    <glyph glyph-name="o" unicode="o" horiz-adv-x="575" 
d="M532 475q0 -131 -18.5 -225.5t-51.5 -156t-77.5 -91t-95.5 -29.5q-52 0 -97 29.5t-78 91t-52 156t-19 225.5q0 130 19 225.5t52.5 157t78.5 91.5t96 30t95.5 -29.5t77.5 -91t51.5 -157t18.5 -226.5zM410 475q0 195 -30.5 296t-90.5 101q-62 0 -92.5 -102t-30.5 -295
t30.5 -294t92.5 -101q60 0 90.5 101t30.5 294z" />
    <glyph glyph-name="p" unicode="p" horiz-adv-x="610" 
d="M25 952h206v-75q29 57 61.5 79.5t74.5 22.5q34 0 69.5 -25.5t64 -84.5t46.5 -155.5t18 -238.5q0 -131 -16.5 -225.5t-45 -156t-66 -91t-79.5 -29.5q-34 0 -66 16.5t-61 61.5v-332h103v-112h-309v112h81v1121h-81v112zM231 188q17 -46 41 -77t56 -31q48 0 81 101t33 294
q0 195 -24.5 296t-77.5 101q-17 0 -34 -16.5t-32 -43t-26 -59.5t-17 -67v-498z" />
    <glyph glyph-name="q" unicode="q" horiz-adv-x="610" 
d="M586 840h-82v-1121h82v-112h-289v112h82v349q-29 -51 -59 -73t-74 -22t-81 30.5t-63.5 93.5t-41.5 159t-15 227q0 126 16.5 219t45 154.5t66.5 92t81 30.5q78 0 125 -102v75h207v-112zM274 80q34 0 61 42.5t44 108.5v474q-5 32 -16 62t-25 53.5t-30 37.5t-32 14
q-49 0 -78.5 -101t-29.5 -288q0 -195 27 -299t79 -104z" />
    <glyph glyph-name="r" unicode="r" horiz-adv-x="479" 
d="M31 952h207v-90q38 63 76.5 90t78.5 27q20 0 37.5 -5.5t31.5 -12t24 -13.5t14 -10l-45 -113q-3 3 -9.5 10t-15.5 14t-20.5 12t-26.5 5q-25 0 -47.5 -15.5t-41.5 -42t-33.5 -61t-22.5 -71.5v-563h102v-113h-309v113h82v727h-82v112z" />
    <glyph glyph-name="s" unicode="s" horiz-adv-x="502" 
d="M49 0v350h107v-84q0 -52 8.5 -86t21.5 -54t29.5 -28t32.5 -8q15 0 30 6t27 22t19.5 43.5t7.5 71.5q0 59 -20.5 100t-51.5 74t-66.5 63t-66.5 68t-51.5 89t-20.5 125q0 53 13.5 94.5t36 70t51.5 43.5t59 15q34 0 62 -20t45 -58v55h100v-321h-107v80q0 44 -5.5 74
t-14.5 48.5t-21.5 26.5t-27.5 8q-13 0 -25.5 -5.5t-22.5 -18.5t-16 -34.5t-6 -53.5q0 -61 20.5 -101t51.5 -72t66.5 -61.5t66.5 -68t51.5 -92.5t20.5 -134q0 -68 -17 -114.5t-42.5 -75t-55.5 -41t-55 -12.5q-48 0 -79 21.5t-54 60.5v-66h-101z" />
    <glyph glyph-name="t" unicode="t" horiz-adv-x="420" 
d="M295 94q29 0 50 14t40 31l55 -96q-11 -10 -26.5 -22t-36 -22t-45.5 -17t-53 -7q-82 0 -129.5 55.5t-47.5 168.5v641h-114v112h114v289h125v-289h166v-112h-166v-641q0 -54 17 -79.5t51 -25.5z" />
    <glyph glyph-name="u" unicode="u" horiz-adv-x="637" 
d="M612 0h-206v109q-15 -42 -32.5 -68.5t-37 -41.5t-41 -20.5t-43.5 -5.5q-29 0 -56 11t-48 38t-33.5 72.5t-12.5 114.5v631h-82v112h207v-680q0 -57 4 -93t11.5 -56.5t18.5 -28.5t24 -8q22 0 42 22t36.5 56.5t27.5 78t15 85.5v512h-103v112h227v-839h82v-113z" />
    <glyph glyph-name="v" unicode="v" horiz-adv-x="586" 
d="M0 952h258v-112h-65l100 -658l100 658h-65v112h258v-112h-66l-162 -840h-133l-159 840h-66v112z" />
    <glyph glyph-name="w" unicode="w" horiz-adv-x="885" 
d="M342 0h-127l-145 840h-66v112h256v-112h-65l88 -615l114 727h95l114 -727l88 615h-65v112h256v-112h-66l-145 -840h-127l-103 653z" />
    <glyph glyph-name="x" unicode="x" horiz-adv-x="524" 
d="M319 487l132 -374h61v-113h-227v113h51l-74 231l-74 -231h52v-113h-228v113h62l131 374l-123 353h-62v112h224v-112h-47l65 -209l66 209h-47v112h223v-112h-62z" />
    <glyph glyph-name="y" unicode="y" horiz-adv-x="586" 
d="M96 -414q-29 0 -52.5 7t-42 17t-33.5 22t-25 22l55 96q19 -17 39.5 -33t48.5 -16q31 0 52.5 18.5t38 57.5t30 99t29.5 142l-170 822h-66v112h258v-112h-65l102 -594l98 594h-65v112h258v-112h-66l-158 -770q-19 -93 -39 -180.5t-49 -155t-71.5 -108t-106.5 -40.5z" />
    <glyph glyph-name="z" unicode="z" horiz-adv-x="516" 
d="M55 952h406v-98l-285 -737h184v213h107v-330h-422v102l283 734h-166v-185h-107v301z" />
    <glyph glyph-name="germandbls" unicode="&#xdf;" horiz-adv-x="625" 
d="M113 1069q0 164 56 245t163 81q36 0 72.5 -17.5t66 -54t48 -93.5t18.5 -136q0 -51 -7 -97.5t-23.5 -85t-43.5 -68t-68 -46.5q88 -20 136.5 -121.5t48.5 -278.5q0 -112 -15 -192.5t-41 -132t-61 -75.5t-76 -24q-35 0 -64.5 11t-60.5 28l41 97q11 -8 27 -18.5t39 -10.5
q21 0 37 18t27 56t16.5 98.5t5.5 144.5q0 69 -7.5 128.5t-26.5 103.5t-52 70t-84 28v107q39 0 64 18t39.5 52t20 82t5.5 108q0 41 -5 76.5t-15.5 61t-26.5 40t-39 14.5q-45 0 -67.5 -49.5t-22.5 -169.5v-1067h-207v113h82v956z" />
    <glyph glyph-name="Agrave" unicode="&#xc0;" horiz-adv-x="776" 
d="M487 467h-202l-49 -354h108v-113h-324v113h95l184 1149h-135v112h293l207 -1261h92v-113h-324v113h109zM299 573h172l-88 598zM225 1751l268 -209l-43 -66l-291 176z" />
    <glyph glyph-name="agrave" unicode="&#xe0;" horiz-adv-x="555" 
d="M328 500q-53 -5 -85.5 -21.5t-50.5 -46t-24 -72.5t-6 -100q0 -88 18 -134t49 -46q13 0 27.5 10t28 27t25 40.5t18.5 49.5v293zM74 743q6 72 24 117.5t43.5 72t57.5 36.5t67 10q39 0 73 -12.5t59.5 -45t40 -89.5t14.5 -146v-573h82v-113h-207v66q-29 -47 -59 -70t-79 -23
q-30 0 -57 18t-48 53.5t-33.5 88t-12.5 121.5q0 98 22 160.5t61 100t91.5 55t114.5 26.5v92q0 60 -5.5 96t-14.5 55.5t-20.5 26t-23.5 6.5q-32 0 -49 -35.5t-22 -113.5zM124 1356l268 -209l-43 -66l-291 176z" />
    <glyph glyph-name="Aacute" unicode="&#xc1;" horiz-adv-x="776" 
d="M487 467h-202l-49 -354h108v-113h-324v113h95l184 1149h-135v112h293l207 -1261h92v-113h-324v113h109zM299 573h172l-88 598zM577 1652l-291 -176l-43 66l269 209z" />
    <glyph glyph-name="aacute" unicode="&#xe1;" horiz-adv-x="555" 
d="M328 500q-53 -5 -85.5 -21.5t-50.5 -46t-24 -72.5t-6 -100q0 -88 18 -134t49 -46q13 0 27.5 10t28 27t25 40.5t18.5 49.5v293zM74 743q6 72 24 117.5t43.5 72t57.5 36.5t67 10q39 0 73 -12.5t59.5 -45t40 -89.5t14.5 -146v-573h82v-113h-207v66q-29 -47 -59 -70t-79 -23
q-30 0 -57 18t-48 53.5t-33.5 88t-12.5 121.5q0 98 22 160.5t61 100t91.5 55t114.5 26.5v92q0 60 -5.5 96t-14.5 55.5t-20.5 26t-23.5 6.5q-32 0 -49 -35.5t-22 -113.5zM476 1257l-291 -176l-43 66l269 209z" />
    <glyph glyph-name="Acircumflex" unicode="&#xc2;" horiz-adv-x="776" 
d="M487 467h-202l-49 -354h108v-113h-324v113h95l184 1149h-135v112h293l207 -1261h92v-113h-324v113h109zM299 573h172l-88 598zM565 1476l-197 150l-196 -150l-60 62l256 219l256 -219z" />
    <glyph glyph-name="acircumflex" unicode="&#xe2;" horiz-adv-x="555" 
d="M328 500q-53 -5 -85.5 -21.5t-50.5 -46t-24 -72.5t-6 -100q0 -88 18 -134t49 -46q13 0 27.5 10t28 27t25 40.5t18.5 49.5v293zM74 743q6 72 24 117.5t43.5 72t57.5 36.5t67 10q39 0 73 -12.5t59.5 -45t40 -89.5t14.5 -146v-573h82v-113h-207v66q-29 -47 -59 -70t-79 -23
q-30 0 -57 18t-48 53.5t-33.5 88t-12.5 121.5q0 98 22 160.5t61 100t91.5 55t114.5 26.5v92q0 60 -5.5 96t-14.5 55.5t-20.5 26t-23.5 6.5q-32 0 -49 -35.5t-22 -113.5zM464 1081l-197 150l-196 -150l-60 62l256 219l256 -219z" />
    <glyph glyph-name="Atilde" unicode="&#xc3;" horiz-adv-x="776" 
d="M487 467h-202l-49 -354h108v-113h-324v113h95l184 1149h-135v112h293l207 -1261h92v-113h-324v113h109zM299 573h172l-88 598zM602 1706q0 -26 -7.5 -64t-23 -73t-40.5 -59.5t-60 -24.5t-63 18.5t-51.5 41t-42.5 41.5t-36 19q-18 0 -29 -15t-16.5 -35t-7 -40t-2.5 -30
h-88q0 25 7.5 62.5t23 73t41 60.5t61.5 25q34 0 62 -19t50.5 -41.5l41.5 -41.5t36 -19q18 0 29 15t16.5 35t7.5 40t3 31h88v0z" />
    <glyph glyph-name="atilde" unicode="&#xe3;" horiz-adv-x="555" 
d="M328 500q-53 -5 -85.5 -21.5t-50.5 -46t-24 -72.5t-6 -100q0 -88 18 -134t49 -46q13 0 27.5 10t28 27t25 40.5t18.5 49.5v293zM74 743q6 72 24 117.5t43.5 72t57.5 36.5t67 10q39 0 73 -12.5t59.5 -45t40 -89.5t14.5 -146v-573h82v-113h-207v66q-29 -47 -59 -70t-79 -23
q-30 0 -57 18t-48 53.5t-33.5 88t-12.5 121.5q0 98 22 160.5t61 100t91.5 55t114.5 26.5v92q0 60 -5.5 96t-14.5 55.5t-20.5 26t-23.5 6.5q-32 0 -49 -35.5t-22 -113.5zM501 1311q0 -26 -7.5 -64t-23 -73t-40.5 -59.5t-60 -24.5t-63 18.5t-51.5 41t-42.5 41.5t-36 19
q-18 0 -29 -15t-16.5 -35t-7 -40t-2.5 -30h-88q0 25 7.5 62.5t23 73t41 60.5t61.5 25q34 0 62 -19t50.5 -41.5l41.5 -41.5t36 -19q18 0 29 15t16.5 35t7.5 40t3 31h88v0z" />
    <glyph glyph-name="Adieresis" unicode="&#xc4;" horiz-adv-x="776" 
d="M487 467h-202l-49 -354h108v-113h-324v113h95l184 1149h-135v112h293l207 -1261h92v-113h-324v113h109zM299 573h172l-88 598zM159 1571q0 32 22 54.5t54 22.5t55 -22.5t23 -54.5t-23 -54t-55 -22t-54 22t-22 54zM423 1571q0 32 22 54.5t54 22.5t55 -22.5t23 -54.5
t-23 -54t-55 -22t-54 22t-22 54z" />
    <glyph glyph-name="adieresis" unicode="&#xe4;" horiz-adv-x="555" 
d="M328 500q-53 -5 -85.5 -21.5t-50.5 -46t-24 -72.5t-6 -100q0 -88 18 -134t49 -46q13 0 27.5 10t28 27t25 40.5t18.5 49.5v293zM74 743q6 72 24 117.5t43.5 72t57.5 36.5t67 10q39 0 73 -12.5t59.5 -45t40 -89.5t14.5 -146v-573h82v-113h-207v66q-29 -47 -59 -70t-79 -23
q-30 0 -57 18t-48 53.5t-33.5 88t-12.5 121.5q0 98 22 160.5t61 100t91.5 55t114.5 26.5v92q0 60 -5.5 96t-14.5 55.5t-20.5 26t-23.5 6.5q-32 0 -49 -35.5t-22 -113.5zM58 1176q0 32 22 54.5t54 22.5t55 -22.5t23 -54.5t-23 -54t-55 -22t-54 22t-22 54zM322 1176
q0 32 22 54.5t54 22.5t55 -22.5t23 -54.5t-23 -54t-55 -22t-54 22t-22 54z" />
    <glyph glyph-name="Aring" unicode="&#xc5;" horiz-adv-x="776" 
d="M487 467h-202l-49 -354h108v-113h-324v113h95l184 1149h-135v112h293l207 -1261h92v-113h-324v113h109zM299 573h172l-88 598zM180 1640q0 39 15 73.5t40.5 60t60 40.5t73.5 15t73 -15t59.5 -40.5t40.5 -60t15 -73.5t-15 -73.5t-40.5 -60t-59.5 -40t-73 -14.5t-73.5 14.5
t-60 40t-40.5 60t-15 73.5zM272 1640q0 -40 28 -68t69 -28q40 0 68 28t28 68t-28 68t-68 28q-41 0 -69 -28t-28 -68z" />
    <glyph glyph-name="aring" unicode="&#xe5;" horiz-adv-x="555" 
d="M328 500q-53 -5 -85.5 -21.5t-50.5 -46t-24 -72.5t-6 -100q0 -88 18 -134t49 -46q13 0 27.5 10t28 27t25 40.5t18.5 49.5v293zM74 743q6 72 24 117.5t43.5 72t57.5 36.5t67 10q39 0 73 -12.5t59.5 -45t40 -89.5t14.5 -146v-573h82v-113h-207v66q-29 -47 -59 -70t-79 -23
q-30 0 -57 18t-48 53.5t-33.5 88t-12.5 121.5q0 98 22 160.5t61 100t91.5 55t114.5 26.5v92q0 60 -5.5 96t-14.5 55.5t-20.5 26t-23.5 6.5q-32 0 -49 -35.5t-22 -113.5zM79 1245q0 39 15 73.5t40.5 60t60 40.5t73.5 15t73 -15t59.5 -40.5t40.5 -60t15 -73.5t-15 -73.5
t-40.5 -60t-59.5 -40t-73 -14.5t-73.5 14.5t-60 40t-40.5 60t-15 73.5zM171 1245q0 -40 28 -68t69 -28q40 0 68 28t28 68t-28 68t-68 28q-41 0 -69 -28t-28 -68z" />
    <glyph glyph-name="AE" unicode="&#xc6;" horiz-adv-x="1061" 
d="M879 963v299h-238v-480h221v-112h-221v-557h252v319h108v-432h-618v113h123v354h-213l-76 -354h102v-113h-299v113h74l250 1149h-119v112h762v-411h-108zM461 1262l-146 -689h191v689h-45z" />
    <glyph glyph-name="ae" unicode="&#xe6;" horiz-adv-x="819" 
d="M569 82q29 0 48 18.5t31.5 46t19.5 59t12 58.5h98q-8 -62 -24.5 -115.5t-43.5 -92.5t-63.5 -61t-83.5 -22q-118 0 -180 146q-23 -42 -45.5 -70.5t-45 -45t-45 -23.5t-46.5 -7q-34 0 -63.5 18t-51.5 53.5t-34.5 88t-12.5 121.5q0 98 22.5 160.5t62.5 100t93 55t115 26.5
v92q0 60 -6 96t-15.5 55.5t-22 26t-24.5 6.5q-32 0 -52.5 -35.5t-25.5 -113.5l-112 20q6 72 26.5 117.5t47.5 72t57.5 36.5t56.5 10q51 0 88 -31t62 -84q24 53 64.5 81t78.5 28q105 0 163 -137t58 -398v-22h-319q3 -164 27.5 -249t84.5 -85zM229 80q16 0 33 16t33 41.5
t28.5 56.5t20.5 62q-4 22 -6.5 46t-4.5 53t-3 64.5t-2 80.5q-53 -5 -85.5 -21.5t-50.5 -46t-24 -72.5t-6 -100q0 -88 18 -134t49 -46zM647 520q-1 67 -6.5 129t-17 109.5t-29 75.5t-41.5 28q-23 0 -40 -28t-29 -75.5t-19 -109.5t-8 -129h190z" />
    <glyph glyph-name="AEacute" unicode="&#x1fc;" horiz-adv-x="1061" 
d="M879 963v299h-238v-480h221v-112h-221v-557h252v319h108v-432h-618v113h123v354h-213l-76 -354h102v-113h-299v113h74l250 1149h-119v112h762v-411h-108zM461 1262l-146 -689h191v689h-45zM829 1652l-291 -176l-43 66l269 209z" />
    <glyph glyph-name="aeacute" unicode="&#x1fd;" horiz-adv-x="819" 
d="M569 82q29 0 48 18.5t31.5 46t19.5 59t12 58.5h98q-8 -62 -24.5 -115.5t-43.5 -92.5t-63.5 -61t-83.5 -22q-118 0 -180 146q-23 -42 -45.5 -70.5t-45 -45t-45 -23.5t-46.5 -7q-34 0 -63.5 18t-51.5 53.5t-34.5 88t-12.5 121.5q0 98 22.5 160.5t62.5 100t93 55t115 26.5
v92q0 60 -6 96t-15.5 55.5t-22 26t-24.5 6.5q-32 0 -52.5 -35.5t-25.5 -113.5l-112 20q6 72 26.5 117.5t47.5 72t57.5 36.5t56.5 10q51 0 88 -31t62 -84q24 53 64.5 81t78.5 28q105 0 163 -137t58 -398v-22h-319q3 -164 27.5 -249t84.5 -85zM229 80q16 0 33 16t33 41.5
t28.5 56.5t20.5 62q-4 22 -6.5 46t-4.5 53t-3 64.5t-2 80.5q-53 -5 -85.5 -21.5t-50.5 -46t-24 -72.5t-6 -100q0 -88 18 -134t49 -46zM647 520q-1 67 -6.5 129t-17 109.5t-29 75.5t-41.5 28q-23 0 -40 -28t-29 -75.5t-19 -109.5t-8 -129h190zM633 1257l-291 -176l-43 66
l269 209z" />
    <glyph glyph-name="Amacron" unicode="&#x100;" horiz-adv-x="776" 
d="M487 467h-202l-49 -354h108v-113h-324v113h95l184 1149h-135v112h293l207 -1261h92v-113h-324v113h109zM299 573h172l-88 598zM176 1507v105h385v-105h-385z" />
    <glyph glyph-name="amacron" unicode="&#x101;" horiz-adv-x="555" 
d="M328 500q-53 -5 -85.5 -21.5t-50.5 -46t-24 -72.5t-6 -100q0 -88 18 -134t49 -46q13 0 27.5 10t28 27t25 40.5t18.5 49.5v293zM74 743q6 72 24 117.5t43.5 72t57.5 36.5t67 10q39 0 73 -12.5t59.5 -45t40 -89.5t14.5 -146v-573h82v-113h-207v66q-29 -47 -59 -70t-79 -23
q-30 0 -57 18t-48 53.5t-33.5 88t-12.5 121.5q0 98 22 160.5t61 100t91.5 55t114.5 26.5v92q0 60 -5.5 96t-14.5 55.5t-20.5 26t-23.5 6.5q-32 0 -49 -35.5t-22 -113.5zM75 1112v105h385v-105h-385z" />
    <glyph glyph-name="Abreve" unicode="&#x102;" horiz-adv-x="776" 
d="M487 467h-202l-49 -354h108v-113h-324v113h95l184 1149h-135v112h293l207 -1261h92v-113h-324v113h109zM299 573h172l-88 598zM591 1706q-6 -37 -19 -75.5t-38.5 -70t-65.5 -51.5t-100 -20t-100 20t-64.5 51.5t-37.5 70t-19 75.5h102q3 -18 10 -39t20.5 -39t35 -30.5
t53.5 -12.5q34 0 56 12.5t36 30.5t21 39t10 39h100v0z" />
    <glyph glyph-name="abreve" unicode="&#x103;" horiz-adv-x="555" 
d="M328 500q-53 -5 -85.5 -21.5t-50.5 -46t-24 -72.5t-6 -100q0 -88 18 -134t49 -46q13 0 27.5 10t28 27t25 40.5t18.5 49.5v293zM74 743q6 72 24 117.5t43.5 72t57.5 36.5t67 10q39 0 73 -12.5t59.5 -45t40 -89.5t14.5 -146v-573h82v-113h-207v66q-29 -47 -59 -70t-79 -23
q-30 0 -57 18t-48 53.5t-33.5 88t-12.5 121.5q0 98 22 160.5t61 100t91.5 55t114.5 26.5v92q0 60 -5.5 96t-14.5 55.5t-20.5 26t-23.5 6.5q-32 0 -49 -35.5t-22 -113.5zM490 1311q-6 -37 -19 -75.5t-38.5 -70t-65.5 -51.5t-100 -20t-100 20t-64.5 51.5t-37.5 70t-19 75.5
h102q3 -18 10 -39t20.5 -39t35 -30.5t53.5 -12.5q34 0 56 12.5t36 30.5t21 39t10 39h100v0z" />
    <glyph glyph-name="Aogonek" unicode="&#x104;" horiz-adv-x="776" 
d="M487 467h-202l-49 -354h108v-113h-324v113h95l184 1149h-135v112h293l207 -1261h92v-113h-86q-35 -43 -59.5 -91t-24.5 -110q0 -32 15 -48.5t40 -16.5q19 0 33 8t26 20l33 -81q-26 -16 -57 -26.5t-66 -10.5q-65 0 -99 34.5t-34 102.5q0 27 7.5 55.5t20 57t30 55.5
t38.5 51h-141v113h109zM299 573h172l-88 598z" />
    <glyph glyph-name="aogonek" unicode="&#x105;" horiz-adv-x="555" 
d="M74 743q6 72 24 117.5t43.5 72t57.5 36.5t67 10q39 0 73 -12.5t59.5 -45t40 -89.5t14.5 -146v-573h82v-113q-42 -28 -69.5 -54t-44 -50.5t-23.5 -48.5t-7 -48q0 -32 15.5 -48.5t39.5 -16.5q19 0 33 8t27 20l33 -81q-26 -16 -57 -25.5t-66 -9.5q-25 0 -49 8t-42.5 24.5
t-30 42.5t-11.5 62q0 27 9.5 56.5t27 58t42.5 55t56 47.5h-90v66q-29 -47 -59 -70t-79 -23q-30 0 -57 18t-48 53.5t-33.5 88t-12.5 121.5q0 98 22 160.5t61 100t91.5 55t114.5 26.5v92q0 60 -5.5 96t-14.5 55.5t-20.5 26t-23.5 6.5q-32 0 -49 -35.5t-22 -113.5zM328 500
q-53 -5 -85.5 -21.5t-50.5 -46t-24 -72.5t-6 -100q0 -88 18 -134t49 -46q13 0 27.5 10t28 27t25 40.5t18.5 49.5v293z" />
    <glyph glyph-name="Ccedilla" unicode="&#xc7;" horiz-adv-x="745" 
d="M731 352q-35 -168 -107.5 -266t-185.5 -111l-16 -73q21 0 46 -7t47 -23.5t37 -44t15 -69.5q0 -45 -16.5 -75.5t-43 -49t-59 -26.5t-63.5 -8q-63 0 -108 16.5t-70 30.5l49 88q23 -19 53 -32t64 -13q43 0 67.5 19t24.5 50q0 19 -8 32t-21.5 20.5t-30 10.5t-34.5 3
q-30 0 -58 -6l39 162q-68 13 -122.5 62.5t-93.5 136.5t-60 213.5t-21 293.5q0 177 28 311t75 223t109 134t130 45q65 0 107.5 -28.5t73.5 -70.5v74h108v-473h-108v137q0 60 -13.5 106t-36.5 77.5t-53.5 48t-64.5 16.5q-57 0 -98 -42t-67.5 -120t-39 -189t-12.5 -249
t10.5 -248.5t37 -188t70 -119.5t109.5 -42q45 0 77 26t55 65.5t38 85.5t26 87h115v0z" />
    <glyph glyph-name="ccedilla" unicode="&#xe7;" horiz-adv-x="543" 
d="M387 604v72q0 61 -9.5 99.5t-23.5 60t-30.5 29t-30.5 7.5q-31 0 -53.5 -27.5t-37 -79t-21.5 -124.5t-7 -164q0 -92 6 -165t20.5 -124t37 -78.5t55.5 -27.5q29 0 49 18.5t33 46t21 59t14 58.5h98q-7 -56 -22 -104.5t-38 -86t-53.5 -62.5t-68.5 -34l-19 -75q21 0 46 -7
t47.5 -23.5t37.5 -44t15 -69.5q0 -45 -17 -75.5t-43 -49t-59 -26.5t-64 -8q-63 0 -108 16.5t-70 30.5l49 88q23 -19 53 -32t64 -13q43 0 67.5 19t24.5 50q0 19 -8 32t-21.5 20.5t-30 10.5t-34.5 3q-30 0 -57 -6l39 164q-91 27 -143 151t-52 342q0 122 19 216t51.5 157.5
t75 96t90.5 32.5q21 0 38 -7t30.5 -18t23.5 -25t16 -28v53h105v-348h-105z" />
    <glyph glyph-name="Cacute" unicode="&#x106;" horiz-adv-x="745" 
d="M410 -27q-79 0 -144.5 42.5t-112 130t-72.5 222t-26 318.5q0 177 28 311t75 223t109 134t130 45q65 0 107.5 -28.5t73.5 -70.5v74h108v-473h-108v137q0 60 -13.5 106t-36.5 77.5t-53.5 48t-64.5 16.5q-57 0 -98 -42t-67.5 -120t-39 -189t-12.5 -249t10.5 -248.5t37 -188
t70 -119.5t109.5 -42q45 0 77 26t55 65.5t38 85.5t26 87h115q-18 -89 -47.5 -159.5t-69.5 -119t-91 -74.5t-113 -26zM606 1652l-291 -176l-43 66l269 209z" />
    <glyph glyph-name="cacute" unicode="&#x107;" horiz-adv-x="543" 
d="M387 604v72q0 61 -9.5 99.5t-23.5 60t-30.5 29t-30.5 7.5q-31 0 -53.5 -27.5t-37 -79t-21.5 -124.5t-7 -164q0 -92 6 -165t20.5 -124t37 -78.5t55.5 -27.5q29 0 49 18.5t33 46t21 59t14 58.5h98q-8 -62 -25.5 -115.5t-44.5 -92.5t-63.5 -61t-83.5 -22q-116 0 -182 128
t-66 374q0 122 19 216t51.5 157.5t75 96t90.5 32.5q21 0 38 -7t30.5 -18t23.5 -25t16 -28v53h105v-348h-105zM501 1257l-291 -176l-43 66l269 209z" />
    <glyph glyph-name="Ccircumflex" unicode="&#x108;" horiz-adv-x="745" 
d="M410 -27q-79 0 -144.5 42.5t-112 130t-72.5 222t-26 318.5q0 177 28 311t75 223t109 134t130 45q65 0 107.5 -28.5t73.5 -70.5v74h108v-473h-108v137q0 60 -13.5 106t-36.5 77.5t-53.5 48t-64.5 16.5q-57 0 -98 -42t-67.5 -120t-39 -189t-12.5 -249t10.5 -248.5t37 -188
t70 -119.5t109.5 -42q45 0 77 26t55 65.5t38 85.5t26 87h115q-18 -89 -47.5 -159.5t-69.5 -119t-91 -74.5t-113 -26zM608 1476l-197 150l-196 -150l-60 62l256 219l256 -219z" />
    <glyph glyph-name="ccircumflex" unicode="&#x109;" horiz-adv-x="543" 
d="M387 604v72q0 61 -9.5 99.5t-23.5 60t-30.5 29t-30.5 7.5q-31 0 -53.5 -27.5t-37 -79t-21.5 -124.5t-7 -164q0 -92 6 -165t20.5 -124t37 -78.5t55.5 -27.5q29 0 49 18.5t33 46t21 59t14 58.5h98q-8 -62 -25.5 -115.5t-44.5 -92.5t-63.5 -61t-83.5 -22q-116 0 -182 128
t-66 374q0 122 19 216t51.5 157.5t75 96t90.5 32.5q21 0 38 -7t30.5 -18t23.5 -25t16 -28v53h105v-348h-105zM489 1081l-197 150l-196 -150l-60 62l256 219l256 -219z" />
    <glyph glyph-name="Cdotaccent" unicode="&#x10a;" horiz-adv-x="745" 
d="M410 -27q-79 0 -144.5 42.5t-112 130t-72.5 222t-26 318.5q0 177 28 311t75 223t109 134t130 45q65 0 107.5 -28.5t73.5 -70.5v74h108v-473h-108v137q0 60 -13.5 106t-36.5 77.5t-53.5 48t-64.5 16.5q-57 0 -98 -42t-67.5 -120t-39 -189t-12.5 -249t10.5 -248.5t37 -188
t70 -119.5t109.5 -42q45 0 77 26t55 65.5t38 85.5t26 87h115q-18 -89 -47.5 -159.5t-69.5 -119t-91 -74.5t-113 -26zM334 1575q0 35 23 59.5t57 24.5q35 0 59.5 -24.5t24.5 -59.5q0 -34 -24.5 -57t-59.5 -23q-34 0 -57 23t-23 57z" />
    <glyph glyph-name="cdotaccent" unicode="&#x10b;" horiz-adv-x="543" 
d="M387 604v72q0 61 -9.5 99.5t-23.5 60t-30.5 29t-30.5 7.5q-31 0 -53.5 -27.5t-37 -79t-21.5 -124.5t-7 -164q0 -92 6 -165t20.5 -124t37 -78.5t55.5 -27.5q29 0 49 18.5t33 46t21 59t14 58.5h98q-8 -62 -25.5 -115.5t-44.5 -92.5t-63.5 -61t-83.5 -22q-116 0 -182 128
t-66 374q0 122 19 216t51.5 157.5t75 96t90.5 32.5q21 0 38 -7t30.5 -18t23.5 -25t16 -28v53h105v-348h-105zM212 1180q0 35 23 59.5t57 24.5q35 0 59.5 -24.5t24.5 -59.5q0 -34 -24.5 -57t-59.5 -23q-34 0 -57 23t-23 57z" />
    <glyph glyph-name="Ccaron" unicode="&#x10c;" horiz-adv-x="745" 
d="M410 -27q-79 0 -144.5 42.5t-112 130t-72.5 222t-26 318.5q0 177 28 311t75 223t109 134t130 45q65 0 107.5 -28.5t73.5 -70.5v74h108v-473h-108v137q0 60 -13.5 106t-36.5 77.5t-53.5 48t-64.5 16.5q-57 0 -98 -42t-67.5 -120t-39 -189t-12.5 -249t10.5 -248.5t37 -188
t70 -119.5t109.5 -42q45 0 77 26t55 65.5t38 85.5t26 87h115q-18 -89 -47.5 -159.5t-69.5 -119t-91 -74.5t-113 -26zM674 1695l-256 -219l-256 219l60 62l196 -150l197 150z" />
    <glyph glyph-name="ccaron" unicode="&#x10d;" horiz-adv-x="543" 
d="M387 604v72q0 61 -9.5 99.5t-23.5 60t-30.5 29t-30.5 7.5q-31 0 -53.5 -27.5t-37 -79t-21.5 -124.5t-7 -164q0 -92 6 -165t20.5 -124t37 -78.5t55.5 -27.5q29 0 49 18.5t33 46t21 59t14 58.5h98q-8 -62 -25.5 -115.5t-44.5 -92.5t-63.5 -61t-83.5 -22q-116 0 -182 128
t-66 374q0 122 19 216t51.5 157.5t75 96t90.5 32.5q21 0 38 -7t30.5 -18t23.5 -25t16 -28v53h105v-348h-105zM548 1300l-256 -219l-256 219l60 62l196 -150l197 150z" />
    <glyph glyph-name="Dcaron" unicode="&#x10e;" horiz-adv-x="803" 
d="M25 1374h385q75 0 137 -33t107 -112.5t69.5 -211.5t24.5 -329q0 -198 -24.5 -330.5t-69 -212t-106.5 -112.5t-138 -33h-385v113h122v1149h-122v112zM618 688q0 168 -13.5 279t-40 176.5t-64.5 92t-86 26.5h-142v-1149h142q48 0 86 27t64.5 92.5t40 176.5t13.5 279z
M612 1695l-256 -219l-256 219l60 62l196 -150l197 150z" />
    <glyph glyph-name="dcaron" unicode="&#x10f;" horiz-adv-x="764" 
d="M584 0h-207v63q-29 -43 -60 -66.5t-75 -23.5q-41 0 -77 24t-63 82.5t-43 157t-16 246.5q0 126 16 219t43.5 154.5t65 92t80.5 30.5q40 0 71.5 -22t57.5 -76v381h-88v112h213v-1261h82v-113zM272 80q34 0 61 37.5t44 103.5v467q-6 30 -16.5 62.5t-23.5 59.5t-29 44.5
t-34 17.5q-23 0 -42.5 -26t-34 -75.5t-23 -122t-8.5 -165.5q0 -195 27 -299t79 -104zM661 1101h-100l39 273h143z" />
    <glyph glyph-name="Eth" unicode="&#xd0;" horiz-adv-x="803" 
d="M25 1374h385q75 0 137 -33t107 -112.5t69.5 -211.5t24.5 -329q0 -198 -24.5 -330.5t-69 -212t-106.5 -112.5t-138 -33h-385v113h122v530h-122v109h122v510h-122v112zM272 643v-530h142q48 0 86 27t64.5 92.5t40 176.5t13.5 279t-13.5 279t-40 176.5t-64.5 92t-86 26.5
h-142v-510h179v-109h-179z" />
    <glyph glyph-name="eth" unicode="&#xf0;" horiz-adv-x="575" 
d="M391 1223q69 -125 105 -305.5t36 -421.5q0 -138 -18.5 -237t-51.5 -162.5t-77.5 -93.5t-95.5 -30q-52 0 -97 27t-78 85.5t-52 150.5t-19 223q0 130 19 223.5t52.5 153.5t78.5 88t96 28q40 0 78 -18q-16 66 -34 122.5t-40 102.5l-119 -76l-53 86l123 78q-35 51 -68 82
l62 78q26 -22 51 -45.5t47 -52.5l129 82l55 -84zM410 496q0 77 -4.5 146t-12.5 132q-20 32 -50.5 52t-53.5 20q-62 0 -92.5 -97t-30.5 -290t30.5 -286t92.5 -93q121 0 121 416z" />
    <glyph glyph-name="Dcroat" unicode="&#x110;" horiz-adv-x="803" 
d="M25 1374h385q75 0 137 -33t107 -112.5t69.5 -211.5t24.5 -329q0 -198 -24.5 -330.5t-69 -212t-106.5 -112.5t-138 -33h-385v113h122v530h-122v109h122v510h-122v112zM272 643v-530h142q48 0 86 27t64.5 92.5t40 176.5t13.5 279t-13.5 279t-40 176.5t-64.5 92t-86 26.5
h-142v-510h179v-109h-179z" />
    <glyph glyph-name="dcroat" unicode="&#x111;" horiz-adv-x="602" 
d="M584 0h-207v63q-29 -43 -60 -66.5t-75 -23.5q-41 0 -77 24t-63 82.5t-43 157t-16 246.5q0 126 16 219t43.5 154.5t65 92t80.5 30.5q40 0 71.5 -22t57.5 -76v186h-154v109h154v86h-88v112h213v-198h86v-109h-86v-954h82v-113zM272 80q34 0 61 37.5t44 103.5v467
q-6 30 -16.5 62.5t-23.5 59.5t-29 44.5t-34 17.5q-23 0 -42.5 -26t-34 -75.5t-23 -122t-8.5 -165.5q0 -195 27 -299t79 -104z" />
    <glyph glyph-name="Egrave" unicode="&#xc8;" horiz-adv-x="702" 
d="M520 963v299h-237v-480h221v-112h-221v-557h252v319h108v-432h-618v113h122v1149h-122v112h604v-411h-109zM195 1751l268 -209l-43 -66l-291 176z" />
    <glyph glyph-name="egrave" unicode="&#xe8;" horiz-adv-x="535" 
d="M362 520q-1 67 -6.5 129t-16.5 109.5t-28.5 75.5t-42.5 28q-23 0 -40 -28t-29 -75.5t-19 -109.5t-8 -129h190zM285 82q29 0 48 18.5t31 46t19 59t12 58.5h99q-8 -62 -25 -115.5t-44 -92.5t-63.5 -61t-82.5 -22q-54 0 -97.5 32t-74.5 95t-47.5 156t-16.5 215
q0 115 16.5 208t46.5 158t71.5 100.5t92.5 35.5q106 0 164 -137t58 -398v-22h-320q3 -164 28 -249t85 -85zM128 1356l268 -209l-43 -66l-291 176z" />
    <glyph glyph-name="Eacute" unicode="&#xc9;" horiz-adv-x="702" 
d="M520 963v299h-237v-480h221v-112h-221v-557h252v319h108v-432h-618v113h122v1149h-122v112h604v-411h-109zM547 1652l-291 -176l-43 66l269 209z" />
    <glyph glyph-name="eacute" unicode="&#xe9;" horiz-adv-x="535" 
d="M362 520q-1 67 -6.5 129t-16.5 109.5t-28.5 75.5t-42.5 28q-23 0 -40 -28t-29 -75.5t-19 -109.5t-8 -129h190zM285 82q29 0 48 18.5t31 46t19 59t12 58.5h99q-8 -62 -25 -115.5t-44 -92.5t-63.5 -61t-82.5 -22q-54 0 -97.5 32t-74.5 95t-47.5 156t-16.5 215
q0 115 16.5 208t46.5 158t71.5 100.5t92.5 35.5q106 0 164 -137t58 -398v-22h-320q3 -164 28 -249t85 -85zM480 1257l-291 -176l-43 66l269 209z" />
    <glyph glyph-name="Ecircumflex" unicode="&#xca;" horiz-adv-x="702" 
d="M520 963v299h-237v-480h221v-112h-221v-557h252v319h108v-432h-618v113h122v1149h-122v112h604v-411h-109zM535 1476l-197 150l-196 -150l-60 62l256 219l256 -219z" />
    <glyph glyph-name="ecircumflex" unicode="&#xea;" horiz-adv-x="535" 
d="M362 520q-1 67 -6.5 129t-16.5 109.5t-28.5 75.5t-42.5 28q-23 0 -40 -28t-29 -75.5t-19 -109.5t-8 -129h190zM285 82q29 0 48 18.5t31 46t19 59t12 58.5h99q-8 -62 -25 -115.5t-44 -92.5t-63.5 -61t-82.5 -22q-54 0 -97.5 32t-74.5 95t-47.5 156t-16.5 215
q0 115 16.5 208t46.5 158t71.5 100.5t92.5 35.5q106 0 164 -137t58 -398v-22h-320q3 -164 28 -249t85 -85zM468 1081l-197 150l-196 -150l-60 62l256 219l256 -219z" />
    <glyph glyph-name="Edieresis" unicode="&#xcb;" horiz-adv-x="702" 
d="M520 963v299h-237v-480h221v-112h-221v-557h252v319h108v-432h-618v113h122v1149h-122v112h604v-411h-109zM129 1571q0 32 22 54.5t54 22.5t55 -22.5t23 -54.5t-23 -54t-55 -22t-54 22t-22 54zM393 1571q0 32 22 54.5t54 22.5t55 -22.5t23 -54.5t-23 -54t-55 -22t-54 22
t-22 54z" />
    <glyph glyph-name="edieresis" unicode="&#xeb;" horiz-adv-x="535" 
d="M362 520q-1 67 -6.5 129t-16.5 109.5t-28.5 75.5t-42.5 28q-23 0 -40 -28t-29 -75.5t-19 -109.5t-8 -129h190zM285 82q29 0 48 18.5t31 46t19 59t12 58.5h99q-8 -62 -25 -115.5t-44 -92.5t-63.5 -61t-82.5 -22q-54 0 -97.5 32t-74.5 95t-47.5 156t-16.5 215
q0 115 16.5 208t46.5 158t71.5 100.5t92.5 35.5q106 0 164 -137t58 -398v-22h-320q3 -164 28 -249t85 -85zM62 1176q0 32 22 54.5t54 22.5t55 -22.5t23 -54.5t-23 -54t-55 -22t-54 22t-22 54zM326 1176q0 32 22 54.5t54 22.5t55 -22.5t23 -54.5t-23 -54t-55 -22t-54 22
t-22 54z" />
    <glyph glyph-name="Emacron" unicode="&#x112;" horiz-adv-x="702" 
d="M520 963v299h-237v-480h221v-112h-221v-557h252v319h108v-432h-618v113h122v1149h-122v112h604v-411h-109zM146 1507v105h385v-105h-385z" />
    <glyph glyph-name="emacron" unicode="&#x113;" horiz-adv-x="535" 
d="M362 520q-1 67 -6.5 129t-16.5 109.5t-28.5 75.5t-42.5 28q-23 0 -40 -28t-29 -75.5t-19 -109.5t-8 -129h190zM285 82q29 0 48 18.5t31 46t19 59t12 58.5h99q-8 -62 -25 -115.5t-44 -92.5t-63.5 -61t-82.5 -22q-54 0 -97.5 32t-74.5 95t-47.5 156t-16.5 215
q0 115 16.5 208t46.5 158t71.5 100.5t92.5 35.5q106 0 164 -137t58 -398v-22h-320q3 -164 28 -249t85 -85zM79 1112v105h385v-105h-385z" />
    <glyph glyph-name="Ebreve" unicode="&#x114;" horiz-adv-x="702" 
d="M520 963v299h-237v-480h221v-112h-221v-557h252v319h108v-432h-618v113h122v1149h-122v112h604v-411h-109zM561 1706q-6 -37 -19 -75.5t-38.5 -70t-65.5 -51.5t-100 -20t-100 20t-64.5 51.5t-37.5 70t-19 75.5h102q3 -18 10 -39t20.5 -39t35 -30.5t53.5 -12.5
q34 0 56 12.5t36 30.5t21 39t10 39h100v0z" />
    <glyph glyph-name="ebreve" unicode="&#x115;" horiz-adv-x="535" 
d="M362 520q-1 67 -6.5 129t-16.5 109.5t-28.5 75.5t-42.5 28q-23 0 -40 -28t-29 -75.5t-19 -109.5t-8 -129h190zM285 82q29 0 48 18.5t31 46t19 59t12 58.5h99q-8 -62 -25 -115.5t-44 -92.5t-63.5 -61t-82.5 -22q-54 0 -97.5 32t-74.5 95t-47.5 156t-16.5 215
q0 115 16.5 208t46.5 158t71.5 100.5t92.5 35.5q106 0 164 -137t58 -398v-22h-320q3 -164 28 -249t85 -85zM494 1311q-6 -37 -19 -75.5t-38.5 -70t-65.5 -51.5t-100 -20t-100 20t-64.5 51.5t-37.5 70t-19 75.5h102q3 -18 10 -39t20.5 -39t35 -30.5t53.5 -12.5q34 0 56 12.5
t36 30.5t21 39t10 39h100v0z" />
    <glyph glyph-name="Edotaccent" unicode="&#x116;" horiz-adv-x="702" 
d="M520 963v299h-237v-480h221v-112h-221v-557h252v319h108v-432h-618v113h122v1149h-122v112h604v-411h-109zM258 1575q0 35 23 59.5t57 24.5q35 0 59.5 -24.5t24.5 -59.5q0 -34 -24.5 -57t-59.5 -23q-34 0 -57 23t-23 57z" />
    <glyph glyph-name="edotaccent" unicode="&#x117;" horiz-adv-x="535" 
d="M362 520q-1 67 -6.5 129t-16.5 109.5t-28.5 75.5t-42.5 28q-23 0 -40 -28t-29 -75.5t-19 -109.5t-8 -129h190zM285 82q29 0 48 18.5t31 46t19 59t12 58.5h99q-8 -62 -25 -115.5t-44 -92.5t-63.5 -61t-82.5 -22q-54 0 -97.5 32t-74.5 95t-47.5 156t-16.5 215
q0 115 16.5 208t46.5 158t71.5 100.5t92.5 35.5q106 0 164 -137t58 -398v-22h-320q3 -164 28 -249t85 -85zM191 1180q0 35 23 59.5t57 24.5q35 0 59.5 -24.5t24.5 -59.5q0 -34 -24.5 -57t-59.5 -23q-34 0 -57 23t-23 57z" />
    <glyph glyph-name="Eogonek" unicode="&#x118;" horiz-adv-x="702" 
d="M520 963v299h-237v-480h221v-112h-221v-557h252v319h108v-432q-77 -42 -112 -90.5t-35 -110.5q0 -32 15 -48.5t40 -16.5q18 0 32.5 8t26.5 20l33 -81q-26 -17 -58 -27t-63 -10q-69 0 -102 37.5t-33 99.5q0 31 10 62.5t27.5 60.5t41 53.5t50.5 42.5h-491v113h122v1149
h-122v112h604v-411h-109z" />
    <glyph glyph-name="eogonek" unicode="&#x119;" horiz-adv-x="535" 
d="M285 82q29 0 48 18.5t31 46t19 59t12 58.5h99q-6 -40 -13.5 -73.5t-19 -62.5t-27 -55t-37.5 -50q-31 -36 -49 -84t-18 -99q0 -32 15 -48.5t40 -16.5q19 0 33 8t26 20l33 -82q-26 -15 -57 -25.5t-66 -10.5q-65 0 -99 37t-34 100q0 45 18 82t40 69q-56 0 -99.5 33t-74 96.5
t-46.5 156t-16 212.5q0 115 16.5 208t46.5 158t71.5 100.5t92.5 35.5q106 0 164 -137t58 -398v-22h-320q3 -164 28 -249t85 -85zM362 520q-1 67 -6.5 129t-16.5 109.5t-28.5 75.5t-42.5 28q-23 0 -40 -28t-29 -75.5t-19 -109.5t-8 -129h190z" />
    <glyph glyph-name="Ecaron" unicode="&#x11a;" horiz-adv-x="702" 
d="M520 963v299h-237v-480h221v-112h-221v-557h252v319h108v-432h-618v113h122v1149h-122v112h604v-411h-109zM594 1695l-256 -219l-256 219l60 62l196 -150l197 150z" />
    <glyph glyph-name="ecaron" unicode="&#x11b;" horiz-adv-x="535" 
d="M362 520q-1 67 -6.5 129t-16.5 109.5t-28.5 75.5t-42.5 28q-23 0 -40 -28t-29 -75.5t-19 -109.5t-8 -129h190zM285 82q29 0 48 18.5t31 46t19 59t12 58.5h99q-8 -62 -25 -115.5t-44 -92.5t-63.5 -61t-82.5 -22q-54 0 -97.5 32t-74.5 95t-47.5 156t-16.5 215
q0 115 16.5 208t46.5 158t71.5 100.5t92.5 35.5q106 0 164 -137t58 -398v-22h-320q3 -164 28 -249t85 -85zM527 1300l-256 -219l-256 219l60 62l196 -150l197 150z" />
    <glyph glyph-name="Gcircumflex" unicode="&#x11c;" horiz-adv-x="799" 
d="M555 0v61q-45 -51 -90.5 -69.5t-93.5 -18.5q-68 0 -126 43.5t-100 132t-66 222.5t-24 315t27.5 315t73 222.5t104.5 132t123 43.5q35 0 62 -8t48.5 -22t39 -32.5t32.5 -40.5v78h111v-438h-111v113q0 60 -15 104.5t-39 74t-52.5 44t-55.5 14.5q-115 0 -167 -148.5
t-52 -451.5q0 -131 14 -241.5t42 -190.5t70 -125t98 -45q42 0 80 29t67 75v383h-123v113h330v-113h-82v-571h-125zM604 1476l-197 150l-196 -150l-60 62l256 219l256 -219z" />
    <glyph glyph-name="gcircumflex" unicode="&#x11d;" horiz-adv-x="604" 
d="M502 10q0 -90 -12 -167.5t-40.5 -134.5t-77.5 -89.5t-122 -32.5q-34 0 -62 8t-51 20.5t-42 27.5t-34 30l60 95l22.5 -22.5t28 -23t33.5 -17.5t39 -7q41 0 67 21t40.5 61t20 97.5t5.5 131.5v58q-23 -42 -50.5 -67.5t-74.5 -25.5q-42 0 -79.5 24t-66.5 82.5t-46 157
t-17 246.5q0 126 15 219t42 154.5t65 92t83 30.5q40 0 73 -28t56 -70v71h207v-112h-82v-830zM272 80q34 0 61 38.5t44 104.5v465q-8 35 -18.5 68.5t-23.5 59t-28 41t-31 15.5q-49 0 -79.5 -101.5t-30.5 -287.5q0 -195 27 -299t79 -104zM504 1081l-197 150l-196 -150l-60 62
l256 219l256 -219z" />
    <glyph glyph-name="Gbreve" unicode="&#x11e;" horiz-adv-x="799" 
d="M555 0v61q-45 -51 -90.5 -69.5t-93.5 -18.5q-68 0 -126 43.5t-100 132t-66 222.5t-24 315t27.5 315t73 222.5t104.5 132t123 43.5q35 0 62 -8t48.5 -22t39 -32.5t32.5 -40.5v78h111v-438h-111v113q0 60 -15 104.5t-39 74t-52.5 44t-55.5 14.5q-115 0 -167 -148.5
t-52 -451.5q0 -131 14 -241.5t42 -190.5t70 -125t98 -45q42 0 80 29t67 75v383h-123v113h330v-113h-82v-571h-125zM630 1706q-6 -37 -19 -75.5t-38.5 -70t-65.5 -51.5t-100 -20t-100 20t-64.5 51.5t-37.5 70t-19 75.5h102q3 -18 10 -39t20.5 -39t35 -30.5t53.5 -12.5
q34 0 56 12.5t36 30.5t21 39t10 39h100v0z" />
    <glyph glyph-name="gbreve" unicode="&#x11f;" horiz-adv-x="604" 
d="M502 10q0 -90 -12 -167.5t-40.5 -134.5t-77.5 -89.5t-122 -32.5q-34 0 -62 8t-51 20.5t-42 27.5t-34 30l60 95l22.5 -22.5t28 -23t33.5 -17.5t39 -7q41 0 67 21t40.5 61t20 97.5t5.5 131.5v58q-23 -42 -50.5 -67.5t-74.5 -25.5q-42 0 -79.5 24t-66.5 82.5t-46 157
t-17 246.5q0 126 15 219t42 154.5t65 92t83 30.5q40 0 73 -28t56 -70v71h207v-112h-82v-830zM272 80q34 0 61 38.5t44 104.5v465q-8 35 -18.5 68.5t-23.5 59t-28 41t-31 15.5q-49 0 -79.5 -101.5t-30.5 -287.5q0 -195 27 -299t79 -104zM530 1311q-6 -37 -19 -75.5t-38.5 -70
t-65.5 -51.5t-100 -20t-100 20t-64.5 51.5t-37.5 70t-19 75.5h102q3 -18 10 -39t20.5 -39t35 -30.5t53.5 -12.5q34 0 56 12.5t36 30.5t21 39t10 39h100v0z" />
    <glyph glyph-name="Gdotaccent" unicode="&#x120;" horiz-adv-x="799" 
d="M555 0v61q-45 -51 -90.5 -69.5t-93.5 -18.5q-68 0 -126 43.5t-100 132t-66 222.5t-24 315t27.5 315t73 222.5t104.5 132t123 43.5q35 0 62 -8t48.5 -22t39 -32.5t32.5 -40.5v78h111v-438h-111v113q0 60 -15 104.5t-39 74t-52.5 44t-55.5 14.5q-115 0 -167 -148.5
t-52 -451.5q0 -131 14 -241.5t42 -190.5t70 -125t98 -45q42 0 80 29t67 75v383h-123v113h330v-113h-82v-571h-125zM327 1575q0 35 23 59.5t57 24.5q35 0 59.5 -24.5t24.5 -59.5q0 -34 -24.5 -57t-59.5 -23q-34 0 -57 23t-23 57z" />
    <glyph glyph-name="gdotaccent" unicode="&#x121;" horiz-adv-x="604" 
d="M502 10q0 -90 -12 -167.5t-40.5 -134.5t-77.5 -89.5t-122 -32.5q-34 0 -62 8t-51 20.5t-42 27.5t-34 30l60 95l22.5 -22.5t28 -23t33.5 -17.5t39 -7q41 0 67 21t40.5 61t20 97.5t5.5 131.5v58q-23 -42 -50.5 -67.5t-74.5 -25.5q-42 0 -79.5 24t-66.5 82.5t-46 157
t-17 246.5q0 126 15 219t42 154.5t65 92t83 30.5q40 0 73 -28t56 -70v71h207v-112h-82v-830zM272 80q34 0 61 38.5t44 104.5v465q-8 35 -18.5 68.5t-23.5 59t-28 41t-31 15.5q-49 0 -79.5 -101.5t-30.5 -287.5q0 -195 27 -299t79 -104zM227 1180q0 35 23 59.5t57 24.5
q35 0 59.5 -24.5t24.5 -59.5q0 -34 -24.5 -57t-59.5 -23q-34 0 -57 23t-23 57z" />
    <glyph glyph-name="Gcommaaccent" unicode="&#x122;" horiz-adv-x="799" 
d="M555 0v61q-45 -51 -90.5 -69.5t-93.5 -18.5q-68 0 -126 43.5t-100 132t-66 222.5t-24 315t27.5 315t73 222.5t104.5 132t123 43.5q35 0 62 -8t48.5 -22t39 -32.5t32.5 -40.5v78h111v-438h-111v113q0 60 -15 104.5t-39 74t-52.5 44t-55.5 14.5q-115 0 -167 -148.5
t-52 -451.5q0 -131 14 -241.5t42 -190.5t70 -125t98 -45q42 0 80 29t67 75v383h-123v113h330v-113h-82v-571h-125zM419 -416h-100l39 273h143z" />
    <glyph glyph-name="gcommaaccent" unicode="&#x123;" horiz-adv-x="604" 
d="M502 10q0 -90 -12 -167.5t-40.5 -134.5t-77.5 -89.5t-122 -32.5q-34 0 -62 8t-51 20.5t-42 27.5t-34 30l60 95l22.5 -22.5t28 -23t33.5 -17.5t39 -7q41 0 67 21t40.5 61t20 97.5t5.5 131.5v58q-23 -42 -50.5 -67.5t-74.5 -25.5q-42 0 -79.5 24t-66.5 82.5t-46 157
t-17 246.5q0 126 15 219t42 154.5t65 92t83 30.5q40 0 73 -28t56 -70v71h207v-112h-82v-830zM272 80q34 0 61 38.5t44 104.5v465q-8 35 -18.5 68.5t-23.5 59t-28 41t-31 15.5q-49 0 -79.5 -101.5t-30.5 -287.5q0 -195 27 -299t79 -104zM367 1161q0 -32 -23 -53t-55 -21
q-37 0 -60.5 25t-23.5 64q0 58 23 99.5t65 78.5l45 -31q-12 -12 -20 -21t-14 -18t-10.5 -20t-8.5 -29q23 0 38.5 -6.5t25.5 -17t14 -23.5t4 -27z" />
    <glyph glyph-name="Hcircumflex" unicode="&#x124;" horiz-adv-x="887" 
d="M25 1374h370v-112h-123v-480h342v480h-122v112h370v-112h-123v-1149h123v-113h-370v113h122v553h-342v-553h123v-113h-370v113h122v1149h-122v112zM639 1476l-197 150l-196 -150l-60 62l256 219l256 -219z" />
    <glyph glyph-name="hcircumflex" unicode="&#x125;" horiz-adv-x="641" 
d="M25 1374h206v-524q36 60 75.5 94.5t90.5 34.5q74 0 106 -65t32 -185v-616h81v-113h-268v113h62v577q0 55 -2.5 89t-8.5 53.5t-15 26.5t-22 7q-19 0 -39.5 -19.5t-38.5 -50.5t-32.5 -69.5t-20.5 -77.5v-536h62v-113h-268v113h81v1149h-81v112zM331 1476l-197 150
l-196 -150l-60 62l256 219l256 -219z" />
    <glyph glyph-name="Hbar" unicode="&#x126;" horiz-adv-x="887" 
d="M739 971v-858h123v-113h-370v113h122v553h-342v-553h123v-113h-370v113h122v858h-122v104h122v187h-122v112h370v-112h-123v-187h342v187h-122v112h370v-112h-123v-187h123v-104h-123zM614 782v189h-342v-189h342z" />
    <glyph glyph-name="hbar" unicode="&#x127;" horiz-adv-x="641" 
d="M231 1075v-225q36 60 75.5 94.5t90.5 34.5q74 0 106 -65t32 -185v-616h81v-113h-268v113h62v577q0 55 -2.5 89t-8.5 53.5t-15 26.5t-22 7q-19 0 -39.5 -19.5t-38.5 -50.5t-32.5 -69.5t-20.5 -77.5v-536h62v-113h-268v113h81v962h-81v105h81v82h-81v112h206v-194h138v-105
h-138z" />
    <glyph glyph-name="Igrave" unicode="&#xcc;" horiz-adv-x="420" 
d="M25 1374h370v-112h-123v-1149h123v-113h-370v113h122v1149h-122v112zM69 1751l268 -209l-43 -66l-291 176z" />
    <glyph glyph-name="igrave" unicode="&#xec;" horiz-adv-x="350" 
d="M31 952h207v-839h100v-113h-307v113h82v727h-82v112zM5 1356l268 -209l-43 -66l-291 176z" />
    <glyph glyph-name="Iacute" unicode="&#xcd;" horiz-adv-x="420" 
d="M25 1374h370v-112h-123v-1149h123v-113h-370v113h122v1149h-122v112zM421 1652l-291 -176l-43 66l269 209z" />
    <glyph glyph-name="iacute" unicode="&#xed;" horiz-adv-x="350" 
d="M31 952h207v-839h100v-113h-307v113h82v727h-82v112zM357 1257l-291 -176l-43 66l269 209z" />
    <glyph glyph-name="Icircumflex" unicode="&#xce;" horiz-adv-x="420" 
d="M25 1374h370v-112h-123v-1149h123v-113h-370v113h122v1149h-122v112zM409 1476l-197 150l-196 -150l-60 62l256 219l256 -219z" />
    <glyph glyph-name="icircumflex" unicode="&#xee;" horiz-adv-x="350" 
d="M31 952h207v-839h100v-113h-307v113h82v727h-82v112zM345 1081l-197 150l-196 -150l-60 62l256 219l256 -219z" />
    <glyph glyph-name="Idieresis" unicode="&#xcf;" horiz-adv-x="420" 
d="M25 1374h370v-112h-123v-1149h123v-113h-370v113h122v1149h-122v112zM3 1571q0 32 22 54.5t54 22.5t55 -22.5t23 -54.5t-23 -54t-55 -22t-54 22t-22 54zM267 1571q0 32 22 54.5t54 22.5t55 -22.5t23 -54.5t-23 -54t-55 -22t-54 22t-22 54z" />
    <glyph glyph-name="idieresis" unicode="&#xef;" horiz-adv-x="350" 
d="M31 952h207v-839h100v-113h-307v113h82v727h-82v112zM-61 1176q0 32 22 54.5t54 22.5t55 -22.5t23 -54.5t-23 -54t-55 -22t-54 22t-22 54zM203 1176q0 32 22 54.5t54 22.5t55 -22.5t23 -54.5t-23 -54t-55 -22t-54 22t-22 54z" />
    <glyph glyph-name="Itilde" unicode="&#x128;" horiz-adv-x="420" 
d="M25 1374h370v-112h-123v-1149h123v-113h-370v113h122v1149h-122v112zM446 1706q0 -26 -7.5 -64t-23 -73t-40.5 -59.5t-60 -24.5t-63 18.5t-51.5 41t-42.5 41.5t-36 19q-18 0 -29 -15t-16.5 -35t-7 -40t-2.5 -30h-88q0 25 7.5 62.5t23 73t41 60.5t61.5 25q34 0 62 -19
t50.5 -41.5l41.5 -41.5t36 -19q18 0 29 15t16.5 35t7.5 40t3 31h88v0z" />
    <glyph glyph-name="itilde" unicode="&#x129;" horiz-adv-x="350" 
d="M31 952h207v-839h100v-113h-307v113h82v727h-82v112zM382 1311q0 -26 -7.5 -64t-23 -73t-40.5 -59.5t-60 -24.5t-63 18.5t-51.5 41t-42.5 41.5t-36 19q-18 0 -29 -15t-16.5 -35t-7 -40t-2.5 -30h-88q0 25 7.5 62.5t23 73t41 60.5t61.5 25q34 0 62 -19t50.5 -41.5
l41.5 -41.5t36 -19q18 0 29 15t16.5 35t7.5 40t3 31h88v0z" />
    <glyph glyph-name="Imacron" unicode="&#x12a;" horiz-adv-x="420" 
d="M25 1374h370v-112h-123v-1149h123v-113h-370v113h122v1149h-122v112zM20 1507v105h385v-105h-385z" />
    <glyph glyph-name="imacron" unicode="&#x12b;" horiz-adv-x="350" 
d="M31 952h207v-839h100v-113h-307v113h82v727h-82v112zM-44 1112v105h385v-105h-385z" />
    <glyph glyph-name="Ibreve" unicode="&#x12c;" horiz-adv-x="420" 
d="M25 1374h370v-112h-123v-1149h123v-113h-370v113h122v1149h-122v112zM435 1706q-6 -37 -19 -75.5t-38.5 -70t-65.5 -51.5t-100 -20t-100 20t-64.5 51.5t-37.5 70t-19 75.5h102q3 -18 10 -39t20.5 -39t35 -30.5t53.5 -12.5q34 0 56 12.5t36 30.5t21 39t10 39h100v0z" />
    <glyph glyph-name="ibreve" unicode="&#x12d;" horiz-adv-x="350" 
d="M31 952h207v-839h100v-113h-307v113h82v727h-82v112zM371 1311q-6 -37 -19 -75.5t-38.5 -70t-65.5 -51.5t-100 -20t-100 20t-64.5 51.5t-37.5 70t-19 75.5h102q3 -18 10 -39t20.5 -39t35 -30.5t53.5 -12.5q34 0 56 12.5t36 30.5t21 39t10 39h100v0z" />
    <glyph glyph-name="Iogonek" unicode="&#x12e;" horiz-adv-x="420" 
d="M25 1374h370v-112h-123v-1149h123v-113h-125q-35 -43 -59.5 -91t-24.5 -110q0 -32 15.5 -48.5t40.5 -16.5q18 0 32.5 8t26.5 20l33 -81q-26 -16 -57 -26.5t-66 -10.5q-65 0 -99 35.5t-34 101.5q0 27 7.5 55.5t20 57t30 55.5t38.5 51h-149v113h122v1149h-122v112z" />
    <glyph glyph-name="iogonek" unicode="&#x12f;" horiz-adv-x="350" 
d="M31 952h207v-839h100v-113h-98q-35 -43 -59.5 -91t-24.5 -110q0 -32 15 -48.5t40 -16.5q19 0 33 8t26 20l33 -81q-26 -16 -57 -26.5t-66 -10.5q-65 0 -99 35.5t-34 101.5q0 27 7.5 55.5t20 57t30 55.5t38.5 51h-112v113h82v727h-82v112zM66 1221q0 40 26.5 68t67.5 28
q40 0 68 -28t28 -68q0 -41 -28 -68t-68 -27q-41 0 -67.5 27t-26.5 68z" />
    <glyph glyph-name="Idotaccent" unicode="&#x130;" horiz-adv-x="420" 
d="M25 1374h370v-112h-123v-1149h123v-113h-370v113h122v1149h-122v112zM132 1575q0 35 23 59.5t57 24.5q35 0 59.5 -24.5t24.5 -59.5q0 -34 -24.5 -57t-59.5 -23q-34 0 -57 23t-23 57z" />
    <glyph glyph-name="dotlessi" unicode="&#x131;" horiz-adv-x="350" 
d="M31 952h207v-839h100v-113h-307v113h82v727h-82v112z" />
    <glyph glyph-name="IJ" unicode="&#x132;" horiz-adv-x="1055" 
d="M25 1374h370v-112h-123v-1149h123v-113h-370v113h122v1149h-122v112zM653 1374h392v-112h-123v-887q0 -108 -16.5 -182.5t-47 -121t-74 -67t-98.5 -20.5q-54 0 -96.5 18t-72.5 67.5t-46 137.5t-16 227h125q1 -94 4.5 -158t14 -103.5t31.5 -57t56 -17.5t57 18.5t34 54
t16 88.5t4 122v881h-144v112z" />
    <glyph glyph-name="ij" unicode="&#x133;" horiz-adv-x="668" 
d="M31 952h207v-839h100v-113h-307v113h82v727h-82v112zM66 1221q0 40 26.5 68t67.5 28q40 0 68 -28t28 -68q0 -41 -28 -68t-68 -27q-41 0 -67.5 27t-26.5 68zM397 1221q0 40 27 68t67 28q41 0 69 -28t28 -68q0 -41 -28 -68t-69 -27q-40 0 -67 27t-27 68zM276 -250
q19 -17 39.5 -31t48.5 -14q21 0 38 9t29 30.5t18.5 56.5t6.5 86v953h-94v112h219v-1061q0 -87 -16 -145.5t-43 -94t-63 -50.5t-76 -15q-29 0 -53.5 7t-45 17t-36.5 22t-27 22z" />
    <glyph glyph-name="Jcircumflex" unicode="&#x134;" horiz-adv-x="635" 
d="M233 1374h392v-112h-123v-887q0 -108 -16.5 -182.5t-47 -121t-74 -67t-98.5 -20.5q-54 0 -96.5 18t-72.5 67.5t-46 137.5t-16 227h125q1 -94 4.5 -158t14 -103.5t31.5 -57t56 -17.5t57 18.5t34 54t16 88.5t4 122v881h-144v112zM635 1476l-197 150l-196 -150l-60 62
l256 219l256 -219z" />
    <glyph glyph-name="jcircumflex" unicode="&#x135;" horiz-adv-x="317" 
d="M-74 -250q19 -17 39.5 -31t48.5 -14q21 0 38 9t29 30.5t18.5 56.5t6.5 86v953h-94v112h219v-1061q0 -87 -16 -145.5t-43 -94t-63 -50.5t-76 -15q-29 0 -53.5 7t-45 17t-36.5 22t-27 22l55 96v0zM341 1081l-197 150l-196 -150l-60 62l256 219l256 -219z" />
    <glyph glyph-name="dotlessj" unicode="&#x237;" horiz-adv-x="317" 
d="M-74 -250q19 -17 39.5 -31t48.5 -14q21 0 38 9t29 30.5t18.5 56.5t6.5 86v953h-94v112h219v-1061q0 -87 -16 -145.5t-43 -94t-63 -50.5t-76 -15q-29 0 -53.5 7t-45 17t-36.5 22t-27 22l55 96v0z" />
    <glyph glyph-name="Kcommaaccent" unicode="&#x136;" horiz-adv-x="782" 
d="M25 1374h370v-112h-123v-469l254 469h-75v112h305v-112h-103l-258 -478l283 -671h113v-113h-326v113h84l-232 565l-45 -82v-483h123v-113h-370v113h122v1149h-122v112zM399 -416h-100l39 273h143z" />
    <glyph glyph-name="kcommaaccent" unicode="&#x137;" horiz-adv-x="627" 
d="M25 1374h206v-774l185 283q26 42 57.5 64t73.5 22q20 0 39 -6t35 -17l-37 -98q-17 8 -31 8q-20 0 -36.5 -19.5t-45.5 -64.5l-104 -160l186 -499h82v-113h-277v113h66l-139 381l-54 -80v-301h82v-113h-288v113h81v1149h-81v112zM321 -416h-100l39 273h143z" />
    <glyph glyph-name="kgreenlandic" unicode="&#x138;" horiz-adv-x="627" 
d="M25 952h288v-112h-82v-240l185 283q26 42 57.5 64t73.5 22q20 0 39 -6t35 -17l-37 -98q-17 8 -31 8q-20 0 -36.5 -19.5t-45.5 -64.5l-104 -160l186 -499h82v-113h-277v113h66l-139 381l-54 -80v-301h82v-113h-288v113h81v727h-81v112z" />
    <glyph glyph-name="Lacute" unicode="&#x139;" horiz-adv-x="674" 
d="M25 1374h378v-112h-131v-1149h260v319h109v-432h-616v113h122v1149h-122v112zM421 1652l-291 -176l-43 66l269 209z" />
    <glyph glyph-name="lacute" unicode="&#x13a;" horiz-adv-x="344" 
d="M4 1374h207v-1153q0 -38 6 -59.5t18 -32t30.5 -13.5t43.5 -3h27v-113h-25q-57 0 -99 10t-70 36.5t-42 71.5t-14 115v1029h-82v112zM324 1652l-291 -176l-43 66l269 209z" />
    <glyph glyph-name="Lcommaaccent" unicode="&#x13b;" horiz-adv-x="674" 
d="M25 1374h378v-112h-131v-1149h260v319h109v-432h-616v113h122v1149h-122v112zM346 -416h-100l39 273h143z" />
    <glyph glyph-name="lcommaaccent" unicode="&#x13c;" horiz-adv-x="344" 
d="M4 1374h207v-1153q0 -38 6 -59.5t18 -32t30.5 -13.5t43.5 -3h27v-113h-25q-57 0 -99 10t-70 36.5t-42 71.5t-14 115v1029h-82v112zM210 -416h-100l39 273h143z" />
    <glyph glyph-name="Lcaron" unicode="&#x13d;" horiz-adv-x="674" 
d="M25 1374h378v-112h-131v-1149h260v319h109v-432h-616v113h122v1149h-122v112zM546 1101h-100l39 273h143z" />
    <glyph glyph-name="lcaron" unicode="&#x13e;" horiz-adv-x="473" 
d="M4 1374h207v-1153q0 -38 6 -59.5t18 -32t30.5 -13.5t43.5 -3h27v-113h-25q-57 0 -99 10t-70 36.5t-42 71.5t-14 115v1029h-82v112zM370 1101h-100l39 273h143z" />
    <glyph glyph-name="Ldot" unicode="&#x13f;" horiz-adv-x="674" 
d="M25 1374h378v-112h-131v-1149h260v319h109v-432h-616v113h122v1149h-122v112zM442 690q0 22 8 41.5t22 33.5t33 22.5t42 8.5q45 0 75.5 -30.5t30.5 -75.5q0 -23 -8.5 -42t-22.5 -33t-33.5 -22t-41.5 -8q-45 0 -75 30t-30 75z" />
    <glyph glyph-name="ldotaccent" unicode="&#x140;" horiz-adv-x="481" 
d="M4 1374h207v-1153q0 -38 6 -59.5t18 -32t30.5 -13.5t43.5 -3h27v-113h-25q-57 0 -99 10t-70 36.5t-42 71.5t-14 115v1029h-82v112zM282 672q0 22 8 41.5t22 33.5t33 22.5t42 8.5q45 0 75.5 -30.5t30.5 -75.5q0 -23 -8.5 -42t-22.5 -33t-33.5 -22t-41.5 -8q-45 0 -75 30
t-30 75z" />
    <glyph glyph-name="Lslash" unicode="&#x141;" horiz-adv-x="674" 
d="M272 582v-469h260v319h109v-432h-616v113h122v395l-104 -62l-55 97l159 94v625h-122v112h378v-112h-131v-551l148 86l55 -97z" />
    <glyph glyph-name="lslash" unicode="&#x142;" horiz-adv-x="344" 
d="M211 682v-461q0 -38 6 -59.5t18 -32t30.5 -13.5t43.5 -3h27v-113h-25q-57 0 -99 10t-70 36.5t-42 71.5t-14 115v373l-74 -43l-55 96l129 76v527h-82v112h207v-563l92 55l55 -96z" />
    <glyph glyph-name="Ntilde" unicode="&#xd1;" horiz-adv-x="868" 
d="M25 1374h239l342 -1020v908h-125v112h371v-112h-123v-1262h-115l-342 1016v-903h123v-113h-370v113h122v1149h-122v112zM676 1706q0 -26 -7.5 -64t-23 -73t-40.5 -59.5t-60 -24.5t-63 18.5t-51.5 41t-42.5 41.5t-36 19q-18 0 -29 -15t-16.5 -35t-7 -40t-2.5 -30h-88
q0 25 7.5 62.5t23 73t41 60.5t61.5 25q34 0 62 -19t50.5 -41.5l41.5 -41.5t36 -19q18 0 29 15t16.5 35t7.5 40t3 31h88v0z" />
    <glyph glyph-name="ntilde" unicode="&#xf1;" horiz-adv-x="647" 
d="M31 952h207v-106q35 60 74.5 96.5t90.5 36.5q74 0 106 -65t32 -185v-616h82v-113h-269v113h62v577q0 55 -2.5 89t-8 53.5t-14.5 26.5t-22 7q-20 0 -40.5 -19.5t-38.5 -50.5t-32 -69.5t-20 -77.5v-536h61v-113h-268v113h82v727h-82v112zM541 1311q0 -26 -7.5 -64t-23 -73
t-40.5 -59.5t-60 -24.5t-63 18.5t-51.5 41t-42.5 41.5t-36 19q-18 0 -29 -15t-16.5 -35t-7 -40t-2.5 -30h-88q0 25 7.5 62.5t23 73t41 60.5t61.5 25q34 0 62 -19t50.5 -41.5l41.5 -41.5t36 -19q18 0 29 15t16.5 35t7.5 40t3 31h88v0z" />
    <glyph glyph-name="Nacute" unicode="&#x143;" horiz-adv-x="868" 
d="M25 1374h239l342 -1020v908h-125v112h371v-112h-123v-1262h-115l-342 1016v-903h123v-113h-370v113h122v1149h-122v112zM651 1652l-291 -176l-43 66l269 209z" />
    <glyph glyph-name="nacute" unicode="&#x144;" horiz-adv-x="647" 
d="M31 952h207v-106q35 60 74.5 96.5t90.5 36.5q74 0 106 -65t32 -185v-616h82v-113h-269v113h62v577q0 55 -2.5 89t-8 53.5t-14.5 26.5t-22 7q-20 0 -40.5 -19.5t-38.5 -50.5t-32 -69.5t-20 -77.5v-536h61v-113h-268v113h82v727h-82v112zM516 1257l-291 -176l-43 66
l269 209z" />
    <glyph glyph-name="Ncommaaccent" unicode="&#x145;" horiz-adv-x="868" 
d="M25 1374h239l342 -1020v908h-125v112h371v-112h-123v-1262h-115l-342 1016v-903h123v-113h-370v113h122v1149h-122v112zM442 -416h-100l39 273h143z" />
    <glyph glyph-name="ncommaaccent" unicode="&#x146;" horiz-adv-x="647" 
d="M31 952h207v-106q35 60 74.5 96.5t90.5 36.5q74 0 106 -65t32 -185v-616h82v-113h-269v113h62v577q0 55 -2.5 89t-8 53.5t-14.5 26.5t-22 7q-20 0 -40.5 -19.5t-38.5 -50.5t-32 -69.5t-20 -77.5v-536h61v-113h-268v113h82v727h-82v112zM331 -416h-100l39 273h143z" />
    <glyph glyph-name="Ncaron" unicode="&#x147;" horiz-adv-x="868" 
d="M25 1374h239l342 -1020v908h-125v112h371v-112h-123v-1262h-115l-342 1016v-903h123v-113h-370v113h122v1149h-122v112zM698 1695l-256 -219l-256 219l60 62l196 -150l197 150z" />
    <glyph glyph-name="ncaron" unicode="&#x148;" horiz-adv-x="647" 
d="M31 952h207v-106q35 60 74.5 96.5t90.5 36.5q74 0 106 -65t32 -185v-616h82v-113h-269v113h62v577q0 55 -2.5 89t-8 53.5t-14.5 26.5t-22 7q-20 0 -40.5 -19.5t-38.5 -50.5t-32 -69.5t-20 -77.5v-536h61v-113h-268v113h82v727h-82v112zM563 1300l-256 -219l-256 219
l60 62l196 -150l197 150z" />
    <glyph glyph-name="napostrophe" unicode="&#x149;" horiz-adv-x="678" 
d="M62 952h207v-106q35 60 74.5 96.5t90.5 36.5q74 0 106 -65t32 -185v-616h82v-113h-269v113h62v577q0 55 -2.5 89t-8 53.5t-14.5 26.5t-22 7q-20 0 -40.5 -19.5t-38.5 -50.5t-32 -69.5t-20 -77.5v-536h61v-113h-268v113h82v727h-82v112zM80 1100h-100l39 273h143z" />
    <glyph glyph-name="Eng" unicode="&#x14a;" horiz-adv-x="868" 
d="M606 25l-334 991v-903h123v-113h-370v113h122v1149h-122v112h239l342 -1016v904h-125v112h371v-112h-123v-1276q0 -108 -16.5 -182.5t-47 -121t-74 -67.5t-97.5 -21q-45 0 -85.5 16t-74.5 54l84 86q15 -20 31.5 -30.5t44.5 -10.5q35 0 57 18t34 54t16.5 89t4.5 122v33z
" />
    <glyph glyph-name="eng" unicode="&#x14b;" horiz-adv-x="627" 
d="M416 690q0 55 -2.5 89t-8 53.5t-14.5 26.5t-22 7q-20 0 -40.5 -19.5t-38.5 -50.5t-32 -69.5t-20 -77.5v-536h61v-113h-268v113h82v727h-82v112h202v-106q36 60 77.5 96.5t92.5 36.5q74 0 106 -65t32 -185v-817q0 -87 -16 -145.5t-43.5 -94t-63.5 -50.5t-76 -15
q-29 0 -53.5 7t-45 17t-36.5 21.5t-27 21.5l56 97q18 -17 39 -31t49 -14q21 0 38 9t29 30.5t18.5 56.5t6.5 86v782z" />
    <glyph glyph-name="Ograve" unicode="&#xd2;" horiz-adv-x="809" 
d="M754 686q0 -185 -27 -319.5t-73.5 -222t-110.5 -129.5t-137 -42q-75 0 -139 42t-111 129.5t-74 222t-27 319.5q0 184 27 318.5t74.5 222.5t111.5 130t138 42q73 0 137 -42t110.5 -129.5t73.5 -222t27 -319.5zM616 686q0 292 -53 445t-157 153q-107 0 -160 -154.5
t-53 -443.5q0 -292 53 -445t160 -153q104 0 157 153t53 445zM262 1751l268 -209l-43 -66l-291 176z" />
    <glyph glyph-name="ograve" unicode="&#xf2;" horiz-adv-x="575" 
d="M532 475q0 -131 -18.5 -225.5t-51.5 -156t-77.5 -91t-95.5 -29.5q-52 0 -97 29.5t-78 91t-52 156t-19 225.5q0 130 19 225.5t52.5 157t78.5 91.5t96 30t95.5 -29.5t77.5 -91t51.5 -157t18.5 -226.5zM410 475q0 195 -30.5 296t-90.5 101q-62 0 -92.5 -102t-30.5 -295
t30.5 -294t92.5 -101q60 0 90.5 101t30.5 294zM147 1356l268 -209l-43 -66l-291 176z" />
    <glyph glyph-name="Oacute" unicode="&#xd3;" horiz-adv-x="809" 
d="M754 686q0 -185 -27 -319.5t-73.5 -222t-110.5 -129.5t-137 -42q-75 0 -139 42t-111 129.5t-74 222t-27 319.5q0 184 27 318.5t74.5 222.5t111.5 130t138 42q73 0 137 -42t110.5 -129.5t73.5 -222t27 -319.5zM616 686q0 292 -53 445t-157 153q-107 0 -160 -154.5
t-53 -443.5q0 -292 53 -445t160 -153q104 0 157 153t53 445zM614 1652l-291 -176l-43 66l269 209z" />
    <glyph glyph-name="oacute" unicode="&#xf3;" horiz-adv-x="575" 
d="M532 475q0 -131 -18.5 -225.5t-51.5 -156t-77.5 -91t-95.5 -29.5q-52 0 -97 29.5t-78 91t-52 156t-19 225.5q0 130 19 225.5t52.5 157t78.5 91.5t96 30t95.5 -29.5t77.5 -91t51.5 -157t18.5 -226.5zM410 475q0 195 -30.5 296t-90.5 101q-62 0 -92.5 -102t-30.5 -295
t30.5 -294t92.5 -101q60 0 90.5 101t30.5 294zM499 1257l-291 -176l-43 66l269 209z" />
    <glyph glyph-name="Ocircumflex" unicode="&#xd4;" horiz-adv-x="809" 
d="M754 686q0 -185 -27 -319.5t-73.5 -222t-110.5 -129.5t-137 -42q-75 0 -139 42t-111 129.5t-74 222t-27 319.5q0 184 27 318.5t74.5 222.5t111.5 130t138 42q73 0 137 -42t110.5 -129.5t73.5 -222t27 -319.5zM616 686q0 292 -53 445t-157 153q-107 0 -160 -154.5
t-53 -443.5q0 -292 53 -445t160 -153q104 0 157 153t53 445zM602 1476l-197 150l-196 -150l-60 62l256 219l256 -219z" />
    <glyph glyph-name="ocircumflex" unicode="&#xf4;" horiz-adv-x="575" 
d="M532 475q0 -131 -18.5 -225.5t-51.5 -156t-77.5 -91t-95.5 -29.5q-52 0 -97 29.5t-78 91t-52 156t-19 225.5q0 130 19 225.5t52.5 157t78.5 91.5t96 30t95.5 -29.5t77.5 -91t51.5 -157t18.5 -226.5zM410 475q0 195 -30.5 296t-90.5 101q-62 0 -92.5 -102t-30.5 -295
t30.5 -294t92.5 -101q60 0 90.5 101t30.5 294zM487 1081l-197 150l-196 -150l-60 62l256 219l256 -219z" />
    <glyph glyph-name="Otilde" unicode="&#xd5;" horiz-adv-x="809" 
d="M754 686q0 -185 -27 -319.5t-73.5 -222t-110.5 -129.5t-137 -42q-75 0 -139 42t-111 129.5t-74 222t-27 319.5q0 184 27 318.5t74.5 222.5t111.5 130t138 42q73 0 137 -42t110.5 -129.5t73.5 -222t27 -319.5zM616 686q0 292 -53 445t-157 153q-107 0 -160 -154.5
t-53 -443.5q0 -292 53 -445t160 -153q104 0 157 153t53 445zM639 1706q0 -26 -7.5 -64t-23 -73t-40.5 -59.5t-60 -24.5t-63 18.5t-51.5 41t-42.5 41.5t-36 19q-18 0 -29 -15t-16.5 -35t-7 -40t-2.5 -30h-88q0 25 7.5 62.5t23 73t41 60.5t61.5 25q34 0 62 -19t50.5 -41.5
l41.5 -41.5t36 -19q18 0 29 15t16.5 35t7.5 40t3 31h88v0z" />
    <glyph glyph-name="otilde" unicode="&#xf5;" horiz-adv-x="575" 
d="M532 475q0 -131 -18.5 -225.5t-51.5 -156t-77.5 -91t-95.5 -29.5q-52 0 -97 29.5t-78 91t-52 156t-19 225.5q0 130 19 225.5t52.5 157t78.5 91.5t96 30t95.5 -29.5t77.5 -91t51.5 -157t18.5 -226.5zM410 475q0 195 -30.5 296t-90.5 101q-62 0 -92.5 -102t-30.5 -295
t30.5 -294t92.5 -101q60 0 90.5 101t30.5 294zM524 1311q0 -26 -7.5 -64t-23 -73t-40.5 -59.5t-60 -24.5t-63 18.5t-51.5 41t-42.5 41.5t-36 19q-18 0 -29 -15t-16.5 -35t-7 -40t-2.5 -30h-88q0 25 7.5 62.5t23 73t41 60.5t61.5 25q34 0 62 -19t50.5 -41.5l41.5 -41.5
t36 -19q18 0 29 15t16.5 35t7.5 40t3 31h88v0z" />
    <glyph glyph-name="Odieresis" unicode="&#xd6;" horiz-adv-x="809" 
d="M754 686q0 -185 -27 -319.5t-73.5 -222t-110.5 -129.5t-137 -42q-75 0 -139 42t-111 129.5t-74 222t-27 319.5q0 184 27 318.5t74.5 222.5t111.5 130t138 42q73 0 137 -42t110.5 -129.5t73.5 -222t27 -319.5zM616 686q0 292 -53 445t-157 153q-107 0 -160 -154.5
t-53 -443.5q0 -292 53 -445t160 -153q104 0 157 153t53 445zM196 1571q0 32 22 54.5t54 22.5t55 -22.5t23 -54.5t-23 -54t-55 -22t-54 22t-22 54zM460 1571q0 32 22 54.5t54 22.5t55 -22.5t23 -54.5t-23 -54t-55 -22t-54 22t-22 54z" />
    <glyph glyph-name="odieresis" unicode="&#xf6;" horiz-adv-x="575" 
d="M532 475q0 -131 -18.5 -225.5t-51.5 -156t-77.5 -91t-95.5 -29.5q-52 0 -97 29.5t-78 91t-52 156t-19 225.5q0 130 19 225.5t52.5 157t78.5 91.5t96 30t95.5 -29.5t77.5 -91t51.5 -157t18.5 -226.5zM410 475q0 195 -30.5 296t-90.5 101q-62 0 -92.5 -102t-30.5 -295
t30.5 -294t92.5 -101q60 0 90.5 101t30.5 294zM81 1176q0 32 22 54.5t54 22.5t55 -22.5t23 -54.5t-23 -54t-55 -22t-54 22t-22 54zM345 1176q0 32 22 54.5t54 22.5t55 -22.5t23 -54.5t-23 -54t-55 -22t-54 22t-22 54z" />
    <glyph glyph-name="Omacron" unicode="&#x14c;" horiz-adv-x="809" 
d="M754 686q0 -185 -27 -319.5t-73.5 -222t-110.5 -129.5t-137 -42q-75 0 -139 42t-111 129.5t-74 222t-27 319.5q0 184 27 318.5t74.5 222.5t111.5 130t138 42q73 0 137 -42t110.5 -129.5t73.5 -222t27 -319.5zM616 686q0 292 -53 445t-157 153q-107 0 -160 -154.5
t-53 -443.5q0 -292 53 -445t160 -153q104 0 157 153t53 445zM213 1507v105h385v-105h-385z" />
    <glyph glyph-name="omacron" unicode="&#x14d;" horiz-adv-x="575" 
d="M532 475q0 -131 -18.5 -225.5t-51.5 -156t-77.5 -91t-95.5 -29.5q-52 0 -97 29.5t-78 91t-52 156t-19 225.5q0 130 19 225.5t52.5 157t78.5 91.5t96 30t95.5 -29.5t77.5 -91t51.5 -157t18.5 -226.5zM410 475q0 195 -30.5 296t-90.5 101q-62 0 -92.5 -102t-30.5 -295
t30.5 -294t92.5 -101q60 0 90.5 101t30.5 294zM98 1112v105h385v-105h-385z" />
    <glyph glyph-name="Obreve" unicode="&#x14e;" horiz-adv-x="809" 
d="M754 686q0 -185 -27 -319.5t-73.5 -222t-110.5 -129.5t-137 -42q-75 0 -139 42t-111 129.5t-74 222t-27 319.5q0 184 27 318.5t74.5 222.5t111.5 130t138 42q73 0 137 -42t110.5 -129.5t73.5 -222t27 -319.5zM616 686q0 292 -53 445t-157 153q-107 0 -160 -154.5
t-53 -443.5q0 -292 53 -445t160 -153q104 0 157 153t53 445zM628 1706q-6 -37 -19 -75.5t-38.5 -70t-65.5 -51.5t-100 -20t-100 20t-64.5 51.5t-37.5 70t-19 75.5h102q3 -18 10 -39t20.5 -39t35 -30.5t53.5 -12.5q34 0 56 12.5t36 30.5t21 39t10 39h100v0z" />
    <glyph glyph-name="obreve" unicode="&#x14f;" horiz-adv-x="575" 
d="M532 475q0 -131 -18.5 -225.5t-51.5 -156t-77.5 -91t-95.5 -29.5q-52 0 -97 29.5t-78 91t-52 156t-19 225.5q0 130 19 225.5t52.5 157t78.5 91.5t96 30t95.5 -29.5t77.5 -91t51.5 -157t18.5 -226.5zM410 475q0 195 -30.5 296t-90.5 101q-62 0 -92.5 -102t-30.5 -295
t30.5 -294t92.5 -101q60 0 90.5 101t30.5 294zM513 1311q-6 -37 -19 -75.5t-38.5 -70t-65.5 -51.5t-100 -20t-100 20t-64.5 51.5t-37.5 70t-19 75.5h102q3 -18 10 -39t20.5 -39t35 -30.5t53.5 -12.5q34 0 56 12.5t36 30.5t21 39t10 39h100v0z" />
    <glyph glyph-name="Ohungarumlaut" unicode="&#x150;" horiz-adv-x="809" 
d="M754 686q0 -185 -27 -319.5t-73.5 -222t-110.5 -129.5t-137 -42q-75 0 -139 42t-111 129.5t-74 222t-27 319.5q0 184 27 318.5t74.5 222.5t111.5 130t138 42q73 0 137 -42t110.5 -129.5t73.5 -222t27 -319.5zM616 686q0 292 -53 445t-157 153q-107 0 -160 -154.5
t-53 -443.5q0 -292 53 -445t160 -153q104 0 157 153t53 445zM484 1665l-232 -189l-47 60l207 215zM709 1665l-231 -189l-48 60l207 215z" />
    <glyph glyph-name="ohungarumlaut" unicode="&#x151;" horiz-adv-x="575" 
d="M532 475q0 -131 -18.5 -225.5t-51.5 -156t-77.5 -91t-95.5 -29.5q-52 0 -97 29.5t-78 91t-52 156t-19 225.5q0 130 19 225.5t52.5 157t78.5 91.5t96 30t95.5 -29.5t77.5 -91t51.5 -157t18.5 -226.5zM410 475q0 195 -30.5 296t-90.5 101q-62 0 -92.5 -102t-30.5 -295
t30.5 -294t92.5 -101q60 0 90.5 101t30.5 294zM367 1270l-232 -189l-47 60l207 215zM592 1270l-231 -189l-48 60l207 215z" />
    <glyph glyph-name="Oslash" unicode="&#xd8;" horiz-adv-x="809" 
d="M657 1219q45 -88 71 -220t26 -313q0 -185 -27 -319.5t-73.5 -222t-110.5 -129.5t-137 -42q-105 0 -185 80l-51 -141h-109l91 240q-47 88 -72 219.5t-25 314.5q0 184 27 318.5t74.5 222.5t111.5 130t138 42q49 0 95.5 -20t84.5 -60l53 141h109zM616 686q0 105 -7 192
t-21 156l-318 -852q26 -46 60 -70t76 -24q104 0 157 153t53 445zM193 686q0 -106 6 -193.5t20 -156.5l318 852q-50 96 -131 96q-107 0 -160 -154.5t-53 -443.5z" />
    <glyph glyph-name="oslash" unicode="&#xf8;" horiz-adv-x="575" 
d="M473 838q28 -62 43.5 -152t15.5 -211q0 -131 -18.5 -225.5t-51.5 -156t-77.5 -91t-95.5 -29.5q-70 0 -127 54l-43 -115h-96l77 207q-28 62 -42.5 149.5t-14.5 206.5q0 130 19 225.5t52.5 157t78.5 91.5t96 30q69 0 123 -51l43 112h96zM410 475q0 50 -2.5 94t-6.5 82
l-192 -504q14 -34 34.5 -50.5t45.5 -16.5q60 0 90.5 101t30.5 294zM166 475q0 -95 6 -168l193 500q-29 65 -76 65q-62 0 -92.5 -102t-30.5 -295z" />
    <glyph glyph-name="Oslashacute" unicode="&#x1fe;" horiz-adv-x="809" 
d="M657 1219q45 -88 71 -220t26 -313q0 -185 -27 -319.5t-73.5 -222t-110.5 -129.5t-137 -42q-105 0 -185 80l-51 -141h-109l91 240q-47 88 -72 219.5t-25 314.5q0 184 27 318.5t74.5 222.5t111.5 130t138 42q49 0 95.5 -20t84.5 -60l53 141h109zM616 686q0 105 -7 192
t-21 156l-318 -852q26 -46 60 -70t76 -24q104 0 157 153t53 445zM193 686q0 -106 6 -193.5t20 -156.5l318 852q-50 96 -131 96q-107 0 -160 -154.5t-53 -443.5zM616 1652l-291 -176l-43 66l269 209z" />
    <glyph glyph-name="oslashacute" unicode="&#x1ff;" horiz-adv-x="575" 
d="M473 838q28 -62 43.5 -152t15.5 -211q0 -131 -18.5 -225.5t-51.5 -156t-77.5 -91t-95.5 -29.5q-70 0 -127 54l-43 -115h-96l77 207q-28 62 -42.5 149.5t-14.5 206.5q0 130 19 225.5t52.5 157t78.5 91.5t96 30q69 0 123 -51l43 112h96zM410 475q0 50 -2.5 94t-6.5 82
l-192 -504q14 -34 34.5 -50.5t45.5 -16.5q60 0 90.5 101t30.5 294zM166 475q0 -95 6 -168l193 500q-29 65 -76 65q-62 0 -92.5 -102t-30.5 -295zM499 1257l-291 -176l-43 66l269 209z" />
    <glyph glyph-name="OE" unicode="&#x152;" horiz-adv-x="1092" 
d="M537 113v1149h-82q-53 0 -100.5 -36t-83.5 -108t-57 -180t-21 -252q0 -146 21 -253.5t57 -178.5t83.5 -106t100.5 -35h82zM455 0q-75 0 -146.5 38t-128 120.5t-91 212.5t-34.5 315q0 184 35 315t91.5 213.5t128 121t145.5 38.5h563v-411h-109v299h-237v-480h221v-112
h-221v-557h252v319h108v-432h-577z" />
    <glyph glyph-name="oe" unicode="&#x153;" horiz-adv-x="895" 
d="M645 82q29 0 48 18.5t31 46t19 59l13 58.5h98q-8 -62 -24.5 -115.5t-43.5 -92.5t-63.5 -61t-83.5 -22q-113 0 -172 138q-32 -72 -77.5 -105t-100.5 -33q-52 0 -97 29.5t-78 91t-52 156t-19 225.5q0 130 19 225.5t52.5 157t78.5 91.5t96 30q55 0 102.5 -35.5t79.5 -109.5
q28 66 67.5 102.5t92.5 36.5q105 0 163 -137t58 -398v-22h-320q4 -164 28.5 -249t84.5 -85zM410 475q0 195 -30.5 296t-90.5 101q-62 0 -92.5 -102t-30.5 -295t30.5 -294t92.5 -101q60 0 90.5 101t30.5 294zM723 520q-1 67 -6.5 129t-17 109.5t-29 75.5t-41.5 28
q-23 0 -40.5 -28t-29.5 -75.5t-18.5 -109.5t-8.5 -129h191z" />
    <glyph glyph-name="Thorn" unicode="&#xde;" horiz-adv-x="725" 
d="M147 1262h-122v112h370v-112h-123v-132h152q128 0 194 -107t66 -314q0 -208 -66 -316t-194 -108h-152v-172h123v-113h-370v113h122v1149zM547 709q0 98 -11 158.5t-32 94t-50 45t-65 11.5h-117v-621h117h31t34.5 6.5t34 24t29.5 52t21 90t8 139.5z" />
    <glyph glyph-name="thorn" unicode="&#xfe;" horiz-adv-x="590" 
d="M211 188q17 -46 40.5 -77t55.5 -31q48 0 81.5 101.5t33.5 293.5q0 195 -25 296t-78 101q-17 0 -34 -16.5t-31.5 -43t-26 -59.5t-16.5 -67v-498zM211 877q29 57 61 79.5t74 22.5q34 0 69.5 -25.5t64.5 -84.5t47 -155.5t18 -238.5q0 -131 -16.5 -225.5t-45 -156t-66 -91
t-79.5 -29.5q-34 0 -66 16.5t-61 61.5v-332h102v-112h-309v112h82v1543h-82v112h207v-497z" />
    <glyph glyph-name="Racute" unicode="&#x154;" horiz-adv-x="774" 
d="M451 113h73l-162 479h-28h-62v-479h123v-113h-370v113h122v1149h-122v112h376q131 0 193.5 -98t62.5 -297q0 -155 -42 -247t-136 -126l178 -493h111v-113h-317v113zM520 979q0 88 -7 143.5t-24 86.5t-44.5 42t-67.5 11h-105v-557h103q40 0 68 9.5t45 39t24.5 83
t7.5 142.5zM547 1652l-291 -176l-43 66l269 209z" />
    <glyph glyph-name="racute" unicode="&#x155;" horiz-adv-x="479" 
d="M31 952h207v-90q38 63 76.5 90t78.5 27q20 0 37.5 -5.5t31.5 -12t24 -13.5t14 -10l-45 -113q-3 3 -9.5 10t-15.5 14t-20.5 12t-26.5 5q-25 0 -47.5 -15.5t-41.5 -42t-33.5 -61t-22.5 -71.5v-563h102v-113h-309v113h82v727h-82v112zM464 1257l-291 -176l-43 66l269 209z
" />
    <glyph glyph-name="Rcommaaccent" unicode="&#x156;" horiz-adv-x="774" 
d="M451 113h73l-162 479h-28h-62v-479h123v-113h-370v113h122v1149h-122v112h376q131 0 193.5 -98t62.5 -297q0 -155 -42 -247t-136 -126l178 -493h111v-113h-317v113zM520 979q0 88 -7 143.5t-24 86.5t-44.5 42t-67.5 11h-105v-557h103q40 0 68 9.5t45 39t24.5 83
t7.5 142.5zM395 -416h-100l39 273h143z" />
    <glyph glyph-name="rcommaaccent" unicode="&#x157;" horiz-adv-x="479" 
d="M31 952h207v-90q38 63 76.5 90t78.5 27q20 0 37.5 -5.5t31.5 -12t24 -13.5t14 -10l-45 -113q-3 3 -9.5 10t-15.5 14t-20.5 12t-26.5 5q-25 0 -47.5 -15.5t-41.5 -42t-33.5 -61t-22.5 -71.5v-563h102v-113h-309v113h82v727h-82v112zM169 -416h-100l39 273h143z" />
    <glyph glyph-name="Rcaron" unicode="&#x158;" horiz-adv-x="774" 
d="M451 113h73l-162 479h-28h-62v-479h123v-113h-370v113h122v1149h-122v112h376q131 0 193.5 -98t62.5 -297q0 -155 -42 -247t-136 -126l178 -493h111v-113h-317v113zM520 979q0 88 -7 143.5t-24 86.5t-44.5 42t-67.5 11h-105v-557h103q40 0 68 9.5t45 39t24.5 83
t7.5 142.5zM608 1695l-256 -219l-256 219l60 62l196 -150l197 150z" />
    <glyph glyph-name="rcaron" unicode="&#x159;" horiz-adv-x="479" 
d="M31 952h207v-90q38 63 76.5 90t78.5 27q20 0 37.5 -5.5t31.5 -12t24 -13.5t14 -10l-45 -113q-3 3 -9.5 10t-15.5 14t-20.5 12t-26.5 5q-25 0 -47.5 -15.5t-41.5 -42t-33.5 -61t-22.5 -71.5v-563h102v-113h-309v113h82v727h-82v112zM511 1300l-256 -219l-256 219l60 62
l196 -150l197 150z" />
    <glyph glyph-name="Sacute" unicode="&#x15a;" horiz-adv-x="666" 
d="M49 0v453h109v-162q0 -61 15.5 -101t39 -64t51 -34t51.5 -10q34 0 65 14t55 44.5t38 79.5t14 120q0 68 -18 117.5t-48 87t-68 66.5t-78 58.5t-78 61.5t-68 75.5t-48 102t-18 138.5q0 97 23 164t59 109t79.5 60.5t84.5 18.5q21 0 43.5 -5t44 -15t40.5 -25.5t34 -36.5v57
h109v-411h-109v153q0 51 -13.5 84.5t-33 53.5t-41.5 28t-39 8q-31 0 -58.5 -14t-48 -43.5t-32.5 -74.5t-12 -107t18.5 -107.5t48 -81t68 -65.5t78 -60t78 -64.5t68 -79.5t48 -104.5t18.5 -140.5q0 -115 -26 -188t-65 -114.5t-85 -57t-86 -15.5q-126 0 -198 97v-70h-109z
M541 1652l-291 -176l-43 66l269 209z" />
    <glyph glyph-name="sacute" unicode="&#x15b;" horiz-adv-x="502" 
d="M49 0v350h107v-84q0 -52 8.5 -86t21.5 -54t29.5 -28t32.5 -8q15 0 30 6t27 22t19.5 43.5t7.5 71.5q0 59 -20.5 100t-51.5 74t-66.5 63t-66.5 68t-51.5 89t-20.5 125q0 53 13.5 94.5t36 70t51.5 43.5t59 15q34 0 62 -20t45 -58v55h100v-321h-107v80q0 44 -5.5 74
t-14.5 48.5t-21.5 26.5t-27.5 8q-13 0 -25.5 -5.5t-22.5 -18.5t-16 -34.5t-6 -53.5q0 -61 20.5 -101t51.5 -72t66.5 -61.5t66.5 -68t51.5 -92.5t20.5 -134q0 -68 -17 -114.5t-42.5 -75t-55.5 -41t-55 -12.5q-48 0 -79 21.5t-54 60.5v-66h-101zM443 1257l-291 -176l-43 66
l269 209z" />
    <glyph glyph-name="Scircumflex" unicode="&#x15c;" horiz-adv-x="666" 
d="M49 0v453h109v-162q0 -61 15.5 -101t39 -64t51 -34t51.5 -10q34 0 65 14t55 44.5t38 79.5t14 120q0 68 -18 117.5t-48 87t-68 66.5t-78 58.5t-78 61.5t-68 75.5t-48 102t-18 138.5q0 97 23 164t59 109t79.5 60.5t84.5 18.5q21 0 43.5 -5t44 -15t40.5 -25.5t34 -36.5v57
h109v-411h-109v153q0 51 -13.5 84.5t-33 53.5t-41.5 28t-39 8q-31 0 -58.5 -14t-48 -43.5t-32.5 -74.5t-12 -107t18.5 -107.5t48 -81t68 -65.5t78 -60t78 -64.5t68 -79.5t48 -104.5t18.5 -140.5q0 -115 -26 -188t-65 -114.5t-85 -57t-86 -15.5q-126 0 -198 97v-70h-109z
M529 1476l-197 150l-196 -150l-60 62l256 219l256 -219z" />
    <glyph glyph-name="scircumflex" unicode="&#x15d;" horiz-adv-x="502" 
d="M49 0v350h107v-84q0 -52 8.5 -86t21.5 -54t29.5 -28t32.5 -8q15 0 30 6t27 22t19.5 43.5t7.5 71.5q0 59 -20.5 100t-51.5 74t-66.5 63t-66.5 68t-51.5 89t-20.5 125q0 53 13.5 94.5t36 70t51.5 43.5t59 15q34 0 62 -20t45 -58v55h100v-321h-107v80q0 44 -5.5 74
t-14.5 48.5t-21.5 26.5t-27.5 8q-13 0 -25.5 -5.5t-22.5 -18.5t-16 -34.5t-6 -53.5q0 -61 20.5 -101t51.5 -72t66.5 -61.5t66.5 -68t51.5 -92.5t20.5 -134q0 -68 -17 -114.5t-42.5 -75t-55.5 -41t-55 -12.5q-48 0 -79 21.5t-54 60.5v-66h-101zM431 1081l-197 150l-196 -150
l-60 62l256 219l256 -219z" />
    <glyph glyph-name="Scedilla" unicode="&#x15e;" horiz-adv-x="666" 
d="M49 0v453h109v-162q0 -61 15.5 -101t39 -64t51 -34t51.5 -10q34 0 65 14t55 44.5t38 79.5t14 120q0 68 -18 117.5t-48 87t-68 66.5t-78 58.5t-78 61.5t-68 75.5t-48 102t-18 138.5q0 97 23 164t59 109t79.5 60.5t84.5 18.5q21 0 43.5 -5t44 -15t40.5 -25.5t34 -36.5v57
h109v-411h-109v153q0 51 -13.5 84.5t-33 53.5t-41.5 28t-39 8q-31 0 -58.5 -14t-48 -43.5t-32.5 -74.5t-12 -107t18.5 -107.5t48 -81t68 -65.5t78 -60t78 -64.5t68 -79.5t48 -104.5t18.5 -140.5q0 -72 -10.5 -127t-29 -96t-42.5 -68.5t-51 -45t-55.5 -26t-54.5 -10.5
l-17 -73q21 0 46.5 -7t47.5 -23.5t37 -44t15 -69.5q0 -45 -16.5 -75.5t-43 -49t-59 -26.5t-63.5 -8q-63 0 -108.5 16.5t-70.5 30.5l50 88q23 -19 52.5 -32t63.5 -13q44 0 68 19t24 50q0 19 -8 32t-21.5 20.5t-30 10.5t-34.5 3q-30 0 -57 -6l39 164q-79 18 -131 88v-70h-109z
" />
    <glyph glyph-name="scedilla" unicode="&#x15f;" horiz-adv-x="502" 
d="M49 0v350h107v-84q0 -52 8.5 -86t21.5 -54t29.5 -28t32.5 -8q15 0 30 6t27 22t19.5 43.5t7.5 71.5q0 59 -20.5 100t-51.5 74t-66.5 63t-66.5 68t-51.5 89t-20.5 125q0 53 13.5 94.5t36 70t51.5 43.5t59 15q34 0 62 -20t45 -58v55h100v-321h-107v80q0 44 -5.5 74
t-14.5 48.5t-21.5 26.5t-27.5 8q-13 0 -25.5 -5.5t-22.5 -18.5t-16 -34.5t-6 -53.5q0 -61 20.5 -101t51.5 -72t66.5 -61.5t66.5 -68t51.5 -92.5t20.5 -134q0 -65 -16 -110.5t-40 -74t-52.5 -42.5t-53.5 -16l-19 -82q21 0 46.5 -7t47.5 -23.5t37 -44t15 -69.5
q0 -45 -17 -75.5t-43 -49t-58.5 -26.5t-63.5 -8q-63 0 -108.5 16.5t-70.5 30.5l49 88q23 -19 53 -32t64 -13q44 0 68 19t24 50q0 19 -8 32t-21.5 20.5t-30 10.5t-34.5 3q-30 0 -57 -6l45 184q-19 11 -33 26.5t-26 37.5v-66h-101z" />
    <glyph glyph-name="Scaron" unicode="&#x160;" horiz-adv-x="666" 
d="M49 0v453h109v-162q0 -61 15.5 -101t39 -64t51 -34t51.5 -10q34 0 65 14t55 44.5t38 79.5t14 120q0 68 -18 117.5t-48 87t-68 66.5t-78 58.5t-78 61.5t-68 75.5t-48 102t-18 138.5q0 97 23 164t59 109t79.5 60.5t84.5 18.5q21 0 43.5 -5t44 -15t40.5 -25.5t34 -36.5v57
h109v-411h-109v153q0 51 -13.5 84.5t-33 53.5t-41.5 28t-39 8q-31 0 -58.5 -14t-48 -43.5t-32.5 -74.5t-12 -107t18.5 -107.5t48 -81t68 -65.5t78 -60t78 -64.5t68 -79.5t48 -104.5t18.5 -140.5q0 -115 -26 -188t-65 -114.5t-85 -57t-86 -15.5q-126 0 -198 97v-70h-109z
M588 1695l-256 -219l-256 219l60 62l196 -150l197 150z" />
    <glyph glyph-name="scaron" unicode="&#x161;" horiz-adv-x="502" 
d="M49 0v350h107v-84q0 -52 8.5 -86t21.5 -54t29.5 -28t32.5 -8q15 0 30 6t27 22t19.5 43.5t7.5 71.5q0 59 -20.5 100t-51.5 74t-66.5 63t-66.5 68t-51.5 89t-20.5 125q0 53 13.5 94.5t36 70t51.5 43.5t59 15q34 0 62 -20t45 -58v55h100v-321h-107v80q0 44 -5.5 74
t-14.5 48.5t-21.5 26.5t-27.5 8q-13 0 -25.5 -5.5t-22.5 -18.5t-16 -34.5t-6 -53.5q0 -61 20.5 -101t51.5 -72t66.5 -61.5t66.5 -68t51.5 -92.5t20.5 -134q0 -68 -17 -114.5t-42.5 -75t-55.5 -41t-55 -12.5q-48 0 -79 21.5t-54 60.5v-66h-101zM490 1300l-256 -219l-256 219
l60 62l196 -150l197 150z" />
    <glyph glyph-name="Tcommaaccent" unicode="&#x162;" horiz-adv-x="756" 
d="M41 942v432h674v-432h-109v322h-166v-1151h144v-113h-412v113h143v1151h-165v-322h-109zM376 -416h-100l39 273h143z" />
    <glyph glyph-name="tcommaaccent" unicode="&#x163;" horiz-adv-x="420" 
d="M295 94q29 0 50 14t40 31l55 -96q-11 -10 -26.5 -22t-36 -22t-45.5 -17t-53 -7q-82 0 -129.5 55.5t-47.5 168.5v641h-114v112h114v289h125v-289h166v-112h-166v-641q0 -54 17 -79.5t51 -25.5zM246 -416h-100l39 273h143z" />
    <glyph glyph-name="Tcaron" unicode="&#x164;" horiz-adv-x="756" 
d="M41 942v432h674v-432h-109v322h-166v-1151h144v-113h-412v113h143v1151h-165v-322h-109zM635 1695l-256 -219l-256 219l60 62l196 -150l197 150z" />
    <glyph glyph-name="tcaron" unicode="&#x165;" horiz-adv-x="504" 
d="M295 94q29 0 50 14t40 31l55 -96q-11 -10 -26.5 -22t-36 -22t-45.5 -17t-53 -7q-82 0 -129.5 55.5t-47.5 168.5v641h-114v112h114v289h125v-289h166v-112h-166v-641q0 -54 17 -79.5t51 -25.5zM401 1081h-100l39 273h143z" />
    <glyph glyph-name="Tbar" unicode="&#x166;" horiz-adv-x="756" 
d="M440 686v-573h144v-113h-412v113h143v573h-198v105h198v473h-165v-322h-109v432h674v-432h-109v322h-166v-473h197v-105h-197z" />
    <glyph glyph-name="tbar" unicode="&#x167;" horiz-adv-x="420" 
d="M227 557v-358q0 -54 17 -79.5t51 -25.5q29 0 50 14t40 31l55 -96q-11 -10 -26.5 -22t-36 -22t-45.5 -17t-53 -7q-82 0 -129.5 55.5t-47.5 168.5v358h-94v105h94v178h-114v112h114v289h125v-289h166v-112h-166v-178h154v-105h-154z" />
    <glyph glyph-name="Ugrave" unicode="&#xd9;" horiz-adv-x="821" 
d="M10 1374h371v-112h-123v-881q0 -69 4 -124t19 -93.5t46 -59t85 -20.5t84 20.5t45 59t18.5 93.5t3.5 124v881h-123v112h371v-112h-123v-897q0 -108 -14.5 -182.5t-47 -121t-85.5 -67.5t-129 -21q-77 0 -130 21t-86 67.5t-48 121t-15 182.5v897h-123v112zM266 1751
l268 -209l-43 -66l-291 176z" />
    <glyph glyph-name="ugrave" unicode="&#xf9;" horiz-adv-x="637" 
d="M612 0h-206v109q-15 -42 -32.5 -68.5t-37 -41.5t-41 -20.5t-43.5 -5.5q-29 0 -56 11t-48 38t-33.5 72.5t-12.5 114.5v631h-82v112h207v-680q0 -57 4 -93t11.5 -56.5t18.5 -28.5t24 -8q22 0 42 22t36.5 56.5t27.5 78t15 85.5v512h-103v112h227v-839h82v-113zM161 1356
l268 -209l-43 -66l-291 176z" />
    <glyph glyph-name="Uacute" unicode="&#xda;" horiz-adv-x="821" 
d="M10 1374h371v-112h-123v-881q0 -69 4 -124t19 -93.5t46 -59t85 -20.5t84 20.5t45 59t18.5 93.5t3.5 124v881h-123v112h371v-112h-123v-897q0 -108 -14.5 -182.5t-47 -121t-85.5 -67.5t-129 -21q-77 0 -130 21t-86 67.5t-48 121t-15 182.5v897h-123v112zM618 1652
l-291 -176l-43 66l269 209z" />
    <glyph glyph-name="uacute" unicode="&#xfa;" horiz-adv-x="637" 
d="M612 0h-206v109q-15 -42 -32.5 -68.5t-37 -41.5t-41 -20.5t-43.5 -5.5q-29 0 -56 11t-48 38t-33.5 72.5t-12.5 114.5v631h-82v112h207v-680q0 -57 4 -93t11.5 -56.5t18.5 -28.5t24 -8q22 0 42 22t36.5 56.5t27.5 78t15 85.5v512h-103v112h227v-839h82v-113zM513 1257
l-291 -176l-43 66l269 209z" />
    <glyph glyph-name="Ucircumflex" unicode="&#xdb;" horiz-adv-x="821" 
d="M10 1374h371v-112h-123v-881q0 -69 4 -124t19 -93.5t46 -59t85 -20.5t84 20.5t45 59t18.5 93.5t3.5 124v881h-123v112h371v-112h-123v-897q0 -108 -14.5 -182.5t-47 -121t-85.5 -67.5t-129 -21q-77 0 -130 21t-86 67.5t-48 121t-15 182.5v897h-123v112zM606 1476
l-197 150l-196 -150l-60 62l256 219l256 -219z" />
    <glyph glyph-name="ucircumflex" unicode="&#xfb;" horiz-adv-x="637" 
d="M612 0h-206v109q-15 -42 -32.5 -68.5t-37 -41.5t-41 -20.5t-43.5 -5.5q-29 0 -56 11t-48 38t-33.5 72.5t-12.5 114.5v631h-82v112h207v-680q0 -57 4 -93t11.5 -56.5t18.5 -28.5t24 -8q22 0 42 22t36.5 56.5t27.5 78t15 85.5v512h-103v112h227v-839h82v-113zM501 1081
l-197 150l-196 -150l-60 62l256 219l256 -219z" />
    <glyph glyph-name="Udieresis" unicode="&#xdc;" horiz-adv-x="821" 
d="M10 1374h371v-112h-123v-881q0 -69 4 -124t19 -93.5t46 -59t85 -20.5t84 20.5t45 59t18.5 93.5t3.5 124v881h-123v112h371v-112h-123v-897q0 -108 -14.5 -182.5t-47 -121t-85.5 -67.5t-129 -21q-77 0 -130 21t-86 67.5t-48 121t-15 182.5v897h-123v112zM200 1571
q0 32 22 54.5t54 22.5t55 -22.5t23 -54.5t-23 -54t-55 -22t-54 22t-22 54zM464 1571q0 32 22 54.5t54 22.5t55 -22.5t23 -54.5t-23 -54t-55 -22t-54 22t-22 54z" />
    <glyph glyph-name="udieresis" unicode="&#xfc;" horiz-adv-x="637" 
d="M612 0h-206v109q-15 -42 -32.5 -68.5t-37 -41.5t-41 -20.5t-43.5 -5.5q-29 0 -56 11t-48 38t-33.5 72.5t-12.5 114.5v631h-82v112h207v-680q0 -57 4 -93t11.5 -56.5t18.5 -28.5t24 -8q22 0 42 22t36.5 56.5t27.5 78t15 85.5v512h-103v112h227v-839h82v-113zM95 1176
q0 32 22 54.5t54 22.5t55 -22.5t23 -54.5t-23 -54t-55 -22t-54 22t-22 54zM359 1176q0 32 22 54.5t54 22.5t55 -22.5t23 -54.5t-23 -54t-55 -22t-54 22t-22 54z" />
    <glyph glyph-name="Utilde" unicode="&#x168;" horiz-adv-x="821" 
d="M10 1374h371v-112h-123v-881q0 -69 4 -124t19 -93.5t46 -59t85 -20.5t84 20.5t45 59t18.5 93.5t3.5 124v881h-123v112h371v-112h-123v-897q0 -108 -14.5 -182.5t-47 -121t-85.5 -67.5t-129 -21q-77 0 -130 21t-86 67.5t-48 121t-15 182.5v897h-123v112zM643 1706
q0 -26 -7.5 -64t-23 -73t-40.5 -59.5t-60 -24.5t-63 18.5t-51.5 41t-42.5 41.5t-36 19q-18 0 -29 -15t-16.5 -35t-7 -40t-2.5 -30h-88q0 25 7.5 62.5t23 73t41 60.5t61.5 25q34 0 62 -19t50.5 -41.5l41.5 -41.5t36 -19q18 0 29 15t16.5 35t7.5 40t3 31h88v0z" />
    <glyph glyph-name="utilde" unicode="&#x169;" horiz-adv-x="637" 
d="M612 0h-206v109q-15 -42 -32.5 -68.5t-37 -41.5t-41 -20.5t-43.5 -5.5q-29 0 -56 11t-48 38t-33.5 72.5t-12.5 114.5v631h-82v112h207v-680q0 -57 4 -93t11.5 -56.5t18.5 -28.5t24 -8q22 0 42 22t36.5 56.5t27.5 78t15 85.5v512h-103v112h227v-839h82v-113zM538 1311
q0 -26 -7.5 -64t-23 -73t-40.5 -59.5t-60 -24.5t-63 18.5t-51.5 41t-42.5 41.5t-36 19q-18 0 -29 -15t-16.5 -35t-7 -40t-2.5 -30h-88q0 25 7.5 62.5t23 73t41 60.5t61.5 25q34 0 62 -19t50.5 -41.5l41.5 -41.5t36 -19q18 0 29 15t16.5 35t7.5 40t3 31h88v0z" />
    <glyph glyph-name="Umacron" unicode="&#x16a;" horiz-adv-x="821" 
d="M10 1374h371v-112h-123v-881q0 -69 4 -124t19 -93.5t46 -59t85 -20.5t84 20.5t45 59t18.5 93.5t3.5 124v881h-123v112h371v-112h-123v-897q0 -108 -14.5 -182.5t-47 -121t-85.5 -67.5t-129 -21q-77 0 -130 21t-86 67.5t-48 121t-15 182.5v897h-123v112zM217 1507v105h385
v-105h-385z" />
    <glyph glyph-name="umacron" unicode="&#x16b;" horiz-adv-x="637" 
d="M612 0h-206v109q-15 -42 -32.5 -68.5t-37 -41.5t-41 -20.5t-43.5 -5.5q-29 0 -56 11t-48 38t-33.5 72.5t-12.5 114.5v631h-82v112h207v-680q0 -57 4 -93t11.5 -56.5t18.5 -28.5t24 -8q22 0 42 22t36.5 56.5t27.5 78t15 85.5v512h-103v112h227v-839h82v-113zM112 1112v105
h385v-105h-385z" />
    <glyph glyph-name="Ubreve" unicode="&#x16c;" horiz-adv-x="821" 
d="M10 1374h371v-112h-123v-881q0 -69 4 -124t19 -93.5t46 -59t85 -20.5t84 20.5t45 59t18.5 93.5t3.5 124v881h-123v112h371v-112h-123v-897q0 -108 -14.5 -182.5t-47 -121t-85.5 -67.5t-129 -21q-77 0 -130 21t-86 67.5t-48 121t-15 182.5v897h-123v112zM632 1706
q-6 -37 -19 -75.5t-38.5 -70t-65.5 -51.5t-100 -20t-100 20t-64.5 51.5t-37.5 70t-19 75.5h102q3 -18 10 -39t20.5 -39t35 -30.5t53.5 -12.5q34 0 56 12.5t36 30.5t21 39t10 39h100v0z" />
    <glyph glyph-name="ubreve" unicode="&#x16d;" horiz-adv-x="637" 
d="M612 0h-206v109q-15 -42 -32.5 -68.5t-37 -41.5t-41 -20.5t-43.5 -5.5q-29 0 -56 11t-48 38t-33.5 72.5t-12.5 114.5v631h-82v112h207v-680q0 -57 4 -93t11.5 -56.5t18.5 -28.5t24 -8q22 0 42 22t36.5 56.5t27.5 78t15 85.5v512h-103v112h227v-839h82v-113zM527 1311
q-6 -37 -19 -75.5t-38.5 -70t-65.5 -51.5t-100 -20t-100 20t-64.5 51.5t-37.5 70t-19 75.5h102q3 -18 10 -39t20.5 -39t35 -30.5t53.5 -12.5q34 0 56 12.5t36 30.5t21 39t10 39h100v0z" />
    <glyph glyph-name="Uring" unicode="&#x16e;" horiz-adv-x="821" 
d="M10 1374h371v-112h-123v-881q0 -69 4 -124t19 -93.5t46 -59t85 -20.5t84 20.5t45 59t18.5 93.5t3.5 124v881h-123v112h371v-112h-123v-897q0 -108 -14.5 -182.5t-47 -121t-85.5 -67.5t-129 -21q-77 0 -130 21t-86 67.5t-48 121t-15 182.5v897h-123v112zM221 1640
q0 39 15 73.5t40.5 60t60 40.5t73.5 15t73 -15t59.5 -40.5t40.5 -60t15 -73.5t-15 -73.5t-40.5 -60t-59.5 -40t-73 -14.5t-73.5 14.5t-60 40t-40.5 60t-15 73.5zM313 1640q0 -40 28 -68t69 -28q40 0 68 28t28 68t-28 68t-68 28q-41 0 -69 -28t-28 -68z" />
    <glyph glyph-name="uring" unicode="&#x16f;" horiz-adv-x="637" 
d="M612 0h-206v109q-15 -42 -32.5 -68.5t-37 -41.5t-41 -20.5t-43.5 -5.5q-29 0 -56 11t-48 38t-33.5 72.5t-12.5 114.5v631h-82v112h207v-680q0 -57 4 -93t11.5 -56.5t18.5 -28.5t24 -8q22 0 42 22t36.5 56.5t27.5 78t15 85.5v512h-103v112h227v-839h82v-113zM116 1245
q0 39 15 73.5t40.5 60t60 40.5t73.5 15t73 -15t59.5 -40.5t40.5 -60t15 -73.5t-15 -73.5t-40.5 -60t-59.5 -40t-73 -14.5t-73.5 14.5t-60 40t-40.5 60t-15 73.5zM208 1245q0 -40 28 -68t69 -28q40 0 68 28t28 68t-28 68t-68 28q-41 0 -69 -28t-28 -68z" />
    <glyph glyph-name="Uhungarumlaut" unicode="&#x170;" horiz-adv-x="821" 
d="M10 1374h371v-112h-123v-881q0 -69 4 -124t19 -93.5t46 -59t85 -20.5t84 20.5t45 59t18.5 93.5t3.5 124v881h-123v112h371v-112h-123v-897q0 -108 -14.5 -182.5t-47 -121t-85.5 -67.5t-129 -21q-77 0 -130 21t-86 67.5t-48 121t-15 182.5v897h-123v112zM488 1665
l-232 -189l-47 60l207 215zM713 1665l-231 -189l-48 60l207 215z" />
    <glyph glyph-name="uhungarumlaut" unicode="&#x171;" horiz-adv-x="637" 
d="M612 0h-206v109q-15 -42 -32.5 -68.5t-37 -41.5t-41 -20.5t-43.5 -5.5q-29 0 -56 11t-48 38t-33.5 72.5t-12.5 114.5v631h-82v112h207v-680q0 -57 4 -93t11.5 -56.5t18.5 -28.5t24 -8q22 0 42 22t36.5 56.5t27.5 78t15 85.5v512h-103v112h227v-839h82v-113zM381 1270
l-232 -189l-47 60l207 215zM606 1270l-231 -189l-48 60l207 215z" />
    <glyph glyph-name="Uogonek" unicode="&#x172;" horiz-adv-x="821" 
d="M10 1374h371v-112h-123v-881q0 -69 4 -124t19 -93.5t46 -59t85 -20.5t84 20.5t45 59t18.5 93.5t3.5 124v881h-123v112h371v-112h-123v-897q0 -99 -12 -170t-39.5 -118t-71.5 -71.5t-108 -30.5q-29 -38 -47.5 -80.5t-18.5 -95.5q0 -32 15.5 -48.5t39.5 -16.5q19 0 33 8
t27 20l33 -81q-26 -16 -57 -26.5t-66 -10.5q-65 0 -99 34.5t-34 102.5q0 48 21.5 98t55.5 96q-62 7 -105 32t-70 71.5t-39.5 117t-12.5 169.5v897h-123v112z" />
    <glyph glyph-name="uogonek" unicode="&#x173;" horiz-adv-x="637" 
d="M612 0q-28 -23 -53.5 -46t-45 -48t-31 -51.5t-11.5 -55.5q0 -32 15.5 -48.5t39.5 -16.5q19 0 33 8t27 20l32 -81q-26 -16 -56.5 -26.5t-65.5 -10.5q-65 0 -99.5 34.5t-34.5 102.5q0 28 11 58.5t30.5 59.5t47 55.5t59.5 45.5h-104v109q-15 -42 -32.5 -68.5t-37 -41.5
t-41 -20.5t-43.5 -5.5q-29 0 -56 11t-48 38t-33.5 72.5t-12.5 114.5v631h-82v112h207v-680q0 -57 4 -93t11.5 -56.5t18.5 -28.5t24 -8q22 0 42 22t36.5 56.5t27.5 78t15 85.5v512h-103v112h227v-839h82v-113z" />
    <glyph glyph-name="Wcircumflex" unicode="&#x174;" horiz-adv-x="1153" 
d="M6 1374h332v-112h-111l135 -916l166 1028h97l166 -1028l135 916h-111v112h332v-112h-100l-203 -1262h-96l-173 1036l-169 -1036h-97l-203 1262h-100v112zM772 1476l-197 150l-196 -150l-60 62l256 219l256 -219z" />
    <glyph glyph-name="wcircumflex" unicode="&#x175;" horiz-adv-x="885" 
d="M342 0h-127l-145 840h-66v112h256v-112h-65l88 -615l114 727h95l114 -727l88 615h-65v112h256v-112h-66l-145 -840h-127l-103 653zM641 1081l-197 150l-196 -150l-60 62l256 219l256 -219z" />
    <glyph glyph-name="Wgrave" unicode="&#x1e80;" horiz-adv-x="1153" 
d="M6 1374h332v-112h-111l135 -916l166 1028h97l166 -1028l135 916h-111v112h332v-112h-100l-203 -1262h-96l-173 1036l-169 -1036h-97l-203 1262h-100v112zM432 1751l268 -209l-43 -66l-291 176z" />
    <glyph glyph-name="wgrave" unicode="&#x1e81;" horiz-adv-x="885" 
d="M342 0h-127l-145 840h-66v112h256v-112h-65l88 -615l114 727h95l114 -727l88 615h-65v112h256v-112h-66l-145 -840h-127l-103 653zM301 1356l268 -209l-43 -66l-291 176z" />
    <glyph glyph-name="Wacute" unicode="&#x1e82;" horiz-adv-x="1153" 
d="M6 1374h332v-112h-111l135 -916l166 1028h97l166 -1028l135 916h-111v112h332v-112h-100l-203 -1262h-96l-173 1036l-169 -1036h-97l-203 1262h-100v112zM784 1652l-291 -176l-43 66l269 209z" />
    <glyph glyph-name="wacute" unicode="&#x1e83;" horiz-adv-x="885" 
d="M342 0h-127l-145 840h-66v112h256v-112h-65l88 -615l114 727h95l114 -727l88 615h-65v112h256v-112h-66l-145 -840h-127l-103 653zM653 1257l-291 -176l-43 66l269 209z" />
    <glyph glyph-name="Wdieresis" unicode="&#x1e84;" horiz-adv-x="1153" 
d="M6 1374h332v-112h-111l135 -916l166 1028h97l166 -1028l135 916h-111v112h332v-112h-100l-203 -1262h-96l-173 1036l-169 -1036h-97l-203 1262h-100v112zM366 1571q0 32 22 54.5t54 22.5t55 -22.5t23 -54.5t-23 -54t-55 -22t-54 22t-22 54zM630 1571q0 32 22 54.5
t54 22.5t55 -22.5t23 -54.5t-23 -54t-55 -22t-54 22t-22 54z" />
    <glyph glyph-name="wdieresis" unicode="&#x1e85;" horiz-adv-x="885" 
d="M342 0h-127l-145 840h-66v112h256v-112h-65l88 -615l114 727h95l114 -727l88 615h-65v112h256v-112h-66l-145 -840h-127l-103 653zM235 1176q0 32 22 54.5t54 22.5t55 -22.5t23 -54.5t-23 -54t-55 -22t-54 22t-22 54zM499 1176q0 32 22 54.5t54 22.5t55 -22.5t23 -54.5
t-23 -54t-55 -22t-54 22t-22 54z" />
    <glyph glyph-name="Yacute" unicode="&#xdd;" horiz-adv-x="817" 
d="M0 1374h371v-112h-113l152 -535l149 535h-113v112h371v-112h-125l-221 -680v-469h143v-113h-411v113h143v469l-221 680h-125v112zM618 1652l-291 -176l-43 66l269 209z" />
    <glyph glyph-name="yacute" unicode="&#xfd;" horiz-adv-x="586" 
d="M96 -414q-29 0 -52.5 7t-42 17t-33.5 22t-25 22l55 96q19 -17 39.5 -33t48.5 -16q31 0 52.5 18.5t38 57.5t30 99t29.5 142l-170 822h-66v112h258v-112h-65l102 -594l98 594h-65v112h258v-112h-66l-158 -770q-19 -93 -39 -180.5t-49 -155t-71.5 -108t-106.5 -40.5z
M503 1257l-291 -176l-43 66l269 209z" />
    <glyph glyph-name="Ycircumflex" unicode="&#x176;" horiz-adv-x="817" 
d="M0 1374h371v-112h-113l152 -535l149 535h-113v112h371v-112h-125l-221 -680v-469h143v-113h-411v113h143v469l-221 680h-125v112zM606 1476l-197 150l-196 -150l-60 62l256 219l256 -219z" />
    <glyph glyph-name="ycircumflex" unicode="&#x177;" horiz-adv-x="586" 
d="M96 -414q-29 0 -52.5 7t-42 17t-33.5 22t-25 22l55 96q19 -17 39.5 -33t48.5 -16q31 0 52.5 18.5t38 57.5t30 99t29.5 142l-170 822h-66v112h258v-112h-65l102 -594l98 594h-65v112h258v-112h-66l-158 -770q-19 -93 -39 -180.5t-49 -155t-71.5 -108t-106.5 -40.5z
M491 1081l-197 150l-196 -150l-60 62l256 219l256 -219z" />
    <glyph glyph-name="Ydieresis" unicode="&#x178;" horiz-adv-x="817" 
d="M0 1374h371v-112h-113l152 -535l149 535h-113v112h371v-112h-125l-221 -680v-469h143v-113h-411v113h143v469l-221 680h-125v112zM200 1571q0 32 22 54.5t54 22.5t55 -22.5t23 -54.5t-23 -54t-55 -22t-54 22t-22 54zM464 1571q0 32 22 54.5t54 22.5t55 -22.5t23 -54.5
t-23 -54t-55 -22t-54 22t-22 54z" />
    <glyph glyph-name="ydieresis" unicode="&#xff;" horiz-adv-x="586" 
d="M96 -414q-29 0 -52.5 7t-42 17t-33.5 22t-25 22l55 96q19 -17 39.5 -33t48.5 -16q31 0 52.5 18.5t38 57.5t30 99t29.5 142l-170 822h-66v112h258v-112h-65l102 -594l98 594h-65v112h258v-112h-66l-158 -770q-19 -93 -39 -180.5t-49 -155t-71.5 -108t-106.5 -40.5z
M85 1176q0 32 22 54.5t54 22.5t55 -22.5t23 -54.5t-23 -54t-55 -22t-54 22t-22 54zM349 1176q0 32 22 54.5t54 22.5t55 -22.5t23 -54.5t-23 -54t-55 -22t-54 22t-22 54z" />
    <glyph glyph-name="Ygrave" unicode="&#x1ef2;" horiz-adv-x="817" 
d="M0 1374h371v-112h-113l152 -535l149 535h-113v112h371v-112h-125l-221 -680v-469h143v-113h-411v113h143v469l-221 680h-125v112zM266 1751l268 -209l-43 -66l-291 176z" />
    <glyph glyph-name="ygrave" unicode="&#x1ef3;" horiz-adv-x="586" 
d="M96 -414q-29 0 -52.5 7t-42 17t-33.5 22t-25 22l55 96q19 -17 39.5 -33t48.5 -16q31 0 52.5 18.5t38 57.5t30 99t29.5 142l-170 822h-66v112h258v-112h-65l102 -594l98 594h-65v112h258v-112h-66l-158 -770q-19 -93 -39 -180.5t-49 -155t-71.5 -108t-106.5 -40.5z
M151 1356l268 -209l-43 -66l-291 176z" />
    <glyph glyph-name="Zacute" unicode="&#x179;" horiz-adv-x="618" 
d="M66 963v411h491v-88l-379 -1169h279v315h108v-432h-520v102l373 1155h-244v-294h-108zM524 1652l-291 -176l-43 66l269 209z" />
    <glyph glyph-name="zacute" unicode="&#x17a;" horiz-adv-x="516" 
d="M55 952h406v-98l-285 -737h184v213h107v-330h-422v102l283 734h-166v-185h-107v301zM470 1257l-291 -176l-43 66l269 209z" />
    <glyph glyph-name="Zdotaccent" unicode="&#x17b;" horiz-adv-x="618" 
d="M66 963v411h491v-88l-379 -1169h279v315h108v-432h-520v102l373 1155h-244v-294h-108zM235 1575q0 35 23 59.5t57 24.5q35 0 59.5 -24.5t24.5 -59.5q0 -34 -24.5 -57t-59.5 -23q-34 0 -57 23t-23 57z" />
    <glyph glyph-name="zdotaccent" unicode="&#x17c;" horiz-adv-x="516" 
d="M55 952h406v-98l-285 -737h184v213h107v-330h-422v102l283 734h-166v-185h-107v301zM181 1180q0 35 23 59.5t57 24.5q35 0 59.5 -24.5t24.5 -59.5q0 -34 -24.5 -57t-59.5 -23q-34 0 -57 23t-23 57z" />
    <glyph glyph-name="Zcaron" unicode="&#x17d;" horiz-adv-x="618" 
d="M66 963v411h491v-88l-379 -1169h279v315h108v-432h-520v102l373 1155h-244v-294h-108zM571 1695l-256 -219l-256 219l60 62l196 -150l197 150z" />
    <glyph glyph-name="zcaron" unicode="&#x17e;" horiz-adv-x="516" 
d="M55 952h406v-98l-285 -737h184v213h107v-330h-422v102l283 734h-166v-185h-107v301zM517 1300l-256 -219l-256 219l60 62l196 -150l197 150z" />
    <glyph glyph-name="zero" unicode="0" horiz-adv-x="682" 
d="M633 686q0 -188 -22 -323t-61 -221.5t-92.5 -127.5t-115.5 -41q-63 0 -116.5 41t-93 127.5t-61.5 221.5t-22 323q0 187 22 322t61.5 222t93 128t116.5 41q62 0 115.5 -41t92.5 -128t61 -222t22 -322zM506 686q0 161 -12.5 275.5t-34.5 187.5t-52 107t-65 34t-65.5 -34
t-53 -107t-35 -187.5t-12.5 -275.5t12.5 -275.5t35 -187.5t53 -107t65.5 -34t65 34t52 107.5t34.5 187.5t12.5 275z" />
    <glyph glyph-name="one" unicode="1" horiz-adv-x="467" 
d="M47 113h133v1151l-164 -103v111l164 102h123v-1261h133v-113h-389v113z" />
    <glyph glyph-name="two" unicode="2" horiz-adv-x="602" 
d="M20 0v84q90 127 161.5 243.5t121.5 230.5t76.5 231t26.5 245q0 50 -6.5 96t-20.5 81.5t-38 57t-58 21.5q-63 0 -95 -88t-32 -278h-127q0 130 21 220.5t55.5 147t80 82t93.5 25.5q62 0 109 -28t79 -78t48.5 -119t16.5 -150q0 -192 -88.5 -419.5t-269.5 -489.5h266v274h109
v-389h-529z" />
    <glyph glyph-name="three" unicode="3" horiz-adv-x="616" 
d="M328 854q80 -20 127.5 -68.5t72 -110t32 -128t7.5 -121.5q0 -108 -19 -192.5t-55 -142.5t-86.5 -88t-113.5 -30q-53 0 -99.5 25.5t-81.5 82.5t-55 147.5t-20 220.5h123q0 -191 34 -279t105 -88q39 0 66 27.5t43.5 74.5t24 109t7.5 131q0 75 -12 136.5t-38.5 105.5
t-69.5 68.5t-105 25.5v108l205 392h-248v-216h-109v330h498v-86z" />
    <glyph glyph-name="four" unicode="4" horiz-adv-x="651" 
d="M240 113h122v245h-337v105l299 911h159v-909h142v-107h-142v-245h123v-113h-366v113zM362 1178l-231 -713h231v713z" />
    <glyph glyph-name="five" unicode="5" horiz-adv-x="618" 
d="M182 834q32 37 67.5 49t74.5 12q57 0 102.5 -35t77 -97.5t48.5 -148.5t17 -188q0 -94 -15 -176.5t-46.5 -144t-81.5 -97t-119 -35.5q-51 -2 -98.5 23t-85 79.5t-60 141.5t-22.5 209h125q0 -175 40.5 -260.5t100.5 -85.5q34 0 59 25.5t42 71.5t25.5 109.5t8.5 139.5
q0 176 -35 269t-112 93q-45 0 -77.5 -29.5t-49.5 -88.5h-102l24 704h434v-114h-325z" />
    <glyph glyph-name="six" unicode="6" horiz-adv-x="641" 
d="M178 713q7 18 20.5 46t36 54.5t54.5 45t76 18.5q49 0 92 -28t74.5 -84t50 -140.5t18.5 -198.5q0 -94 -17.5 -176.5t-50.5 -144t-81 -97t-109 -35.5t-113.5 41.5t-91.5 125t-61.5 209.5t-22.5 296q0 174 17 313.5t52.5 237.5t90 150.5t129.5 52.5q48 0 91 -26.5
t75.5 -78.5t51 -129.5t18.5 -179.5h-123q0 149 -29.5 227t-89.5 78q-42 0 -72 -46.5t-49 -125.5t-28 -183.5t-9 -221.5zM340 768q-31 0 -56 -29t-44.5 -71t-32.5 -90t-19 -86q-2 -75 8.5 -148t31 -131.5t50 -94.5t64.5 -36q32 0 57 24.5t42 69.5t25.5 108.5t8.5 141.5
q0 80 -8 143.5t-24.5 107.5t-42 67.5t-60.5 23.5z" />
    <glyph glyph-name="seven" unicode="7" horiz-adv-x="539" 
d="M25 1004v370h530v-69q-125 -260 -194.5 -583t-69.5 -722h-131q0 243 27.5 439.5t66.5 351t82.5 270.5t75.5 199h-279v-256h-108z" />
    <glyph glyph-name="eight" unicode="8" horiz-adv-x="659" 
d="M428 750q91 -34 136.5 -132t45.5 -243q0 -89 -19 -163t-55 -127t-88 -82.5t-118 -29.5t-118 29.5t-88.5 82.5t-55.5 127t-19 163q0 72 12 134t35 110.5t57 83t78 51.5q-36 21 -62.5 54.5t-44 73t-26 83.5t-8.5 86q0 77 17 141t48.5 110t75.5 71.5t97 25.5t97 -25.5
t76 -71.5t50 -110t18 -141q0 -42 -8.5 -86.5t-26 -85t-44 -74.5t-62.5 -55zM446 1044q0 49 -6.5 94t-20 79.5t-36 54.5t-53.5 20q-32 0 -54.5 -20t-36.5 -54.5t-20 -79.5t-6 -94t7 -94t21.5 -79t36.5 -54t52 -20t52 20t36 54t21 79t7 94zM330 696q-73 0 -113.5 -81
t-40.5 -226q0 -144 39 -226.5t115 -82.5q75 0 114 82.5t39 226.5q0 72 -10.5 129t-30.5 96.5t-48.5 60.5t-63.5 21z" />
    <glyph glyph-name="nine" unicode="9" horiz-adv-x="641" 
d="M463 659q-7 -18 -20.5 -46t-36 -54t-54.5 -44.5t-76 -18.5q-49 0 -92 27.5t-74.5 83.5t-50 140.5t-18.5 198.5q0 94 17 176.5t50 144t81 97t110 35.5q61 0 113.5 -41.5t91.5 -125t61.5 -209.5t22.5 -296q0 -174 -17 -313.5t-52.5 -237.5t-90 -150.5t-129.5 -52.5
q-48 0 -91 26.5t-75.5 78.5t-51 129.5t-18.5 179.5h123q0 -149 29.5 -227t89.5 -78q42 0 72 46.5t49 125.5t28 183.5t9 221.5zM301 604q31 0 56 29t44.5 71t32.5 90t19 87q2 74 -8.5 147.5t-31 131.5t-50 94t-64.5 36q-32 0 -57 -24.5t-42 -69.5t-25.5 -108.5t-8.5 -141.5
q0 -80 8 -143.5t24.5 -107.5t42 -67.5t60.5 -23.5z" />
    <glyph glyph-name="dollar" unicode="$" horiz-adv-x="645" 
d="M49 0v418h107v-101q0 -51 10.5 -88.5t28 -63t39 -39.5t42.5 -20v562q-40 28 -78 59.5t-68 73.5t-48.5 99t-18.5 136q0 86 19 147.5t50 102t68.5 61t75.5 25.5v111h91v-121q50 -19 86 -70v82h106v-375h-106v93q0 38 -7.5 67t-20 49.5t-28 33.5t-30.5 20v-510
q41 -31 82 -65t73.5 -79t53 -105t20.5 -143q0 -98 -21.5 -164.5t-55.5 -108.5t-74.5 -62.5t-77.5 -24.5v-109h-91v117q-72 18 -120 88v-96h-107zM475 356q0 44 -8.5 79.5t-23 64.5t-34 53t-42.5 45v-481q22 10 41.5 29.5t34.5 49t23.5 69.5t8.5 91zM182 1036
q0 -74 26.5 -124.5t67.5 -88.5v432q-40 -21 -67 -75t-27 -144z" />
    <glyph glyph-name="cent" unicode="&#xa2;" horiz-adv-x="553" 
d="M399 860v31q0 82 -17.5 124.5t-39.5 57.5v-772q29 9 54 36.5t46 68.5l70 -66q-37 -62 -77 -99t-93 -48v-183h-82v183q-103 21 -156 147.5t-53 349.5q0 114 16 202.5t44.5 151.5t66.5 99t82 45v176h82v-186q20 -13 34.5 -30t22.5 -34v53h101v-307h-101zM178 692
q0 -74 3.5 -136t13 -110.5t25.5 -82t40 -50.5v758q-42 -34 -62 -132t-20 -247z" />
    <glyph glyph-name="sterling" unicode="&#xa3;" horiz-adv-x="686" 
d="M322 621q15 -48 25.5 -96t10.5 -105q0 -97 -27.5 -168t-72.5 -121q39 0 70 -8t57 -17.5t48.5 -17.5t45.5 -8q22 0 38.5 14t28 38t18.5 56t11 68h109q-5 -48 -17 -99t-35 -92t-57.5 -67.5t-82.5 -26.5q-34 0 -65 9t-62.5 20t-64.5 20t-71 9q-26 0 -46.5 -4.5t-37.5 -11
t-31.5 -14t-27.5 -13.5l-39 98q52 18 88.5 49t60 73t34 93t10.5 109q0 52 -15 103t-35 110h-149v100h121q-16 56 -25.5 121.5t-9.5 146.5q0 118 19.5 196.5t49.5 126t66.5 67.5t71.5 20q23 0 53.5 -17t54.5 -59v57h113v-417h-113v116q0 60 -9 100.5t-22 65t-28 35t-27 10.5
q-21 0 -40 -16t-33.5 -51t-22.5 -92t-8 -138q0 -87 10.5 -152.5t26.5 -119.5h215v-100h-182z" />
    <glyph glyph-name="yen" unicode="&#xa5;" horiz-adv-x="776" 
d="M451 373v-260h122v-113h-370v113h123v260h-244v108h244v101l-13 36h-231v109h201l-158 535h-105v112h330v-112h-96l135 -525l133 525h-96v112h330v-112h-105l-157 -535h200v-109h-233l-10 -36v-101h243v-108h-243z" />
    <glyph glyph-name="florin" unicode="&#x192;" horiz-adv-x="702" 
d="M307 831h-110v107h120l13 123q14 162 73.5 248t165.5 86q45 0 78.5 -18t54.5 -38l-55 -98q-17 20 -34.5 32.5t-39.5 12.5q-51 0 -80.5 -56t-37.5 -165l-13 -127h123v-107h-133l-61 -567q-14 -162 -74.5 -248t-165.5 -86q-45 0 -77 18t-54 38l55 98q17 -20 32 -32.5
t46 -12.5q48 0 75.5 56.5t37.5 168.5z" />
    <glyph glyph-name="Euro" unicode="&#x20ac;" horiz-adv-x="741" 
d="M123 618v68v78h-115l27 100h94q12 133 40 233.5t67 167.5t87.5 100.5t100.5 33.5q57 0 93.5 -28.5t64.5 -70.5v74h108v-391h-108v55q0 60 -11.5 106t-31 77.5t-44.5 48t-53 16.5q-39 0 -69.5 -29t-52.5 -83.5t-36 -133t-20 -176.5h297l-26 -100h-275v-78v-68h248
l-27 -100h-217q6 -101 19 -180.5t35 -135t52 -85t70 -29.5q36 0 62.5 26t46 65.5t33 85.5t24.5 87h115q-18 -89 -45.5 -159.5t-63.5 -119t-81 -74.5t-99 -26q-123 0 -203 136.5t-100 408.5h-121l27 100h88z" />
    <glyph glyph-name="currency" unicode="&#xa4;" horiz-adv-x="748" 
d="M598 877q25 -36 35 -74t10 -80q0 -43 -9.5 -81t-35.5 -73l109 -108l-70 -72l-111 111q-34 -22 -75 -34.5t-78 -12.5q-42 0 -80 11t-72 36l-110 -111l-70 72l111 110q-25 34 -36.5 72t-11.5 80q0 43 11 80.5t37 73.5l-111 110l70 70l110 -111q34 23 75 35t81 12
q42 0 79.5 -10t71.5 -35q26 26 54.5 55t54.5 54l70 -70zM250 598q25 -25 57 -36t66 -11q33 0 64.5 11.5t56.5 33t40 53.5t15 74q0 35 -14 66.5t-38 55.5t-56 38t-68 14q-37 0 -68.5 -14.5t-54.5 -38.5t-36 -55.5t-13 -65.5q0 -35 11.5 -67t37.5 -58z" />
    <glyph glyph-name="percent" unicode="%" horiz-adv-x="881" 
d="M270 0h-98l440 1374h97zM401 1049q0 -81 -13 -145.5t-36.5 -110.5t-55.5 -70.5t-71 -24.5q-38 0 -70.5 24.5t-56 70.5t-36.5 110.5t-13 145.5q0 82 13 147t36.5 110t56 69t70.5 24q39 0 71 -24t55.5 -69t36.5 -110t13 -147zM295 1049q0 53 -4 101t-12.5 84t-22 57.5
t-31.5 21.5q-19 0 -32 -21.5t-21.5 -57.5t-12 -84t-3.5 -101t3.5 -100.5t12 -84.5t21.5 -58.5t32 -21.5q18 0 31.5 21.5t22 58.5t12.5 84.5t4 100.5zM831 324q0 -81 -13 -145.5t-36.5 -110.5t-55.5 -70.5t-71 -24.5q-38 0 -70.5 24.5t-56 70.5t-36.5 110.5t-13 145.5
q0 82 13 147t36.5 110t56 69t70.5 24q39 0 71 -24t55.5 -69t36.5 -110t13 -147zM725 324q0 53 -4 101t-12.5 84t-21.5 57.5t-32 21.5t-32 -21.5t-21.5 -57.5t-12 -84t-3.5 -101t3.5 -100.5t12 -84.5t21.5 -58.5t32 -21.5t32 21.5t21.5 58.5t12.5 84.5t4 100.5z" />
    <glyph glyph-name="perthousand" unicode="&#x2030;" horiz-adv-x="1290" 
d="M1241 324q0 -81 -13 -145.5t-36.5 -110.5t-56 -70.5t-70.5 -24.5t-70.5 24.5t-56 70.5t-36.5 110.5t-13 145.5q0 82 13 147t36.5 110t56 69t70.5 24t70.5 -24t56 -69t36.5 -110t13 -147zM1135 324q0 53 -4 101t-12.5 84t-22 57.5t-31.5 21.5q-19 0 -32.5 -21.5
t-21.5 -57.5t-12 -84t-4 -101t4 -100.5t12 -84.5t21.5 -58.5t32.5 -21.5q18 0 31.5 21.5t22 58.5t12.5 84.5t4 100.5zM270 0h-98l440 1374h97zM401 1049q0 -81 -13 -145.5t-36.5 -110.5t-55.5 -70.5t-71 -24.5q-38 0 -70.5 24.5t-56 70.5t-36.5 110.5t-13 145.5q0 82 13 147
t36.5 110t56 69t70.5 24q39 0 71 -24t55.5 -69t36.5 -110t13 -147zM295 1049q0 53 -4 101t-12.5 84t-22 57.5t-31.5 21.5q-19 0 -32 -21.5t-21.5 -57.5t-12 -84t-3.5 -101t3.5 -100.5t12 -84.5t21.5 -58.5t32 -21.5q18 0 31.5 21.5t22 58.5t12.5 84.5t4 100.5zM831 324
q0 -81 -13 -145.5t-36.5 -110.5t-55.5 -70.5t-71 -24.5q-38 0 -70.5 24.5t-56 70.5t-36.5 110.5t-13 145.5q0 82 13 147t36.5 110t56 69t70.5 24q39 0 71 -24t55.5 -69t36.5 -110t13 -147zM725 324q0 53 -4 101t-12.5 84t-21.5 57.5t-32 21.5t-32 -21.5t-21.5 -57.5t-12 -84
t-3.5 -101t3.5 -100.5t12 -84.5t21.5 -58.5t32 -21.5t32 21.5t21.5 58.5t12.5 84.5t4 100.5z" />
    <glyph glyph-name="numbersign" unicode="#" horiz-adv-x="743" 
d="M551 891l-35 -406h123v-92h-131l-35 -393h-100l35 393h-123l-35 -393h-100l34 393h-123v92h129l37 406h-123v92h132l34 391h101l-35 -391h123l35 391h100l-35 -391h123v-92h-131zM328 891l-37 -406h125l35 406h-123z" />
    <glyph glyph-name="onesuperior" unicode="&#xb9;" horiz-adv-x="340" 
d="M31 594h90v694l-111 -65v86l111 65h98v-780h90v-86h-278v86z" />
    <glyph glyph-name="twosuperior" unicode="&#xb2;" horiz-adv-x="432" 
d="M31 508v63q61 80 106.5 151.5t76 141.5t45.5 142t15 153q0 26 -2.5 52.5t-9.5 47.5t-20.5 34.5t-34.5 13.5q-68 0 -68 -217h-102q0 81 14 138t37 93t53.5 52t63.5 16q42 0 74 -17.5t54 -49t33 -75t11 -94.5q0 -61 -12 -124.5t-38 -132.5t-68.5 -144t-102.5 -158h145v139
h86v-225h-356z" />
    <glyph glyph-name="threesuperior" unicode="&#xb3;" horiz-adv-x="438" 
d="M246 1047q52 -15 82 -46t45.5 -69.5t19.5 -80t4 -75.5q0 -137 -49.5 -210.5t-134.5 -73.5q-37 0 -68.5 16t-54.5 51t-36 92t-13 140h98q0 -120 19 -169t59 -49q22 0 37 15t24 42t13 64t4 80q0 48 -7 85t-23 63t-42.5 40t-64.5 15v78l131 231h-144v-127h-86v215h334v-74z
" />
    <glyph glyph-name="onequarter" unicode="&#xbc;" horiz-adv-x="850" 
d="M555 86h84v111h-227v63l200 469h123v-450h94v-82h-94v-111h82v-86h-262v86zM639 621l-137 -342h137v342zM41 731h90v557l-111 -65v86l111 65h98v-643h90v-86h-278v86zM248 0h-96l464 1374h97z" />
    <glyph glyph-name="onehalf" unicode="&#xbd;" horiz-adv-x="899" 
d="M41 731h90v557l-111 -65v86l111 65h98v-643h90v-86h-278v86zM248 0h-96l464 1374h97zM502 0v63q61 67 106.5 126.5t76 118t45.5 118t15 127.5q0 21 -3 41t-10.5 35t-19.5 24t-30 9q-15 0 -28 -9.5t-22.5 -31t-15.5 -57.5t-6 -89h-102q0 67 14 117t38 83.5t55.5 50.5
t66.5 17q41 0 72 -15.5t52 -42.5t31.5 -62t10.5 -74q0 -51 -12 -104t-38 -110t-68.5 -119t-102.5 -130h145v119h86v-205h-356z" />
    <glyph glyph-name="threequarters" unicode="&#xbe;" horiz-adv-x="891" 
d="M596 86h84v111h-227v63l200 469h123v-450h94v-82h-94v-111h82v-86h-262v86zM680 621l-137 -342h137v342zM289 0h-96l464 1374h97zM272 1090q42 -12 67 -37t38 -56t16.5 -64.5t3.5 -62.5q0 -57 -13.5 -101.5t-37 -75t-55.5 -46.5t-70 -16q-37 0 -69.5 12.5t-57 44
t-39 85.5t-14.5 136h98q0 -60 5 -98t15 -59.5t25 -30t35 -8.5q22 0 37 12t23.5 34t12 51t3.5 64q0 78 -29.5 114t-89.5 42v62l113 194h-144v-123h-86v211h334v-76z" />
    <glyph glyph-name="degree" unicode="&#xb0;" horiz-adv-x="471" 
d="M49 1198q0 39 14.5 73.5t39.5 60t58.5 40t71.5 14.5q39 0 73.5 -14.5t60 -40t40.5 -60t15 -73.5q0 -38 -15 -71.5t-40.5 -58.5t-60 -39.5t-73.5 -14.5q-38 0 -71.5 14.5t-58.5 39.5t-39.5 58.5t-14.5 71.5zM145 1198q0 -37 25.5 -62.5t62.5 -25.5q39 0 66 25.5t27 62.5
q0 19 -7 36t-20 29.5t-30 19.5t-36 7q-18 0 -34 -7t-28 -19.5t-19 -29.5t-7 -36z" />
    <glyph glyph-name="ordfeminine" unicode="&#xaa;" horiz-adv-x="438" 
d="M250 1053q-32 -5 -54 -16.5t-35.5 -31.5t-19.5 -49t-6 -69q0 -62 10 -89.5t35 -27.5q22 0 40.5 25.5t29.5 62.5v195zM49 1227q4 51 19.5 83t37.5 50.5t49 25.5t56 7q31 0 59 -8.5t48 -31.5t32 -63t12 -102v-395h52v-88h-164v47q-23 -32 -44.5 -49t-55.5 -17
q-25 0 -47.5 12.5t-40 37.5t-27.5 62t-10 85q0 69 16.5 113.5t46 72t71 40.5t91.5 19v60q0 36 -3.5 59.5t-9.5 37t-14 19t-18 5.5q-22 0 -35 -20.5t-18 -76.5zM45 496v92h358v-92h-358z" />
    <glyph glyph-name="ordmasculine" unicode="&#xba;" horiz-adv-x="449" 
d="M424 1038q0 -91 -15 -157.5t-42 -109.5t-63.5 -64t-78.5 -21q-43 0 -79.5 21t-63.5 64t-42 109.5t-15 157.5q0 92 15.5 159t42.5 110.5t63.5 64.5t78.5 21t78.5 -21t63.5 -64.5t42 -110.5t15 -159zM313 1038q0 138 -22 204.5t-66 66.5q-90 0 -90 -271q0 -268 90 -268
q88 0 88 268zM45 496v92h358v-92h-358z" />
    <glyph glyph-name="plus" unicode="+" 
d="M522 631v-285h-108v285h-281v108h281v285h108v-285h281v-108h-281z" />
    <glyph glyph-name="minus" unicode="&#x2212;" 
d="M133 631v108h670v-108h-670z" />
    <glyph glyph-name="equal" unicode="=" 
d="M113 801v108h710v-108h-710zM113 459v110h710v-110h-710z" />
    <glyph glyph-name="notequal" unicode="&#x2260;" 
d="M494 459l-91 -328h-110l90 328h-270v110h301l63 232h-364v108h393l92 328h111l-93 -328h207v-108h-235l-64 -232h299v-110h-329z" />
    <glyph glyph-name="approxequal" unicode="&#x2248;" 
d="M823 528q-29 -42 -72 -71t-102 -29q-44 0 -93 17t-98 37.5t-95.5 37.5t-83.5 17q-25 0 -48.5 -10t-45 -26.5t-40 -36.5t-32.5 -40v119q15 21 34 40t41.5 32.5t47 21.5t49.5 8q43 0 92.5 -17t99 -38t96 -38t84.5 -17q25 0 48.5 10t44.5 26.5t39.5 36.5t33.5 41v-121z
M823 825q-29 -42 -72 -71t-102 -29q-44 0 -93 17t-98 37.5t-95.5 37.5t-83.5 17q-25 0 -48.5 -10t-45 -26.5t-40 -36.5t-32.5 -40v119q15 21 34 40t41.5 32.5t47 21.5t49.5 8q43 0 92.5 -17.5t99 -38t96 -38t84.5 -17.5q25 0 48.5 10t44.5 26.5t39.5 37t33.5 41.5v-121z" />
    <glyph glyph-name="multiply" unicode="&#xd7;" 
d="M543 686l245 -246l-75 -75l-246 243l-242 -241l-78 77l244 242l-246 244l76 78l246 -246l242 242l77 -76z" />
    <glyph glyph-name="divide" unicode="&#xf7;" 
d="M133 631v108h670v-108h-670zM387 932q0 37 23 61.5t57 24.5q37 0 61.5 -24.5t24.5 -61.5q0 -34 -24.5 -57t-61.5 -23q-34 0 -57 23t-23 57zM387 432q0 37 23 61.5t57 24.5q37 0 61.5 -24.5t24.5 -61.5q0 -34 -24.5 -57t-61.5 -23q-34 0 -57 23t-23 57z" />
    <glyph glyph-name="logicalnot" unicode="&#xac;" 
d="M694 508v246h-561v108h670v-354h-109z" />
    <glyph glyph-name="plusminus" unicode="&#xb1;" 
d="M133 98v109h670v-109h-670zM522 631v-285h-108v285h-281v108h281v285h108v-285h281v-108h-281z" />
    <glyph glyph-name="less" unicode="&#x3c;" 
d="M813 322l-700 315v94l700 316v-113l-555 -250l555 -248v-114z" />
    <glyph glyph-name="greater" unicode="&#x3e;" 
d="M123 1047l700 -316v-94l-700 -315v112l555 250l-555 248v115z" />
    <glyph glyph-name="lessequal" unicode="&#x2264;" 
d="M133 98v109h670v-109h-670zM803 322l-670 315v94l670 316v-113l-524 -250l524 -248v-114z" />
    <glyph glyph-name="greaterequal" unicode="&#x2265;" 
d="M133 98v109h670v-109h-670zM133 436l524 248l-524 250v113l670 -316v-94l-670 -315v114z" />
    <glyph glyph-name="fraction" unicode="&#x2044;" horiz-adv-x="188" 
d="M-90 0h-96l465 1374h96z" />
    <glyph glyph-name="uni2215" unicode="&#x2215;" horiz-adv-x="188" 
d="M-90 0h-96l465 1374h96z" />
    <glyph glyph-name="bar" unicode="|" horiz-adv-x="266" 
d="M82 -483v2048h102v-2048h-102z" />
    <glyph glyph-name="brokenbar" unicode="&#xa6;" horiz-adv-x="266" 
d="M82 672v758h102v-758h-102zM82 -352v758h102v-758h-102z" />
    <glyph glyph-name="at" unicode="@" horiz-adv-x="1165" 
d="M684 436q-11 -19 -27 -39t-37.5 -36t-48.5 -26.5t-59 -10.5q-37 0 -70 13t-58.5 42.5t-40.5 78t-15 120.5q0 100 27.5 187t70 151t95.5 100.5t104 36.5q18 0 34.5 -5.5t30.5 -13.5t25 -18.5t18 -20.5l8 43h119l-72 -432q-2 -14 -4.5 -29t-4 -28t-2.5 -22.5t-1 -12.5
q0 -45 17.5 -67.5t46.5 -22.5q31 0 58.5 28.5t48 78t32.5 115.5t12 142q0 124 -27 220t-76.5 161.5t-119 99.5t-154.5 34q-93 0 -173 -50.5t-138.5 -138.5t-91.5 -207t-33 -256q0 -133 29.5 -238.5t84.5 -179t133 -112.5t175 -39q27 0 58.5 5.5t65.5 18t68.5 32.5t67.5 50
l51 -110q-80 -59 -164 -83t-174 -24q-116 0 -212 46.5t-165 134t-107 213.5t-38 286t44.5 299t121.5 242.5t179.5 163t219.5 59.5q111 0 203 -44.5t157.5 -126t101.5 -196.5t36 -255q0 -92 -21 -176.5t-59 -149.5t-91.5 -104t-117.5 -39q-17 0 -36.5 5t-39 17.5t-36.5 34
t-29 55.5zM545 418q28 0 58.5 28t53.5 97l56 344q-8 26 -28 48.5t-52 22.5q-28 0 -59 -30t-57.5 -81t-44 -119t-17.5 -144q0 -49 6.5 -81t18.5 -51t28.5 -26.5t36.5 -7.5z" />
    <glyph glyph-name="bullet" unicode="&#x2022;" horiz-adv-x="510" 
d="M102 733q0 31 12 59t32.5 49t48 33.5t59.5 12.5q31 0 59 -12.5t49 -33.5t33.5 -49t12.5 -59q0 -32 -12.5 -59.5t-33.5 -47.5t-49 -32t-59 -12q-32 0 -59.5 12t-48 32t-32.5 47.5t-12 59.5z" />
    <glyph glyph-name="asciicircum" unicode="^" horiz-adv-x="434" 
d="M295 825l-78 351l-78 -351h-108l137 549h98l137 -549h-108z" />
    <glyph glyph-name="asciitilde" unicode="~" 
d="M844 678q-15 -21 -36 -39t-46.5 -31.5t-54.5 -21.5t-58 -8q-44 0 -92 17t-96 37t-94.5 37t-87.5 17q-25 0 -52 -10t-52.5 -26t-47 -36.5t-35.5 -40.5v119q15 22 37.5 40.5t49 32.5t54 22t52.5 8q43 0 91.5 -17.5t97.5 -38t95.5 -38t87.5 -17.5q25 0 51.5 10t52 26.5
t47 37t36.5 41.5v-121v0z" />
    <glyph glyph-name="slash" unicode="/" horiz-adv-x="477" 
d="M162 -41h-117l270 1477h117z" />
    <glyph glyph-name="backslash" unicode="\" horiz-adv-x="477" 
d="M45 1436h117l270 -1477h-117z" />
    <glyph glyph-name="quotesingle" unicode="'" horiz-adv-x="205" 
d="M61 969l-20 405h123l-21 -405h-82z" />
    <glyph glyph-name="quotedbl" unicode="&#x22;" horiz-adv-x="389" 
d="M61 969l-20 405h123l-21 -405h-82zM246 969l-21 405h123l-20 -405h-82z" />
    <glyph glyph-name="ampersand" unicode="&#x26;" horiz-adv-x="862" 
d="M809 313q-16 -157 -69.5 -244t-135.5 -87q-21 0 -37.5 4t-31.5 12.5t-30 20.5t-32 28q-37 -38 -79 -56t-101 -18q-50 0 -94.5 20t-77.5 63t-52.5 111t-19.5 165q0 68 13 128.5t34.5 113.5t49.5 99t59 85q-11 38 -22 81.5t-20 88t-14.5 88.5t-5.5 84q0 78 15.5 134.5
t43 93t64.5 54t80 17.5q37 0 70 -17.5t57.5 -49t38.5 -77t14 -100.5q0 -68 -17.5 -127.5t-44.5 -112t-60 -97.5t-64 -83q15 -57 32.5 -119t36.5 -124.5t38.5 -121.5t39.5 -110q16 40 28.5 84t21.5 88t15 87t9 81h-98v113h311v-113h-102q-7 -51 -17 -110.5t-25 -120t-36 -119
t-49 -109.5q17 -24 33.5 -39.5t31.5 -15.5q21 0 37.5 16t28.5 46t20.5 72t14.5 93h98zM311 78q32 0 58 15t51 46q-29 57 -56 128t-49.5 140.5t-40.5 129t-28 94.5q-32 -45 -53 -121t-21 -170q0 -51 8.5 -98.5t25.5 -84t43.5 -58t61.5 -21.5zM262 1102q0 -62 12 -128t27 -116
q29 37 49.5 69t33 65t18.5 70t6 85q0 27 -3.5 53.5t-11.5 47t-20 33.5t-29 13q-34 0 -58 -44t-24 -148z" />
    <glyph glyph-name="parenleft" unicode="(" horiz-adv-x="440" 
d="M195 684q0 -113 13 -222.5t36.5 -208t56.5 -183t74 -146.5l-82 -65q-51 70 -93 160.5t-72 196t-46 223.5t-16 245t16 245t46 223.5t72 195.5t93 161l82 -65q-41 -62 -74 -146.5t-56.5 -183t-36.5 -208t-13 -222.5z" />
    <glyph glyph-name="parenright" unicode=")" horiz-adv-x="440" 
d="M246 684q0 113 -13 222.5t-36.5 208t-57 183t-73.5 146.5l81 65q52 -71 94 -161t72 -195.5t46 -223.5t16 -245t-16 -245t-46 -223.5t-72 -196t-94 -160.5l-81 65q40 62 73.5 146.5t57 183t36.5 208t13 222.5z" />
    <glyph glyph-name="bracketleft" unicode="[" horiz-adv-x="453" 
d="M102 -121v1610h254v-107h-129v-1396h129v-107h-254z" />
    <glyph glyph-name="bracketright" unicode="]" horiz-adv-x="453" 
d="M96 -121v107h129v1396h-129v107h254v-1610h-254z" />
    <glyph glyph-name="braceleft" unicode="{" horiz-adv-x="442" 
d="M123 354q0 75 -3.5 128t-14.5 87t-31.5 50t-55.5 16h-20v102h20q36 0 56.5 16.5t31.5 51t14 88t3 127.5v164q0 93 10 152.5t32 93t55.5 46.5t80.5 13h59v-107h-34q-20 0 -34.5 -4t-24 -20t-14.5 -49t-5 -90v-199q0 -56 -1.5 -110t-13.5 -99t-38.5 -78t-75.5 -47
q48 -15 74.5 -47.5t38.5 -77.5t14 -99t2 -110v-202q0 -58 5 -90.5t14.5 -49t24 -20.5t34.5 -4h34v-107h-59q-47 0 -80.5 13t-55.5 47t-32 93t-10 152v170z" />
    <glyph glyph-name="braceright" unicode="}" horiz-adv-x="442" 
d="M319 184q0 -93 -10 -152t-32 -93t-55.5 -47t-80.5 -13h-59v107h35q19 0 33.5 4t24.5 20.5t15 49t5 90.5v202q0 56 2 110t14 99t38.5 77.5t74.5 47.5q-49 14 -75.5 47t-38.5 78t-13.5 99t-1.5 110v199q0 57 -5 90t-15 49t-24.5 20t-33.5 4h-35v107h59q47 0 80.5 -13
t55.5 -46.5t32 -93t10 -152.5v-164q0 -74 3 -127.5t14 -88t32 -51t56 -16.5h20v-102h-20q-35 0 -55.5 -16t-31.5 -50t-14.5 -87t-3.5 -128v-170z" />
    <glyph glyph-name="asterisk" unicode="*" horiz-adv-x="645" 
d="M539 938l-179 109q2 -47 5.5 -98t5.5 -97h-97l11 197q-44 -26 -88.5 -56t-87.5 -55l-48 76l185 98q-47 25 -93.5 51t-91.5 49l48 76l176 -106q-2 46 -5.5 96.5t-5.5 95.5h97l-11 -192q45 26 90 53.5t89 52.5l45 -76l-187 -100q45 -23 92.5 -48t94.5 -50z" />
    <glyph glyph-name="dagger" unicode="&#x2020;" horiz-adv-x="573" 
d="M41 1006h184v368h123v-368h184v-115h-184v-914h-123v914h-184v115z" />
    <glyph glyph-name="daggerdbl" unicode="&#x2021;" horiz-adv-x="573" 
d="M41 1006h184v368h123v-368h184v-115h-184v-316h184v-114h-184v-484h-123v484h-184v114h184v316h-184v115z" />
    <glyph glyph-name="section" unicode="&#xa7;" horiz-adv-x="543" 
d="M387 408q31 -38 51.5 -86t20.5 -113q0 -60 -16.5 -104.5t-44 -73.5t-64.5 -43.5t-78 -14.5t-73.5 14t-58 38t-43.5 54.5t-30 63.5l103 58q7 -24 16.5 -46.5t22 -40t28.5 -28t37 -10.5q37 0 59.5 35.5t22.5 91.5t-21.5 98t-54 78t-70 69.5t-70 71.5t-54 85t-21.5 110
q0 46 8.5 83t24 67t36 53.5t44.5 42.5q-29 37 -50.5 85.5t-21.5 114.5q0 57 15.5 101t41.5 74t60.5 45.5t73.5 15.5q33 0 62 -13t52.5 -35t41.5 -51.5t30 -62.5l-100 -57q-5 18 -13 38.5t-19 38t-24 28.5t-28 11q-29 0 -51.5 -34t-22.5 -93q0 -54 21 -95t53 -76.5t68.5 -69
t68.5 -72.5t53 -87t21 -112q0 -47 -8.5 -83.5t-23 -66t-34 -53t-41.5 -44.5zM373 627q0 52 -13.5 89.5t-35 67.5t-48.5 56t-55 55q-8 -9 -17 -21.5t-16.5 -30t-12.5 -42t-5 -58.5q0 -53 14 -90t36 -66.5t49.5 -55.5t54.5 -56q17 20 33 59t16 93z" />
    <glyph glyph-name="paragraph" unicode="&#xb6;" horiz-adv-x="709" 
d="M195 0v92h102v582q-48 0 -94 16t-82 55.5t-58 107t-22 171.5q0 103 23.5 171t62.5 107.5t88.5 55.5t101.5 16h347v-92h-103v-1190h103v-92h-469zM387 92h84v1190h-84v-1190z" />
    <glyph glyph-name="copyright" unicode="&#xa9;" horiz-adv-x="1538" 
d="M1456 686q0 -95 -24.5 -182.5t-69 -164t-107.5 -139t-139.5 -107t-164.5 -69t-183 -24.5q-142 0 -267 54t-218 147t-147 218t-54 267q0 95 24.5 183t69 164.5t107 139.5t139 107.5t164 69t182.5 24.5t183 -24.5t164.5 -69t139.5 -107.5t107.5 -139.5t69 -164.5t24.5 -183
zM176 686q0 -123 46.5 -231t126.5 -188t188 -126.5t231 -46.5q124 0 232.5 46.5t189.5 126.5t127.5 188t46.5 231q0 124 -46.5 232.5t-127.5 189.5t-189.5 127.5t-232.5 46.5q-123 0 -231 -46.5t-188 -127.5t-126.5 -189.5t-46.5 -232.5zM760 272q-62 0 -119 24.5
t-100.5 75.5t-70 129.5t-26.5 186.5q0 103 26 180.5t69.5 129.5t101 78t121.5 26q59 0 98 -18.5t68 -43.5v47h98v-290h-98v53q0 34 -12.5 64t-34 52.5t-50 35t-59.5 12.5q-52 0 -90 -24t-62.5 -67t-36.5 -103t-12 -132t12 -132t36.5 -103t62.5 -67t90 -24q41 0 70 14.5
t48.5 37t31.5 49.5t20 51h107q-14 -54 -39.5 -98.5t-61.5 -76.5t-83.5 -49.5t-104.5 -17.5z" />
    <glyph glyph-name="registered" unicode="&#xae;" horiz-adv-x="1174" 
d="M1092 893q0 -105 -39.5 -196.5t-108.5 -160t-161 -108t-197 -39.5t-196.5 39.5t-160 108t-108 160t-39.5 196.5t39.5 197.5t108 161t160 108t196.5 39.5t197 -39.5t161 -108t108.5 -161t39.5 -197.5zM162 893q0 -89 33 -166t90.5 -134.5t134.5 -90.5t166 -33t166.5 33
t135.5 90.5t91 134.5t33 166t-33 166.5t-91 135.5t-135.5 91t-166.5 33t-166 -33t-134.5 -91t-90.5 -135.5t-33 -166.5zM647 674h49l-110 172h-21h-41v-172h82v-68h-256v68h84v446h-84v68h262q179 0 179 -168q0 -65 -25.5 -108t-91.5 -58l117 -180h77v-68h-221v68zM694 1020
q0 57 -21.5 78.5t-78.5 21.5h-70v-205h70q57 0 78.5 24.5t21.5 80.5z" />
    <glyph glyph-name="trademark" unicode="&#x2122;" horiz-adv-x="1024" 
d="M49 1186v188h363v-188h-70v125h-72v-469h70v-66h-219v66h69v469h-71v-125h-70zM436 1374h189l82 -401l79 401h189v-65h-57v-467h57v-66h-189v66h52v434l-107 -500h-51l-107 502v-436h52v-66h-189v66h60v467h-60v65z" />
    <glyph glyph-name="period" unicode="." horiz-adv-x="309" 
d="M49 94q0 22 8 42t22 34t33 22.5t42 8.5q22 0 41.5 -8.5t33.5 -22.5t22.5 -34t8.5 -42q0 -45 -30.5 -74.5t-75.5 -29.5q-23 0 -42 8t-33 22t-22 33t-8 41z" />
    <glyph glyph-name="comma" unicode="," horiz-adv-x="309" 
d="M49 94q0 22 8 42t22 34t33 22.5t42 8.5q46 0 76 -31t30 -88q0 -42 -11 -84t-30 -81t-43.5 -73.5t-52.5 -62.5l-57 47q32 35 57 73.5t33 88.5q-29 0 -49.5 9t-33.5 24t-18.5 33.5t-5.5 37.5z" />
    <glyph glyph-name="colon" unicode=":" horiz-adv-x="391" 
d="M90 94q0 22 8 42t22 34t33 22.5t42 8.5q22 0 41.5 -8.5t33.5 -22.5t22.5 -34t8.5 -42q0 -45 -30.5 -74.5t-75.5 -29.5q-23 0 -42 8t-33 22t-22 33t-8 41zM90 709q0 22 8 41.5t22 33.5t33 22.5t42 8.5q45 0 75.5 -30.5t30.5 -75.5q0 -23 -8.5 -42t-22.5 -33t-33.5 -22
t-41.5 -8q-45 0 -75 30t-30 75z" />
    <glyph glyph-name="semicolon" unicode=";" horiz-adv-x="391" 
d="M90 709q0 22 8 41.5t22 33.5t33 22.5t42 8.5q45 0 75.5 -30.5t30.5 -75.5q0 -23 -8.5 -42t-22.5 -33t-33.5 -22t-41.5 -8q-45 0 -75 30t-30 75zM90 94q0 22 8 42t22 34t33 22.5t42 8.5q46 0 76 -31t30 -88q0 -42 -11 -84t-30 -81t-43.5 -73.5t-52.5 -62.5l-58 47
q33 35 58 73.5t33 88.5q-29 0 -49.5 9t-33.5 24t-18.5 33.5t-5.5 37.5z" />
    <glyph glyph-name="exclam" unicode="!" horiz-adv-x="391" 
d="M238 328h-84l-29 829v166q0 29 15.5 52.5t54.5 23.5q38 0 54.5 -23.5t16.5 -52.5v-166zM90 94q0 22 8 42t22 34t33 22.5t42 8.5q22 0 41.5 -8.5t33.5 -22.5t22.5 -34t8.5 -42q0 -45 -30.5 -74.5t-75.5 -29.5q-23 0 -42 8t-33 22t-22 33t-8 41z" />
    <glyph glyph-name="exclamdown" unicode="&#xa1;" horiz-adv-x="391" 
d="M154 713h84l28 -830v-166q0 -29 -15.5 -52t-53.5 -23q-39 0 -55.5 23t-16.5 52v166zM301 946q0 -45 -29.5 -75.5t-74.5 -30.5q-23 0 -42.5 8.5t-33.5 22.5t-22.5 33.5t-8.5 41.5t8.5 41.5t22.5 33.5t33.5 22t42.5 8q22 0 41 -8t33 -22t22 -33.5t8 -41.5z" />
    <glyph glyph-name="question" unicode="?" horiz-adv-x="545" 
d="M268 1290q-49 0 -72.5 -82t-23.5 -243h-127q0 114 14 196.5t42.5 135t71 77.5t99.5 25q43 0 82 -21.5t68.5 -69.5t47 -124t17.5 -185q0 -115 -18.5 -194.5t-46.5 -131.5t-61 -80.5t-62 -41.5v-223h-121v297q39 6 72 28.5t57 67t37.5 114.5t13.5 171q0 85 -7.5 140t-20 87
t-28.5 44.5t-34 12.5zM129 94q0 22 8 42t22 34t33 22.5t41 8.5t42 -8.5t34 -22.5t22.5 -34t8.5 -42t-8.5 -41t-22.5 -33t-34 -22t-42 -8q-45 0 -74.5 29.5t-29.5 74.5z" />
    <glyph glyph-name="questiondown" unicode="&#xbf;" horiz-adv-x="545" 
d="M264 -250q50 0 73 82.5t23 243.5h127q0 -114 -14 -196.5t-42.5 -135t-71 -77.5t-99.5 -25q-43 0 -82 21.5t-68.5 69t-47 123.5t-17.5 185q0 115 18.5 194.5t46.5 131.5t61 80.5t62 41.5v224h121v-297q-38 -6 -71 -29t-57 -67.5t-38 -114.5t-14 -170q0 -86 7.5 -141
t20 -87t28.5 -44.5t34 -12.5zM403 946q0 -45 -29.5 -75.5t-74.5 -30.5t-75.5 30.5t-30.5 75.5q0 22 8.5 41.5t22.5 33.5t33.5 22t41.5 8t41 -8t33 -22t22 -33.5t8 -41.5z" />
    <glyph glyph-name="quoteleft" unicode="&#x2018;" horiz-adv-x="272" 
d="M231 1110q0 -40 -27 -68t-67 -28q-42 0 -69 27.5t-27 78.5q0 39 10 77t27 73.5t39 66.5t47 56l53 -43q-29 -31 -51.5 -66t-30.5 -80q26 0 44.5 -8t30 -21.5t16.5 -30t5 -34.5z" />
    <glyph glyph-name="quoteright" unicode="&#x2019;" horiz-adv-x="272" 
d="M41 1278q0 40 27 68t67 28q42 0 69 -27.5t27 -78.5q0 -39 -10 -77t-26.5 -73.5t-39 -66.5t-46.5 -56l-54 43q29 31 51.5 66t30.5 80q-26 0 -44 8t-29.5 21.5t-17 30t-5.5 34.5z" />
    <glyph glyph-name="quotedblleft" unicode="&#x201c;" horiz-adv-x="508" 
d="M231 1110q0 -40 -27 -68t-67 -28q-42 0 -69 27.5t-27 78.5q0 39 10 77t27 73.5t39 66.5t47 56l53 -43q-29 -31 -51.5 -66t-30.5 -80q26 0 44.5 -8t30 -21.5t16.5 -30t5 -34.5zM467 1110q0 -40 -27 -68t-67 -28q-42 0 -69.5 27.5t-27.5 78.5q0 39 10 77t27 73.5t39.5 66.5
t46.5 56l54 -43q-29 -31 -51.5 -66t-30.5 -80q26 0 44 -8t29.5 -21.5t17 -30t5.5 -34.5z" />
    <glyph glyph-name="quotedblright" unicode="&#x201d;" horiz-adv-x="508" 
d="M276 1278q0 40 27 68t68 28q42 0 69 -27.5t27 -78.5q0 -39 -10 -77t-27 -73.5t-39 -66.5t-47 -56l-53 43q29 31 51.5 66t30.5 80q-26 0 -44.5 8t-30 21.5t-17 30t-5.5 34.5zM41 1278q0 40 27 68t67 28q42 0 69 -27.5t27 -78.5q0 -39 -10 -77t-26.5 -73.5t-39 -66.5
t-46.5 -56l-54 43q29 31 51.5 66t30.5 80q-26 0 -44 8t-29.5 21.5t-17 30t-5.5 34.5z" />
    <glyph glyph-name="quotesinglbase" unicode="&#x201a;" horiz-adv-x="272" 
d="M41 94q0 40 27 68t67 28q42 0 69 -27.5t27 -78.5q0 -38 -10 -76.5t-26.5 -73.5t-39 -66.5t-46.5 -55.5l-54 43q29 31 51.5 65.5t30.5 79.5q-26 0 -44 8t-29.5 21.5t-17 30t-5.5 34.5z" />
    <glyph glyph-name="quotedblbase" unicode="&#x201e;" horiz-adv-x="508" 
d="M276 94q0 40 27 68t68 28q42 0 69 -27.5t27 -78.5q0 -38 -10 -76.5t-27 -73.5t-39 -66.5t-47 -55.5l-53 43q29 31 51.5 65.5t30.5 79.5q-26 0 -44.5 8t-30 21.5t-17 30t-5.5 34.5zM41 94q0 40 27 68t67 28q42 0 69 -27.5t27 -78.5q0 -38 -10 -76.5t-26.5 -73.5t-39 -66.5
t-46.5 -55.5l-54 43q29 31 51.5 65.5t30.5 79.5q-26 0 -44 8t-29.5 21.5t-17 30t-5.5 34.5z" />
    <glyph glyph-name="guilsinglleft" unicode="&#x2039;" horiz-adv-x="356" 
d="M31 444v91l209 329l86 -59l-201 -316l201 -315l-86 -59z" />
    <glyph glyph-name="guilsinglright" unicode="&#x203a;" horiz-adv-x="356" 
d="M326 535v-91l-209 -329l-86 59l200 315l-200 316l86 59z" />
    <glyph glyph-name="guillemotleft" unicode="&#xab;" horiz-adv-x="602" 
d="M31 444v91l209 329l86 -59l-201 -316l201 -315l-86 -59zM276 444v91l209 329l86 -59l-200 -316l200 -315l-86 -59z" />
    <glyph glyph-name="guillemotright" unicode="&#xbb;" horiz-adv-x="602" 
d="M571 535v-91l-209 -329l-86 59l201 315l-201 316l86 59zM326 535v-91l-209 -329l-86 59l200 315l-200 316l86 59z" />
    <glyph glyph-name="periodcentered" unicode="&#xb7;" horiz-adv-x="309" 
d="M49 672q0 22 8 41.5t22 33.5t33 22.5t42 8.5q45 0 75.5 -30.5t30.5 -75.5q0 -23 -8.5 -42t-22.5 -33t-33.5 -22t-41.5 -8q-45 0 -75 30t-30 75z" />
    <glyph glyph-name="ellipsis" unicode="&#x2026;" horiz-adv-x="928" 
d="M49 94q0 22 8 42t22 34t33 22.5t42 8.5q22 0 41.5 -8.5t33.5 -22.5t22.5 -34t8.5 -42q0 -45 -30.5 -74.5t-75.5 -29.5q-23 0 -42 8t-33 22t-22 33t-8 41zM358 94q0 22 8 42t22 34t33 22.5t42 8.5q22 0 41.5 -8.5t33.5 -22.5t22.5 -34t8.5 -42q0 -45 -30.5 -74.5
t-75.5 -29.5q-23 0 -42 8t-33 22t-22 33t-8 41zM668 94q0 22 8 42t22 34t33 22.5t41 8.5t41.5 -8.5t34 -22.5t23 -34t8.5 -42q0 -45 -31 -74.5t-76 -29.5t-74.5 29.5t-29.5 74.5z" />
    <glyph glyph-name="hyphen" unicode="-" horiz-adv-x="463" 
d="M66 424v123h331v-123h-331z" />
    <glyph glyph-name="uni00AD" unicode="&#xad;" horiz-adv-x="463" 
d="M66 424v123h331v-123h-331z" />
    <glyph glyph-name="endash" unicode="&#x2013;" horiz-adv-x="819" 
d="M61 430v111h697v-111h-697z" />
    <glyph glyph-name="emdash" unicode="&#x2014;" horiz-adv-x="1229" 
d="M0 430v111h1229v-111h-1229z" />
    <glyph glyph-name="underscore" unicode="_" horiz-adv-x="512" 
d="M0 -250v115h512v-115h-512z" />
    <glyph glyph-name="grave" unicode="`" horiz-adv-x="614" 
d="M164 1356l268 -209l-43 -66l-291 176z" />
    <glyph glyph-name="acute" unicode="&#xb4;" horiz-adv-x="614" 
d="M516 1257l-291 -176l-43 66l269 209z" />
    <glyph glyph-name="dieresis" unicode="&#xa8;" horiz-adv-x="614" 
d="M98 1176q0 32 22 54.5t54 22.5t55 -22.5t23 -54.5t-23 -54t-55 -22t-54 22t-22 54zM362 1176q0 32 22 54.5t54 22.5t55 -22.5t23 -54.5t-23 -54t-55 -22t-54 22t-22 54z" />
    <glyph glyph-name="macron" unicode="&#xaf;" horiz-adv-x="614" 
d="M115 1112v105h385v-105h-385z" />
    <glyph glyph-name="cedilla" unicode="&#xb8;" horiz-adv-x="614" 
d="M334 -98q21 0 46 -7t47 -23.5t37 -44t15 -69.5q0 -45 -16.5 -75.5t-43 -49t-59 -26.5t-63.5 -8q-63 0 -108 16.5t-70 30.5l49 88q23 -19 53 -32t64 -13q43 0 67.5 19t24.5 50q0 19 -8 32t-21.5 20.5t-30 10.5t-34.5 3q-30 0 -58 -6l49 202h88z" />
    <glyph glyph-name="circumflex" unicode="&#x2c6;" horiz-adv-x="614" 
d="M504 1081l-197 150l-196 -150l-60 62l256 219l256 -219z" />
    <glyph glyph-name="caron" unicode="&#x2c7;" horiz-adv-x="614" 
d="M563 1300l-256 -219l-256 219l60 62l196 -150l197 150z" />
    <glyph glyph-name="breve" unicode="&#x2d8;" horiz-adv-x="614" 
d="M530 1311q-6 -37 -19 -75.5t-38.5 -70t-65.5 -51.5t-100 -20t-100 20t-64.5 51.5t-37.5 70t-19 75.5h102q3 -18 10 -39t20.5 -39t35 -30.5t53.5 -12.5q34 0 56 12.5t36 30.5t21 39t10 39h100v0z" />
    <glyph glyph-name="dotaccent" unicode="&#x2d9;" horiz-adv-x="614" 
d="M225 1180q0 35 23 59.5t57 24.5q35 0 59.5 -24.5t24.5 -59.5q0 -34 -24.5 -57t-59.5 -23q-34 0 -57 23t-23 57z" />
    <glyph glyph-name="ring" unicode="&#x2da;" horiz-adv-x="614" 
d="M135 1245q0 39 15 73.5t40.5 60t60 40.5t73.5 15t73 -15t59.5 -40.5t40.5 -60t15 -73.5t-15 -73.5t-40.5 -60t-59.5 -40t-73 -14.5t-73.5 14.5t-60 40t-40.5 60t-15 73.5zM227 1245q0 -40 28 -68t69 -28q40 0 68 28t28 68t-28 68t-68 28q-41 0 -69 -28t-28 -68z" />
    <glyph glyph-name="ogonek" unicode="&#x2db;" horiz-adv-x="614" 
d="M373 20q-21 -24 -39.5 -49t-33 -52t-22.5 -56.5t-8 -63.5q0 -32 15.5 -48.5t40.5 -16.5q18 0 32.5 8t26.5 20l33 -81q-26 -16 -57 -26.5t-66 -10.5q-65 0 -99 34.5t-34 102.5q0 30 9 61t25 62t36.5 60t43.5 56h97z" />
    <glyph glyph-name="tilde" unicode="&#x2dc;" horiz-adv-x="614" 
d="M541 1311q0 -26 -7.5 -64t-23 -73t-40.5 -59.5t-60 -24.5t-63 18.5t-51.5 41t-42.5 41.5t-36 19q-18 0 -29 -15t-16.5 -35t-7 -40t-2.5 -30h-88q0 25 7.5 62.5t23 73t41 60.5t61.5 25q34 0 62 -19t50.5 -41.5l41.5 -41.5t36 -19q18 0 29 15t16.5 35t7.5 40t3 31h88v0z
" />
    <glyph glyph-name="hungarumlaut" unicode="&#x2dd;" horiz-adv-x="614" 
d="M330 1270l-232 -189l-47 60l207 215zM555 1270l-231 -189l-48 60l207 215z" />
    <glyph glyph-name="commaaccent" unicode="&#x326;" horiz-adv-x="614" 
d="M315 -416h-100l39 273h143z" />
    <glyph glyph-name="uni0315" unicode="&#x315;" horiz-adv-x="182" 
d="M100 1081h-100l39 273h143z" />
    <glyph glyph-name="space" unicode=" " horiz-adv-x="340" 
 />
    <glyph glyph-name="nonbreakingspace" unicode="&#xa0;" horiz-adv-x="340" 
 />
    <glyph glyph-name="micro" unicode="&#xb5;" horiz-adv-x="645" 
d="M260 958l-76 -636q10 -110 27 -165t49 -55q24 0 45 22t38.5 58t30 83t19.5 97l70 596h121l-72 -596q-5 -42 -5.5 -75t1.5 -62q2 -34 7.5 -62.5t13.5 -54.5t17.5 -52.5t20.5 -55.5h-118q-8 18 -13.5 31t-10 28t-9 35.5t-10.5 52.5q-36 -90 -70.5 -130t-77.5 -40
q-29 0 -57.5 27.5t-46.5 99.5l-58 -514h-116l161 1368h119z" />
    <glyph glyph-name="mu" unicode="&#x3bc;" horiz-adv-x="645" 
d="M260 958l-76 -636q10 -110 27 -165t49 -55q24 0 45 22t38.5 58t30 83t19.5 97l70 596h121l-72 -596q-5 -42 -5.5 -75t1.5 -62q2 -34 7.5 -62.5t13.5 -54.5t17.5 -52.5t20.5 -55.5h-118q-8 18 -13.5 31t-10 28t-9 35.5t-10.5 52.5q-36 -90 -70.5 -130t-77.5 -40
q-29 0 -57.5 27.5t-46.5 99.5l-58 -514h-116l161 1368h119z" />
    <glyph glyph-name="partialdiff" unicode="&#x2202;" horiz-adv-x="651" 
d="M307 1290q-29 0 -55.5 -21t-50.5 -48l-68 84q12 12 33 28t48 31t59.5 25t68.5 10q65 0 113.5 -43t80 -121t47 -188t15.5 -244q0 -204 -24 -359.5t-66.5 -260t-101 -157.5t-127.5 -53q-56 0 -98.5 32t-72 88.5t-44.5 133t-15 166.5q0 118 23 208t59 151.5t80.5 93
t87.5 31.5q35 0 62 -13t48 -34.5t36.5 -49t27.5 -55.5q0 121 -6 224t-24 179t-50.5 119t-85.5 43zM311 768q-35 0 -60.5 -28t-42.5 -77.5t-25.5 -118t-8.5 -149.5q0 -68 7.5 -125.5t22 -99t35.5 -65t48 -23.5q34 0 63.5 39.5t52 104t37.5 146t21 165.5q-9 32 -24.5 72
t-36 75.5t-43.5 59.5t-46 24z" />
    </font>
</defs>
</svg>
